<svg width="16" height="16" viewBox="0 0 16 16" fill="none" xmlns="http://www.w3.org/2000/svg">
<path fill-rule="evenodd" clip-rule="evenodd" d="M1.8906 4.20442C1.3342 4.57535 1 5.19981 1 5.86852V14C1 14.5523 1.44772 15 2 15H5.5C5.77614 15 6 14.7761 6 14.5V10.5C6 10.2239 6.22386 10 6.5 10H9.5C9.77614 10 10 10.2239 10 10.5V14.5C10 14.7761 10.2239 15 10.5 15H14C14.5523 15 15 14.5523 15 14V5.86852C15 5.19981 14.6658 4.57535 14.1094 4.20442L8.55467 1.16795C8.21877 0.944017 7.78117 0.944017 7.44527 1.16795L1.8906 4.20442Z" fill="black"/>
</svg>
