<svg width="48" height="48" viewBox="0 0 48 48" fill="none" xmlns="http://www.w3.org/2000/svg">
<rect width="48" height="48" rx="12" fill="url(#paint0_linear)"/>
<path d="M12.1624 21.3712C12.13 21.3193 12.1087 21.2615 12.0998 21.2013C12.091 21.141 12.0949 21.0797 12.1111 21.0209C12.7552 18.5291 14.196 16.3032 16.2239 14.6672C17.8093 13.3914 19.7049 12.5374 21.727 12.1876C23.7492 11.8379 25.8295 12.0043 27.7666 12.6708C27.8247 12.6912 27.878 12.7228 27.9233 12.7637C27.9687 12.8046 28.0051 12.854 28.0305 12.909C28.0776 13.0212 28.0776 13.1471 28.0305 13.2593L27.4399 14.7978C27.4007 14.9073 27.3186 14.9972 27.2117 15.0477C27.1047 15.0982 26.9817 15.1051 26.8695 15.067C25.3486 14.5486 23.7168 14.4219 22.1313 14.6993C20.5458 14.9766 19.0601 15.6485 17.8176 16.6503C16.2431 17.9384 15.1248 19.6795 14.6222 21.6252C14.5972 21.7211 14.5404 21.8062 14.4606 21.8671C14.3808 21.928 14.2826 21.9612 14.1814 21.9617H14.0788L12.4588 21.581C12.399 21.5672 12.3428 21.5417 12.2935 21.5059C12.2442 21.4702 12.2028 21.4251 12.1719 21.3732" fill="white"/>
<path d="M35.677 25.1944C35.6396 25.1473 35.5927 25.108 35.5394 25.079C35.486 25.05 35.4272 25.0318 35.3665 25.0255L33.7094 24.856C33.5919 24.8451 33.4746 24.879 33.3821 24.9507C33.2896 25.0224 33.2291 25.1263 33.2132 25.2406C32.9181 27.4412 31.8399 29.4701 30.1676 30.9716C28.88 32.1393 27.2828 32.93 25.5578 33.2537C23.8328 33.5773 22.0495 33.421 20.4111 32.8023C20.3563 32.7813 20.2977 32.771 20.2388 32.7721C20.18 32.7732 20.1219 32.7856 20.0679 32.8086C20.0139 32.8317 19.9651 32.8649 19.9243 32.9064C19.8834 32.9478 19.8514 32.9968 19.8299 33.0504L19.1839 34.5895C19.1595 34.6447 19.147 34.7042 19.147 34.7643C19.147 34.8245 19.1595 34.884 19.1839 34.9392C19.2062 34.9956 19.2406 35.0467 19.2847 35.0891C19.3288 35.1316 19.3817 35.1643 19.4397 35.1853C20.8246 35.7187 22.3002 35.9916 23.7888 35.9895C26.7985 35.9894 29.6971 34.8779 31.9037 32.8775C34.0306 30.9499 35.3947 28.3516 35.7567 25.5388C35.7651 25.4791 35.7611 25.4183 35.7449 25.3601C35.7287 25.3019 35.7005 25.2476 35.6622 25.2004" fill="white"/>
<path d="M26.5274 27.4327V25.7749C26.5281 25.6555 26.4804 25.5408 26.3948 25.4557C26.3092 25.3706 26.1925 25.3222 26.0704 25.321H12.521C12.3995 25.323 12.2837 25.3719 12.1988 25.4568C12.1139 25.5418 12.0667 25.6561 12.0674 25.7749V27.4327C12.0669 27.4919 12.0783 27.5505 12.101 27.6054C12.1236 27.6602 12.1572 27.7101 12.1996 27.7523C12.242 27.7944 12.2926 27.828 12.3483 27.8511C12.404 27.8741 12.4639 27.8862 12.5244 27.8866H26.0704C26.1309 27.8862 26.1908 27.8741 26.2465 27.8511C26.3022 27.828 26.3527 27.7944 26.3952 27.7523C26.4376 27.7101 26.4712 27.6602 26.4938 27.6054C26.5165 27.5505 26.5279 27.4919 26.5274 27.4327Z" fill="white"/>
<path d="M21.315 19.7556V21.4135C21.3139 21.5321 21.3609 21.6464 21.4456 21.7314C21.5303 21.8164 21.6459 21.8653 21.7673 21.8674H35.3153C35.3758 21.8669 35.4356 21.8547 35.4912 21.8316C35.5469 21.8085 35.5973 21.7749 35.6397 21.7328C35.682 21.6906 35.7155 21.6408 35.7382 21.586C35.7608 21.5312 35.7722 21.4726 35.7716 21.4135V19.7556C35.7688 19.6389 35.7196 19.5278 35.6345 19.4459C35.5493 19.364 35.4348 19.3177 35.3153 19.3169H21.7653C21.6439 19.319 21.5282 19.3678 21.4435 19.4528C21.3588 19.5379 21.3119 19.6521 21.313 19.7708" fill="white"/>
<path d="M31.2178 14.2595C30.9431 14.2549 30.6731 14.3301 30.4421 14.4756C30.2111 14.621 30.0294 14.8301 29.92 15.0764C29.8106 15.3227 29.7784 15.5952 29.8275 15.8595C29.8766 16.1237 30.0047 16.3678 30.1957 16.5608C30.3867 16.7538 30.632 16.8872 30.9006 16.944C31.1691 17.0008 31.4489 16.9785 31.7044 16.8799C31.96 16.7812 32.1799 16.6108 32.3364 16.39C32.4928 16.1693 32.5787 15.9081 32.5833 15.6396C32.5833 15.6324 32.5833 15.6244 32.5833 15.6172C32.5855 15.2603 32.443 14.9172 32.1869 14.6627C31.9309 14.4083 31.5822 14.2633 31.2171 14.2595" fill="white"/>
<path d="M16.1377 30.6755C15.863 30.6709 15.593 30.7461 15.3621 30.8916C15.1311 31.037 14.9494 31.2461 14.84 31.4924C14.7306 31.7387 14.6984 32.0112 14.7474 32.2755C14.7965 32.5397 14.9246 32.7838 15.1156 32.9768C15.3067 33.1698 15.5519 33.3032 15.8205 33.36C16.089 33.4168 16.3688 33.3945 16.6244 33.2959C16.8799 33.1973 17.0998 33.0268 17.2563 32.806C17.4127 32.5853 17.4987 32.3241 17.5032 32.0556V32.0325C17.5049 31.676 17.3623 31.3333 17.1065 31.0791C16.8507 30.8249 16.5025 30.6798 16.1377 30.6755Z" fill="white"/>
<defs>
<linearGradient id="paint0_linear" x1="24" y1="0" x2="24" y2="48" gradientUnits="userSpaceOnUse">
<stop stop-color="#6BC7A5"/>
<stop offset="1" stop-color="#41AA83"/>
</linearGradient>
</defs>
</svg>
