<svg width="48" height="48" viewBox="0 0 48 48" fill="none" xmlns="http://www.w3.org/2000/svg">
<rect width="48" height="48" rx="12" fill="url(#paint0_linear)"/>
<path fill-rule="evenodd" clip-rule="evenodd" d="M15.7436 23.8804C15.7436 26.0237 14.0101 27.7609 11.8718 27.7609C9.73348 27.7609 8 26.0237 8 23.8804C8 21.7372 9.73348 20 11.8718 20C14.0101 20 15.7436 21.7372 15.7436 23.8804Z" fill="white"/>
<path fill-rule="evenodd" clip-rule="evenodd" d="M28.6327 24.1191C28.6327 25.6349 27.4067 26.8637 25.8942 26.8637C24.3817 26.8637 23.1555 25.6349 23.1555 24.1191C23.1555 22.6033 24.3817 21.3745 25.8942 21.3745C27.4067 21.3745 28.6327 22.6033 28.6327 24.1191Z" fill="white"/>
<path fill-rule="evenodd" clip-rule="evenodd" d="M38.7311 23.995C38.7311 24.6832 38.1745 25.2411 37.4878 25.2411C36.8012 25.2411 36.2445 24.6832 36.2445 23.995C36.2445 23.3068 36.8012 22.7488 37.4878 22.7488C38.1745 22.7488 38.7311 23.3068 38.7311 23.995Z" fill="white"/>
<defs>
<linearGradient id="paint0_linear" x1="24" y1="0" x2="24" y2="48" gradientUnits="userSpaceOnUse">
<stop stop-color="#186AFF"/>
<stop offset="1" stop-color="#155BDB"/>
</linearGradient>
</defs>
</svg>
