<svg width="48" height="48" viewBox="0 0 40 40" fill="none" xmlns="http://www.w3.org/2000/svg">
  <rect width="40" height="40" rx="10" fill="url(#publishing_amazon_s3_bg)"/>
  <path fill-rule="evenodd" clip-rule="evenodd" d="M20 8L10 11V27.5L20 32L30 27.5V11L20 8ZM20 10.1L27.6 12.4L20 14.7L12.4 12.4L20 10.1ZM11.5 13.4L19.25 15.75V29.9L11.5 26.4V13.4ZM20.75 29.9V15.75L28.5 13.4V26.4L20.75 29.9Z" fill="#FF9900"/>
  <path d="M14.5 18.5L17 19.25V23.25L14.5 22.5V18.5Z" fill="#FF9900" opacity="0.85"/>
  <path d="M25.5 18.5L23 19.25V23.25L25.5 22.5V18.5Z" fill="#FF9900" opacity="0.85"/>
  <defs>
    <linearGradient id="publishing_amazon_s3_bg" x1="20" y1="0" x2="20" y2="40" gradientUnits="userSpaceOnUse">
      <stop stop-color="#232F3E"/>
      <stop offset="1" stop-color="#131A22"/>
    </linearGradient>
  </defs>
</svg>
