<svg width="48" height="48" viewBox="0 0 48 48" fill="none" xmlns="http://www.w3.org/2000/svg">
<rect width="48" height="48" rx="12" fill="url(#paint0_linear)"/>
<path d="M21.7941 14.9565C21.9069 14.9565 22.0084 15.0192 22.0976 15.1388C22.3216 15.4917 22.7086 16.2833 23.2811 18.0518C23.6728 19.2617 24.1002 20.7606 24.5524 22.5093C22.8369 22.4824 21.1013 22.4624 19.4207 22.443L18.5696 22.4331C19.531 18.6155 20.7041 15.7183 21.5613 15.0343C21.616 14.9989 21.701 14.9565 21.7941 14.9565Z" fill="white"/>
<path fill-rule="evenodd" clip-rule="evenodd" d="M24 40C32.8366 40 40 32.8363 40 24C40 15.1634 32.8366 8 24 8C15.1634 8 8 15.1634 8 24C8 32.8363 15.1634 40 24 40ZM35.138 22.8026C35.528 22.8806 35.8175 23.2231 35.8175 23.6341C35.8175 23.8969 35.6957 24.134 35.5049 24.2904L35.5031 24.2919L35.5014 24.2933C35.484 24.3075 35.4663 24.3206 35.448 24.3332C35.4423 24.3374 35.4365 24.3415 35.4304 24.3454C35.4182 24.3534 35.4056 24.3608 35.3928 24.3682C35.3812 24.3749 35.37 24.382 35.3581 24.3881L35.3558 24.3891C35.2382 24.4508 35.1043 24.4864 34.9619 24.4864H27.3831C27.4393 24.7187 27.5 24.9804 27.5657 25.2644L27.5817 25.3333C27.9972 27.127 29.1008 31.8914 30.2728 31.8914L30.2956 31.892L30.3084 31.8901L30.3309 31.8904C31.2466 31.8901 31.7141 30.5664 32.738 27.6662L32.7505 27.6312C32.915 27.1653 33.1007 26.6397 33.3015 26.0839L33.3529 25.9418L33.3536 25.9422C33.4059 25.8034 33.5396 25.7047 33.6967 25.7047C33.8991 25.7047 34.0633 25.8689 34.0633 26.0713C34.0633 26.1083 34.0578 26.1436 34.0476 26.177L34.0051 26.3197C33.8982 26.6651 33.7847 27.1351 33.6537 27.6794L33.6532 27.6812C33.0424 30.211 32.1202 34.0308 29.7549 34.0308H29.7375C28.2091 34.0186 27.2945 31.5756 26.9037 30.5317L26.9035 30.5311C26.1729 28.5796 25.6199 26.5002 25.0869 24.4864H18.1105L16.6622 29.1216L16.6413 29.1049C16.5086 29.3131 16.2763 29.4467 16.0199 29.4467C15.6157 29.4467 15.2851 29.1178 15.2832 28.7133L15.2842 28.6882L15.3719 28.1639C15.572 26.9729 15.8117 25.7365 16.0851 24.4864H13.139L13.128 24.4752C12.5931 24.3981 12.1825 23.9264 12.1825 23.3764C12.1825 22.8369 12.5642 22.3782 13.0901 22.285C13.1383 22.2786 13.2357 22.2702 13.4349 22.2702C13.4773 22.2702 13.5248 22.2705 13.5778 22.2715C14.5118 22.2876 15.5023 22.3027 16.5889 22.3165C18.1269 16.0681 19.9078 12.8964 21.8834 12.8874C24.0035 12.8874 25.5759 17.7147 26.8347 22.4363L26.8398 22.4553C29.4262 22.507 32.1831 22.5825 34.863 22.7743L34.9751 22.7849C35.0182 22.7855 35.0602 22.7897 35.1017 22.7965L35.1174 22.7981C35.1219 22.7987 35.1264 22.8003 35.1309 22.801C35.1335 22.8016 35.1357 22.8023 35.138 22.8026Z" fill="white"/>
<defs>
<linearGradient id="paint0_linear" x1="24" y1="0" x2="24" y2="48" gradientUnits="userSpaceOnUse">
<stop stop-color="#1207B0"/>
<stop offset="1" stop-color="#0E058C"/>
</linearGradient>
</defs>
</svg>
