<svg width="48" height="48" viewBox="0 0 48 48" fill="none" xmlns="http://www.w3.org/2000/svg">
  <rect width="48" height="48" rx="12" fill="url(#paint0_linear)"/>
  <path d="M38.2521 37.0151H32.1378C31.8721 37.0199 31.611 36.9456 31.3877 36.8017C31.1644 36.6577 30.989 36.4506 30.8838 36.2066L24.246 20.6864C24.2287 20.626 24.1923 20.5728 24.1424 20.5346C24.0924 20.4964 24.0315 20.4754 23.9686 20.4746C23.9058 20.4738 23.8443 20.4932 23.7934 20.5301C23.7425 20.5669 23.7048 20.6192 23.6859 20.6791L19.5492 30.5333C19.5268 30.5866 19.5179 30.6446 19.5233 30.7022C19.5287 30.7598 19.5483 30.8151 19.5803 30.8633C19.6122 30.9115 19.6557 30.951 19.7066 30.9784C19.7576 31.0057 19.8145 31.02 19.8724 31.02H24.4194C24.5571 31.02 24.6918 31.0606 24.8066 31.1366C24.9215 31.2127 25.0114 31.3209 25.0651 31.4477L27.0558 35.8779C27.1086 36.0022 27.1297 36.1376 27.1174 36.2721C27.105 36.4066 27.0596 36.5359 26.9851 36.6485C26.9105 36.7612 26.8093 36.8536 26.6904 36.9175C26.5714 36.9815 26.4385 37.015 26.3035 37.0151H9.75017C9.62567 37.0143 9.50328 36.9828 9.39392 36.9233C9.28456 36.8638 9.19162 36.7781 9.12339 36.674C9.05517 36.5698 9.01377 36.4504 9.00289 36.3264C8.99201 36.2024 9.01198 36.0776 9.06104 35.9631L19.5902 10.8889C19.6978 10.6235 19.8829 10.3968 20.1214 10.2382C20.3599 10.0796 20.6406 9.99668 20.927 10.0001H26.9999C27.2863 9.99633 27.5672 10.0792 27.8058 10.2378C28.0444 10.3964 28.2294 10.6233 28.3368 10.8889L38.9388 35.9631C38.9879 36.0774 39.0079 36.202 38.9972 36.3258C38.9864 36.4497 38.9453 36.569 38.8773 36.6731C38.8093 36.7772 38.7167 36.8629 38.6076 36.9226C38.4985 36.9822 38.3764 37.014 38.2521 37.0151V37.0151Z" fill="white"/>
  <defs>
    <linearGradient id="paint0_linear" x1="24" y1="0" x2="24" y2="48" gradientUnits="userSpaceOnUse">
      <stop stop-color="#E80E00"/>
      <stop offset="1" stop-color="#FF2E21"/>
    </linearGradient>
  </defs>
</svg>
