<svg width="48" height="48" viewBox="0 0 48 48" fill="none" xmlns="http://www.w3.org/2000/svg">
<rect width="48" height="48" rx="12" fill="url(#paint0_linear)"/>
<path fill-rule="evenodd" clip-rule="evenodd" d="M23.5168 21.9113C22.2264 24.0805 20.9901 26.1812 19.7281 28.266C19.4039 28.8012 19.2436 29.2372 19.5025 29.9176C20.2173 31.7971 19.2089 33.6261 17.3136 34.1226C15.5262 34.591 13.7847 33.4162 13.4301 31.5026C13.1158 29.8087 14.4303 28.1482 16.2977 27.8835C16.4543 27.8611 16.6139 27.8585 16.877 27.8388C17.7921 26.3043 18.7295 24.7326 19.7177 23.0753C17.931 21.2987 16.8676 19.2218 17.103 16.6484C17.2694 14.8293 17.9846 13.2573 19.2921 11.9688C21.7963 9.50143 25.6166 9.10183 28.565 10.9957C31.3969 12.8149 32.6938 16.3584 31.5883 19.3913C30.7547 19.1653 29.9153 18.9374 28.9925 18.6871C29.3397 17.0009 29.0829 15.4866 27.9457 14.1895C27.1943 13.333 26.2302 12.8841 25.1338 12.7187C22.936 12.3867 20.778 13.7987 20.1378 15.9559C19.4109 18.4043 20.5109 20.4043 23.5168 21.9113Z" fill="#FF0EB4"/>
<path fill-rule="evenodd" clip-rule="evenodd" d="M27.202 19.346C28.1111 20.9497 29.0342 22.5777 29.949 24.1908C34.5731 22.7602 38.0594 25.3199 39.3102 28.0604C40.8208 31.3707 39.7882 35.2915 36.8212 37.3338C33.7758 39.4304 29.9245 39.0721 27.2263 36.379C27.914 35.8034 28.605 35.2251 29.3434 34.6075C32.0084 36.3336 34.3391 36.2523 36.0696 34.2083C37.5451 32.4647 37.5131 29.8649 35.9948 28.1578C34.2425 26.1879 31.8954 26.1278 29.0582 28.0188C27.8813 25.9308 26.6839 23.8595 25.5442 21.7564C25.16 21.0476 24.7356 20.6364 23.8696 20.4864C22.4231 20.2356 21.4893 18.9935 21.4333 17.6019C21.3782 16.2256 22.1889 14.9816 23.4563 14.4969C24.7116 14.0167 26.1848 14.4043 27.0292 15.4716C27.7192 16.3437 27.9385 17.3251 27.5754 18.4006C27.4745 18.7004 27.3437 18.9906 27.202 19.346Z" fill="white"/>
<path fill-rule="evenodd" clip-rule="evenodd" d="M29.3748 32.4565C27.5463 32.4565 25.7111 32.4565 23.8083 32.4565C23.2747 34.651 22.1223 36.4228 20.1366 37.5494C18.593 38.4251 16.9291 38.7221 15.1583 38.4362C11.898 37.9103 9.23205 34.9753 8.99739 31.6703C8.7317 27.9265 11.3051 24.5986 14.7352 23.8511C14.972 24.7111 15.2112 25.5793 15.448 26.4372C12.301 28.0428 11.2118 30.0659 12.0925 32.5955C12.8679 34.8217 15.0703 36.0419 17.4617 35.5699C19.9038 35.0881 21.1351 33.0586 20.9848 29.8014C23.3 29.8014 25.6171 29.7773 27.9325 29.8132C28.8365 29.8274 29.5345 29.7336 30.2156 28.9365C31.337 27.625 33.4009 27.7433 34.6087 28.982C35.8428 30.2479 35.7837 32.2849 34.4776 33.4974C33.2175 34.6673 31.2267 34.6048 30.0478 33.3442C29.8055 33.0843 29.6146 32.7758 29.3748 32.4565Z" fill="white"/>
<defs>
<linearGradient id="paint0_linear" x1="24" y1="0" x2="24" y2="48" gradientUnits="userSpaceOnUse">
<stop stop-color="#242424"/>
<stop offset="1"/>
</linearGradient>
</defs>
</svg>
