<svg width="16" height="16" viewBox="0 0 16 16" fill="none" xmlns="http://www.w3.org/2000/svg">
<path fill-rule="evenodd" clip-rule="evenodd" d="M13.1537 1.51106C11.9706 1.43527 10.7953 1.75046 9.8088 2.4081C9.18888 2.82138 8.64155 3.33432 8.18897 3.92616L6.74302 5.81702L6.63457 5.70857C6.49764 5.57165 6.30135 5.51221 6.11147 5.55019L2.49215 6.27405C2.38003 6.29648 2.27706 6.35159 2.19621 6.43244L1.67079 6.95785C1.30595 7.3227 1.56434 7.94652 2.08031 7.94652L3.82156 7.94652C3.91147 7.94652 4.00015 7.96746 4.08056 8.00767L4.79475 8.36476L4.16479 9.18857C3.81214 9.64972 3.85535 10.3007 4.26585 10.7112L5.28881 11.7342C5.69931 12.1447 6.35029 12.1879 6.81145 11.8352L7.63525 11.2053L7.99233 11.9194C8.03254 11.9999 8.05348 12.0885 8.05348 12.1784L8.05348 13.9197C8.05348 14.4357 8.6773 14.6941 9.04215 14.3292L9.56756 13.8038C9.64841 13.7229 9.70352 13.62 9.72595 13.5079L10.4498 9.88853C10.4878 9.69865 10.4284 9.50236 10.2914 9.36543L10.183 9.257L12.0739 7.81102C12.6657 7.35845 13.1786 6.81114 13.5919 6.19124C14.2496 5.20475 14.5647 4.02945 14.4889 2.84626L14.4569 2.34707C14.4293 1.915 14.085 1.57072 13.6529 1.54304L13.1537 1.51106ZM10.9201 5.07989C11.3725 5.53223 12.1058 5.53223 12.5582 5.07989C13.0105 4.62754 13.0105 3.89415 12.5582 3.44181C12.1058 2.98946 11.3725 2.98946 10.9201 3.44181C10.4678 3.89415 10.4678 4.62754 10.9201 5.07989Z" fill="black"/>
</svg>
