<svg width="16" height="16" viewBox="0 0 16 16" fill="none" xmlns="http://www.w3.org/2000/svg">
<path fill-rule="evenodd" clip-rule="evenodd" d="M5 3C5 1.89543 5.89543 1 7 1H9C10.1046 1 11 1.89543 11 3V4H13C14.1046 4 15 4.89543 15 6V9H12V8.25C12 8.11193 11.8881 8 11.75 8H10.25C10.1119 8 10 8.11193 10 8.25V9H6V8.25C6 8.11193 5.88807 8 5.75 8H4.25C4.11193 8 4 8.11193 4 8.25V9H1V6C1 4.89543 1.89543 4 3 4H5V3ZM6 4H10V3C10 2.44772 9.55229 2 9 2H7C6.44772 2 6 2.44772 6 3V4Z" fill="black"/>
<path d="M10 10.75V10H6V10.75C6 10.8881 5.88807 11 5.75 11H4.25C4.11193 11 4 10.8881 4 10.75V10H1V14C1 14.5523 1.44772 15 2 15H14C14.5523 15 15 14.5523 15 14V10H12V10.75C12 10.8881 11.8881 11 11.75 11H10.25C10.1119 11 10 10.8881 10 10.75Z" fill="black"/>
</svg>
