<svg width="16" height="16" viewBox="0 0 16 16" fill="none" xmlns="http://www.w3.org/2000/svg">
<path d="M1 2.80902C1 2.43733 1.39116 2.19558 1.72361 2.3618L4.72361 3.8618C4.893 3.9465 5 4.11963 5 4.30902V13.191C5 13.5627 4.60884 13.8044 4.27639 13.6382L1.27639 12.1382C1.107 12.0535 1 11.8804 1 11.691V2.80902Z" fill="black"/>
<path d="M6 4.30902C6 4.11963 6.107 3.9465 6.27639 3.8618L9.27639 2.3618C9.60884 2.19558 10 2.43733 10 2.80902V11.691C10 11.8804 9.893 12.0535 9.72361 12.1382L6.72361 13.6382C6.39116 13.8044 6 13.5627 6 13.191V4.30902Z" fill="black"/>
<path d="M11 2.80902C11 2.43733 11.3912 2.19558 11.7236 2.3618L14.7236 3.8618C14.893 3.9465 15 4.11963 15 4.30902V13.191C15 13.5627 14.6088 13.8044 14.2764 13.6382L11.2764 12.1382C11.107 12.0535 11 11.8804 11 11.691V2.80902Z" fill="black"/>
</svg>
