<svg width="119" height="28" viewBox="0 0 119 28" fill="none" xmlns="http://www.w3.org/2000/svg">
<g clip-path="url(#clip0)">
<path fill-rule="evenodd" clip-rule="evenodd" d="M41.2549 7.37712C37.4652 7.37712 34.3817 10.3807 34.3817 14.0724C34.3817 17.7643 37.4652 20.7679 41.2549 20.7679C45.0447 20.7679 48.1279 17.7643 48.1279 14.0724C48.1279 10.3807 45.0447 7.37712 41.2549 7.37712ZM41.2549 22.5025C36.4832 22.5025 32.6009 18.7208 32.6009 14.0724C32.6009 9.42413 36.4832 5.64258 41.2549 5.64258C46.0265 5.64258 49.9085 9.42413 49.9085 14.0724C49.9085 18.7208 46.0265 22.5025 41.2549 22.5025Z" fill="#232628"/>
<path fill-rule="evenodd" clip-rule="evenodd" d="M33.4491 5.6377H31.5489L26.0128 19.7481L20.4646 5.6377H18.552L25.1811 22.4866H26.0128H26.8444L33.4491 5.6377Z" fill="#232628"/>
<path fill-rule="evenodd" clip-rule="evenodd" d="M8.68621 7.36223C4.89646 7.36223 1.81308 10.3658 1.81308 14.0575C1.81308 17.7494 4.89646 20.753 8.68621 20.753C12.4761 20.753 15.5595 17.7494 15.5595 14.0575C15.5595 10.3658 12.4761 7.36223 8.68621 7.36223ZM8.68621 22.4876C3.91446 22.4876 0.0324707 18.7059 0.0324707 14.0575C0.0324707 9.40924 3.91446 5.62769 8.68621 5.62769C13.4581 5.62769 17.3401 9.40924 17.3401 14.0575C17.3401 18.7059 13.4581 22.4876 8.68621 22.4876Z" fill="#232628"/>
<path fill-rule="evenodd" clip-rule="evenodd" d="M15.05 22.5026H17.721V5.62671H15.05V22.5026Z" fill="#EC008C"/>
</g>
<path d="M69.3181 22C74.4147 22 77.4367 18.8473 77.4367 13.62C77.4367 8.40909 74.4147 5.27273 69.4324 5.27273H63.6497V22H69.3181ZM66.6799 19.3782V7.89453H69.2609C72.6586 7.89453 74.431 9.78942 74.431 13.62C74.431 17.467 72.6586 19.3782 69.171 19.3782H66.6799ZM85.6574 22.245C89.3328 22.245 91.6687 19.6559 91.6687 15.7763C91.6687 11.8885 89.3328 9.29119 85.6574 9.29119C81.9819 9.29119 79.646 11.8885 79.646 15.7763C79.646 19.6559 81.9819 22.245 85.6574 22.245ZM85.6737 19.8764C83.64 19.8764 82.6435 18.0632 82.6435 15.7681C82.6435 13.473 83.64 11.6353 85.6737 11.6353C87.6748 11.6353 88.6712 13.473 88.6712 15.7681C88.6712 18.0632 87.6748 19.8764 85.6737 19.8764ZM99.6505 22.245C102.803 22.245 104.812 20.3746 105.025 17.712H102.199C101.946 19.0597 100.974 19.8356 99.675 19.8356C97.8292 19.8356 96.6367 18.2919 96.6367 15.7273C96.6367 13.1953 97.8537 11.6761 99.675 11.6761C101.096 11.6761 101.97 12.5909 102.199 13.7997H105.025C104.821 11.0799 102.697 9.29119 99.6342 9.29119C95.9588 9.29119 93.6392 11.9457 93.6392 15.7763C93.6392 19.5742 95.9016 22.245 99.6505 22.245ZM117.368 12.7706C116.96 10.647 115.261 9.29119 112.321 9.29119C109.299 9.29119 107.24 10.7777 107.248 13.0973C107.24 14.9268 108.367 16.1357 110.777 16.6339L112.917 17.0831C114.068 17.3363 114.607 17.8018 114.607 18.5124C114.607 19.37 113.676 20.0153 112.272 20.0153C110.916 20.0153 110.034 19.4272 109.78 18.3001L106.897 18.5778C107.265 20.881 109.201 22.245 112.28 22.245C115.416 22.245 117.629 20.6197 117.638 18.2429C117.629 16.4542 116.478 15.3597 114.109 14.8452L111.969 14.3878C110.695 14.1019 110.189 13.6609 110.197 12.9339C110.189 12.0845 111.128 11.4964 112.361 11.4964C113.725 11.4964 114.444 12.2397 114.673 13.0646L117.368 12.7706Z" fill="#D9D9D9"/>
<defs>
<clipPath id="clip0">
<rect y="5.6001" width="50" height="17" fill="white"/>
</clipPath>
</defs>
</svg>
