<svg width="150" height="35" viewBox="0 0 150 35" fill="none" xmlns="http://www.w3.org/2000/svg">
<g clip-path="url(#clip0)">
<path d="M38.523 16.7905C38.242 16.4939 37.8127 16.4471 37.4224 16.4393C32.942 16.1192 28.4539 16.01 23.9735 15.9007C23.193 13.0205 22.389 10.1402 21.3509 7.34586C20.7967 5.87062 20.1957 4.41099 19.4151 3.03722C18.9077 2.17081 18.3379 1.32001 17.5574 0.672149C17.0266 0.227235 16.3397 -0.0771797 15.6372 0.0164864C14.802 0.0945415 14.0605 0.547261 13.4595 1.10145C12.4682 2.0225 11.7579 3.19333 11.1257 4.37976C10.1734 6.23748 9.44747 8.21227 8.80742 10.1949C8.23762 11.9979 7.73807 13.8166 7.29315 15.6509C5.55252 15.6665 3.80409 15.6119 2.05566 15.5885C1.65758 15.5885 1.23608 15.5651 0.869221 15.7524C0.291613 16.0334 -0.0674402 16.6969 0.0106148 17.3291C0.0730589 18.0862 0.744333 18.7497 1.50927 18.7575C3.19526 18.7731 4.88125 18.7497 6.56724 18.7653C6.07549 20.9821 5.64619 23.2145 5.26372 25.4546C5.21689 25.7981 5.10761 26.1805 5.28714 26.5084C5.53691 26.9923 6.2238 27.1718 6.66871 26.8518C7.09801 26.5864 7.14485 26.04 7.29315 25.6029C8.01126 23.3237 8.70595 21.0367 9.44747 18.7653C10.7042 18.7419 11.9608 18.7653 13.2175 18.7575C15.9573 18.7653 18.697 18.7419 21.4367 18.7653C22.3422 22.1373 23.2242 25.5249 24.4419 28.8032C24.9492 30.1614 25.48 31.5195 26.2918 32.7294C26.7445 33.385 27.2831 34.0173 28.0012 34.3841C28.7739 34.7822 29.7184 34.6573 30.4755 34.2749C31.4044 33.8065 32.0678 32.9635 32.5908 32.0893C33.5119 30.5204 34.0738 28.772 34.5578 27.0313C35.0183 25.3844 35.3618 23.714 35.8301 22.067C35.8847 21.8953 35.8925 21.6768 35.7286 21.5675C35.5257 21.4114 35.2213 21.5363 35.1588 21.7782C34.3392 23.9794 33.6211 26.2274 32.7391 28.4051C32.3566 29.3027 31.9742 30.2316 31.3029 30.9575C30.8658 31.4415 30.1633 31.7146 29.531 31.5117C28.9925 31.2853 28.6334 30.7858 28.3212 30.3097C27.8529 29.5369 27.5016 28.6939 27.1894 27.8509C26.5259 26.0322 26.0342 24.1589 25.5736 22.2856C25.3005 21.1148 25.0038 19.9439 24.7619 18.7653C29.0549 18.7575 33.3557 18.7653 37.6488 18.7575C37.9844 18.7653 38.3278 18.6404 38.5464 18.3828C38.9913 17.977 38.9679 17.2042 38.523 16.7905V16.7905ZM16.1134 15.7992C14.1152 15.7368 12.117 15.7602 10.1266 15.7212C10.6183 13.6605 11.2271 11.6311 11.9218 9.63287C12.4916 8.02494 13.1083 6.43261 13.9356 4.94176C14.2713 4.36415 14.6303 3.77874 15.1299 3.32602C15.3719 3.09966 15.7465 2.96697 16.0665 3.10747C16.4256 3.25577 16.5973 3.63044 16.7768 3.95046C17.4091 5.18373 17.8774 6.48725 18.3223 7.79077C19.1653 10.2963 19.8756 12.8409 20.5547 15.3933C20.5937 15.5416 20.6172 15.6899 20.6484 15.8382C19.1419 15.8461 17.6276 15.807 16.1134 15.7992V15.7992Z" fill="#2E9BD6"/>
<path d="M57.2016 10.1952C57.4826 9.73471 58.0914 9.49274 58.6144 9.65666C58.9734 9.75032 59.231 10.0469 59.4027 10.3592C60.8623 12.9818 62.3298 15.6045 63.7894 18.2349C63.8518 18.3442 63.9299 18.4457 64.008 18.5471C65.5534 15.7996 67.0755 13.0364 68.621 10.2889C68.8005 9.97668 69.0893 9.71129 69.4562 9.64104C70.0026 9.50835 70.6036 9.82838 70.8456 10.3279C71.0017 10.6402 70.9548 11.007 70.9627 11.3426V23.3631C70.9939 24.05 70.3616 24.6745 69.6747 24.6276C69.0269 24.612 68.4493 24.0188 68.4805 23.3631C68.4805 20.7327 68.4883 18.1022 68.4805 15.4718C67.3331 17.4934 66.2013 19.5306 65.0617 21.5523C64.7729 22.0596 64.1016 22.286 63.563 22.0674C63.2742 21.9738 63.0479 21.7474 62.8996 21.482C62.08 20.0146 61.2526 18.5471 60.4252 17.0797C60.1208 16.5801 59.8867 16.0338 59.5354 15.5654C59.4886 18.1881 59.5354 20.8107 59.512 23.4412C59.5042 24.05 58.9656 24.5964 58.3646 24.6276C57.8728 24.6667 57.3733 24.3779 57.1625 23.9329C57.0376 23.6832 57.0298 23.4022 57.022 23.129V11.1007C57.0142 10.7885 57.0298 10.4606 57.2016 10.1952V10.1952Z" fill="#2E9BD6"/>
<path d="M85.6058 10.8588C85.5824 10.1407 86.2771 9.52408 86.9874 9.60994C87.6118 9.66458 88.1426 10.2344 88.1348 10.8666C88.1426 13.3644 88.1348 15.8622 88.1348 18.3599C88.1504 19.601 88.1114 20.8343 88.1504 22.0753C89.8443 22.0832 91.5381 22.0753 93.2397 22.0753C93.6456 22.0753 94.0827 22.2393 94.3169 22.5905C94.6603 23.0823 94.5588 23.8316 94.0671 24.1906C93.8173 24.3936 93.4739 24.4404 93.1616 24.4326C91.0463 24.4248 88.9388 24.4326 86.8313 24.4326C86.199 24.4638 85.6058 23.9253 85.6136 23.2774C85.598 19.1405 85.598 15.0036 85.6058 10.8588V10.8588Z" fill="#2E9BD6"/>
<path d="M97.2361 9.64894C97.9932 9.42258 98.8441 10.0782 98.8129 10.8666V23.3554C98.8285 24.011 98.2586 24.6121 97.5951 24.6277C96.9004 24.6745 96.2603 24.0579 96.2837 23.3632V11.3349C96.2837 11.0695 96.2603 10.7885 96.3306 10.5232C96.4555 10.1017 96.8067 9.75041 97.2361 9.64894Z" fill="#2E9BD6"/>
<path d="M114.72 9.64885C115.477 9.42249 116.32 10.0782 116.297 10.8665V19.6867C116.305 20.3658 116.445 21.0839 116.898 21.6147C117.351 22.1611 118.069 22.4187 118.756 22.4655C119.419 22.5045 120.122 22.4967 120.738 22.2235C121.277 21.9972 121.722 21.5523 121.933 21.0059C122.159 20.4673 122.167 19.8663 122.167 19.2887V11.007C122.159 10.5933 122.284 10.1562 122.62 9.89862C123.096 9.47713 123.876 9.50835 124.321 9.96107C124.587 10.2108 124.711 10.5777 124.704 10.9368V19.757C124.696 21.0605 124.329 22.4421 123.361 23.3631C122.354 24.3544 120.887 24.6745 119.521 24.7057C118.061 24.7447 116.484 24.5184 115.321 23.5661C114.229 22.6685 113.776 21.2088 113.76 19.835V10.8509C113.76 10.3045 114.182 9.77374 114.72 9.64885V9.64885Z" fill="#2E9BD6"/>
<path d="M100.6 10.8666C100.585 10.2655 101.139 9.74256 101.732 9.75817C104.776 9.75037 107.828 9.75037 110.872 9.75817C111.473 9.74256 112.02 10.2655 112.004 10.8666C112.02 11.4364 111.52 11.9671 110.95 11.9827C109.826 11.9984 108.702 11.9749 107.578 11.9905C107.547 15.5733 107.571 19.156 107.563 22.7309C107.547 23.1212 107.625 23.5427 107.438 23.9096C107.227 24.3467 106.751 24.6511 106.259 24.6277C105.596 24.6277 105.018 24.0188 105.034 23.3632C105.018 19.5697 105.049 15.7762 105.018 11.9905C103.894 11.9827 102.77 11.9984 101.646 11.9827C101.084 11.9671 100.577 11.4442 100.6 10.8666V10.8666Z" fill="#2E9BD6"/>
<path d="M140.689 10.4763C140.9 10.0392 141.368 9.75042 141.86 9.75823C144.1 9.75042 146.341 9.75823 148.581 9.75823C149.026 9.75042 149.478 10.0002 149.65 10.4139C149.892 10.9056 149.713 11.5535 149.244 11.8501C148.909 12.0765 148.487 12.0218 148.105 12.0296C146.434 12.0296 144.764 12.014 143.101 12.0374C143.086 13.3332 143.086 14.6289 143.101 15.9246C144.405 15.9324 145.708 15.9246 147.02 15.9246C147.41 15.909 147.831 16.0261 148.081 16.3617C148.471 16.8144 148.378 17.5637 147.909 17.9228C147.667 18.1336 147.332 18.1726 147.02 18.1648C145.716 18.157 144.42 18.1648 143.117 18.1648C143.086 19.4995 143.093 20.8343 143.109 22.1612C145.037 22.169 146.965 22.1534 148.893 22.169C149.572 22.1534 150.118 22.8481 149.978 23.5038C149.892 24.0189 149.416 24.4404 148.885 24.4326C146.622 24.4404 144.358 24.4326 142.086 24.4404C141.798 24.4404 141.493 24.4404 141.236 24.2921C140.806 24.0736 140.541 23.6052 140.564 23.1213V11.4911C140.564 11.1476 140.525 10.7886 140.689 10.4763V10.4763Z" fill="#2E9BD6"/>
<path d="M83.311 12.5136C82.9676 11.4208 82.0933 10.5154 81.024 10.1173C80.2903 9.82848 79.4941 9.74262 78.7135 9.75823C77.41 9.76603 76.1065 9.75042 74.803 9.76603C74.1473 9.77384 73.5619 10.3671 73.5775 11.0227V23.3632C73.5619 23.9955 74.0927 24.5809 74.7249 24.6199C75.2635 24.6824 75.8021 24.3467 76.005 23.8472C76.1455 23.5193 76.0987 23.1525 76.1065 22.809C76.1065 21.4509 76.0909 20.0927 76.1143 18.7346C77.1134 18.7189 78.1047 18.7346 79.1038 18.7268C79.8063 18.719 80.5166 18.5941 81.1567 18.3131C82.1246 17.915 82.8973 17.0954 83.2486 16.1197C83.6701 14.9645 83.6779 13.6766 83.311 12.5136V12.5136ZM80.3761 15.8856C79.9702 16.307 79.3692 16.471 78.7994 16.4554H76.1299C76.0987 14.9801 76.1143 13.5049 76.1221 12.0296C76.9339 12.0062 77.7457 12.0296 78.5574 12.0218C79.135 12.0218 79.7673 12.0843 80.2356 12.4667C80.7352 12.857 80.9459 13.5205 80.9537 14.1371C80.9771 14.7616 80.821 15.4328 80.3761 15.8856V15.8856Z" fill="#2E9BD6"/>
<path d="M137.856 13.2318C137.395 12.1234 136.56 11.1633 135.483 10.6091C134 9.81295 132.267 9.73489 130.612 9.75831C129.816 9.78172 129.012 9.70367 128.216 9.79734C127.74 9.90661 127.35 10.3125 127.279 10.8042C127.225 11.1633 127.248 11.5224 127.248 11.8814V22.3408C127.256 22.6999 127.225 23.0589 127.287 23.418C127.381 23.9878 127.927 24.4405 128.505 24.4327C129.496 24.4405 130.487 24.4327 131.479 24.4327C132.447 24.4327 133.43 24.339 134.359 24.058C135.491 23.7302 136.545 23.0589 137.231 22.091C138.106 20.8812 138.426 19.3591 138.504 17.8917C138.582 16.3227 138.48 14.6992 137.856 13.2318V13.2318ZM135.171 20.4909C134.757 21.17 134.086 21.6773 133.329 21.9115C132.189 22.2784 130.971 22.1457 129.793 22.1613C129.785 18.7893 129.793 15.4173 129.793 12.0453C130.628 12.0141 131.463 12.0063 132.298 12.0765C133.29 12.1702 134.297 12.5605 134.921 13.3645C135.67 14.3089 135.873 15.55 135.912 16.7208C135.936 18.0009 135.85 19.3669 135.171 20.4909Z" fill="#2E9BD6"/>
<path d="M55.2658 22.7621C53.6578 18.8516 52.0577 14.941 50.4498 11.0305C50.2781 10.6324 50.161 10.1719 49.8097 9.88306C49.3726 9.50839 48.6701 9.524 48.2408 9.89867C47.9286 10.1641 47.8115 10.5855 47.6554 10.9524C46.0319 14.9176 44.4083 18.8828 42.777 22.848C42.6365 23.1914 42.6209 23.5973 42.7926 23.9329C43.0658 24.5027 43.8073 24.7993 44.3849 24.534C44.7986 24.3622 45.0406 23.9564 45.1889 23.5505C45.6026 22.5826 45.985 21.5991 46.4221 20.6468C48.1706 20.6468 49.9268 20.6312 51.683 20.6546C52.128 21.7006 52.5573 22.7543 53.0022 23.7924C53.1661 24.1827 53.4939 24.5105 53.9154 24.5964C54.454 24.7291 55.0238 24.4325 55.2814 23.9564C55.4765 23.5895 55.4375 23.1368 55.2658 22.7621V22.7621ZM47.2651 18.3208C47.8349 16.7987 48.4438 15.2845 49.0292 13.7702C49.4585 14.8317 49.8644 15.9011 50.2859 16.9626C50.4498 17.4154 50.6605 17.8525 50.7854 18.313C49.6146 18.3286 48.436 18.3286 47.2651 18.3208V18.3208Z" fill="#2E9BD6"/>
</g>
<defs>
<clipPath id="clip0">
<rect width="150" height="34.6292" fill="white"/>
</clipPath>
</defs>
</svg>
