<svg width="16" height="14" viewBox="0 0 16 14" fill="none" xmlns="http://www.w3.org/2000/svg">
<path d="M9.5 0.625H6.5C6.29291 0.625 6.125 0.792906 6.125 1V13C6.125 13.2071 6.29291 13.375 6.5 13.375H9.5C9.70709 13.375 9.875 13.2071 9.875 13V1C9.875 0.792906 9.70709 0.625 9.5 0.625Z" fill="#5386C5"/>
<path d="M3.5 8.125H0.5C0.292906 8.125 0.125 8.29291 0.125 8.5V13C0.125 13.2071 0.292906 13.375 0.5 13.375H3.5C3.70709 13.375 3.875 13.2071 3.875 13V8.5C3.875 8.29291 3.70709 8.125 3.5 8.125Z" fill="#6799D0"/>
<path d="M15.5 4.375H12.5C12.2929 4.375 12.125 4.54291 12.125 4.75V13C12.125 13.2071 12.2929 13.375 12.5 13.375H15.5C15.7071 13.375 15.875 13.2071 15.875 13V4.75C15.875 4.54291 15.7071 4.375 15.5 4.375Z" fill="#6996CE"/>
</svg>
