<svg width="408" height="217" viewBox="0 0 408 217" fill="none" xmlns="http://www.w3.org/2000/svg">
<g filter="url(#filter0_d)">
<rect x="4" width="400" height="63" rx="5" fill="white"/>
</g>
<path d="M88.296 34.408C88.376 35.464 88.712 36.232 89.304 36.712C89.912 37.192 90.8 37.432 91.968 37.432C92.528 37.432 93 37.376 93.384 37.264C93.768 37.136 94.08 36.976 94.32 36.784C94.56 36.576 94.728 36.336 94.824 36.064C94.936 35.792 94.992 35.496 94.992 35.176C94.992 34.728 94.824 34.312 94.488 33.928C94.152 33.528 93.536 33.24 92.64 33.064L90.408 32.656C89.528 32.496 88.752 32.288 88.08 32.032C87.408 31.776 86.84 31.448 86.376 31.048C85.928 30.632 85.584 30.128 85.344 29.536C85.104 28.944 84.984 28.24 84.984 27.424C84.984 26.608 85.144 25.888 85.464 25.264C85.8 24.64 86.256 24.12 86.832 23.704C87.424 23.288 88.128 22.976 88.944 22.768C89.76 22.544 90.656 22.432 91.632 22.432C92.88 22.432 93.92 22.576 94.752 22.864C95.584 23.152 96.256 23.536 96.768 24.016C97.28 24.48 97.656 25.024 97.896 25.648C98.152 26.272 98.32 26.92 98.4 27.592L95.016 28.024C94.84 27.08 94.496 26.4 93.984 25.984C93.488 25.568 92.728 25.36 91.704 25.36C91.096 25.36 90.592 25.416 90.192 25.528C89.808 25.624 89.496 25.76 89.256 25.936C89.016 26.096 88.848 26.288 88.752 26.512C88.656 26.736 88.608 26.968 88.608 27.208C88.608 27.848 88.784 28.328 89.136 28.648C89.504 28.968 90.12 29.216 90.984 29.392L93.336 29.848C95.192 30.216 96.552 30.816 97.416 31.648C98.28 32.464 98.712 33.648 98.712 35.2C98.712 35.952 98.568 36.648 98.28 37.288C98.008 37.912 97.592 38.464 97.032 38.944C96.488 39.408 95.8 39.768 94.968 40.024C94.136 40.296 93.16 40.432 92.04 40.432C89.704 40.432 87.912 39.936 86.664 38.944C85.432 37.936 84.768 36.424 84.672 34.408H88.296ZM100.844 27.472H104.204V40H100.844V27.472ZM100.796 22.864H104.252V25.888H100.796V22.864ZM110.562 40.792C110.626 41.112 110.714 41.368 110.826 41.56C110.954 41.752 111.114 41.904 111.306 42.016C111.514 42.128 111.754 42.2 112.026 42.232C112.314 42.28 112.658 42.304 113.058 42.304C113.682 42.304 114.17 42.184 114.522 41.944C114.874 41.72 115.13 41.416 115.29 41.032C115.466 40.648 115.57 40.208 115.602 39.712C115.65 39.216 115.674 38.704 115.674 38.176V37.792C115.258 38.4 114.722 38.864 114.066 39.184C113.426 39.488 112.698 39.64 111.882 39.64C110.122 39.64 108.802 39.072 107.922 37.936C107.058 36.8 106.626 35.272 106.626 33.352C106.626 32.44 106.746 31.6 106.986 30.832C107.242 30.064 107.602 29.408 108.066 28.864C108.53 28.304 109.098 27.872 109.77 27.568C110.458 27.248 111.226 27.088 112.074 27.088C112.746 27.088 113.394 27.216 114.018 27.472C114.658 27.728 115.242 28.2 115.77 28.888V27.472H119.034V38.248C119.034 39.304 118.922 40.24 118.698 41.056C118.49 41.888 118.146 42.592 117.666 43.168C117.202 43.744 116.586 44.176 115.818 44.464C115.066 44.768 114.146 44.92 113.058 44.92C112.05 44.92 111.186 44.832 110.466 44.656C109.762 44.496 109.178 44.24 108.714 43.888C108.25 43.552 107.89 43.12 107.634 42.592C107.394 42.08 107.234 41.48 107.154 40.792H110.562ZM115.698 33.304C115.698 32.552 115.61 31.944 115.434 31.48C115.274 31.016 115.058 30.664 114.786 30.424C114.514 30.168 114.21 30 113.874 29.92C113.538 29.84 113.202 29.8 112.866 29.8C112.498 29.8 112.146 29.864 111.81 29.992C111.49 30.12 111.202 30.328 110.946 30.616C110.706 30.904 110.514 31.272 110.37 31.72C110.226 32.168 110.154 32.704 110.154 33.328C110.154 34.656 110.402 35.6 110.898 36.16C111.41 36.704 112.042 36.976 112.794 36.976C113.21 36.976 113.594 36.92 113.946 36.808C114.314 36.68 114.626 36.488 114.882 36.232C115.138 35.96 115.338 35.616 115.482 35.2C115.626 34.768 115.698 34.248 115.698 33.64V33.304ZM121.875 27.472H125.139V29.2C125.635 28.464 126.219 27.928 126.891 27.592C127.579 27.256 128.291 27.088 129.027 27.088C130.451 27.088 131.507 27.464 132.195 28.216C132.883 28.952 133.227 30.12 133.227 31.72V40H129.867V32.176C129.867 31.296 129.699 30.696 129.363 30.376C129.027 30.056 128.579 29.896 128.019 29.896C127.587 29.896 127.211 29.96 126.891 30.088C126.587 30.216 126.299 30.4 126.027 30.64C125.803 30.864 125.611 31.136 125.451 31.456C125.307 31.76 125.235 32.096 125.235 32.464V40H121.875V27.472ZM141.076 22.864H144.652V33.064C144.652 34.52 144.908 35.6 145.42 36.304C145.932 37.008 146.788 37.36 147.988 37.36C149.188 37.36 150.036 37.008 150.532 36.304C151.044 35.6 151.3 34.52 151.3 33.064V22.864H154.876V33.064C154.876 34.36 154.716 35.472 154.396 36.4C154.076 37.328 153.62 38.096 153.028 38.704C152.436 39.296 151.708 39.728 150.844 40C149.996 40.288 149.036 40.432 147.964 40.432C146.876 40.432 145.9 40.288 145.036 40C144.188 39.712 143.468 39.272 142.876 38.68C142.284 38.072 141.836 37.296 141.532 36.352C141.228 35.408 141.076 34.288 141.076 32.992V22.864ZM157.652 27.472H160.916V29.128C161.876 27.768 163.188 27.088 164.852 27.088C166.596 27.088 167.9 27.68 168.764 28.864C169.628 30.048 170.06 31.672 170.06 33.736C170.06 34.728 169.932 35.632 169.676 36.448C169.436 37.264 169.076 37.968 168.596 38.56C168.132 39.136 167.564 39.584 166.892 39.904C166.22 40.224 165.46 40.384 164.612 40.384C163.988 40.384 163.364 40.272 162.74 40.048C162.132 39.824 161.556 39.376 161.012 38.704V44.656H157.652V27.472ZM160.988 33.832C160.988 34.648 161.052 35.304 161.18 35.8C161.324 36.28 161.548 36.672 161.852 36.976C162.172 37.264 162.492 37.456 162.812 37.552C163.148 37.632 163.484 37.672 163.82 37.672C164.188 37.672 164.54 37.6 164.876 37.456C165.212 37.312 165.5 37.088 165.74 36.784C165.996 36.464 166.196 36.056 166.34 35.56C166.484 35.064 166.556 34.464 166.556 33.76C166.556 33.024 166.484 32.408 166.34 31.912C166.212 31.416 166.028 31.016 165.788 30.712C165.548 30.392 165.26 30.168 164.924 30.04C164.604 29.896 164.26 29.824 163.892 29.824C163.476 29.824 163.116 29.88 162.812 29.992C162.508 30.104 162.212 30.28 161.924 30.52C161.604 30.824 161.364 31.208 161.204 31.672C161.06 32.136 160.988 32.728 160.988 33.448V33.832Z" fill="#434A54"/>
<g filter="url(#filter1_d)">
<rect x="4" y="146" width="400" height="63" rx="5" fill="white"/>
</g>
<path d="M87.912 182.016C88.024 182.752 88.32 183.232 88.8 183.456C89.28 183.68 89.856 183.792 90.528 183.792C91.328 183.792 91.896 183.696 92.232 183.504C92.584 183.296 92.76 182.968 92.76 182.52C92.76 182.2 92.648 181.92 92.424 181.68C92.216 181.44 91.808 181.272 91.2 181.176L89.472 180.888C87.952 180.648 86.816 180.24 86.064 179.664C85.328 179.072 84.96 178.184 84.96 177C84.96 176.392 85.088 175.848 85.344 175.368C85.616 174.888 85.992 174.48 86.472 174.144C86.952 173.808 87.52 173.552 88.176 173.376C88.848 173.184 89.584 173.088 90.384 173.088C91.376 173.088 92.208 173.192 92.88 173.4C93.552 173.592 94.096 173.856 94.512 174.192C94.944 174.528 95.264 174.928 95.472 175.392C95.696 175.856 95.856 176.352 95.952 176.88L92.952 177.264C92.808 176.688 92.552 176.264 92.184 175.992C91.832 175.72 91.256 175.584 90.456 175.584C90.008 175.584 89.632 175.624 89.328 175.704C89.04 175.768 88.808 175.856 88.632 175.968C88.472 176.08 88.352 176.208 88.272 176.352C88.208 176.496 88.176 176.632 88.176 176.76C88.176 177.16 88.296 177.456 88.536 177.648C88.792 177.824 89.28 177.976 90 178.104L91.584 178.368C92.464 178.512 93.192 178.696 93.768 178.92C94.344 179.144 94.8 179.424 95.136 179.76C95.488 180.08 95.728 180.464 95.856 180.912C96 181.36 96.072 181.88 96.072 182.472C96.072 183.656 95.624 184.608 94.728 185.328C93.832 186.032 92.448 186.384 90.576 186.384C89.824 186.384 89.104 186.312 88.416 186.168C87.744 186.04 87.136 185.808 86.592 185.472C86.064 185.136 85.624 184.688 85.272 184.128C84.936 183.568 84.744 182.864 84.696 182.016H87.912ZM98.2659 173.472H101.626V186H98.2659V173.472ZM98.2179 168.864H101.674V171.888H98.2179V168.864ZM107.984 186.792C108.048 187.112 108.136 187.368 108.248 187.56C108.376 187.752 108.536 187.904 108.728 188.016C108.936 188.128 109.176 188.2 109.448 188.232C109.736 188.28 110.08 188.304 110.48 188.304C111.104 188.304 111.592 188.184 111.944 187.944C112.296 187.72 112.552 187.416 112.712 187.032C112.888 186.648 112.992 186.208 113.024 185.712C113.072 185.216 113.096 184.704 113.096 184.176V183.792C112.68 184.4 112.144 184.864 111.488 185.184C110.848 185.488 110.12 185.64 109.304 185.64C107.544 185.64 106.224 185.072 105.344 183.936C104.48 182.8 104.048 181.272 104.048 179.352C104.048 178.44 104.168 177.6 104.408 176.832C104.664 176.064 105.024 175.408 105.488 174.864C105.952 174.304 106.52 173.872 107.192 173.568C107.88 173.248 108.648 173.088 109.496 173.088C110.168 173.088 110.816 173.216 111.44 173.472C112.08 173.728 112.664 174.2 113.192 174.888V173.472H116.456V184.248C116.456 185.304 116.344 186.24 116.12 187.056C115.912 187.888 115.568 188.592 115.088 189.168C114.624 189.744 114.008 190.176 113.24 190.464C112.488 190.768 111.568 190.92 110.48 190.92C109.472 190.92 108.608 190.832 107.888 190.656C107.184 190.496 106.6 190.24 106.136 189.888C105.672 189.552 105.312 189.12 105.056 188.592C104.816 188.08 104.656 187.48 104.576 186.792H107.984ZM113.12 179.304C113.12 178.552 113.032 177.944 112.856 177.48C112.696 177.016 112.48 176.664 112.208 176.424C111.936 176.168 111.632 176 111.296 175.92C110.96 175.84 110.624 175.8 110.288 175.8C109.92 175.8 109.568 175.864 109.232 175.992C108.912 176.12 108.624 176.328 108.368 176.616C108.128 176.904 107.936 177.272 107.792 177.72C107.648 178.168 107.576 178.704 107.576 179.328C107.576 180.656 107.824 181.6 108.32 182.16C108.832 182.704 109.464 182.976 110.216 182.976C110.632 182.976 111.016 182.92 111.368 182.808C111.736 182.68 112.048 182.488 112.304 182.232C112.56 181.96 112.76 181.616 112.904 181.2C113.048 180.768 113.12 180.248 113.12 179.64V179.304ZM119.297 173.472H122.561V175.2C123.057 174.464 123.641 173.928 124.313 173.592C125.001 173.256 125.713 173.088 126.449 173.088C127.873 173.088 128.929 173.464 129.617 174.216C130.305 174.952 130.649 176.12 130.649 177.72V186H127.289V178.176C127.289 177.296 127.121 176.696 126.785 176.376C126.449 176.056 126.001 175.896 125.441 175.896C125.009 175.896 124.633 175.96 124.313 176.088C124.009 176.216 123.721 176.4 123.449 176.64C123.225 176.864 123.033 177.136 122.873 177.456C122.729 177.76 122.657 178.096 122.657 178.464V186H119.297V173.472ZM133.291 168.864H136.867V179.064C136.867 180.52 137.123 181.6 137.635 182.304C138.147 183.008 139.003 183.36 140.203 183.36C141.403 183.36 142.251 183.008 142.747 182.304C143.259 181.6 143.515 180.52 143.515 179.064V168.864H147.091V179.064C147.091 180.36 146.931 181.472 146.611 182.4C146.291 183.328 145.835 184.096 145.243 184.704C144.651 185.296 143.923 185.728 143.059 186C142.211 186.288 141.251 186.432 140.179 186.432C139.091 186.432 138.115 186.288 137.251 186C136.403 185.712 135.683 185.272 135.091 184.68C134.499 184.072 134.051 183.296 133.747 182.352C133.443 181.408 133.291 180.288 133.291 178.992V168.864ZM149.867 173.472H153.131V175.128C154.091 173.768 155.403 173.088 157.067 173.088C158.811 173.088 160.115 173.68 160.979 174.864C161.843 176.048 162.275 177.672 162.275 179.736C162.275 180.728 162.147 181.632 161.891 182.448C161.651 183.264 161.291 183.968 160.811 184.56C160.347 185.136 159.779 185.584 159.107 185.904C158.435 186.224 157.675 186.384 156.827 186.384C156.203 186.384 155.579 186.272 154.955 186.048C154.347 185.824 153.771 185.376 153.227 184.704V190.656H149.867V173.472ZM153.203 179.832C153.203 180.648 153.267 181.304 153.395 181.8C153.539 182.28 153.763 182.672 154.067 182.976C154.387 183.264 154.707 183.456 155.027 183.552C155.363 183.632 155.699 183.672 156.035 183.672C156.403 183.672 156.755 183.6 157.091 183.456C157.427 183.312 157.715 183.088 157.955 182.784C158.211 182.464 158.411 182.056 158.555 181.56C158.699 181.064 158.771 180.464 158.771 179.76C158.771 179.024 158.699 178.408 158.555 177.912C158.427 177.416 158.243 177.016 158.003 176.712C157.763 176.392 157.475 176.168 157.139 176.04C156.819 175.896 156.475 175.824 156.107 175.824C155.691 175.824 155.331 175.88 155.027 175.992C154.723 176.104 154.427 176.28 154.139 176.52C153.819 176.824 153.579 177.208 153.419 177.672C153.275 178.136 153.203 178.728 153.203 179.448V179.832Z" fill="#434A54"/>
<path d="M84 189.192H163.194V190.824H84V189.192Z" fill="#434A54"/>
<g filter="url(#filter2_d)">
<rect x="4" y="73" width="400" height="63" rx="5" fill="white"/>
</g>
<path d="M96.576 108.016C96.576 108.784 96.416 109.448 96.096 110.008C95.792 110.552 95.36 111 94.8 111.352C94.256 111.704 93.616 111.96 92.88 112.12C92.144 112.296 91.36 112.384 90.528 112.384C88.64 112.384 87.208 112 86.232 111.232C85.256 110.464 84.744 109.376 84.696 107.968H88.8C88.864 108.432 89.04 108.768 89.328 108.976C89.616 109.168 90.04 109.264 90.6 109.264C91.112 109.264 91.496 109.184 91.752 109.024C92.024 108.864 92.16 108.6 92.16 108.232C92.16 107.944 92.072 107.728 91.896 107.584C91.72 107.44 91.456 107.328 91.104 107.248L89.784 106.96C89.032 106.8 88.408 106.592 87.912 106.336C87.432 106.08 87.048 105.792 86.76 105.472C86.488 105.152 86.296 104.808 86.184 104.44C86.072 104.072 86.016 103.696 86.016 103.312C86.016 102 86.528 100.96 87.552 100.192C88.592 99.408 90.008 99.016 91.8 99.016C92.504 99.016 93.176 99.088 93.816 99.232C94.472 99.36 95.048 99.584 95.544 99.904C96.04 100.208 96.44 100.608 96.744 101.104C97.048 101.584 97.224 102.184 97.272 102.904L93.312 103.288C93.28 102.872 93.136 102.552 92.88 102.328C92.64 102.088 92.248 101.968 91.704 101.968C91.176 101.968 90.792 102.064 90.552 102.256C90.328 102.432 90.216 102.664 90.216 102.952C90.216 103.224 90.32 103.44 90.528 103.6C90.736 103.76 91.08 103.888 91.56 103.984L92.64 104.2C93.424 104.36 94.064 104.568 94.56 104.824C95.072 105.08 95.472 105.376 95.76 105.712C96.064 106.048 96.272 106.416 96.384 106.816C96.512 107.2 96.576 107.6 96.576 108.016ZM105.579 94.864L104.907 98.008H100.515L101.187 94.864H105.579ZM104.643 99.4L101.979 112H97.6352L100.299 99.4H104.643ZM114.157 105.28C114.189 105.152 114.213 105.032 114.229 104.92C114.245 104.792 114.253 104.664 114.253 104.536C114.253 104.28 114.213 104.032 114.133 103.792C114.069 103.536 113.957 103.312 113.797 103.12C113.653 102.928 113.461 102.776 113.221 102.664C112.981 102.536 112.693 102.472 112.357 102.472C111.893 102.472 111.501 102.592 111.181 102.832C110.877 103.072 110.621 103.376 110.413 103.744C110.221 104.096 110.077 104.48 109.981 104.896C109.901 105.312 109.861 105.696 109.861 106.048C109.861 106.752 110.029 107.248 110.365 107.536C110.717 107.824 111.197 107.968 111.805 107.968C112.445 107.904 112.949 107.648 113.317 107.2C113.685 106.752 113.933 106.248 114.061 105.688L114.157 105.28ZM119.677 99.376L117.253 110.68C117.029 111.72 116.741 112.632 116.389 113.416C116.037 114.2 115.589 114.848 115.045 115.36C114.501 115.888 113.845 116.28 113.077 116.536C112.309 116.792 111.397 116.92 110.341 116.92C109.349 116.92 108.477 116.808 107.725 116.584C106.989 116.376 106.373 116.072 105.877 115.672C105.397 115.272 105.029 114.8 104.773 114.256C104.533 113.728 104.413 113.136 104.413 112.48H108.637C108.701 112.912 108.861 113.232 109.117 113.44C109.373 113.664 109.805 113.776 110.413 113.776C110.829 113.776 111.173 113.696 111.445 113.536C111.733 113.376 111.973 113.16 112.165 112.888C112.357 112.616 112.509 112.296 112.621 111.928C112.733 111.56 112.837 111.16 112.933 110.728L113.101 109.912C112.157 110.952 110.997 111.472 109.621 111.472C108.309 111.472 107.269 111.048 106.501 110.2C105.733 109.352 105.349 108.128 105.349 106.528C105.349 105.504 105.501 104.536 105.805 103.624C106.125 102.696 106.557 101.896 107.101 101.224C107.645 100.536 108.285 99.992 109.021 99.592C109.757 99.176 110.549 98.968 111.397 98.968C112.261 98.968 113.005 99.144 113.629 99.496C114.269 99.848 114.773 100.36 115.141 101.032L115.477 99.376H119.677ZM127.263 112L128.847 104.536C128.879 104.408 128.903 104.288 128.919 104.176C128.935 104.048 128.943 103.92 128.943 103.792C128.943 103.44 128.855 103.152 128.679 102.928C128.503 102.704 128.207 102.592 127.791 102.592C127.487 102.592 127.207 102.648 126.951 102.76C126.695 102.872 126.479 102.992 126.303 103.12C126.079 103.296 125.887 103.504 125.727 103.744C125.583 103.984 125.471 104.272 125.391 104.608L123.831 112H119.487L122.151 99.4H126.375L126.063 100.888C127.119 99.64 128.391 99.016 129.879 99.016C130.471 99.016 130.991 99.112 131.439 99.304C131.887 99.496 132.255 99.76 132.543 100.096C132.831 100.416 133.047 100.8 133.191 101.248C133.335 101.68 133.407 102.176 133.407 102.736C133.407 103.184 133.359 103.648 133.263 104.128L131.607 112H127.263ZM131.959 116.2L132.223 114.952H144.199L143.935 116.2H131.959ZM152.75 99.4L151.166 106.864C151.134 106.992 151.11 107.12 151.094 107.248C151.078 107.36 151.07 107.48 151.07 107.608C151.07 107.928 151.15 108.208 151.31 108.448C151.47 108.688 151.758 108.808 152.174 108.808C152.478 108.808 152.75 108.752 152.99 108.64C153.246 108.528 153.454 108.408 153.614 108.28C154.062 107.928 154.358 107.432 154.502 106.792L156.062 99.4H160.406L157.742 112H153.518L153.83 110.512C152.79 111.76 151.542 112.384 150.086 112.384C149.494 112.384 148.982 112.288 148.55 112.096C148.118 111.92 147.758 111.664 147.47 111.328C147.182 110.992 146.966 110.6 146.822 110.152C146.678 109.704 146.606 109.208 146.606 108.664C146.606 108.216 146.654 107.752 146.75 107.272L148.406 99.4H152.75ZM165.8 106.096C165.752 106.384 165.728 106.648 165.728 106.888C165.728 107.464 165.864 107.952 166.136 108.352C166.408 108.736 166.832 108.928 167.408 108.928C167.888 108.928 168.296 108.792 168.632 108.52C168.984 108.248 169.264 107.912 169.472 107.512C169.696 107.096 169.856 106.64 169.952 106.144C170.064 105.648 170.12 105.176 170.12 104.728C170.12 103.24 169.576 102.496 168.488 102.496C167.832 102.496 167.288 102.736 166.856 103.216C166.424 103.696 166.136 104.32 165.992 105.088L165.8 106.096ZM168.368 112.408C167.584 112.408 166.896 112.248 166.304 111.928C165.712 111.608 165.24 111.144 164.888 110.536L163.592 116.656H159.248L162.92 99.376H167.144L166.856 100.84C167.256 100.344 167.752 99.912 168.344 99.544C168.936 99.176 169.664 98.992 170.528 98.992C171.824 98.992 172.824 99.448 173.528 100.36C174.232 101.256 174.584 102.552 174.584 104.248C174.584 105.352 174.432 106.4 174.128 107.392C173.824 108.368 173.392 109.232 172.832 109.984C172.288 110.72 171.632 111.312 170.864 111.76C170.112 112.192 169.28 112.408 168.368 112.408Z" fill="#434A54"/>
<path d="M31.5 102.5V106.5" stroke="#434A54" stroke-linecap="round" stroke-linejoin="round"/>
<path d="M46.5 102.5V106.5" stroke="#434A54" stroke-linecap="round" stroke-linejoin="round"/>
<path d="M35.5 108.5V110.5" stroke="#434A54" stroke-linecap="round" stroke-linejoin="round"/>
<path d="M42.5 108.5V110.5" stroke="#434A54" stroke-linecap="round" stroke-linejoin="round"/>
<path d="M33.5 102.5H44.5" stroke="#434A54" stroke-linecap="round" stroke-linejoin="round"/>
<path d="M39 96.5C40.4587 96.5 41.8576 97.0795 42.8891 98.1109C43.9205 99.1424 44.5 100.541 44.5 102V108.5H33.5V102C33.5 100.541 34.0795 99.1424 35.1109 98.1109C36.1424 97.0795 37.5413 96.5 39 96.5V96.5Z" stroke="#434A54" stroke-linecap="round" stroke-linejoin="round"/>
<path d="M34.5 95.5L36.242 97.242" stroke="#434A54" stroke-linecap="round" stroke-linejoin="round"/>
<path d="M43.5 95.5L41.758 97.242" stroke="#434A54" stroke-linecap="round" stroke-linejoin="round"/>
<path d="M37 101C37.5523 101 38 100.552 38 100C38 99.4477 37.5523 99 37 99C36.4477 99 36 99.4477 36 100C36 100.552 36.4477 101 37 101Z" fill="#434A54"/>
<path d="M41 101C41.5523 101 42 100.552 42 100C42 99.4477 41.5523 99 41 99C40.4477 99 40 99.4477 40 100C40 100.552 40.4477 101 41 101Z" fill="#434A54"/>
<path d="M38.5 185.5C40.1569 185.5 41.5 182.366 41.5 178.5C41.5 174.634 40.1569 171.5 38.5 171.5C36.8431 171.5 35.5 174.634 35.5 178.5C35.5 182.366 36.8431 185.5 38.5 185.5Z" stroke="#434A54" stroke-linecap="round" stroke-linejoin="round"/>
<path d="M31.5 178.5H45.5" stroke="#434A54" stroke-linecap="round" stroke-linejoin="round"/>
<path d="M38.5 185.5C42.366 185.5 45.5 182.366 45.5 178.5C45.5 174.634 42.366 171.5 38.5 171.5C34.634 171.5 31.5 174.634 31.5 178.5C31.5 182.366 34.634 185.5 38.5 185.5Z" stroke="#434A54" stroke-linecap="round" stroke-linejoin="round"/>
<g clip-path="url(#clip0)">
<path d="M44 34.782C43.7527 35.3741 43.449 35.9411 43.093 36.475C42.504 37.375 41.674 38.488 40.644 38.498C39.73 38.507 39.495 37.903 38.254 37.91C37.013 37.917 36.754 38.51 35.84 38.5C34.811 38.491 34.024 37.482 33.435 36.585C31.788 34.078 31.615 31.135 32.635 29.571C32.9419 29.0604 33.3693 28.6328 33.8797 28.3256C34.3902 28.0184 34.9681 27.8411 35.563 27.809C36.653 27.809 37.339 28.409 38.241 28.409C39.116 28.409 39.649 27.809 40.91 27.809C41.4338 27.8328 41.9459 27.9719 42.4097 28.2165C42.8735 28.4612 43.2775 28.8052 43.593 29.224C43.0801 29.5079 42.6593 29.9328 42.3803 30.4483C42.1012 30.9639 41.9757 31.5486 42.0185 32.1332C42.0613 32.7178 42.2707 33.278 42.6218 33.7474C42.973 34.2168 43.4512 34.5758 44 34.782V34.782Z" stroke="#434A54" stroke-linecap="round" stroke-linejoin="round"/>
<path d="M40.6 25.7C40.9083 25.3267 41.1391 24.8956 41.2787 24.4319C41.4183 23.9683 41.4639 23.4815 41.413 23C40.4231 23.1173 39.5146 23.6058 38.871 24.367C38.5551 24.7227 38.3178 25.1411 38.1746 25.5948C38.0314 26.0485 37.9855 26.5274 38.04 27C38.5367 26.9884 39.0245 26.8655 39.4676 26.6406C39.9106 26.4156 40.2975 26.0942 40.6 25.7V25.7Z" fill="#434A54"/>
</g>
<defs>
<filter id="filter0_d" x="0" y="0" width="408" height="71" filterUnits="userSpaceOnUse" color-interpolation-filters="sRGB">
<feFlood flood-opacity="0" result="BackgroundImageFix"/>
<feColorMatrix in="SourceAlpha" type="matrix" values="0 0 0 0 0 0 0 0 0 0 0 0 0 0 0 0 0 0 127 0"/>
<feOffset dy="4"/>
<feGaussianBlur stdDeviation="2"/>
<feColorMatrix type="matrix" values="0 0 0 0 0 0 0 0 0 0 0 0 0 0 0 0 0 0 0.05 0"/>
<feBlend mode="normal" in2="BackgroundImageFix" result="effect1_dropShadow"/>
<feBlend mode="normal" in="SourceGraphic" in2="effect1_dropShadow" result="shape"/>
</filter>
<filter id="filter1_d" x="0" y="146" width="408" height="71" filterUnits="userSpaceOnUse" color-interpolation-filters="sRGB">
<feFlood flood-opacity="0" result="BackgroundImageFix"/>
<feColorMatrix in="SourceAlpha" type="matrix" values="0 0 0 0 0 0 0 0 0 0 0 0 0 0 0 0 0 0 127 0"/>
<feOffset dy="4"/>
<feGaussianBlur stdDeviation="2"/>
<feColorMatrix type="matrix" values="0 0 0 0 0 0 0 0 0 0 0 0 0 0 0 0 0 0 0.05 0"/>
<feBlend mode="normal" in2="BackgroundImageFix" result="effect1_dropShadow"/>
<feBlend mode="normal" in="SourceGraphic" in2="effect1_dropShadow" result="shape"/>
</filter>
<filter id="filter2_d" x="0" y="73" width="408" height="71" filterUnits="userSpaceOnUse" color-interpolation-filters="sRGB">
<feFlood flood-opacity="0" result="BackgroundImageFix"/>
<feColorMatrix in="SourceAlpha" type="matrix" values="0 0 0 0 0 0 0 0 0 0 0 0 0 0 0 0 0 0 127 0"/>
<feOffset dy="4"/>
<feGaussianBlur stdDeviation="2"/>
<feColorMatrix type="matrix" values="0 0 0 0 0 0 0 0 0 0 0 0 0 0 0 0 0 0 0.05 0"/>
<feBlend mode="normal" in2="BackgroundImageFix" result="effect1_dropShadow"/>
<feBlend mode="normal" in="SourceGraphic" in2="effect1_dropShadow" result="shape"/>
</filter>
<clipPath id="clip0">
<rect width="16" height="16" fill="white" transform="translate(30 23)"/>
</clipPath>
</defs>
</svg>
