<svg width="583" height="261" viewBox="0 0 583 261" fill="none" xmlns="http://www.w3.org/2000/svg">
<g filter="url(#filter0_d)">
<rect x="67.2695" y="10" width="330.151" height="72.033" rx="10" transform="rotate(1.23853 67.2695 10)" fill="white"/>
</g>
<path d="M163.296 58.1672C162.017 58.1395 160.877 57.9068 159.879 57.4692C158.88 57.0315 158.037 56.4131 157.35 55.6141C156.663 54.815 156.14 53.8595 155.78 52.7475C155.436 51.6358 155.279 50.3841 155.309 48.9924C155.339 47.6007 155.55 46.357 155.942 45.2612C156.349 44.1658 156.914 43.2337 157.634 42.4651C158.371 41.6969 159.248 41.1157 160.265 40.7216C161.281 40.3275 162.422 40.1441 163.685 40.1714C164.965 40.1991 166.104 40.4317 167.103 40.8694C168.102 41.3071 168.937 41.9253 169.608 42.724C170.294 43.523 170.81 44.4784 171.154 45.5901C171.498 46.7018 171.655 47.9535 171.625 49.3451C171.595 50.7368 171.384 51.9806 170.992 53.0763C170.616 54.1725 170.068 55.1048 169.347 55.8734C168.642 56.6424 167.782 57.2239 166.765 57.618C165.748 58.0121 164.592 58.1952 163.296 58.1672ZM163.339 55.0954C164.842 55.1279 165.973 54.6402 166.731 53.6324C167.489 52.6245 167.889 51.1688 167.93 49.2653C167.971 47.3777 167.634 45.9141 166.92 44.8744C166.207 43.8188 165.099 43.2747 163.595 43.2422C162.091 43.2096 160.96 43.7053 160.202 44.7292C159.444 45.737 159.045 47.1847 159.004 49.0723C158.963 50.9758 159.299 52.4474 160.013 53.4871C160.726 54.5268 161.835 55.0629 163.339 55.0954ZM174.404 45.4443L177.668 45.5149L177.63 47.2665C178.06 46.6196 178.574 46.1426 179.173 45.8355C179.772 45.5124 180.4 45.3579 181.056 45.3721C181.375 45.379 181.639 45.4007 181.846 45.4372C182.054 45.4577 182.237 45.4856 182.397 45.5211L181.923 48.5596C181.541 48.4553 181.07 48.3971 180.51 48.385C180.142 48.377 179.789 48.4174 179.451 48.5061C179.114 48.5788 178.806 48.7322 178.529 48.9663C178.236 49.216 178.014 49.4993 177.863 49.8161C177.728 50.1332 177.657 50.4598 177.65 50.7957L177.493 58.042L174.134 57.9694L174.404 45.4443ZM192.299 56.7057C191.309 58.0447 189.999 58.6965 188.367 58.6612C186.608 58.6232 185.309 58.0029 184.471 56.8005C183.632 55.5981 183.236 53.9492 183.281 51.8537C183.302 50.8779 183.442 49.9927 183.699 49.1981C183.972 48.3878 184.347 47.6998 184.824 47.1339C185.3 46.5521 185.878 46.1085 186.557 45.8031C187.236 45.4977 187.999 45.3541 188.847 45.3725C189.471 45.3859 190.084 45.5112 190.687 45.7483C191.306 45.9858 191.881 46.4303 192.411 47.0819L192.537 41.2273L195.896 41.2999L195.526 58.4319L192.263 58.3613L192.299 56.7057ZM192.329 51.9533C192.347 51.1535 192.288 50.5121 192.155 50.0291C192.037 49.5464 191.83 49.1498 191.532 48.8393C191.251 48.5452 190.935 48.3543 190.585 48.2667C190.251 48.1635 189.916 48.1082 189.58 48.1009C189.212 48.093 188.858 48.1574 188.519 48.2941C188.196 48.4311 187.904 48.6488 187.641 48.9472C187.395 49.246 187.194 49.6417 187.039 50.1345C186.885 50.6273 186.8 51.2176 186.785 51.9054C186.769 52.6573 186.819 53.2905 186.936 53.8051C187.069 54.3041 187.252 54.7162 187.485 55.0413C187.719 55.3504 187.994 55.5804 188.311 55.7313C188.628 55.8662 188.97 55.9376 189.338 55.9456C190.138 55.9629 190.799 55.7451 191.321 55.2923C191.648 54.9793 191.888 54.6004 192.042 54.1556C192.212 53.6951 192.304 53.105 192.32 52.3852L192.329 51.9533ZM210.057 54.8331C209.802 56.236 209.211 57.2954 208.284 58.0115C207.372 58.712 206.053 59.0436 204.325 59.0062C202.246 58.9613 200.691 58.3515 199.66 57.1769C198.645 56.0027 198.16 54.3599 198.206 52.2484C198.229 51.1926 198.401 50.2601 198.723 49.4509C199.044 48.6256 199.484 47.931 200.04 47.3669C200.612 46.8031 201.285 46.3856 202.059 46.1142C202.834 45.8269 203.685 45.6933 204.613 45.7133C206.532 45.7548 207.96 46.3378 208.896 47.4623C209.848 48.5871 210.304 50.0853 210.263 51.9569L210.234 53.3006L201.548 53.1128C201.558 54.1213 201.797 54.9186 202.265 55.5049C202.732 56.0751 203.446 56.3706 204.406 56.3913C205.734 56.42 206.529 55.8771 206.794 54.7626L210.057 54.8331ZM207.042 51.0231C207.061 50.1593 206.86 49.4828 206.438 48.9935C206.033 48.5047 205.382 48.2505 204.486 48.2312C204.038 48.2215 203.645 48.285 203.306 48.4217C202.967 48.5584 202.675 48.7521 202.429 49.0029C202.2 49.238 202.018 49.5221 201.883 49.8553C201.748 50.1724 201.668 50.5228 201.644 50.9064L207.042 51.0231ZM212.903 46.2767L216.167 46.3472L216.129 48.0988C216.559 47.4519 217.073 46.9749 217.672 46.6678C218.271 46.3447 218.899 46.1902 219.554 46.2044C219.874 46.2113 220.138 46.233 220.345 46.2695C220.553 46.29 220.736 46.318 220.895 46.3534L220.422 49.3919C220.04 49.2876 219.569 49.2294 219.009 49.2173C218.641 49.2094 218.288 49.2497 217.95 49.3385C217.613 49.4112 217.305 49.5646 217.028 49.7986C216.735 50.0483 216.512 50.3316 216.362 50.6484C216.227 50.9656 216.156 51.2921 216.148 51.628L215.992 58.8744L212.632 58.8017L212.903 46.2767ZM243.056 53.5301C242.956 54.4401 242.722 55.2833 242.353 56.0595C242.001 56.82 241.514 57.4817 240.894 58.0444C240.29 58.5915 239.545 59.0155 238.658 59.3164C237.787 59.6176 236.776 59.7558 235.624 59.7309C234.329 59.7029 233.189 59.4622 232.207 59.0089C231.241 58.5559 230.43 57.9302 229.775 57.1319C229.136 56.3339 228.661 55.3794 228.349 54.2684C228.037 53.1414 227.896 51.906 227.925 50.5623C227.955 49.1707 228.166 47.9269 228.557 46.8311C228.949 45.7354 229.497 44.803 230.202 44.034C230.907 43.2651 231.752 42.6832 232.737 42.2884C233.721 41.8936 234.83 41.7095 236.061 41.7361C237.149 41.7597 238.09 41.916 238.884 42.2053C239.694 42.4948 240.365 42.9014 240.898 43.4251C241.447 43.9491 241.881 44.5746 242.202 45.3017C242.522 46.0288 242.752 46.842 242.893 47.7412L239.332 48.1203C239.178 47.1088 238.851 46.3095 238.352 45.7226C237.868 45.136 237.083 44.8309 235.995 44.8074C234.619 44.7777 233.56 45.2749 232.818 46.2991C232.092 47.3076 231.709 48.7557 231.668 50.6433C231.627 52.5468 231.971 54.0186 232.701 55.0586C233.446 56.099 234.459 56.633 235.739 56.6607C236.842 56.6845 237.656 56.4221 238.18 55.8732C238.721 55.3088 239.066 54.5001 239.217 53.4471L243.056 53.5301ZM251.027 60.0159C249.011 59.9723 247.464 59.3627 246.385 58.1871C245.307 57.0115 244.79 55.352 244.837 53.2085C244.859 52.1847 245.023 51.2681 245.328 50.4585C245.65 49.6333 246.089 48.9466 246.645 48.3985C247.217 47.8347 247.899 47.4093 248.689 47.1224C249.48 46.8354 250.355 46.7023 251.314 46.723C252.29 46.7441 253.167 46.9151 253.944 47.236C254.721 47.5568 255.376 48.0111 255.907 48.5987C256.455 49.1707 256.864 49.8757 257.134 50.7137C257.404 51.5357 257.528 52.4586 257.506 53.4824C257.483 54.5222 257.311 55.4547 256.989 56.2799C256.684 57.0895 256.245 57.7762 255.672 58.3399C255.116 58.904 254.443 59.3296 253.652 59.6165C252.862 59.9035 251.987 60.0366 251.027 60.0159ZM251.085 57.3285C252.045 57.3493 252.764 57.0207 253.243 56.3429C253.738 55.6655 253.999 54.6869 254.027 53.4072C254.054 52.1275 253.835 51.1465 253.37 50.4643C252.921 49.7824 252.216 49.4311 251.256 49.4104C250.297 49.3896 249.569 49.71 249.075 50.3715C248.597 51.0333 248.344 52.004 248.316 53.2837C248.288 54.5794 248.498 55.5762 248.947 56.2741C249.397 56.9559 250.109 57.3074 251.085 57.3285ZM260.189 47.299L263.452 47.3695L263.416 49.0491C263.895 48.3553 264.45 47.8472 265.081 47.5248C265.712 47.2023 266.372 47.0485 267.06 47.0634C267.972 47.0831 268.711 47.2832 269.279 47.6635C269.847 48.0439 270.244 48.5886 270.468 49.2976C271.061 48.5422 271.681 48.0035 272.328 47.6814C272.975 47.3593 273.682 47.2066 274.45 47.2232C275.746 47.2512 276.706 47.632 277.33 48.3657C277.971 49.0837 278.274 50.2425 278.239 51.8422L278.058 60.2162L274.699 60.1436L274.87 52.2254C274.88 51.7775 274.848 51.4168 274.773 51.1431C274.7 50.8534 274.593 50.6271 274.452 50.464C274.327 50.3013 274.17 50.1858 273.979 50.1177C273.789 50.0496 273.59 50.0132 273.382 50.0087C273.046 50.0015 272.733 50.0507 272.442 50.1565C272.168 50.2626 271.892 50.4486 271.614 50.7147C271.385 50.9338 271.196 51.1858 271.045 51.4706C270.911 51.7558 270.841 52.0583 270.834 52.3782L270.668 60.0564L267.309 59.9838L267.48 52.0657C267.489 51.6178 267.457 51.257 267.383 50.9833C267.309 50.6937 267.202 50.4673 267.062 50.3042C266.937 50.1415 266.78 50.0261 266.589 49.9579C266.399 49.8898 266.199 49.8535 265.991 49.849C265.655 49.8417 265.342 49.891 265.052 49.9967C264.778 50.1028 264.501 50.2889 264.224 50.5549C263.995 50.774 263.805 51.042 263.654 51.3588C263.52 51.66 263.448 51.9945 263.44 52.3624L263.278 59.8967L259.918 59.824L260.189 47.299ZM281.184 47.7529L284.447 47.8234L284.412 49.479C285.401 48.1401 286.727 47.4886 288.391 47.5246C290.134 47.5623 291.425 48.1823 292.263 49.3847C293.102 50.5871 293.499 52.2201 293.454 54.2836C293.432 55.2754 293.285 56.1764 293.011 56.9867C292.754 57.7973 292.379 58.4933 291.886 59.0748C291.41 59.6407 290.832 60.0763 290.153 60.3817C289.475 60.6871 288.711 60.8306 287.863 60.8123C287.24 60.7988 286.618 60.6733 285.999 60.4359C285.396 60.1988 284.83 59.7385 284.301 59.0549L284.172 65.0055L280.813 64.9329L281.184 47.7529ZM284.382 54.1835C284.364 54.9993 284.414 55.6565 284.531 56.1552C284.665 56.6382 284.88 57.0349 285.178 57.3454C285.491 57.6403 285.807 57.8392 286.125 57.942C286.459 58.0293 286.794 58.0765 287.13 58.0838C287.498 58.0918 287.852 58.0274 288.191 57.8907C288.53 57.754 288.823 57.5363 289.069 57.2375C289.332 56.9231 289.541 56.5195 289.695 56.0268C289.85 55.534 289.935 54.9357 289.95 54.2319C289.966 53.496 289.907 52.8786 289.774 52.3796C289.657 51.881 289.482 51.4771 289.248 51.168C289.015 50.8429 288.732 50.6127 288.399 50.4775C288.082 50.3266 287.74 50.2472 287.372 50.2392C286.956 50.2302 286.595 50.2784 286.289 50.3838C285.982 50.4892 285.682 50.6588 285.389 50.8925C285.063 51.1895 284.815 51.5682 284.645 52.0287C284.491 52.4894 284.406 53.0798 284.39 53.7996L284.382 54.1835ZM296.257 43.4697L299.617 43.5423L299.246 60.6743L295.887 60.6017L296.257 43.4697ZM313.79 57.0758C313.536 58.4787 312.945 59.5381 312.017 60.2542C311.106 60.9547 309.786 61.2863 308.059 61.2489C305.979 61.204 304.424 60.5942 303.393 59.4196C302.378 58.2454 301.894 56.6026 301.94 54.4911C301.962 53.4353 302.135 52.5028 302.456 51.6936C302.778 50.8683 303.217 50.1737 303.773 49.6096C304.346 49.0458 305.019 48.6283 305.793 48.3569C306.567 48.0696 307.418 47.936 308.346 47.956C310.266 47.9975 311.694 48.5805 312.629 49.705C313.581 50.8298 314.037 52.328 313.997 54.1996L313.968 55.5433L305.282 55.3555C305.292 56.364 305.531 57.1613 305.998 57.7476C306.466 58.3178 307.18 58.6133 308.139 58.634C309.467 58.6627 310.263 58.1198 310.527 57.0053L313.79 57.0758ZM310.776 53.2658C310.795 52.402 310.593 51.7255 310.172 51.2362C309.766 50.7474 309.116 50.4932 308.22 50.4739C307.772 50.4642 307.378 50.5277 307.039 50.6644C306.7 50.8011 306.408 50.9948 306.163 51.2456C305.934 51.4807 305.751 51.7648 305.616 52.098C305.481 52.4151 305.402 52.7655 305.377 53.1491L310.776 53.2658ZM317.348 51.1513L315.381 51.1088L315.437 48.4934L317.405 48.536L317.477 45.2007L320.836 45.2734L320.764 48.6086L323.643 48.6708L323.587 51.2862L320.707 51.224L320.582 57.0066C320.568 57.6625 320.694 58.1133 320.961 58.3591C321.228 58.5889 321.578 58.7085 322.01 58.7179C322.234 58.7227 322.458 58.7196 322.682 58.7084C322.923 58.6816 323.156 58.6386 323.381 58.5795L323.807 61.0613C323.34 61.1952 322.882 61.2813 322.434 61.3196C322 61.3743 321.584 61.3973 321.184 61.3886C319.808 61.3589 318.791 61.0088 318.134 60.3385C317.492 59.6684 317.188 58.5576 317.222 57.006L317.348 51.1513ZM336.777 57.5728C336.523 58.9756 335.932 60.0351 335.004 60.7512C334.093 61.4517 332.773 61.7832 331.046 61.7459C328.966 61.7009 327.411 61.0912 326.38 59.9166C325.365 58.7424 324.881 57.0995 324.926 54.988C324.949 53.9323 325.121 52.9998 325.443 52.1906C325.765 51.3653 326.204 50.6706 326.76 50.1065C327.333 49.5428 328.006 49.1252 328.78 48.8539C329.554 48.5666 330.405 48.4329 331.333 48.453C333.253 48.4945 334.68 49.0775 335.616 50.202C336.568 51.3268 337.024 52.825 336.983 54.6966L336.954 56.0403L328.268 55.8525C328.279 56.8609 328.517 57.6583 328.985 58.2445C329.453 58.8148 330.166 59.1103 331.126 59.131C332.454 59.1597 333.25 58.6168 333.514 57.5022L336.777 57.5728ZM333.763 53.7628C333.782 52.899 333.58 52.2224 333.159 51.7332C332.753 51.2443 332.102 50.9902 331.207 50.9708C330.759 50.9612 330.365 51.0247 330.026 51.1614C329.687 51.2981 329.395 51.4918 329.149 51.7426C328.92 51.9777 328.738 52.2618 328.603 52.5949C328.468 52.9121 328.388 53.2625 328.364 53.646L333.763 53.7628ZM348.075 60.0736C347.085 61.4125 345.775 62.0643 344.143 62.0291C342.384 61.991 341.085 61.3708 340.247 60.1684C339.409 58.966 339.012 57.317 339.057 55.2215C339.078 54.2458 339.218 53.3606 339.475 52.5659C339.748 51.7557 340.123 51.0676 340.6 50.5018C341.076 49.9199 341.654 49.4763 342.333 49.1709C343.012 48.8655 343.775 48.722 344.623 48.7403C345.247 48.7538 345.86 48.8791 346.463 49.1162C347.082 49.3536 347.657 49.7981 348.187 50.4497L348.313 44.5951L351.672 44.6677L351.302 61.7997L348.039 61.7292L348.075 60.0736ZM348.105 55.3211C348.123 54.5213 348.064 53.8799 347.931 53.3969C347.813 52.9143 347.606 52.5177 347.308 52.2072C347.027 51.913 346.711 51.7221 346.361 51.6346C346.027 51.5313 345.692 51.4761 345.356 51.4688C344.988 51.4608 344.635 51.5252 344.296 51.6619C343.973 51.799 343.68 52.0167 343.417 52.3151C343.171 52.6138 342.97 53.0096 342.815 53.5024C342.661 53.9951 342.576 54.5854 342.561 55.2733C342.545 56.0251 342.595 56.6583 342.712 57.173C342.845 57.672 343.028 58.084 343.261 58.4091C343.495 58.7183 343.77 58.9483 344.087 59.0991C344.404 59.234 344.746 59.3055 345.114 59.3134C345.914 59.3307 346.575 59.1129 347.097 58.6601C347.424 58.3471 347.664 57.9682 347.818 57.5234C347.988 57.063 348.08 56.4729 348.096 55.753L348.105 55.3211Z" fill="#50C0E8"/>
<path d="M123.942 54.679C123.323 55.9745 123.029 56.5517 122.243 57.6923C121.148 59.2837 119.609 61.2618 117.756 61.2385C116.109 61.2185 115.71 60.1232 113.475 60.0869C111.241 60.0506 110.751 61.1063 109.104 61.0551C107.252 60.9982 105.876 59.1529 104.849 57.5144C101.982 52.935 101.786 47.6304 103.676 44.8542C105.02 42.8803 107.096 41.7545 109.025 41.7962C110.988 41.8386 112.199 42.9419 113.823 42.977C115.398 43.011 116.381 41.954 118.651 42.0031C120.367 42.0402 122.164 43.0132 123.425 44.6556C119.131 46.8899 119.689 52.9648 123.942 54.679Z" stroke="#50C0E8" stroke-miterlimit="10" stroke-linecap="square"/>
<path d="M117.996 34.4823C117.983 35.581 117.485 36.6425 116.836 37.4389C116.149 38.2829 115.048 38.9278 113.977 39.0262C113.966 37.9725 114.499 36.9012 115.168 36.1239L117.996 34.4823ZM117.996 34.4823C116.983 34.6793 115.866 35.3133 115.168 36.1238L117.996 34.4823Z" stroke="#50C0E8"/>
<g filter="url(#filter1_d)">
<rect x="202.299" y="81.7505" width="365.259" height="79.6928" rx="10" transform="rotate(-3.9961 202.299 81.7505)" fill="white"/>
</g>
<path d="M313.789 122.466C312.831 122.533 312.006 122.423 311.312 122.134C310.634 121.845 310.035 121.309 309.515 120.527L309.261 122.398L306.005 122.625L308.426 105.278L311.778 105.044L310.912 111.24C311.305 110.667 311.8 110.183 312.398 109.788C312.995 109.378 313.724 109.142 314.586 109.082C315.32 109.031 315.969 109.13 316.532 109.379C317.109 109.612 317.591 109.963 317.977 110.433C318.378 110.902 318.69 111.458 318.911 112.1C319.132 112.742 319.269 113.431 319.32 114.165C319.399 115.298 319.312 116.355 319.06 117.335C318.824 118.313 318.451 119.173 317.941 119.915C317.448 120.655 316.848 121.25 316.141 121.701C315.435 122.151 314.651 122.406 313.789 122.466ZM310.143 116.081C310.095 116.533 310.082 116.935 310.107 117.286C310.129 117.606 310.182 117.907 310.266 118.189C310.349 118.456 310.471 118.704 310.631 118.934C310.845 119.24 311.134 119.476 311.499 119.643C311.878 119.793 312.323 119.85 312.834 119.814C313.376 119.777 313.845 119.599 314.24 119.283C314.651 118.966 314.975 118.558 315.213 118.06C315.467 117.561 315.644 116.996 315.744 116.363C315.845 115.731 315.871 115.079 315.824 114.409C315.765 113.563 315.52 112.923 315.089 112.488C314.657 112.053 314.138 111.856 313.532 111.899C312.686 111.958 311.964 112.297 311.366 112.916C311.065 113.21 310.817 113.564 310.622 113.978C310.441 114.376 310.325 114.785 310.274 115.206L310.143 116.081ZM325.915 108.676L324.839 116.353C324.819 116.531 324.799 116.701 324.778 116.863C324.773 117.024 324.776 117.176 324.786 117.319C324.823 117.846 324.97 118.229 325.227 118.468C325.5 118.705 325.868 118.808 326.331 118.775C326.762 118.745 327.118 118.664 327.397 118.532C327.691 118.384 327.989 118.17 328.291 117.893C328.547 117.666 328.776 117.378 328.976 117.027C329.192 116.675 329.325 116.289 329.376 115.868L330.416 108.361L333.767 108.127L332.007 120.809L328.751 121.036L328.989 119.287C328.435 120.08 327.843 120.667 327.212 121.047C326.596 121.411 325.921 121.619 325.186 121.67C324.021 121.752 323.114 121.502 322.464 120.922C321.814 120.342 321.45 119.493 321.371 118.376C321.34 117.929 321.367 117.398 321.453 116.782L322.563 108.91L325.915 108.676ZM335.441 108.01L339.176 107.749L341.019 115.873L344.826 107.355L348.633 107.089L341.774 120.487C341.393 121.236 341.038 121.886 340.708 122.438C340.378 123.007 340.026 123.48 339.652 123.859C339.279 124.254 338.851 124.557 338.368 124.767C337.902 124.976 337.333 125.104 336.663 125.151C336.248 125.18 335.862 125.167 335.505 125.111C335.15 125.072 334.783 124.993 334.406 124.875L335.094 122.325C335.29 122.376 335.501 122.417 335.728 122.449C335.971 122.481 336.228 122.487 336.499 122.468C336.946 122.436 337.305 122.291 337.576 122.032C337.862 121.771 338.139 121.367 338.405 120.819L338.973 119.648L335.441 108.01ZM353.912 119.278L355.697 106.595L359.049 106.361L357.264 119.044L353.912 119.278ZM355.826 104.998L356.262 101.937L359.709 101.696L359.273 104.758L355.826 104.998ZM364.956 114.249C364.91 114.508 364.894 114.75 364.91 114.974C364.94 115.405 365.072 115.684 365.305 115.812C365.539 115.94 365.823 115.992 366.158 115.969C366.382 115.953 366.62 115.921 366.873 115.871C367.141 115.804 367.369 115.74 367.558 115.679L368.209 118.111C367.741 118.304 367.285 118.44 366.842 118.52C366.399 118.615 365.947 118.678 365.484 118.711C364.303 118.793 363.367 118.594 362.675 118.113C361.999 117.615 361.623 116.823 361.547 115.738C361.515 115.275 361.538 114.808 361.618 114.337L362.406 108.749L360.443 108.886L360.811 106.238L362.775 106.101L363.26 102.723L366.612 102.489L366.126 105.867L368.999 105.666L368.631 108.314L365.758 108.515L364.956 114.249ZM375.834 107.33C375.515 107.352 375.198 107.414 374.885 107.516C374.571 107.618 374.286 107.783 374.029 108.009C373.772 108.236 373.544 108.532 373.345 108.899C373.147 109.266 372.994 109.725 372.888 110.278L378.06 109.917C378.175 109.043 378.017 108.38 377.584 107.929C377.168 107.477 376.584 107.277 375.834 107.33ZM372.779 112.499C372.773 113.558 373.004 114.344 373.473 114.857C373.958 115.368 374.607 115.595 375.421 115.538C376.092 115.492 376.618 115.335 377 115.067C377.382 114.8 377.639 114.341 377.77 113.69L381.026 113.463C380.789 114.891 380.209 116.006 379.287 116.808C378.364 117.594 377.016 118.049 375.244 118.173C374.414 118.231 373.655 118.156 372.967 117.947C372.279 117.739 371.687 117.419 371.192 116.989C370.697 116.558 370.299 116.025 369.998 115.388C369.696 114.751 369.518 114.034 369.462 113.236C369.374 111.975 369.471 110.838 369.753 109.824C370.035 108.809 370.464 107.945 371.04 107.232C371.614 106.502 372.32 105.931 373.157 105.52C373.995 105.109 374.932 104.867 375.97 104.794C376.752 104.739 377.462 104.81 378.102 105.006C378.741 105.202 379.29 105.492 379.75 105.877C380.21 106.262 380.573 106.742 380.837 107.317C381.102 107.892 381.258 108.523 381.306 109.209C381.328 109.512 381.336 109.856 381.33 110.242C381.325 110.627 381.29 111.039 381.224 111.476L381.159 111.914L372.779 112.499ZM390.441 116.727L391.515 109.025C391.549 108.814 391.567 108.62 391.571 108.444C391.575 108.267 391.571 108.107 391.561 107.963C391.521 107.389 391.359 107.015 391.074 106.842C390.789 106.67 390.463 106.596 390.096 106.622C389.458 106.667 388.899 106.938 388.421 107.437C387.913 107.97 387.597 108.617 387.474 109.38L386.419 117.008L383.067 117.242L384.828 104.56L388.084 104.333L387.866 106.032C388.453 105.253 389.031 104.684 389.599 104.323C390.183 103.962 390.794 103.758 391.433 103.714C392.343 103.65 393.041 103.778 393.529 104.097C394.031 104.398 394.412 104.917 394.672 105.653C395.316 104.774 395.955 104.16 396.588 103.811C397.237 103.461 397.977 103.257 398.807 103.199C399.86 103.125 400.696 103.372 401.313 103.938C401.928 104.488 402.274 105.306 402.35 106.392C402.382 106.854 402.357 107.41 402.274 108.057L401.167 115.977L397.815 116.211L398.893 108.558C398.926 108.347 398.945 108.153 398.948 107.977C398.952 107.8 398.949 107.64 398.939 107.496C398.897 106.905 398.742 106.523 398.474 106.35C398.204 106.16 397.893 106.077 397.542 106.102C397.175 106.128 396.852 106.214 396.574 106.362C396.312 106.509 396.052 106.703 395.797 106.946C395.572 107.17 395.374 107.44 395.204 107.757C395.033 108.074 394.928 108.394 394.886 108.717L393.793 116.492L390.441 116.727Z" fill="#50C0E8"/>
<g clip-path="url(#clip0)">
<path d="M242.701 116.875L243.349 126.149" stroke="#50C0E8" stroke-miterlimit="10" stroke-linecap="square"/>
<path d="M271.85 114.838L272.498 124.113" stroke="#50C0E8" stroke-miterlimit="10" stroke-linecap="square"/>
<path d="M250.094 108.369L245.842 104.672" stroke="#50C0E8" stroke-miterlimit="10" stroke-linecap="square"/>
<path d="M263.344 107.444L267.041 103.191" stroke="#50C0E8" stroke-miterlimit="10" stroke-linecap="square"/>
<path d="M252.9 129.477L253.178 133.452" stroke="#50C0E8" stroke-miterlimit="10" stroke-linecap="square"/>
<path d="M263.5 128.736L263.778 132.711" stroke="#50C0E8" stroke-miterlimit="10" stroke-linecap="square"/>
<path d="M256.535 105.256C251.412 105.614 247.55 110.057 247.908 115.179L248.926 129.754L267.476 128.458L266.457 113.883C266.1 108.761 261.657 104.899 256.535 105.256Z" stroke="#50C0E8" stroke-miterlimit="10" stroke-linecap="square"/>
<path d="M253.116 113.484C253.847 113.433 254.399 112.798 254.348 112.067C254.297 111.335 253.662 110.783 252.93 110.834C252.199 110.885 251.647 111.52 251.698 112.252C251.749 112.984 252.384 113.535 253.116 113.484Z" fill="#50C0E8"/>
<path d="M261.065 112.929C261.797 112.877 262.348 112.243 262.297 111.511C262.246 110.779 261.611 110.227 260.88 110.279C260.148 110.33 259.596 110.964 259.647 111.696C259.698 112.428 260.333 112.98 261.065 112.929Z" fill="#50C0E8"/>
<path d="M248 116.504L266.55 115.209" stroke="#50C0E8" stroke-miterlimit="10" stroke-linecap="square"/>
</g>
<g filter="url(#filter2_d)">
<rect x="17.5137" y="135.56" width="371.377" height="81.0278" rx="10" transform="rotate(5.32124 17.5137 135.56)" fill="white"/>
</g>
<path d="M134.891 191.153C134.624 192.639 133.995 193.785 133.004 194.593C132.03 195.386 130.643 195.699 128.843 195.531C127.791 195.433 126.898 195.189 126.163 194.799C125.428 194.41 124.84 193.905 124.4 193.285C123.975 192.667 123.681 191.941 123.518 191.106C123.355 190.271 123.319 189.36 123.411 188.372C123.503 187.385 123.722 186.497 124.069 185.71C124.433 184.908 124.904 184.245 125.483 183.721C126.064 183.18 126.752 182.786 127.546 182.539C128.34 182.291 129.231 182.214 130.219 182.306C131.063 182.384 131.786 182.564 132.386 182.845C133.004 183.111 133.511 183.456 133.905 183.878C134.3 184.301 134.591 184.794 134.78 185.358C134.97 185.906 135.075 186.502 135.095 187.147L131.683 187.287C131.663 186.642 131.527 186.115 131.276 185.706C131.027 185.281 130.551 185.036 129.85 184.971C129.341 184.923 128.908 184.996 128.553 185.188C128.199 185.364 127.901 185.625 127.66 185.972C127.435 186.321 127.26 186.73 127.136 187.201C127.013 187.655 126.928 188.138 126.881 188.647C126.832 189.173 126.825 189.679 126.86 190.164C126.895 190.649 126.991 191.084 127.148 191.468C127.305 191.853 127.541 192.172 127.854 192.426C128.17 192.664 128.582 192.807 129.092 192.855C129.761 192.917 130.297 192.774 130.699 192.426C131.101 192.078 131.367 191.548 131.497 190.837L134.891 191.153ZM142.244 196.779C140.237 196.592 138.737 195.874 137.744 194.625C136.752 193.375 136.355 191.683 136.554 189.548C136.649 188.529 136.878 187.626 137.24 186.84C137.62 186.04 138.107 185.386 138.7 184.879C139.311 184.358 140.021 183.982 140.83 183.752C141.639 183.522 142.521 183.452 143.477 183.541C144.449 183.631 145.311 183.864 146.063 184.239C146.816 184.615 147.436 185.115 147.924 185.738C148.43 186.348 148.788 187.08 148.997 187.935C149.208 188.775 149.266 189.704 149.171 190.724C149.075 191.759 148.837 192.677 148.457 193.477C148.095 194.263 147.608 194.917 146.997 195.438C146.402 195.961 145.7 196.338 144.891 196.568C144.082 196.798 143.2 196.868 142.244 196.779ZM142.493 194.103C143.449 194.192 144.19 193.915 144.716 193.273C145.257 192.633 145.588 191.675 145.706 190.401C145.825 189.126 145.677 188.132 145.261 187.419C144.861 186.707 144.184 186.306 143.228 186.217C142.272 186.128 141.524 186.396 140.984 187.02C140.459 187.646 140.138 188.597 140.019 189.871C139.899 191.162 140.038 192.171 140.436 192.899C140.836 193.611 141.521 194.012 142.493 194.103ZM152.288 184.747L155.538 185.05L155.382 186.722C155.91 186.064 156.499 185.597 157.152 185.32C157.804 185.044 158.473 184.937 159.158 185.001C160.066 185.086 160.79 185.338 161.329 185.758C161.869 186.178 162.225 186.749 162.399 187.472C163.044 186.761 163.7 186.268 164.369 185.993C165.037 185.717 165.754 185.615 166.518 185.687C167.809 185.807 168.739 186.255 169.31 187.031C169.898 187.793 170.117 188.971 169.969 190.564L169.192 198.904L165.847 198.592L166.581 190.706C166.623 190.26 166.616 189.898 166.562 189.62C166.509 189.325 166.418 189.092 166.29 188.919C166.177 188.748 166.028 188.622 165.843 188.54C165.658 188.459 165.461 188.408 165.254 188.389C164.92 188.358 164.604 188.385 164.307 188.47C164.026 188.556 163.737 188.722 163.441 188.967C163.197 189.17 162.99 189.407 162.82 189.681C162.666 189.956 162.574 190.253 162.544 190.571L161.832 198.218L158.486 197.906L159.221 190.021C159.263 189.575 159.256 189.212 159.202 188.934C159.149 188.64 159.058 188.406 158.929 188.234C158.817 188.063 158.668 187.936 158.483 187.855C158.297 187.773 158.101 187.723 157.894 187.704C157.56 187.672 157.244 187.699 156.947 187.784C156.665 187.87 156.377 188.036 156.081 188.282C155.837 188.484 155.628 188.738 155.455 189.043C155.3 189.334 155.205 189.663 155.171 190.029L154.472 197.533L151.126 197.221L152.288 184.747ZM173.198 186.694L176.448 186.997L176.294 188.646C177.376 187.381 178.745 186.825 180.402 186.98C182.139 187.142 183.382 187.852 184.133 189.111C184.883 190.37 185.163 192.027 184.971 194.082C184.879 195.07 184.668 195.958 184.337 196.747C184.023 197.537 183.599 198.205 183.066 198.75C182.551 199.28 181.944 199.673 181.245 199.93C180.546 200.186 179.775 200.275 178.93 200.196C178.309 200.138 177.698 199.969 177.097 199.688C176.513 199.409 175.981 198.909 175.502 198.19L174.95 204.116L171.604 203.804L173.198 186.694ZM175.929 193.336C175.854 194.149 175.857 194.808 175.938 195.314C176.037 195.805 176.224 196.216 176.498 196.547C176.79 196.863 177.091 197.084 177.401 197.21C177.728 197.32 178.059 197.391 178.393 197.422C178.76 197.457 179.117 197.418 179.465 197.305C179.813 197.193 180.12 196.997 180.387 196.716C180.672 196.421 180.909 196.034 181.098 195.553C181.288 195.073 181.415 194.482 181.48 193.781C181.548 193.048 181.534 192.428 181.436 191.921C181.355 191.415 181.209 191 180.998 190.675C180.789 190.334 180.523 190.084 180.2 189.926C179.895 189.753 179.559 189.649 179.193 189.615C178.778 189.576 178.415 189.599 178.102 189.682C177.789 189.765 177.478 189.913 177.169 190.125C176.822 190.398 176.547 190.759 176.345 191.206C176.158 191.654 176.032 192.237 175.965 192.954L175.929 193.336ZM188.538 183.495L191.883 183.807L190.294 200.869L186.948 200.557L188.538 183.495ZM205.057 198.315C204.704 199.696 204.039 200.711 203.063 201.359C202.104 201.993 200.764 202.23 199.043 202.07C196.972 201.877 195.464 201.158 194.52 199.913C193.591 198.669 193.225 196.996 193.421 194.893C193.519 193.842 193.757 192.924 194.135 192.14C194.515 191.339 195.002 190.678 195.597 190.155C196.208 189.633 196.91 189.265 197.701 189.049C198.494 188.818 199.352 188.745 200.276 188.831C202.188 189.009 203.571 189.692 204.424 190.88C205.294 192.07 205.641 193.597 205.468 195.461L205.343 196.799L196.693 195.993C196.631 197 196.813 197.812 197.237 198.43C197.663 199.033 198.354 199.378 199.31 199.467C200.632 199.59 201.465 199.105 201.807 198.012L205.057 198.315ZM202.322 194.3C202.402 193.44 202.249 192.751 201.864 192.233C201.494 191.716 200.863 191.416 199.971 191.333C199.525 191.292 199.128 191.327 198.78 191.439C198.432 191.552 198.127 191.724 197.864 191.957C197.619 192.175 197.417 192.445 197.258 192.768C197.101 193.075 196.997 193.419 196.945 193.799L202.322 194.3ZM209.028 192.659L207.068 192.477L207.311 189.872L209.27 190.054L209.58 186.733L212.925 187.044L212.616 190.366L215.484 190.633L215.241 193.238L212.373 192.971L211.837 198.73C211.776 199.383 211.87 199.842 212.119 200.106C212.369 200.354 212.709 200.498 213.139 200.538C213.362 200.559 213.586 200.572 213.81 200.577C214.052 200.567 214.288 200.541 214.517 200.498L214.765 203.004C214.29 203.104 213.827 203.157 213.376 203.164C212.94 203.187 212.523 203.181 212.125 203.143C210.755 203.016 209.766 202.594 209.157 201.879C208.565 201.165 208.341 200.035 208.485 198.49L209.028 192.659ZM227.951 200.447C227.597 201.829 226.932 202.843 225.956 203.492C224.997 204.125 223.657 204.362 221.936 204.202C219.865 204.009 218.358 203.29 217.413 202.045C216.484 200.802 216.118 199.128 216.314 197.026C216.412 195.974 216.65 195.056 217.028 194.272C217.408 193.472 217.895 192.81 218.491 192.287C219.102 191.765 219.803 191.397 220.594 191.181C221.387 190.95 222.245 190.877 223.169 190.963C225.081 191.141 226.464 191.824 227.317 193.013C228.187 194.202 228.535 195.729 228.361 197.593L228.236 198.931L219.586 198.126C219.524 199.132 219.706 199.945 220.13 200.563C220.556 201.165 221.247 201.51 222.203 201.599C223.525 201.723 224.358 201.238 224.701 200.145L227.951 200.447ZM225.215 196.432C225.295 195.572 225.142 194.883 224.757 194.365C224.387 193.849 223.756 193.549 222.864 193.466C222.418 193.424 222.021 193.459 221.673 193.572C221.325 193.684 221.02 193.856 220.757 194.089C220.512 194.307 220.31 194.578 220.151 194.9C219.994 195.207 219.89 195.551 219.838 195.932L225.215 196.432ZM238.059 205.752C236.784 205.633 235.665 205.32 234.7 204.812C233.735 204.304 232.938 203.628 232.31 202.782C231.681 201.936 231.227 200.945 230.947 199.811C230.683 198.677 230.616 197.418 230.745 196.032C230.874 194.646 231.173 193.42 231.642 192.355C232.126 191.291 232.756 190.402 233.529 189.686C234.319 188.973 235.235 188.455 236.277 188.135C237.319 187.814 238.47 187.712 239.728 187.829C241.003 187.948 242.123 188.261 243.088 188.769C244.053 189.277 244.841 189.953 245.454 190.797C246.082 191.643 246.528 192.633 246.792 193.766C247.056 194.899 247.124 196.159 246.995 197.545C246.865 198.931 246.567 200.157 246.098 201.222C245.645 202.288 245.032 203.179 244.258 203.895C243.5 204.611 242.6 205.13 241.558 205.451C240.516 205.772 239.349 205.872 238.059 205.752ZM238.32 202.691C239.817 202.83 240.98 202.424 241.808 201.473C242.636 200.522 243.138 199.098 243.314 197.202C243.49 195.322 243.258 193.839 242.62 192.751C241.984 191.647 240.917 191.025 239.419 190.886C237.922 190.746 236.759 191.16 235.929 192.128C235.102 193.079 234.6 194.494 234.425 196.374C234.248 198.27 234.479 199.762 235.117 200.85C235.755 201.938 236.822 202.551 238.32 202.691ZM250.045 193.852L253.295 194.155L253.132 195.899C253.607 195.285 254.154 194.845 254.773 194.582C255.394 194.302 256.031 194.193 256.684 194.254C257.003 194.283 257.264 194.324 257.468 194.375C257.674 194.41 257.855 194.451 258.011 194.498L257.322 197.495C256.949 197.363 256.483 197.272 255.926 197.22C255.559 197.186 255.204 197.201 254.861 197.265C254.519 197.314 254.201 197.445 253.908 197.659C253.598 197.887 253.356 198.154 253.183 198.459C253.026 198.766 252.932 199.086 252.901 199.421L252.228 206.638L248.883 206.326L250.045 193.852ZM267.092 206.359C266.01 207.624 264.656 208.181 263.031 208.03C261.279 207.866 260.027 207.155 259.277 205.896C258.526 204.637 258.248 202.964 258.443 200.877C258.533 199.905 258.735 199.032 259.048 198.258C259.379 197.469 259.802 196.81 260.317 196.279C260.834 195.733 261.442 195.331 262.141 195.075C262.84 194.819 263.611 194.73 264.455 194.809C265.077 194.866 265.68 195.035 266.264 195.315C266.865 195.595 267.406 196.08 267.889 196.767L268.432 190.937L271.777 191.248L270.188 208.31L266.938 208.008L267.092 206.359ZM267.461 201.621C267.535 200.824 267.523 200.18 267.424 199.689C267.341 199.199 267.162 198.789 266.888 198.458C266.627 198.144 266.326 197.932 265.983 197.819C265.657 197.692 265.327 197.614 264.993 197.582C264.626 197.548 264.269 197.587 263.921 197.7C263.589 197.813 263.282 198.01 262.998 198.288C262.731 198.569 262.503 198.949 262.314 199.43C262.124 199.91 261.998 200.493 261.934 201.178C261.864 201.927 261.869 202.562 261.949 203.084C262.047 203.591 262.2 204.015 262.409 204.356C262.62 204.681 262.878 204.93 263.183 205.103C263.49 205.26 263.827 205.356 264.193 205.39C264.99 205.464 265.664 205.294 266.217 204.879C266.565 204.59 266.832 204.23 267.017 203.797C267.219 203.35 267.354 202.768 267.421 202.051L267.461 201.621ZM284.938 205.755C284.585 207.137 283.92 208.151 282.943 208.799C281.984 209.433 280.645 209.67 278.924 209.51C276.853 209.317 275.345 208.598 274.401 207.353C273.472 206.11 273.106 204.436 273.301 202.333C273.399 201.282 273.638 200.364 274.016 199.58C274.396 198.78 274.883 198.118 275.478 197.595C276.089 197.073 276.79 196.705 277.582 196.489C278.375 196.258 279.233 196.185 280.157 196.271C282.069 196.449 283.452 197.132 284.305 198.321C285.174 199.51 285.522 201.037 285.349 202.901L285.224 204.239L276.573 203.434C276.512 204.44 276.693 205.253 277.118 205.871C277.544 206.473 278.235 206.818 279.191 206.907C280.513 207.03 281.345 206.546 281.688 205.453L284.938 205.755ZM282.203 201.74C282.283 200.88 282.13 200.191 281.745 199.673C281.375 199.156 280.744 198.857 279.852 198.774C279.406 198.732 279.009 198.767 278.661 198.88C278.313 198.992 278.008 199.164 277.745 199.397C277.5 199.615 277.298 199.885 277.139 200.208C276.982 200.515 276.878 200.859 276.826 201.24L282.203 201.74ZM288.387 197.423L291.637 197.726L291.474 199.47C291.949 198.856 292.496 198.417 293.115 198.153C293.736 197.873 294.373 197.764 295.026 197.825C295.345 197.854 295.606 197.895 295.81 197.946C296.016 197.981 296.197 198.022 296.353 198.069L295.664 201.066C295.291 200.935 294.825 200.843 294.268 200.791C293.901 200.757 293.546 200.772 293.203 200.837C292.861 200.885 292.543 201.016 292.25 201.23C291.94 201.458 291.698 201.725 291.525 202.03C291.368 202.337 291.274 202.658 291.242 202.992L290.57 210.209L287.225 209.897L288.387 197.423Z" fill="#50C0E8"/>
<path d="M121.485 197.666L295.46 213.87L295.308 215.495L121.334 199.291L121.485 197.666Z" fill="#50C0E8"/>
<path d="M58.6116 170.555C59.4806 171.331 60.1561 172.277 60.7347 173.492C61.2409 174.553 62.3129 177.474 60.9449 178.939C59.3976 180.596 55.3438 180.826 55.1905 182.472C55.0751 183.71 56.697 185.287 57.5041 186.756C58.7184 188.966 57.8907 190.921 57.0031 192.135C56.543 192.765 55.8539 193.276 55.1099 193.632" stroke="#50C0E8" stroke-miterlimit="10"/>
<path d="M78.4498 175.452C75.417 176.573 71.3398 177.141 70.6061 177.126C69.1915 177.096 69.0907 175.921 68.1673 174.186C67.4747 172.885 65.735 171.175 65.8536 169.901C65.9001 169.403 65.9862 169.002 66.1508 168.619" stroke="#50C0E8" stroke-miterlimit="10"/>
<path d="M64.5691 198.264C72.7381 199.025 79.9772 193.02 80.7381 184.851C81.499 176.682 75.4935 169.443 67.3245 168.682C59.1555 167.921 51.9164 173.926 51.1555 182.095C50.3947 190.264 56.4001 197.503 64.5691 198.264Z" stroke="#50C0E8" stroke-miterlimit="10" stroke-linecap="square"/>
<path d="M75.2671 185.566C74.9373 189.718 69.0581 194.387 66.4166 193.011C64.1011 191.805 65.9757 190.07 65.8544 184.689C65.8037 182.452 68.3372 180.851 70.9365 181.093C73.5357 181.336 75.4449 183.336 75.2671 185.566Z" stroke="#50C0E8" stroke-miterlimit="10"/>
<defs>
<filter id="filter0_d" x="55.7129" y="0" width="351.631" height="99.1523" filterUnits="userSpaceOnUse" color-interpolation-filters="sRGB">
<feFlood flood-opacity="0" result="BackgroundImageFix"/>
<feColorMatrix in="SourceAlpha" type="matrix" values="0 0 0 0 0 0 0 0 0 0 0 0 0 0 0 0 0 0 127 0"/>
<feOffset/>
<feGaussianBlur stdDeviation="5"/>
<feColorMatrix type="matrix" values="0 0 0 0 0 0 0 0 0 0 0 0 0 0 0 0 0 0 0.1 0"/>
<feBlend mode="normal" in2="BackgroundImageFix" result="effect1_dropShadow"/>
<feBlend mode="normal" in="SourceGraphic" in2="effect1_dropShadow" result="shape"/>
</filter>
<filter id="filter1_d" x="192.299" y="46.2959" width="389.924" height="124.953" filterUnits="userSpaceOnUse" color-interpolation-filters="sRGB">
<feFlood flood-opacity="0" result="BackgroundImageFix"/>
<feColorMatrix in="SourceAlpha" type="matrix" values="0 0 0 0 0 0 0 0 0 0 0 0 0 0 0 0 0 0 127 0"/>
<feOffset/>
<feGaussianBlur stdDeviation="5"/>
<feColorMatrix type="matrix" values="0 0 0 0 0 0 0 0 0 0 0 0 0 0 0 0 0 0 0.1 0"/>
<feBlend mode="normal" in2="BackgroundImageFix" result="effect1_dropShadow"/>
<feBlend mode="normal" in="SourceGraphic" in2="effect1_dropShadow" result="shape"/>
</filter>
<filter id="filter2_d" x="0" y="125.56" width="397.291" height="135.12" filterUnits="userSpaceOnUse" color-interpolation-filters="sRGB">
<feFlood flood-opacity="0" result="BackgroundImageFix"/>
<feColorMatrix in="SourceAlpha" type="matrix" values="0 0 0 0 0 0 0 0 0 0 0 0 0 0 0 0 0 0 127 0"/>
<feOffset/>
<feGaussianBlur stdDeviation="5"/>
<feColorMatrix type="matrix" values="0 0 0 0 0 0 0 0 0 0 0 0 0 0 0 0 0 0 0.1 0"/>
<feBlend mode="normal" in2="BackgroundImageFix" result="effect1_dropShadow"/>
<feBlend mode="normal" in="SourceGraphic" in2="effect1_dropShadow" result="shape"/>
</filter>
<clipPath id="clip0">
<rect width="31.8771" height="31.8771" fill="white" transform="translate(239.74 103.101) rotate(-3.9961)"/>
</clipPath>
</defs>
</svg>
