<svg width="541" height="301" viewBox="0 0 541 301" fill="none" xmlns="http://www.w3.org/2000/svg">
<g filter="url(#filter0_d)">
<rect x="4" width="503" height="255" rx="5" fill="#434A54"/>
<path d="M51.728 64.4L50.864 68H46.736L51.824 51.368H56.6L61.688 68H57.464L56.6 64.4H51.728ZM55.952 61.568L54.152 54.2L52.352 61.568H55.952ZM63.0706 55.256H66.3826L66.6466 56.72C67.2226 56.08 67.8226 55.608 68.4466 55.304C69.0866 54.984 69.8066 54.824 70.6066 54.824C71.7106 54.824 72.5666 55.16 73.1746 55.832C73.7986 56.504 74.1106 57.44 74.1106 58.64V68H70.3186V59.744C70.3186 58.944 70.2306 58.392 70.0546 58.088C69.8786 57.784 69.5586 57.632 69.0946 57.632C68.7106 57.632 68.3346 57.76 67.9666 58.016C67.6146 58.256 67.2466 58.616 66.8626 59.096V68H63.0706V55.256ZM88.1893 64.328C88.1893 64.792 88.2533 65.136 88.3813 65.36C88.5093 65.584 88.7253 65.752 89.0293 65.864L88.2373 68.36C87.4693 68.28 86.8293 68.112 86.3173 67.856C85.8053 67.584 85.4053 67.192 85.1173 66.68C84.6373 67.24 84.0293 67.672 83.2933 67.976C82.5573 68.264 81.7733 68.408 80.9413 68.408C79.6293 68.408 78.5813 68.04 77.7973 67.304C77.0133 66.552 76.6213 65.584 76.6213 64.4C76.6213 63.024 77.1653 61.96 78.2533 61.208C79.3413 60.44 80.8693 60.056 82.8372 60.056H84.5413V59.6C84.5413 58.288 83.7013 57.632 82.0213 57.632C81.5893 57.632 81.0453 57.696 80.3893 57.824C79.7493 57.936 79.1253 58.096 78.5173 58.304L77.6533 55.784C78.4693 55.48 79.3173 55.248 80.1973 55.088C81.0933 54.912 81.9013 54.824 82.6213 54.824C86.3333 54.824 88.1893 56.328 88.1893 59.336V64.328ZM82.2373 65.696C82.6693 65.696 83.1013 65.576 83.5333 65.336C83.9813 65.08 84.3173 64.736 84.5413 64.304V62.216H83.6053C81.5573 62.216 80.5333 62.856 80.5333 64.136C80.5333 64.632 80.6773 65.016 80.9653 65.288C81.2693 65.56 81.6933 65.696 82.2373 65.696ZM98.4999 63.992C98.4999 64.936 99.0439 65.408 100.132 65.408C100.724 65.408 101.332 65.28 101.956 65.024L102.844 67.568C101.82 68.128 100.596 68.408 99.1719 68.408C97.6839 68.408 96.5639 67.984 95.8119 67.136C95.0759 66.272 94.7079 65.064 94.7079 63.512V52.784H90.9639V50.192H98.4999V63.992ZM114.043 68C113.467 69.712 112.611 71 111.475 71.864C110.339 72.744 108.819 73.24 106.915 73.352L106.483 70.664C107.699 70.504 108.595 70.232 109.171 69.848C109.763 69.464 110.235 68.848 110.587 68H109.267L105.235 55.256H109.243L111.715 65.576L114.403 55.256H118.291L114.043 68ZM132.105 67.256C130.905 68.024 129.513 68.408 127.929 68.408C126.297 68.408 125.065 67.992 124.233 67.16C123.417 66.328 123.009 65.16 123.009 63.656V57.872H120.345V55.256H123.009V52.496L126.801 52.04V55.256H130.905L130.521 57.872H126.801V63.656C126.801 64.28 126.945 64.728 127.233 65C127.521 65.272 127.985 65.408 128.625 65.408C129.425 65.408 130.169 65.216 130.857 64.832L132.105 67.256ZM140.52 48.584C141.176 48.584 141.712 48.792 142.128 49.208C142.544 49.608 142.752 50.112 142.752 50.72C142.752 51.344 142.544 51.856 142.128 52.256C141.712 52.656 141.176 52.856 140.52 52.856C139.864 52.856 139.32 52.656 138.888 52.256C138.472 51.84 138.264 51.328 138.264 50.72C138.264 50.112 138.472 49.608 138.888 49.208C139.32 48.792 139.864 48.584 140.52 48.584ZM142.8 65.408H146.064V68H135.408V65.408H139.008V57.848H135.528V55.256H142.8V65.408ZM156.182 65.408C156.662 65.408 157.126 65.32 157.574 65.144C158.022 64.952 158.502 64.68 159.014 64.328L160.694 66.728C160.086 67.24 159.382 67.648 158.582 67.952C157.782 68.256 156.91 68.408 155.966 68.408C154.606 68.408 153.43 68.128 152.438 67.568C151.462 67.008 150.71 66.224 150.182 65.216C149.654 64.208 149.39 63.04 149.39 61.712C149.39 60.384 149.662 59.2 150.206 58.16C150.75 57.12 151.518 56.304 152.51 55.712C153.518 55.12 154.694 54.824 156.038 54.824C156.982 54.824 157.83 54.96 158.582 55.232C159.334 55.488 160.038 55.888 160.694 56.432L159.062 58.712C158.134 58.072 157.182 57.752 156.206 57.752C154.302 57.752 153.35 59.072 153.35 61.712C153.35 63.04 153.598 63.992 154.094 64.568C154.59 65.128 155.286 65.408 156.182 65.408ZM168.917 65.696C169.573 65.696 170.085 65.6 170.453 65.408C170.837 65.2 171.029 64.896 171.029 64.496C171.029 64.208 170.949 63.976 170.789 63.8C170.645 63.624 170.365 63.456 169.949 63.296C169.533 63.12 168.885 62.912 168.005 62.672C166.725 62.336 165.749 61.872 165.077 61.28C164.405 60.672 164.069 59.84 164.069 58.784C164.069 57.616 164.549 56.664 165.509 55.928C166.485 55.192 167.845 54.824 169.589 54.824C171.605 54.824 173.325 55.344 174.749 56.384L173.237 58.616C172.069 57.896 170.893 57.536 169.709 57.536C169.085 57.536 168.621 57.616 168.317 57.776C168.029 57.936 167.885 58.184 167.885 58.52C167.885 58.744 167.957 58.936 168.101 59.096C168.261 59.24 168.549 59.392 168.965 59.552C169.397 59.712 170.037 59.912 170.885 60.152C171.797 60.408 172.541 60.688 173.117 60.992C173.709 61.296 174.165 61.704 174.485 62.216C174.805 62.728 174.965 63.384 174.965 64.184C174.965 65.08 174.693 65.848 174.149 66.488C173.605 67.128 172.877 67.608 171.965 67.928C171.053 68.248 170.045 68.408 168.941 68.408C167.757 68.408 166.685 68.24 165.725 67.904C164.765 67.568 163.949 67.096 163.277 66.488L165.173 64.352C166.325 65.248 167.573 65.696 168.917 65.696Z" fill="#EA0D8C"/>
<path d="M181.388 65.984C181.388 65.344 181.612 64.8 182.06 64.352C182.508 63.904 183.052 63.68 183.692 63.68C184.348 63.68 184.9 63.904 185.348 64.352C185.796 64.8 186.02 65.344 186.02 65.984C186.02 66.64 185.796 67.192 185.348 67.64C184.9 68.088 184.348 68.312 183.692 68.312C183.052 68.312 182.508 68.088 182.06 67.64C181.612 67.192 181.388 66.64 181.388 65.984ZM441.091 59.6C441.091 61.12 441.259 62.456 441.595 63.608C441.931 64.76 442.443 65.84 443.131 66.848C443.835 67.856 444.787 68.936 445.987 70.088L444.523 71.528C442.443 69.8 440.891 68.024 439.867 66.2C438.843 64.36 438.331 62.16 438.331 59.6C438.331 57.04 438.843 54.848 439.867 53.024C440.891 51.184 442.443 49.4 444.523 47.672L445.987 49.112C444.803 50.248 443.859 51.32 443.155 52.328C442.467 53.32 441.947 54.4 441.595 55.568C441.259 56.736 441.091 58.08 441.091 59.6ZM460.906 49.904C459.994 49.904 459.298 50.04 458.818 50.312C458.338 50.568 458.13 51.016 458.194 51.656L458.626 56.072C458.642 56.216 458.65 56.416 458.65 56.672C458.65 57.552 458.41 58.224 457.93 58.688C457.466 59.136 456.77 59.44 455.842 59.6C456.802 59.76 457.506 60.056 457.954 60.488C458.418 60.92 458.65 61.584 458.65 62.48C458.65 62.768 458.642 62.984 458.626 63.128L458.194 67.544C458.13 68.2 458.338 68.656 458.818 68.912C459.298 69.168 459.994 69.296 460.906 69.296V71.288C459.226 71.288 457.93 71.024 457.018 70.496C456.122 69.984 455.674 69.104 455.674 67.856C455.674 67.616 455.682 67.432 455.698 67.304L456.154 63.152C456.17 63.072 456.178 62.944 456.178 62.768C456.178 62.032 455.906 61.504 455.362 61.184C454.818 60.848 453.914 60.68 452.65 60.68V58.52C453.914 58.52 454.818 58.36 455.362 58.04C455.906 57.704 456.178 57.168 456.178 56.432C456.178 56.272 456.17 56.152 456.154 56.072L455.698 51.92C455.682 51.792 455.674 51.608 455.674 51.368C455.674 50.12 456.122 49.232 457.018 48.704C457.93 48.176 459.226 47.912 460.906 47.912V49.904ZM84.1093 90.992C87.1813 90.992 88.7173 93.208 88.7173 97.64C88.7173 99.64 88.2933 101.256 87.4453 102.488C86.5973 103.704 85.3893 104.312 83.8213 104.312C82.4933 104.312 81.4213 103.848 80.6053 102.92V108.872L77.9173 109.184V91.328H80.2453L80.4133 92.96C80.8933 92.32 81.4453 91.832 82.0693 91.496C82.7093 91.16 83.3893 90.992 84.1093 90.992ZM83.3653 93.056C82.8053 93.056 82.2933 93.224 81.8293 93.56C81.3653 93.896 80.9573 94.336 80.6053 94.88V100.808C81.2293 101.752 82.0613 102.224 83.1013 102.224C84.0293 102.224 84.7253 101.856 85.1893 101.12C85.6533 100.384 85.8853 99.232 85.8853 97.664C85.8853 96.048 85.6773 94.88 85.2613 94.16C84.8453 93.424 84.2133 93.056 83.3653 93.056ZM101.284 91.016C101.94 91.016 102.58 91.12 103.204 91.328L102.748 96.008H100.828V93.416C99.9479 93.432 99.1799 93.784 98.5239 94.472C97.8839 95.16 97.3719 96.128 96.9879 97.376V102.08H99.5319V104H92.4279V102.08H94.2999V93.248H92.4279V91.328H96.3399L96.8199 94.256C97.3159 93.168 97.9159 92.36 98.6199 91.832C99.3399 91.288 100.228 91.016 101.284 91.016ZM111.787 90.992C113.611 90.992 115.019 91.592 116.011 92.792C117.003 93.976 117.499 95.592 117.499 97.64C117.499 99.688 116.995 101.312 115.987 102.512C114.979 103.712 113.571 104.312 111.763 104.312C109.939 104.312 108.523 103.728 107.515 102.56C106.523 101.376 106.027 99.744 106.027 97.664C106.027 95.648 106.531 94.032 107.539 92.816C108.563 91.6 109.979 90.992 111.787 90.992ZM111.787 93.08C110.811 93.08 110.075 93.456 109.579 94.208C109.099 94.96 108.859 96.112 108.859 97.664C108.859 99.232 109.099 100.392 109.579 101.144C110.059 101.88 110.787 102.248 111.763 102.248C112.739 102.248 113.467 101.872 113.947 101.12C114.427 100.368 114.667 99.208 114.667 97.64C114.667 96.088 114.427 94.944 113.947 94.208C113.467 93.456 112.747 93.08 111.787 93.08ZM131.217 86.24V104H128.841L128.649 102.44C128.233 103.048 127.721 103.512 127.113 103.832C126.505 104.152 125.833 104.312 125.097 104.312C123.513 104.312 122.321 103.72 121.521 102.536C120.721 101.352 120.321 99.728 120.321 97.664C120.321 96.368 120.521 95.216 120.921 94.208C121.337 93.2 121.921 92.416 122.673 91.856C123.425 91.28 124.313 90.992 125.337 90.992C126.633 90.992 127.697 91.456 128.529 92.384V85.928L131.217 86.24ZM126.033 93.056C125.105 93.056 124.393 93.44 123.897 94.208C123.417 94.96 123.177 96.112 123.177 97.664C123.177 100.736 124.057 102.272 125.817 102.272C126.873 102.272 127.777 101.664 128.529 100.448V94.472C127.873 93.528 127.041 93.056 126.033 93.056ZM138.168 100.184C138.168 100.92 138.312 101.456 138.6 101.792C138.904 102.112 139.36 102.272 139.968 102.272C140.544 102.272 141.096 102.104 141.624 101.768C142.168 101.432 142.6 101.008 142.92 100.496V91.328H145.608V104H143.28L143.112 102.368C142.664 102.992 142.08 103.472 141.36 103.808C140.64 104.144 139.896 104.312 139.128 104.312C137.912 104.312 137 103.984 136.392 103.328C135.784 102.672 135.48 101.736 135.48 100.52V91.328H138.168V100.184ZM155.99 102.104C156.998 102.104 158.038 101.744 159.11 101.024L160.334 102.752C159.774 103.232 159.102 103.616 158.318 103.904C157.534 104.176 156.726 104.312 155.894 104.312C153.958 104.312 152.446 103.72 151.358 102.536C150.27 101.336 149.726 99.736 149.726 97.736C149.726 96.44 149.974 95.288 150.47 94.28C150.966 93.256 151.678 92.456 152.606 91.88C153.55 91.288 154.662 90.992 155.942 90.992C157.622 90.992 159.086 91.504 160.334 92.528L159.086 94.208C158.062 93.504 157.03 93.152 155.99 93.152C154.934 93.152 154.102 93.536 153.494 94.304C152.886 95.056 152.582 96.2 152.582 97.736C152.582 99.24 152.886 100.344 153.494 101.048C154.102 101.752 154.934 102.104 155.99 102.104ZM174.845 103.328C174.365 103.632 173.805 103.872 173.165 104.048C172.525 104.224 171.853 104.312 171.149 104.312C169.709 104.312 168.597 103.944 167.813 103.208C167.029 102.456 166.637 101.44 166.637 100.16V93.296H163.829V91.328H166.637V88.496L169.325 88.184V91.328H173.621L173.309 93.296H169.325V100.136C169.325 100.824 169.501 101.336 169.853 101.672C170.205 101.992 170.765 102.152 171.533 102.152C172.381 102.152 173.165 101.952 173.885 101.552L174.845 103.328ZM188.708 89.552H185.108V101.864H188.708V104H178.724V101.864H182.324V89.552H178.724V87.44H188.708V89.552ZM203.17 86.24V104H200.794L200.602 102.44C200.186 103.048 199.674 103.512 199.066 103.832C198.458 104.152 197.786 104.312 197.05 104.312C195.466 104.312 194.274 103.72 193.474 102.536C192.674 101.352 192.274 99.728 192.274 97.664C192.274 96.368 192.474 95.216 192.874 94.208C193.29 93.2 193.874 92.416 194.626 91.856C195.378 91.28 196.266 90.992 197.29 90.992C198.586 90.992 199.65 91.456 200.482 92.384V85.928L203.17 86.24ZM197.986 93.056C197.058 93.056 196.346 93.44 195.85 94.208C195.37 94.96 195.13 96.112 195.13 97.664C195.13 100.736 196.01 102.272 197.77 102.272C198.826 102.272 199.73 101.664 200.482 100.448V94.472C199.826 93.528 198.994 93.056 197.986 93.056ZM210.337 93.632C210.337 93.04 210.545 92.536 210.961 92.12C211.377 91.688 211.881 91.472 212.473 91.472C213.081 91.472 213.593 91.688 214.009 92.12C214.425 92.536 214.633 93.04 214.633 93.632C214.633 94.224 214.425 94.736 214.009 95.168C213.593 95.584 213.081 95.792 212.473 95.792C211.881 95.792 211.377 95.584 210.961 95.168C210.545 94.736 210.337 94.224 210.337 93.632ZM210.337 102.152C210.337 101.56 210.545 101.056 210.961 100.64C211.377 100.224 211.881 100.016 212.473 100.016C213.097 100.016 213.609 100.224 214.009 100.64C214.425 101.056 214.633 101.56 214.633 102.152C214.633 102.76 214.425 103.272 214.009 103.688C213.609 104.104 213.097 104.312 212.473 104.312C211.881 104.312 211.377 104.104 210.961 103.688C210.545 103.272 210.337 102.76 210.337 102.152ZM242.406 90.992C245.478 90.992 247.014 93.208 247.014 97.64C247.014 99.64 246.59 101.256 245.742 102.488C244.894 103.704 243.686 104.312 242.118 104.312C240.79 104.312 239.718 103.848 238.902 102.92V108.872L236.214 109.184V91.328H238.542L238.71 92.96C239.19 92.32 239.742 91.832 240.366 91.496C241.006 91.16 241.686 90.992 242.406 90.992ZM241.662 93.056C241.102 93.056 240.59 93.224 240.126 93.56C239.662 93.896 239.254 94.336 238.902 94.88V100.808C239.526 101.752 240.358 102.224 241.398 102.224C242.326 102.224 243.022 101.856 243.486 101.12C243.95 100.384 244.182 99.232 244.182 97.664C244.182 96.048 243.974 94.88 243.558 94.16C243.142 93.424 242.51 93.056 241.662 93.056ZM259.581 91.016C260.237 91.016 260.877 91.12 261.501 91.328L261.045 96.008H259.125V93.416C258.245 93.432 257.477 93.784 256.821 94.472C256.181 95.16 255.669 96.128 255.285 97.376V102.08H257.829V104H250.725V102.08H252.597V93.248H250.725V91.328H254.637L255.117 94.256C255.613 93.168 256.213 92.36 256.917 91.832C257.637 91.288 258.525 91.016 259.581 91.016ZM270.083 90.992C271.907 90.992 273.315 91.592 274.307 92.792C275.299 93.976 275.795 95.592 275.795 97.64C275.795 99.688 275.291 101.312 274.283 102.512C273.275 103.712 271.867 104.312 270.059 104.312C268.235 104.312 266.819 103.728 265.811 102.56C264.819 101.376 264.323 99.744 264.323 97.664C264.323 95.648 264.827 94.032 265.835 92.816C266.859 91.6 268.275 90.992 270.083 90.992ZM270.083 93.08C269.107 93.08 268.371 93.456 267.875 94.208C267.395 94.96 267.155 96.112 267.155 97.664C267.155 99.232 267.395 100.392 267.875 101.144C268.355 101.88 269.083 102.248 270.059 102.248C271.035 102.248 271.763 101.872 272.243 101.12C272.723 100.368 272.963 99.208 272.963 97.64C272.963 96.088 272.723 94.944 272.243 94.208C271.763 93.456 271.043 93.08 270.083 93.08ZM289.514 86.24V104H287.138L286.946 102.44C286.53 103.048 286.018 103.512 285.41 103.832C284.802 104.152 284.13 104.312 283.394 104.312C281.81 104.312 280.618 103.72 279.818 102.536C279.018 101.352 278.618 99.728 278.618 97.664C278.618 96.368 278.818 95.216 279.218 94.208C279.634 93.2 280.218 92.416 280.97 91.856C281.722 91.28 282.61 90.992 283.634 90.992C284.93 90.992 285.994 91.456 286.826 92.384V85.928L289.514 86.24ZM284.33 93.056C283.402 93.056 282.69 93.44 282.194 94.208C281.714 94.96 281.474 96.112 281.474 97.664C281.474 100.736 282.354 102.272 284.114 102.272C285.17 102.272 286.074 101.664 286.826 100.448V94.472C286.17 93.528 285.338 93.056 284.33 93.056ZM296.465 100.184C296.465 100.92 296.609 101.456 296.897 101.792C297.201 102.112 297.657 102.272 298.265 102.272C298.841 102.272 299.393 102.104 299.921 101.768C300.465 101.432 300.897 101.008 301.217 100.496V91.328H303.905V104H301.577L301.409 102.368C300.961 102.992 300.377 103.472 299.657 103.808C298.937 104.144 298.193 104.312 297.425 104.312C296.209 104.312 295.297 103.984 294.689 103.328C294.081 102.672 293.777 101.736 293.777 100.52V91.328H296.465V100.184ZM314.287 102.104C315.295 102.104 316.335 101.744 317.407 101.024L318.631 102.752C318.071 103.232 317.399 103.616 316.615 103.904C315.831 104.176 315.023 104.312 314.191 104.312C312.255 104.312 310.743 103.72 309.655 102.536C308.567 101.336 308.023 99.736 308.023 97.736C308.023 96.44 308.271 95.288 308.767 94.28C309.263 93.256 309.975 92.456 310.903 91.88C311.847 91.288 312.959 90.992 314.239 90.992C315.919 90.992 317.383 91.504 318.631 92.528L317.383 94.208C316.359 93.504 315.327 93.152 314.287 93.152C313.231 93.152 312.399 93.536 311.791 94.304C311.183 95.056 310.879 96.2 310.879 97.736C310.879 99.24 311.183 100.344 311.791 101.048C312.399 101.752 313.231 102.104 314.287 102.104ZM333.142 103.328C332.662 103.632 332.102 103.872 331.462 104.048C330.822 104.224 330.15 104.312 329.446 104.312C328.006 104.312 326.894 103.944 326.11 103.208C325.326 102.456 324.934 101.44 324.934 100.16V93.296H322.126V91.328H324.934V88.496L327.622 88.184V91.328H331.918L331.606 93.296H327.622V100.136C327.622 100.824 327.798 101.336 328.15 101.672C328.502 101.992 329.062 102.152 329.83 102.152C330.678 102.152 331.462 101.952 332.182 101.552L333.142 103.328ZM339.685 101.984C339.685 101.344 339.909 100.8 340.357 100.352C340.805 99.904 341.349 99.68 341.989 99.68C342.645 99.68 343.197 99.904 343.645 100.352C344.093 100.8 344.317 101.344 344.317 101.984C344.317 102.64 344.093 103.192 343.645 103.64C343.197 104.088 342.645 104.312 341.989 104.312C341.349 104.312 340.805 104.088 340.357 103.64C339.909 103.192 339.685 102.64 339.685 101.984ZM356.403 85.112C356.915 85.112 357.331 85.28 357.651 85.616C357.987 85.936 358.155 86.336 358.155 86.816C358.155 87.296 357.987 87.696 357.651 88.016C357.331 88.336 356.915 88.496 356.403 88.496C355.875 88.496 355.451 88.336 355.131 88.016C354.811 87.696 354.651 87.296 354.651 86.816C354.651 86.32 354.811 85.912 355.131 85.592C355.467 85.272 355.891 85.112 356.403 85.112ZM358.251 102.032H361.707V104H351.795V102.032H355.563V93.296H351.915V91.328H358.251V102.032ZM375.858 86.24V104H373.482L373.29 102.44C372.874 103.048 372.362 103.512 371.754 103.832C371.146 104.152 370.474 104.312 369.738 104.312C368.154 104.312 366.962 103.72 366.162 102.536C365.362 101.352 364.962 99.728 364.962 97.664C364.962 96.368 365.162 95.216 365.562 94.208C365.978 93.2 366.562 92.416 367.314 91.856C368.066 91.28 368.954 90.992 369.978 90.992C371.274 90.992 372.338 91.456 373.17 92.384V85.928L375.858 86.24ZM370.674 93.056C369.746 93.056 369.034 93.44 368.538 94.208C368.058 94.96 367.818 96.112 367.818 97.664C367.818 100.736 368.698 102.272 370.458 102.272C371.514 102.272 372.418 101.664 373.17 100.448V94.472C372.514 93.528 371.682 93.056 370.674 93.056ZM385.184 99.68C385.808 99.68 386.328 99.888 386.744 100.304C387.176 100.72 387.392 101.232 387.392 101.84C387.392 102.192 387.336 102.544 387.224 102.896C387.128 103.248 386.952 103.704 386.696 104.264L384.848 108.512H382.76L383.912 103.64C383.64 103.448 383.416 103.192 383.24 102.872C383.08 102.552 383 102.208 383 101.84C383 101.232 383.208 100.72 383.624 100.304C384.056 99.888 384.576 99.68 385.184 99.68ZM82.1893 126.992C83.5973 126.992 84.7173 127.52 85.5493 128.576L85.7173 127.328H88.0453V145.184L85.3573 144.872V138.608C84.4933 139.744 83.3413 140.312 81.9013 140.312C80.3013 140.312 79.1253 139.736 78.3733 138.584C77.6213 137.416 77.2453 135.776 77.2453 133.664C77.2453 131.68 77.6773 130.072 78.5413 128.84C79.4213 127.608 80.6373 126.992 82.1893 126.992ZM82.8613 129.056C81.0053 129.056 80.0773 130.592 80.0773 133.664C80.0773 135.248 80.2853 136.408 80.7013 137.144C81.1333 137.864 81.7733 138.224 82.6213 138.224C83.1973 138.224 83.7093 138.064 84.1573 137.744C84.6213 137.424 85.0213 136.992 85.3573 136.448V130.472C84.7173 129.528 83.8853 129.056 82.8613 129.056ZM94.9959 136.184C94.9959 136.92 95.1399 137.456 95.4279 137.792C95.7319 138.112 96.1879 138.272 96.7959 138.272C97.3719 138.272 97.9239 138.104 98.4519 137.768C98.9959 137.432 99.4279 137.008 99.7479 136.496V127.328H102.436V140H100.108L99.9399 138.368C99.4919 138.992 98.9079 139.472 98.1879 139.808C97.4679 140.144 96.7239 140.312 95.9559 140.312C94.7399 140.312 93.8279 139.984 93.2199 139.328C92.6119 138.672 92.3079 137.736 92.3079 136.52V127.328H94.9959V136.184ZM116.395 136.904C116.395 137.384 116.467 137.744 116.611 137.984C116.755 138.208 117.003 138.376 117.355 138.488L116.731 140.312C115.403 140.152 114.531 139.568 114.115 138.56C113.651 139.136 113.067 139.576 112.363 139.88C111.675 140.168 110.915 140.312 110.083 140.312C108.803 140.312 107.787 139.952 107.035 139.232C106.283 138.512 105.907 137.56 105.907 136.376C105.907 135.048 106.427 134.024 107.467 133.304C108.523 132.584 110.011 132.224 111.931 132.224H113.731V131.408C113.731 130.608 113.491 130.024 113.011 129.656C112.531 129.288 111.835 129.104 110.923 129.104C110.475 129.104 109.955 129.16 109.363 129.272C108.771 129.384 108.171 129.544 107.562 129.752L106.891 127.856C108.411 127.28 109.891 126.992 111.331 126.992C113.011 126.992 114.275 127.36 115.123 128.096C115.971 128.832 116.395 129.88 116.395 131.24V136.904ZM110.875 138.344C111.435 138.344 111.971 138.2 112.483 137.912C113.011 137.624 113.427 137.224 113.731 136.712V133.904H112.243C111.027 133.904 110.139 134.112 109.579 134.528C109.019 134.928 108.739 135.512 108.739 136.28C108.739 136.952 108.915 137.464 109.267 137.816C109.635 138.168 110.171 138.344 110.875 138.344ZM121.089 127.328H123.417L123.609 128.984C124.137 128.344 124.753 127.856 125.457 127.52C126.177 127.168 126.929 126.992 127.713 126.992C128.881 126.992 129.761 127.32 130.353 127.976C130.945 128.632 131.241 129.56 131.241 130.76V140H128.553V132.104C128.553 131.32 128.505 130.72 128.409 130.304C128.329 129.872 128.161 129.56 127.905 129.368C127.649 129.16 127.265 129.056 126.753 129.056C126.177 129.056 125.625 129.232 125.097 129.584C124.585 129.936 124.145 130.376 123.777 130.904V140H121.089V127.328ZM146.064 139.328C145.584 139.632 145.024 139.872 144.384 140.048C143.744 140.224 143.072 140.312 142.368 140.312C140.928 140.312 139.816 139.944 139.032 139.208C138.248 138.456 137.856 137.44 137.856 136.16V129.296H135.048V127.328H137.856V124.496L140.544 124.184V127.328H144.84L144.528 129.296H140.544V136.136C140.544 136.824 140.72 137.336 141.072 137.672C141.424 137.992 141.984 138.152 142.752 138.152C143.6 138.152 144.384 137.952 145.104 137.552L146.064 139.328ZM154.934 121.112C155.446 121.112 155.862 121.28 156.182 121.616C156.518 121.936 156.686 122.336 156.686 122.816C156.686 123.296 156.518 123.696 156.182 124.016C155.862 124.336 155.446 124.496 154.934 124.496C154.406 124.496 153.982 124.336 153.662 124.016C153.342 123.696 153.182 123.296 153.182 122.816C153.182 122.32 153.342 121.912 153.662 121.592C153.998 121.272 154.422 121.112 154.934 121.112ZM156.782 138.032H160.238V140H150.326V138.032H154.094V129.296H150.446V127.328H156.782V138.032ZM174.845 139.328C174.365 139.632 173.805 139.872 173.165 140.048C172.525 140.224 171.853 140.312 171.149 140.312C169.709 140.312 168.597 139.944 167.813 139.208C167.029 138.456 166.637 137.44 166.637 136.16V129.296H163.829V127.328H166.637V124.496L169.325 124.184V127.328H173.621L173.309 129.296H169.325V136.136C169.325 136.824 169.501 137.336 169.853 137.672C170.205 137.992 170.765 138.152 171.533 138.152C172.381 138.152 173.165 137.952 173.885 137.552L174.845 139.328ZM185.372 140.048C184.86 141.584 184.116 142.784 183.14 143.648C182.18 144.528 180.852 145.04 179.156 145.184L178.82 143.168C179.652 143.04 180.324 142.84 180.836 142.568C181.348 142.312 181.756 141.984 182.06 141.584C182.364 141.184 182.636 140.656 182.876 140H181.964L177.692 127.328H180.548L183.74 138.128L186.98 127.328H189.74L185.372 140.048ZM195.946 129.632C195.946 129.04 196.154 128.536 196.57 128.12C196.986 127.688 197.49 127.472 198.082 127.472C198.69 127.472 199.202 127.688 199.618 128.12C200.034 128.536 200.242 129.04 200.242 129.632C200.242 130.224 200.034 130.736 199.618 131.168C199.202 131.584 198.69 131.792 198.082 131.792C197.49 131.792 196.986 131.584 196.57 131.168C196.154 130.736 195.946 130.224 195.946 129.632ZM195.946 138.152C195.946 137.56 196.154 137.056 196.57 136.64C196.986 136.224 197.49 136.016 198.082 136.016C198.706 136.016 199.218 136.224 199.618 136.64C200.034 137.056 200.242 137.56 200.242 138.152C200.242 138.76 200.034 139.272 199.618 139.688C199.218 140.104 198.706 140.312 198.082 140.312C197.49 140.312 196.986 140.104 196.57 139.688C196.154 139.272 195.946 138.76 195.946 138.152ZM241.278 135.68C241.902 135.68 242.422 135.888 242.838 136.304C243.27 136.72 243.486 137.232 243.486 137.84C243.486 138.192 243.43 138.544 243.318 138.896C243.222 139.248 243.046 139.704 242.79 140.264L240.942 144.512H238.854L240.006 139.64C239.734 139.448 239.51 139.192 239.334 138.872C239.174 138.552 239.094 138.208 239.094 137.84C239.094 137.232 239.302 136.72 239.718 136.304C240.15 135.888 240.67 135.68 241.278 135.68ZM88.5013 175.328C88.0213 175.632 87.4613 175.872 86.8213 176.048C86.1813 176.224 85.5093 176.312 84.8053 176.312C83.3653 176.312 82.2533 175.944 81.4693 175.208C80.6853 174.456 80.2933 173.44 80.2933 172.16V165.296H77.4853V163.328H80.2933V160.496L82.9813 160.184V163.328H87.2773L86.9653 165.296H82.9813V172.136C82.9813 172.824 83.1573 173.336 83.5093 173.672C83.8613 173.992 84.4213 174.152 85.1893 174.152C86.0373 174.152 86.8213 173.952 87.5413 173.552L88.5013 175.328ZM97.3959 162.992C99.2199 162.992 100.628 163.592 101.62 164.792C102.612 165.976 103.108 167.592 103.108 169.64C103.108 171.688 102.604 173.312 101.596 174.512C100.588 175.712 99.1799 176.312 97.3719 176.312C95.5479 176.312 94.1319 175.728 93.1239 174.56C92.1319 173.376 91.6359 171.744 91.6359 169.664C91.6359 167.648 92.1399 166.032 93.1479 164.816C94.1719 163.6 95.5879 162.992 97.3959 162.992ZM97.3959 165.08C96.4199 165.08 95.6839 165.456 95.1879 166.208C94.7079 166.96 94.4679 168.112 94.4679 169.664C94.4679 171.232 94.7079 172.392 95.1879 173.144C95.6679 173.88 96.3959 174.248 97.3719 174.248C98.3479 174.248 99.0759 173.872 99.5559 173.12C100.036 172.368 100.276 171.208 100.276 169.64C100.276 168.088 100.036 166.944 99.5559 166.208C99.0759 165.456 98.3559 165.08 97.3959 165.08ZM117.283 175.328C116.803 175.632 116.243 175.872 115.603 176.048C114.963 176.224 114.291 176.312 113.587 176.312C112.147 176.312 111.035 175.944 110.251 175.208C109.467 174.456 109.075 173.44 109.075 172.16V165.296H106.267V163.328H109.075V160.496L111.763 160.184V163.328H116.059L115.747 165.296H111.763V172.136C111.763 172.824 111.939 173.336 112.291 173.672C112.643 173.992 113.203 174.152 113.971 174.152C114.819 174.152 115.603 173.952 116.323 173.552L117.283 175.328ZM130.785 172.904C130.785 173.384 130.857 173.744 131.001 173.984C131.145 174.208 131.393 174.376 131.745 174.488L131.121 176.312C129.793 176.152 128.921 175.568 128.505 174.56C128.041 175.136 127.457 175.576 126.753 175.88C126.065 176.168 125.305 176.312 124.473 176.312C123.193 176.312 122.177 175.952 121.425 175.232C120.673 174.512 120.297 173.56 120.297 172.376C120.297 171.048 120.817 170.024 121.857 169.304C122.913 168.584 124.401 168.224 126.321 168.224H128.121V167.408C128.121 166.608 127.881 166.024 127.401 165.656C126.921 165.288 126.225 165.104 125.313 165.104C124.865 165.104 124.345 165.16 123.753 165.272C123.161 165.384 122.561 165.544 121.953 165.752L121.281 163.856C122.801 163.28 124.281 162.992 125.721 162.992C127.401 162.992 128.665 163.36 129.513 164.096C130.361 164.832 130.785 165.88 130.785 167.24V172.904ZM125.265 174.344C125.825 174.344 126.361 174.2 126.873 173.912C127.401 173.624 127.817 173.224 128.121 172.712V169.904H126.633C125.417 169.904 124.529 170.112 123.969 170.528C123.409 170.928 123.129 171.512 123.129 172.28C123.129 172.952 123.305 173.464 123.657 173.816C124.025 174.168 124.561 174.344 125.265 174.344ZM141.048 172.544C141.048 173.616 141.688 174.152 142.968 174.152C143.608 174.152 144.28 174.008 144.984 173.72L145.656 175.592C144.776 176.072 143.688 176.312 142.392 176.312C141.128 176.312 140.136 175.96 139.416 175.256C138.712 174.536 138.36 173.552 138.36 172.304V160.208H134.544V158.24H141.048V172.544ZM151.934 172.016L150.782 176H147.926L153.206 159.44H156.662L161.942 176H158.99L157.838 172.016H151.934ZM157.262 169.856L154.886 161.6L152.51 169.856H157.262ZM172.997 162.992C173.781 162.992 174.397 163.264 174.845 163.808C175.293 164.352 175.517 165.28 175.517 166.592V176H173.141V166.952C173.141 166.248 173.085 165.76 172.973 165.488C172.877 165.216 172.653 165.08 172.301 165.08C171.629 165.08 171.005 165.504 170.429 166.352V176H168.245V166.952C168.245 166.248 168.189 165.76 168.077 165.488C167.981 165.216 167.757 165.08 167.405 165.08C166.733 165.08 166.109 165.504 165.533 166.352V176H163.133V163.328H165.149L165.341 164.696C165.741 164.136 166.149 163.712 166.565 163.424C166.981 163.136 167.477 162.992 168.053 162.992C169.173 162.992 169.893 163.528 170.213 164.6C170.597 164.088 171.013 163.696 171.461 163.424C171.909 163.136 172.421 162.992 172.997 162.992ZM183.74 162.992C185.564 162.992 186.972 163.592 187.964 164.792C188.956 165.976 189.452 167.592 189.452 169.64C189.452 171.688 188.948 173.312 187.94 174.512C186.932 175.712 185.524 176.312 183.716 176.312C181.892 176.312 180.476 175.728 179.468 174.56C178.476 173.376 177.98 171.744 177.98 169.664C177.98 167.648 178.484 166.032 179.492 164.816C180.516 163.6 181.932 162.992 183.74 162.992ZM183.74 165.08C182.764 165.08 182.028 165.456 181.532 166.208C181.052 166.96 180.812 168.112 180.812 169.664C180.812 171.232 181.052 172.392 181.532 173.144C182.012 173.88 182.74 174.248 183.716 174.248C184.692 174.248 185.42 173.872 185.9 173.12C186.38 172.368 186.62 171.208 186.62 169.64C186.62 168.088 186.38 166.944 185.9 166.208C185.42 165.456 184.7 165.08 183.74 165.08ZM195.73 172.184C195.73 172.92 195.874 173.456 196.162 173.792C196.466 174.112 196.922 174.272 197.53 174.272C198.106 174.272 198.658 174.104 199.186 173.768C199.73 173.432 200.162 173.008 200.482 172.496V163.328H203.17V176H200.842L200.674 174.368C200.226 174.992 199.642 175.472 198.922 175.808C198.202 176.144 197.458 176.312 196.69 176.312C195.474 176.312 194.562 175.984 193.954 175.328C193.346 174.672 193.042 173.736 193.042 172.52V163.328H195.73V172.184ZM207.433 163.328H209.761L209.953 164.984C210.481 164.344 211.097 163.856 211.801 163.52C212.521 163.168 213.273 162.992 214.057 162.992C215.225 162.992 216.105 163.32 216.697 163.976C217.289 164.632 217.585 165.56 217.585 166.76V176H214.897V168.104C214.897 167.32 214.849 166.72 214.753 166.304C214.673 165.872 214.505 165.56 214.249 165.368C213.993 165.16 213.609 165.056 213.097 165.056C212.521 165.056 211.969 165.232 211.441 165.584C210.929 165.936 210.489 166.376 210.121 166.904V176H207.433V163.328ZM232.408 175.328C231.928 175.632 231.368 175.872 230.728 176.048C230.088 176.224 229.416 176.312 228.712 176.312C227.272 176.312 226.16 175.944 225.376 175.208C224.592 174.456 224.2 173.44 224.2 172.16V165.296H221.392V163.328H224.2V160.496L226.888 160.184V163.328H231.184L230.872 165.296H226.888V172.136C226.888 172.824 227.064 173.336 227.416 173.672C227.768 173.992 228.328 174.152 229.096 174.152C229.944 174.152 230.728 173.952 231.448 173.552L232.408 175.328ZM239.118 165.632C239.118 165.04 239.326 164.536 239.742 164.12C240.158 163.688 240.662 163.472 241.254 163.472C241.862 163.472 242.374 163.688 242.79 164.12C243.206 164.536 243.414 165.04 243.414 165.632C243.414 166.224 243.206 166.736 242.79 167.168C242.374 167.584 241.862 167.792 241.254 167.792C240.662 167.792 240.158 167.584 239.742 167.168C239.326 166.736 239.118 166.224 239.118 165.632ZM239.118 174.152C239.118 173.56 239.326 173.056 239.742 172.64C240.158 172.224 240.662 172.016 241.254 172.016C241.878 172.016 242.39 172.224 242.79 172.64C243.206 173.056 243.414 173.56 243.414 174.152C243.414 174.76 243.206 175.272 242.79 175.688C242.39 176.104 241.878 176.312 241.254 176.312C240.662 176.312 240.158 176.104 239.742 175.688C239.326 175.272 239.118 174.76 239.118 174.152ZM50.432 191.912C52.112 191.912 53.4 192.176 54.296 192.704C55.208 193.216 55.664 194.096 55.664 195.344C55.664 195.584 55.656 195.768 55.64 195.896L55.184 200.072L55.16 200.408C55.16 201.144 55.44 201.68 56 202.016C56.576 202.352 57.472 202.52 58.688 202.52V204.68C57.472 204.68 56.576 204.856 56 205.208C55.44 205.544 55.16 206.08 55.16 206.816L55.184 207.152L55.64 211.28C55.656 211.408 55.664 211.592 55.664 211.832C55.664 213.08 55.208 213.968 54.296 214.496C53.4 215.024 52.112 215.288 50.432 215.288V213.296C51.344 213.296 52.04 213.168 52.52 212.912C53 212.656 53.208 212.2 53.144 211.544L52.712 207.128C52.696 206.984 52.688 206.776 52.688 206.504C52.688 205.608 52.928 204.944 53.408 204.512C53.888 204.064 54.64 203.768 55.664 203.624C54.656 203.448 53.904 203.136 53.408 202.688C52.928 202.24 52.688 201.568 52.688 200.672C52.688 200.416 52.696 200.216 52.712 200.072L53.144 195.656C53.208 195.016 52.992 194.568 52.496 194.312C52.016 194.04 51.328 193.904 50.432 193.904V191.912ZM70.2466 203.6C70.2466 202.08 70.0706 200.736 69.7186 199.568C69.3826 198.4 68.8626 197.32 68.1586 196.328C67.4706 195.32 66.5346 194.248 65.3506 193.112L66.8146 191.672C68.8946 193.4 70.4466 195.184 71.4706 197.024C72.4946 198.848 73.0066 201.04 73.0066 203.6C73.0066 206.16 72.4946 208.36 71.4706 210.2C70.4466 212.024 68.8946 213.8 66.8146 215.528L65.3506 214.088C66.5506 212.936 67.4946 211.856 68.1826 210.848C68.8866 209.84 69.4066 208.76 69.7426 207.608C70.0786 206.456 70.2466 205.12 70.2466 203.6Z" fill="white"/>
<path d="M199.162 66.104C200.17 66.104 201.21 65.744 202.282 65.024L203.506 66.752C202.946 67.232 202.274 67.616 201.49 67.904C200.706 68.176 199.898 68.312 199.066 68.312C197.13 68.312 195.618 67.72 194.53 66.536C193.442 65.336 192.898 63.736 192.898 61.736C192.898 60.44 193.146 59.288 193.642 58.28C194.138 57.256 194.85 56.456 195.778 55.88C196.722 55.288 197.834 54.992 199.114 54.992C200.794 54.992 202.258 55.504 203.506 56.528L202.258 58.208C201.234 57.504 200.202 57.152 199.162 57.152C198.106 57.152 197.274 57.536 196.666 58.304C196.058 59.056 195.754 60.2 195.754 61.736C195.754 63.24 196.058 64.344 196.666 65.048C197.274 65.752 198.106 66.104 199.162 66.104ZM210.121 56.888C210.633 56.264 211.225 55.792 211.897 55.472C212.585 55.152 213.305 54.992 214.057 54.992C215.225 54.992 216.105 55.32 216.697 55.976C217.289 56.616 217.585 57.544 217.585 58.76V68H214.897V59.168C214.897 58.416 214.753 57.88 214.465 57.56C214.177 57.224 213.713 57.056 213.073 57.056C212.513 57.056 211.969 57.24 211.441 57.608C210.929 57.96 210.489 58.4 210.121 58.928V68H207.433V50.264L210.121 49.976V56.888ZM224.056 62.528C224.136 63.76 224.488 64.688 225.112 65.312C225.752 65.92 226.552 66.224 227.512 66.224C228.104 66.224 228.664 66.136 229.192 65.96C229.736 65.768 230.288 65.488 230.848 65.12L232 66.752C231.408 67.248 230.712 67.632 229.912 67.904C229.112 68.176 228.272 68.312 227.392 68.312C225.456 68.312 223.952 67.712 222.88 66.512C221.808 65.296 221.271 63.68 221.271 61.664C221.271 60.4 221.504 59.264 221.968 58.256C222.432 57.232 223.104 56.432 223.984 55.856C224.864 55.28 225.888 54.992 227.056 54.992C228.736 54.992 230.064 55.56 231.04 56.696C232.032 57.816 232.528 59.36 232.528 61.328C232.528 61.808 232.504 62.208 232.456 62.528H224.056ZM227.08 56.984C226.216 56.984 225.512 57.296 224.968 57.92C224.424 58.544 224.112 59.472 224.032 60.704H229.912C229.88 59.504 229.624 58.584 229.144 57.944C228.664 57.304 227.976 56.984 227.08 56.984ZM242.334 66.104C243.342 66.104 244.382 65.744 245.454 65.024L246.678 66.752C246.118 67.232 245.446 67.616 244.662 67.904C243.878 68.176 243.07 68.312 242.238 68.312C240.302 68.312 238.79 67.72 237.702 66.536C236.614 65.336 236.07 63.736 236.07 61.736C236.07 60.44 236.318 59.288 236.814 58.28C237.31 57.256 238.022 56.456 238.95 55.88C239.894 55.288 241.006 54.992 242.286 54.992C243.966 54.992 245.43 55.504 246.678 56.528L245.43 58.208C244.406 57.504 243.374 57.152 242.334 57.152C241.278 57.152 240.446 57.536 239.838 58.304C239.23 59.056 238.926 60.2 238.926 61.736C238.926 63.24 239.23 64.344 239.838 65.048C240.446 65.752 241.278 66.104 242.334 66.104ZM253.365 68H250.677V50.24L253.365 49.928V68ZM256.653 60.992L262.293 68H259.005L253.557 61.064L258.645 55.328H261.765L256.653 60.992ZM270.083 54.992C271.907 54.992 273.315 55.592 274.307 56.792C275.299 57.976 275.795 59.592 275.795 61.64C275.795 63.688 275.291 65.312 274.283 66.512C273.275 67.712 271.867 68.312 270.059 68.312C268.235 68.312 266.819 67.728 265.811 66.56C264.819 65.376 264.323 63.744 264.323 61.664C264.323 59.648 264.827 58.032 265.835 56.816C266.859 55.6 268.275 54.992 270.083 54.992ZM270.083 57.08C269.107 57.08 268.371 57.456 267.875 58.208C267.395 58.96 267.155 60.112 267.155 61.664C267.155 63.232 267.395 64.392 267.875 65.144C268.355 65.88 269.083 66.248 270.059 66.248C271.035 66.248 271.763 65.872 272.243 65.12C272.723 64.368 272.963 63.208 272.963 61.64C272.963 60.088 272.723 58.944 272.243 58.208C271.763 57.456 271.043 57.08 270.083 57.08ZM282.074 64.184C282.074 64.92 282.218 65.456 282.506 65.792C282.81 66.112 283.266 66.272 283.874 66.272C284.45 66.272 285.002 66.104 285.53 65.768C286.074 65.432 286.506 65.008 286.826 64.496V55.328H289.514V68H287.186L287.018 66.368C286.57 66.992 285.986 67.472 285.266 67.808C284.546 68.144 283.802 68.312 283.034 68.312C281.818 68.312 280.906 67.984 280.298 67.328C279.69 66.672 279.386 65.736 279.386 64.52V55.328H282.074V64.184ZM304.361 67.328C303.881 67.632 303.321 67.872 302.681 68.048C302.041 68.224 301.369 68.312 300.665 68.312C299.225 68.312 298.113 67.944 297.329 67.208C296.545 66.456 296.153 65.44 296.153 64.16V57.296H293.345V55.328H296.153V52.496L298.841 52.184V55.328H303.137L302.825 57.296H298.841V64.136C298.841 64.824 299.017 65.336 299.369 65.672C299.721 65.992 300.281 66.152 301.049 66.152C301.897 66.152 302.681 65.952 303.401 65.552L304.361 67.328ZM314.623 51.104C315.711 51.104 316.639 51.24 317.407 51.512C318.175 51.784 318.911 52.208 319.615 52.784L318.175 54.512C317.167 53.696 316.023 53.288 314.743 53.288C313.399 53.288 312.303 53.808 311.455 54.848C310.607 55.872 310.183 57.488 310.183 59.696C310.183 61.872 310.599 63.48 311.431 64.52C312.263 65.544 313.375 66.056 314.767 66.056C315.567 66.056 316.247 65.936 316.807 65.696C317.383 65.44 317.951 65.088 318.511 64.64L319.855 66.344C318.511 67.656 316.783 68.312 314.671 68.312C313.247 68.312 311.975 67.984 310.855 67.328C309.735 66.656 308.855 65.672 308.215 64.376C307.591 63.08 307.279 61.52 307.279 59.696C307.279 57.904 307.599 56.36 308.239 55.064C308.895 53.768 309.783 52.784 310.903 52.112C312.023 51.44 313.263 51.104 314.623 51.104ZM327.646 54.992C329.47 54.992 330.878 55.592 331.87 56.792C332.862 57.976 333.358 59.592 333.358 61.64C333.358 63.688 332.854 65.312 331.846 66.512C330.838 67.712 329.43 68.312 327.622 68.312C325.798 68.312 324.382 67.728 323.374 66.56C322.382 65.376 321.886 63.744 321.886 61.664C321.886 59.648 322.39 58.032 323.398 56.816C324.422 55.6 325.838 54.992 327.646 54.992ZM327.646 57.08C326.67 57.08 325.934 57.456 325.438 58.208C324.958 58.96 324.718 60.112 324.718 61.664C324.718 63.232 324.958 64.392 325.438 65.144C325.918 65.88 326.646 66.248 327.622 66.248C328.598 66.248 329.326 65.872 329.806 65.12C330.286 64.368 330.526 63.208 330.526 61.64C330.526 60.088 330.286 58.944 329.806 58.208C329.326 57.456 328.606 57.08 327.646 57.08ZM345.685 54.992C346.469 54.992 347.085 55.264 347.533 55.808C347.981 56.352 348.205 57.28 348.205 58.592V68H345.829V58.952C345.829 58.248 345.773 57.76 345.661 57.488C345.565 57.216 345.341 57.08 344.989 57.08C344.317 57.08 343.693 57.504 343.117 58.352V68H340.933V58.952C340.933 58.248 340.877 57.76 340.765 57.488C340.669 57.216 340.445 57.08 340.093 57.08C339.421 57.08 338.797 57.504 338.221 58.352V68H335.821V55.328H337.837L338.029 56.696C338.429 56.136 338.837 55.712 339.253 55.424C339.669 55.136 340.165 54.992 340.741 54.992C341.861 54.992 342.581 55.528 342.901 56.6C343.285 56.088 343.701 55.696 344.149 55.424C344.597 55.136 345.109 54.992 345.685 54.992ZM357.531 54.992C360.603 54.992 362.139 57.208 362.139 61.64C362.139 63.64 361.715 65.256 360.867 66.488C360.019 67.704 358.811 68.312 357.243 68.312C355.915 68.312 354.843 67.848 354.027 66.92V72.872L351.339 73.184V55.328H353.667L353.835 56.96C354.315 56.32 354.867 55.832 355.491 55.496C356.131 55.16 356.811 54.992 357.531 54.992ZM356.787 57.056C356.227 57.056 355.715 57.224 355.251 57.56C354.787 57.896 354.379 58.336 354.027 58.88V64.808C354.651 65.752 355.483 66.224 356.523 66.224C357.451 66.224 358.147 65.856 358.611 65.12C359.075 64.384 359.307 63.232 359.307 61.664C359.307 60.048 359.099 58.88 358.683 58.16C358.267 57.424 357.635 57.056 356.787 57.056ZM371.298 64.544C371.298 65.616 371.938 66.152 373.218 66.152C373.858 66.152 374.53 66.008 375.234 65.72L375.906 67.592C375.026 68.072 373.938 68.312 372.642 68.312C371.378 68.312 370.386 67.96 369.666 67.256C368.962 66.536 368.61 65.552 368.61 64.304V52.208H364.794V50.24H371.298V64.544ZM382.352 62.528C382.432 63.76 382.784 64.688 383.408 65.312C384.048 65.92 384.848 66.224 385.808 66.224C386.4 66.224 386.96 66.136 387.488 65.96C388.032 65.768 388.584 65.488 389.144 65.12L390.296 66.752C389.704 67.248 389.008 67.632 388.208 67.904C387.408 68.176 386.568 68.312 385.688 68.312C383.752 68.312 382.248 67.712 381.176 66.512C380.104 65.296 379.568 63.68 379.568 61.664C379.568 60.4 379.8 59.264 380.264 58.256C380.728 57.232 381.4 56.432 382.28 55.856C383.16 55.28 384.184 54.992 385.352 54.992C387.032 54.992 388.36 55.56 389.336 56.696C390.328 57.816 390.824 59.36 390.824 61.328C390.824 61.808 390.8 62.208 390.752 62.528H382.352ZM385.376 56.984C384.512 56.984 383.808 57.296 383.264 57.92C382.72 58.544 382.408 59.472 382.328 60.704H388.208C388.176 59.504 387.92 58.584 387.44 57.944C386.96 57.304 386.272 56.984 385.376 56.984ZM405.095 67.328C404.615 67.632 404.055 67.872 403.415 68.048C402.775 68.224 402.103 68.312 401.399 68.312C399.959 68.312 398.847 67.944 398.063 67.208C397.279 66.456 396.887 65.44 396.887 64.16V57.296H394.079V55.328H396.887V52.496L399.575 52.184V55.328H403.871L403.559 57.296H399.575V64.136C399.575 64.824 399.751 65.336 400.103 65.672C400.455 65.992 401.015 66.152 401.783 66.152C402.631 66.152 403.415 65.952 404.135 65.552L405.095 67.328ZM411.134 62.528C411.214 63.76 411.566 64.688 412.19 65.312C412.83 65.92 413.63 66.224 414.59 66.224C415.182 66.224 415.742 66.136 416.27 65.96C416.814 65.768 417.366 65.488 417.926 65.12L419.078 66.752C418.486 67.248 417.79 67.632 416.99 67.904C416.19 68.176 415.35 68.312 414.47 68.312C412.534 68.312 411.03 67.712 409.958 66.512C408.886 65.296 408.35 63.68 408.35 61.664C408.35 60.4 408.582 59.264 409.046 58.256C409.51 57.232 410.182 56.432 411.062 55.856C411.942 55.28 412.966 54.992 414.134 54.992C415.814 54.992 417.142 55.56 418.118 56.696C419.11 57.816 419.606 59.36 419.606 61.328C419.606 61.808 419.582 62.208 419.534 62.528H411.134ZM414.158 56.984C413.294 56.984 412.59 57.296 412.046 57.92C411.502 58.544 411.19 59.472 411.11 60.704H416.99C416.958 59.504 416.702 58.584 416.222 57.944C415.742 57.304 415.054 56.984 414.158 56.984ZM433.42 50.24V68H431.044L430.852 66.44C430.436 67.048 429.924 67.512 429.316 67.832C428.708 68.152 428.036 68.312 427.3 68.312C425.716 68.312 424.524 67.72 423.724 66.536C422.924 65.352 422.524 63.728 422.524 61.664C422.524 60.368 422.724 59.216 423.124 58.208C423.54 57.2 424.124 56.416 424.876 55.856C425.628 55.28 426.516 54.992 427.54 54.992C428.836 54.992 429.9 55.456 430.732 56.384V49.928L433.42 50.24ZM428.236 57.056C427.308 57.056 426.596 57.44 426.1 58.208C425.62 58.96 425.38 60.112 425.38 61.664C425.38 64.736 426.26 66.272 428.02 66.272C429.076 66.272 429.98 65.664 430.732 64.448V58.472C430.076 57.528 429.244 57.056 428.236 57.056Z" fill="#3CAED8"/>
<path d="M232.408 137.888V140H222.4V137.888H226.432V126.2L222.784 128.432L221.632 126.56L226.72 123.44H229.096V137.888H232.408ZM269.867 159.128C271.723 159.128 273.131 159.704 274.091 160.856C275.051 162.008 275.531 163.592 275.531 165.608C275.531 167.848 275.211 169.68 274.571 171.104C273.931 172.512 272.939 173.64 271.595 174.488C270.267 175.32 268.475 176.016 266.219 176.576L265.619 174.632C267.843 174.04 269.539 173.256 270.707 172.28C271.875 171.288 272.539 169.96 272.699 168.296C271.675 169.464 270.435 170.056 268.979 170.072C268.083 170.072 267.275 169.856 266.555 169.424C265.835 168.992 265.267 168.376 264.851 167.576C264.451 166.776 264.251 165.84 264.251 164.768C264.251 163.6 264.491 162.592 264.971 161.744C265.467 160.896 266.139 160.248 266.987 159.8C267.835 159.352 268.795 159.128 269.867 159.128ZM269.651 168.056C270.275 168.04 270.835 167.888 271.331 167.6C271.827 167.312 272.299 166.896 272.747 166.352C272.779 164.48 272.571 163.152 272.123 162.368C271.691 161.568 270.931 161.168 269.843 161.168C268.915 161.168 268.203 161.472 267.707 162.08C267.227 162.688 266.987 163.584 266.987 164.768C266.987 165.904 267.219 166.736 267.683 167.264C268.147 167.792 268.803 168.056 269.651 168.056ZM284.258 159.128C286.114 159.128 287.522 159.704 288.482 160.856C289.442 162.008 289.922 163.592 289.922 165.608C289.922 167.848 289.602 169.68 288.962 171.104C288.322 172.512 287.33 173.64 285.986 174.488C284.658 175.32 282.866 176.016 280.61 176.576L280.01 174.632C282.234 174.04 283.93 173.256 285.098 172.28C286.266 171.288 286.93 169.96 287.09 168.296C286.066 169.464 284.826 170.056 283.37 170.072C282.474 170.072 281.666 169.856 280.946 169.424C280.226 168.992 279.658 168.376 279.242 167.576C278.842 166.776 278.642 165.84 278.642 164.768C278.642 163.6 278.882 162.592 279.362 161.744C279.858 160.896 280.53 160.248 281.378 159.8C282.226 159.352 283.186 159.128 284.258 159.128ZM284.042 168.056C284.666 168.04 285.226 167.888 285.722 167.6C286.218 167.312 286.69 166.896 287.138 166.352C287.17 164.48 286.962 163.152 286.514 162.368C286.082 161.568 285.322 161.168 284.234 161.168C283.306 161.168 282.594 161.472 282.098 162.08C281.618 162.688 281.378 163.584 281.378 164.768C281.378 165.904 281.61 166.736 282.074 167.264C282.538 167.792 283.194 168.056 284.042 168.056Z" fill="#F6BB42"/>
</g>
<g filter="url(#filter1_d)">
<path d="M155 231C155 225.477 159.477 221 165 221H521C526.523 221 531 225.477 531 231V281C531 286.523 526.523 291 521 291H165C159.477 291 155 286.523 155 281V231Z" fill="#37BC9B"/>
<path d="M187.369 265L180 256L181.107 254.648L187.369 262.296L199.893 247L201 248.352L187.369 265Z" fill="white"/>
<path d="M225.752 247.864H237.44V250.912H229.328V254.656H236.96V257.728H229.328V261.952H237.944L237.584 265H225.752V247.864ZM238.676 252.472H242.564L245.372 261.184L248.18 252.472H251.9L246.956 265H243.596L238.676 252.472ZM264.335 261.088C264.111 262.496 263.543 263.568 262.631 264.304C261.735 265.024 260.423 265.384 258.695 265.384C256.615 265.384 255.047 264.808 253.991 263.656C252.951 262.504 252.431 260.872 252.431 258.76C252.431 257.704 252.583 256.768 252.887 255.952C253.191 255.12 253.615 254.416 254.159 253.84C254.719 253.264 255.383 252.832 256.151 252.544C256.919 252.24 257.767 252.088 258.695 252.088C260.615 252.088 262.055 252.64 263.015 253.744C263.991 254.848 264.479 256.336 264.479 258.208V259.552H255.791C255.823 260.56 256.079 261.352 256.559 261.928C257.039 262.488 257.759 262.768 258.719 262.768C260.047 262.768 260.831 262.208 261.071 261.088H264.335ZM261.239 257.344C261.239 256.48 261.023 255.808 260.591 255.328C260.175 254.848 259.519 254.608 258.623 254.608C258.175 254.608 257.783 254.68 257.447 254.824C257.111 254.968 256.823 255.168 256.583 255.424C256.359 255.664 256.183 255.952 256.055 256.288C255.927 256.608 255.855 256.96 255.839 257.344H261.239ZM266.996 252.472H270.26V254.2C270.756 253.464 271.34 252.928 272.012 252.592C272.7 252.256 273.412 252.088 274.148 252.088C275.572 252.088 276.628 252.464 277.316 253.216C278.004 253.952 278.348 255.12 278.348 256.72V265H274.988V257.176C274.988 256.296 274.82 255.696 274.484 255.376C274.148 255.056 273.7 254.896 273.14 254.896C272.708 254.896 272.332 254.96 272.012 255.088C271.708 255.216 271.42 255.4 271.148 255.64C270.924 255.864 270.732 256.136 270.572 256.456C270.428 256.76 270.356 257.096 270.356 257.464V265H266.996V252.472ZM281.967 255.088H279.999V252.472H281.967V249.136H285.327V252.472H288.207V255.088H285.327V260.872C285.327 261.528 285.463 261.976 285.735 262.216C286.007 262.44 286.359 262.552 286.791 262.552C287.015 262.552 287.239 262.544 287.463 262.528C287.703 262.496 287.935 262.448 288.159 262.384L288.639 264.856C288.175 265 287.719 265.096 287.271 265.144C286.839 265.208 286.423 265.24 286.023 265.24C284.647 265.24 283.623 264.912 282.951 264.256C282.295 263.6 281.967 262.496 281.967 260.944V255.088ZM298.06 261.016C298.172 261.752 298.468 262.232 298.948 262.456C299.428 262.68 300.004 262.792 300.676 262.792C301.476 262.792 302.044 262.696 302.38 262.504C302.732 262.296 302.908 261.968 302.908 261.52C302.908 261.2 302.796 260.92 302.572 260.68C302.364 260.44 301.956 260.272 301.348 260.176L299.62 259.888C298.1 259.648 296.964 259.24 296.212 258.664C295.476 258.072 295.108 257.184 295.108 256C295.108 255.392 295.236 254.848 295.492 254.368C295.764 253.888 296.14 253.48 296.62 253.144C297.1 252.808 297.668 252.552 298.324 252.376C298.996 252.184 299.732 252.088 300.532 252.088C301.524 252.088 302.356 252.192 303.028 252.4C303.7 252.592 304.244 252.856 304.66 253.192C305.092 253.528 305.412 253.928 305.62 254.392C305.844 254.856 306.004 255.352 306.1 255.88L303.1 256.264C302.956 255.688 302.7 255.264 302.332 254.992C301.98 254.72 301.404 254.584 300.604 254.584C300.156 254.584 299.78 254.624 299.476 254.704C299.188 254.768 298.956 254.856 298.78 254.968C298.62 255.08 298.5 255.208 298.42 255.352C298.356 255.496 298.324 255.632 298.324 255.76C298.324 256.16 298.444 256.456 298.684 256.648C298.94 256.824 299.428 256.976 300.148 257.104L301.732 257.368C302.612 257.512 303.34 257.696 303.916 257.92C304.492 258.144 304.948 258.424 305.284 258.76C305.636 259.08 305.876 259.464 306.004 259.912C306.148 260.36 306.22 260.88 306.22 261.472C306.22 262.656 305.772 263.608 304.876 264.328C303.98 265.032 302.596 265.384 300.724 265.384C299.972 265.384 299.252 265.312 298.564 265.168C297.892 265.04 297.284 264.808 296.74 264.472C296.212 264.136 295.772 263.688 295.42 263.128C295.084 262.568 294.892 261.864 294.844 261.016H298.06ZM308.407 252.472H311.767V260.296C311.767 261.192 311.927 261.8 312.247 262.12C312.567 262.424 313.007 262.576 313.567 262.576C313.999 262.576 314.351 262.512 314.623 262.384C314.911 262.256 315.183 262.072 315.439 261.832C315.695 261.608 315.895 261.344 316.039 261.04C316.199 260.72 316.279 260.376 316.279 260.008V252.472H319.639V265H316.375V263.272C315.863 264.008 315.279 264.544 314.623 264.88C313.983 265.216 313.295 265.384 312.559 265.384C311.135 265.384 310.087 265.016 309.415 264.28C308.743 263.528 308.407 262.352 308.407 260.752V252.472ZM333.869 260.464C333.741 261.968 333.221 263.168 332.309 264.064C331.413 264.944 330.061 265.384 328.253 265.384C327.197 265.384 326.285 265.224 325.517 264.904C324.749 264.584 324.117 264.136 323.621 263.56C323.141 262.984 322.781 262.288 322.541 261.472C322.301 260.656 322.181 259.752 322.181 258.76C322.181 257.768 322.317 256.864 322.589 256.048C322.877 255.216 323.285 254.512 323.813 253.936C324.341 253.344 324.989 252.888 325.757 252.568C326.525 252.248 327.405 252.088 328.397 252.088C329.245 252.088 329.981 252.2 330.605 252.424C331.245 252.632 331.781 252.928 332.213 253.312C332.645 253.696 332.981 254.16 333.221 254.704C333.461 255.232 333.621 255.816 333.701 256.456L330.317 256.912C330.237 256.272 330.053 255.76 329.765 255.376C329.477 254.976 328.981 254.776 328.277 254.776C327.765 254.776 327.341 254.888 327.005 255.112C326.669 255.32 326.397 255.608 326.189 255.976C325.997 256.344 325.861 256.768 325.781 257.248C325.701 257.712 325.661 258.2 325.661 258.712C325.661 259.24 325.701 259.744 325.781 260.224C325.861 260.704 325.997 261.128 326.189 261.496C326.381 261.864 326.645 262.16 326.981 262.384C327.317 262.592 327.741 262.696 328.253 262.696C328.925 262.696 329.445 262.504 329.813 262.12C330.181 261.736 330.397 261.184 330.461 260.464H333.869ZM347.064 260.464C346.936 261.968 346.416 263.168 345.504 264.064C344.608 264.944 343.256 265.384 341.448 265.384C340.392 265.384 339.48 265.224 338.712 264.904C337.944 264.584 337.312 264.136 336.816 263.56C336.336 262.984 335.976 262.288 335.736 261.472C335.496 260.656 335.376 259.752 335.376 258.76C335.376 257.768 335.512 256.864 335.784 256.048C336.072 255.216 336.48 254.512 337.008 253.936C337.536 253.344 338.184 252.888 338.952 252.568C339.72 252.248 340.6 252.088 341.592 252.088C342.44 252.088 343.176 252.2 343.8 252.424C344.44 252.632 344.976 252.928 345.408 253.312C345.84 253.696 346.176 254.16 346.416 254.704C346.656 255.232 346.816 255.816 346.896 256.456L343.512 256.912C343.432 256.272 343.248 255.76 342.96 255.376C342.672 254.976 342.176 254.776 341.472 254.776C340.96 254.776 340.536 254.888 340.2 255.112C339.864 255.32 339.592 255.608 339.384 255.976C339.192 256.344 339.056 256.768 338.976 257.248C338.896 257.712 338.856 258.2 338.856 258.712C338.856 259.24 338.896 259.744 338.976 260.224C339.056 260.704 339.192 261.128 339.384 261.496C339.576 261.864 339.84 262.16 340.176 262.384C340.512 262.592 340.936 262.696 341.448 262.696C342.12 262.696 342.64 262.504 343.008 262.12C343.376 261.736 343.592 261.184 343.656 260.464H347.064ZM360.476 261.088C360.252 262.496 359.684 263.568 358.772 264.304C357.876 265.024 356.564 265.384 354.836 265.384C352.756 265.384 351.188 264.808 350.132 263.656C349.092 262.504 348.572 260.872 348.572 258.76C348.572 257.704 348.724 256.768 349.028 255.952C349.332 255.12 349.756 254.416 350.3 253.84C350.86 253.264 351.524 252.832 352.292 252.544C353.06 252.24 353.908 252.088 354.836 252.088C356.756 252.088 358.196 252.64 359.156 253.744C360.132 254.848 360.62 256.336 360.62 258.208V259.552H351.932C351.964 260.56 352.22 261.352 352.7 261.928C353.18 262.488 353.9 262.768 354.86 262.768C356.188 262.768 356.972 262.208 357.212 261.088H360.476ZM357.38 257.344C357.38 256.48 357.164 255.808 356.732 255.328C356.316 254.848 355.66 254.608 354.764 254.608C354.316 254.608 353.924 254.68 353.588 254.824C353.252 254.968 352.964 255.168 352.724 255.424C352.5 255.664 352.324 255.952 352.196 256.288C352.068 256.608 351.996 256.96 351.98 257.344H357.38ZM365.56 261.016C365.672 261.752 365.968 262.232 366.448 262.456C366.928 262.68 367.504 262.792 368.176 262.792C368.976 262.792 369.544 262.696 369.88 262.504C370.232 262.296 370.408 261.968 370.408 261.52C370.408 261.2 370.296 260.92 370.072 260.68C369.864 260.44 369.456 260.272 368.848 260.176L367.12 259.888C365.6 259.648 364.464 259.24 363.712 258.664C362.976 258.072 362.608 257.184 362.608 256C362.608 255.392 362.736 254.848 362.992 254.368C363.264 253.888 363.64 253.48 364.12 253.144C364.6 252.808 365.168 252.552 365.824 252.376C366.496 252.184 367.232 252.088 368.032 252.088C369.024 252.088 369.856 252.192 370.528 252.4C371.2 252.592 371.744 252.856 372.16 253.192C372.592 253.528 372.912 253.928 373.12 254.392C373.344 254.856 373.504 255.352 373.6 255.88L370.6 256.264C370.456 255.688 370.2 255.264 369.832 254.992C369.48 254.72 368.904 254.584 368.104 254.584C367.656 254.584 367.28 254.624 366.976 254.704C366.688 254.768 366.456 254.856 366.28 254.968C366.12 255.08 366 255.208 365.92 255.352C365.856 255.496 365.824 255.632 365.824 255.76C365.824 256.16 365.944 256.456 366.184 256.648C366.44 256.824 366.928 256.976 367.648 257.104L369.232 257.368C370.112 257.512 370.84 257.696 371.416 257.92C371.992 258.144 372.448 258.424 372.784 258.76C373.136 259.08 373.376 259.464 373.504 259.912C373.648 260.36 373.72 260.88 373.72 261.472C373.72 262.656 373.272 263.608 372.376 264.328C371.48 265.032 370.096 265.384 368.224 265.384C367.472 265.384 366.752 265.312 366.064 265.168C365.392 265.04 364.784 264.808 364.24 264.472C363.712 264.136 363.272 263.688 362.92 263.128C362.584 262.568 362.392 261.864 362.344 261.016H365.56ZM378.451 261.016C378.563 261.752 378.859 262.232 379.339 262.456C379.819 262.68 380.395 262.792 381.067 262.792C381.867 262.792 382.435 262.696 382.771 262.504C383.123 262.296 383.299 261.968 383.299 261.52C383.299 261.2 383.187 260.92 382.963 260.68C382.755 260.44 382.347 260.272 381.739 260.176L380.011 259.888C378.491 259.648 377.355 259.24 376.603 258.664C375.867 258.072 375.499 257.184 375.499 256C375.499 255.392 375.627 254.848 375.883 254.368C376.155 253.888 376.531 253.48 377.011 253.144C377.491 252.808 378.059 252.552 378.715 252.376C379.387 252.184 380.123 252.088 380.923 252.088C381.915 252.088 382.747 252.192 383.419 252.4C384.091 252.592 384.635 252.856 385.051 253.192C385.483 253.528 385.803 253.928 386.011 254.392C386.235 254.856 386.395 255.352 386.491 255.88L383.491 256.264C383.347 255.688 383.091 255.264 382.723 254.992C382.371 254.72 381.795 254.584 380.995 254.584C380.547 254.584 380.171 254.624 379.867 254.704C379.579 254.768 379.347 254.856 379.171 254.968C379.011 255.08 378.891 255.208 378.811 255.352C378.747 255.496 378.715 255.632 378.715 255.76C378.715 256.16 378.835 256.456 379.075 256.648C379.331 256.824 379.819 256.976 380.539 257.104L382.123 257.368C383.003 257.512 383.731 257.696 384.307 257.92C384.883 258.144 385.339 258.424 385.675 258.76C386.027 259.08 386.267 259.464 386.395 259.912C386.539 260.36 386.611 260.88 386.611 261.472C386.611 262.656 386.163 263.608 385.267 264.328C384.371 265.032 382.987 265.384 381.115 265.384C380.363 265.384 379.643 265.312 378.955 265.168C378.283 265.04 377.675 264.808 377.131 264.472C376.603 264.136 376.163 263.688 375.811 263.128C375.475 262.568 375.283 261.864 375.235 261.016H378.451ZM389.734 255.088H387.766V252.472H389.734V252.064C389.734 251.296 389.846 250.632 390.07 250.072C390.294 249.512 390.598 249.056 390.982 248.704C391.382 248.352 391.846 248.096 392.374 247.936C392.902 247.76 393.478 247.672 394.102 247.672C394.502 247.672 394.918 247.696 395.35 247.744C395.798 247.792 396.254 247.888 396.718 248.032L396.262 250.48C395.75 250.352 395.262 250.288 394.798 250.288C394.366 250.288 393.974 250.416 393.622 250.672C393.27 250.912 393.094 251.352 393.094 251.992V252.472H395.998V255.088H393.094V265H389.734V255.088ZM397.891 252.472H401.251V260.296C401.251 261.192 401.411 261.8 401.731 262.12C402.051 262.424 402.491 262.576 403.051 262.576C403.483 262.576 403.835 262.512 404.107 262.384C404.395 262.256 404.667 262.072 404.923 261.832C405.179 261.608 405.379 261.344 405.523 261.04C405.683 260.72 405.763 260.376 405.763 260.008V252.472H409.123V265H405.859V263.272C405.347 264.008 404.763 264.544 404.107 264.88C403.467 265.216 402.779 265.384 402.043 265.384C400.619 265.384 399.571 265.016 398.899 264.28C398.227 263.528 397.891 262.352 397.891 260.752V252.472ZM412.121 247.864H415.481V265H412.121V247.864ZM418.496 247.864H421.856V265H418.496V247.864ZM425.183 266.776C425.647 266.904 426.119 266.968 426.599 266.968C427.047 266.968 427.407 266.856 427.679 266.632C427.951 266.424 428.183 266.048 428.375 265.504L428.759 264.448L423.551 252.472H427.439L430.367 260.704L433.103 252.472H436.775L431.711 265.36C431.423 266.08 431.151 266.704 430.895 267.232C430.639 267.776 430.343 268.224 430.007 268.576C429.687 268.944 429.295 269.216 428.831 269.392C428.383 269.568 427.823 269.656 427.151 269.656C426.735 269.656 426.319 269.624 425.903 269.56C425.503 269.512 425.079 269.416 424.631 269.272L425.183 266.776ZM446.232 261.016C446.344 261.752 446.64 262.232 447.12 262.456C447.6 262.68 448.176 262.792 448.848 262.792C449.648 262.792 450.216 262.696 450.552 262.504C450.904 262.296 451.08 261.968 451.08 261.52C451.08 261.2 450.968 260.92 450.744 260.68C450.536 260.44 450.128 260.272 449.52 260.176L447.792 259.888C446.272 259.648 445.136 259.24 444.384 258.664C443.648 258.072 443.28 257.184 443.28 256C443.28 255.392 443.408 254.848 443.664 254.368C443.936 253.888 444.312 253.48 444.792 253.144C445.272 252.808 445.84 252.552 446.496 252.376C447.168 252.184 447.904 252.088 448.704 252.088C449.696 252.088 450.528 252.192 451.2 252.4C451.872 252.592 452.416 252.856 452.832 253.192C453.264 253.528 453.584 253.928 453.792 254.392C454.016 254.856 454.176 255.352 454.272 255.88L451.272 256.264C451.128 255.688 450.872 255.264 450.504 254.992C450.152 254.72 449.576 254.584 448.776 254.584C448.328 254.584 447.952 254.624 447.648 254.704C447.36 254.768 447.128 254.856 446.952 254.968C446.792 255.08 446.672 255.208 446.592 255.352C446.528 255.496 446.496 255.632 446.496 255.76C446.496 256.16 446.616 256.456 446.856 256.648C447.112 256.824 447.6 256.976 448.32 257.104L449.904 257.368C450.784 257.512 451.512 257.696 452.088 257.92C452.664 258.144 453.12 258.424 453.456 258.76C453.808 259.08 454.048 259.464 454.176 259.912C454.32 260.36 454.392 260.88 454.392 261.472C454.392 262.656 453.944 263.608 453.048 264.328C452.152 265.032 450.768 265.384 448.896 265.384C448.144 265.384 447.424 265.312 446.736 265.168C446.064 265.04 445.456 264.808 444.912 264.472C444.384 264.136 443.944 263.688 443.592 263.128C443.256 262.568 443.064 261.864 443.016 261.016H446.232ZM467.937 261.088C467.713 262.496 467.145 263.568 466.233 264.304C465.337 265.024 464.025 265.384 462.297 265.384C460.217 265.384 458.649 264.808 457.593 263.656C456.553 262.504 456.033 260.872 456.033 258.76C456.033 257.704 456.185 256.768 456.489 255.952C456.793 255.12 457.217 254.416 457.761 253.84C458.321 253.264 458.985 252.832 459.753 252.544C460.521 252.24 461.369 252.088 462.297 252.088C464.217 252.088 465.657 252.64 466.617 253.744C467.593 254.848 468.081 256.336 468.081 258.208V259.552H459.393C459.425 260.56 459.681 261.352 460.161 261.928C460.641 262.488 461.361 262.768 462.321 262.768C463.649 262.768 464.433 262.208 464.673 261.088H467.937ZM464.841 257.344C464.841 256.48 464.625 255.808 464.193 255.328C463.777 254.848 463.121 254.608 462.225 254.608C461.777 254.608 461.385 254.68 461.049 254.824C460.713 254.968 460.425 255.168 460.185 255.424C459.961 255.664 459.785 255.952 459.657 256.288C459.529 256.608 459.457 256.96 459.441 257.344H464.841ZM470.597 252.472H473.861V254.2C474.357 253.464 474.941 252.928 475.613 252.592C476.301 252.256 477.013 252.088 477.749 252.088C479.173 252.088 480.229 252.464 480.917 253.216C481.605 253.952 481.949 255.12 481.949 256.72V265H478.589V257.176C478.589 256.296 478.421 255.696 478.085 255.376C477.749 255.056 477.301 254.896 476.741 254.896C476.309 254.896 475.933 254.96 475.613 255.088C475.309 255.216 475.021 255.4 474.749 255.64C474.525 255.864 474.333 256.136 474.173 256.456C474.029 256.76 473.957 257.096 473.957 257.464V265H470.597V252.472ZM485.569 255.088H483.601V252.472H485.569V249.136H488.929V252.472H491.809V255.088H488.929V260.872C488.929 261.528 489.065 261.976 489.337 262.216C489.609 262.44 489.961 262.552 490.393 262.552C490.617 262.552 490.841 262.544 491.065 262.528C491.305 262.496 491.537 262.448 491.761 262.384L492.241 264.856C491.777 265 491.321 265.096 490.873 265.144C490.441 265.208 490.025 265.24 489.625 265.24C488.249 265.24 487.225 264.912 486.553 264.256C485.897 263.6 485.569 262.496 485.569 260.944V255.088ZM493.894 247.864H497.494L497.254 259.576H494.134L493.894 247.864ZM494.038 261.184H497.35V265H494.038V261.184Z" fill="white"/>
</g>
<defs>
<filter id="filter0_d" x="0" y="0" width="511" height="263" filterUnits="userSpaceOnUse" color-interpolation-filters="sRGB">
<feFlood flood-opacity="0" result="BackgroundImageFix"/>
<feColorMatrix in="SourceAlpha" type="matrix" values="0 0 0 0 0 0 0 0 0 0 0 0 0 0 0 0 0 0 127 0"/>
<feOffset dy="4"/>
<feGaussianBlur stdDeviation="2"/>
<feColorMatrix type="matrix" values="0 0 0 0 0 0 0 0 0 0 0 0 0 0 0 0 0 0 0.05 0"/>
<feBlend mode="normal" in2="BackgroundImageFix" result="effect1_dropShadow"/>
<feBlend mode="normal" in="SourceGraphic" in2="effect1_dropShadow" result="shape"/>
</filter>
<filter id="filter1_d" x="145" y="211" width="396" height="90" filterUnits="userSpaceOnUse" color-interpolation-filters="sRGB">
<feFlood flood-opacity="0" result="BackgroundImageFix"/>
<feColorMatrix in="SourceAlpha" type="matrix" values="0 0 0 0 0 0 0 0 0 0 0 0 0 0 0 0 0 0 127 0"/>
<feOffset/>
<feGaussianBlur stdDeviation="5"/>
<feColorMatrix type="matrix" values="0 0 0 0 0 0 0 0 0 0 0 0 0 0 0 0 0 0 0.1 0"/>
<feBlend mode="normal" in2="BackgroundImageFix" result="effect1_dropShadow"/>
<feBlend mode="normal" in="SourceGraphic" in2="effect1_dropShadow" result="shape"/>
</filter>
</defs>
</svg>
