<svg width="335" height="258" viewBox="0 0 335 258" fill="none" xmlns="http://www.w3.org/2000/svg">
<g filter="url(#filter0_d)">
<rect x="10" y="10" width="315" height="70" rx="10" fill="#37BC9B"/>
<path d="M87.427 54.432C86.147 54.432 85.003 54.224 83.995 53.808C82.987 53.392 82.131 52.792 81.427 52.008C80.723 51.224 80.179 50.28 79.795 49.176C79.427 48.072 79.243 46.824 79.243 45.432C79.243 44.04 79.427 42.792 79.795 41.688C80.179 40.584 80.723 39.64 81.427 38.856C82.147 38.072 83.011 37.472 84.019 37.056C85.027 36.64 86.163 36.432 87.427 36.432C88.707 36.432 89.851 36.64 90.859 37.056C91.867 37.472 92.715 38.072 93.403 38.856C94.107 39.64 94.643 40.584 95.011 41.688C95.379 42.792 95.563 44.04 95.563 45.432C95.563 46.824 95.379 48.072 95.011 49.176C94.659 50.28 94.131 51.224 93.427 52.008C92.739 52.792 91.891 53.392 90.883 53.808C89.875 54.224 88.723 54.432 87.427 54.432ZM87.403 51.36C88.907 51.36 90.027 50.848 90.763 49.824C91.499 48.8 91.867 47.336 91.867 45.432C91.867 43.544 91.499 42.088 90.763 41.064C90.027 40.024 88.907 39.504 87.403 39.504C85.899 39.504 84.779 40.024 84.043 41.064C83.307 42.088 82.939 43.544 82.939 45.432C82.939 47.336 83.307 48.8 84.043 49.824C84.779 50.848 85.899 51.36 87.403 51.36ZM98.2575 41.472H101.522V43.224C101.938 42.568 102.442 42.08 103.034 41.76C103.626 41.424 104.25 41.256 104.906 41.256C105.226 41.256 105.49 41.272 105.698 41.304C105.906 41.32 106.09 41.344 106.25 41.376L105.842 44.424C105.458 44.328 104.986 44.28 104.426 44.28C104.058 44.28 103.706 44.328 103.37 44.424C103.034 44.504 102.73 44.664 102.458 44.904C102.17 45.16 101.954 45.448 101.81 45.768C101.682 46.088 101.618 46.416 101.618 46.752V54H98.2575V41.472ZM116.391 52.344C115.431 53.704 114.135 54.384 112.503 54.384C110.743 54.384 109.431 53.792 108.567 52.608C107.703 51.424 107.271 49.784 107.271 47.688C107.271 46.712 107.391 45.824 107.631 45.024C107.887 44.208 108.247 43.512 108.711 42.936C109.175 42.344 109.743 41.888 110.415 41.568C111.087 41.248 111.847 41.088 112.695 41.088C113.319 41.088 113.935 41.2 114.543 41.424C115.167 41.648 115.751 42.08 116.295 42.72V36.864H119.655V54H116.391V52.344ZM116.319 47.592C116.319 46.792 116.247 46.152 116.103 45.672C115.975 45.192 115.759 44.8 115.455 44.496C115.167 44.208 114.847 44.024 114.495 43.944C114.159 43.848 113.823 43.8 113.487 43.8C113.119 43.8 112.767 43.872 112.431 44.016C112.111 44.16 111.823 44.384 111.567 44.688C111.327 44.992 111.135 45.392 110.991 45.888C110.847 46.384 110.775 46.976 110.775 47.664C110.775 48.416 110.839 49.048 110.967 49.56C111.111 50.056 111.303 50.464 111.543 50.784C111.783 51.088 112.063 51.312 112.383 51.456C112.703 51.584 113.047 51.648 113.415 51.648C114.215 51.648 114.871 51.416 115.383 50.952C115.703 50.632 115.935 50.248 116.079 49.8C116.239 49.336 116.319 48.744 116.319 48.024V47.592ZM134.105 50.088C133.881 51.496 133.313 52.568 132.401 53.304C131.505 54.024 130.193 54.384 128.465 54.384C126.385 54.384 124.817 53.808 123.761 52.656C122.721 51.504 122.201 49.872 122.201 47.76C122.201 46.704 122.353 45.768 122.657 44.952C122.961 44.12 123.385 43.416 123.929 42.84C124.489 42.264 125.153 41.832 125.921 41.544C126.689 41.24 127.537 41.088 128.465 41.088C130.385 41.088 131.825 41.64 132.785 42.744C133.761 43.848 134.249 45.336 134.249 47.208V48.552H125.561C125.593 49.56 125.849 50.352 126.329 50.928C126.809 51.488 127.529 51.768 128.489 51.768C129.817 51.768 130.601 51.208 130.841 50.088H134.105ZM131.009 46.344C131.009 45.48 130.793 44.808 130.361 44.328C129.945 43.848 129.289 43.608 128.393 43.608C127.945 43.608 127.553 43.68 127.217 43.824C126.881 43.968 126.593 44.168 126.353 44.424C126.129 44.664 125.953 44.952 125.825 45.288C125.697 45.608 125.625 45.96 125.609 46.344H131.009ZM136.765 41.472H140.029V43.224C140.445 42.568 140.949 42.08 141.541 41.76C142.133 41.424 142.757 41.256 143.413 41.256C143.733 41.256 143.997 41.272 144.205 41.304C144.413 41.32 144.597 41.344 144.757 41.376L144.349 44.424C143.965 44.328 143.493 44.28 142.933 44.28C142.565 44.28 142.213 44.328 141.877 44.424C141.541 44.504 141.237 44.664 140.965 44.904C140.677 45.16 140.461 45.448 140.317 45.768C140.189 46.088 140.125 46.416 140.125 46.752V54H136.765V41.472ZM167.068 48.072C166.988 48.984 166.772 49.832 166.42 50.616C166.084 51.384 165.612 52.056 165.004 52.632C164.412 53.192 163.676 53.632 162.796 53.952C161.932 54.272 160.924 54.432 159.772 54.432C158.476 54.432 157.332 54.216 156.34 53.784C155.364 53.352 154.54 52.744 153.868 51.96C153.212 51.176 152.716 50.232 152.38 49.128C152.044 48.008 151.876 46.776 151.876 45.432C151.876 44.04 152.06 42.792 152.428 41.688C152.796 40.584 153.324 39.64 154.012 38.856C154.7 38.072 155.532 37.472 156.508 37.056C157.484 36.64 158.588 36.432 159.82 36.432C160.908 36.432 161.852 36.568 162.652 36.84C163.468 37.112 164.148 37.504 164.692 38.016C165.252 38.528 165.7 39.144 166.036 39.864C166.372 40.584 166.62 41.392 166.78 42.288L163.228 42.744C163.052 41.736 162.708 40.944 162.196 40.368C161.7 39.792 160.908 39.504 159.82 39.504C158.444 39.504 157.396 40.024 156.676 41.064C155.972 42.088 155.62 43.544 155.62 45.432C155.62 47.336 155.996 48.8 156.748 49.824C157.516 50.848 158.54 51.36 159.82 51.36C160.924 51.36 161.732 51.08 162.244 50.52C162.772 49.944 163.1 49.128 163.228 48.072H167.068ZM175.177 54.384C173.161 54.384 171.601 53.808 170.497 52.656C169.393 51.504 168.841 49.856 168.841 47.712C168.841 46.688 168.985 45.768 169.273 44.952C169.577 44.12 170.001 43.424 170.545 42.864C171.105 42.288 171.777 41.848 172.561 41.544C173.345 41.24 174.217 41.088 175.177 41.088C176.153 41.088 177.033 41.24 177.817 41.544C178.601 41.848 179.265 42.288 179.809 42.864C180.369 43.424 180.793 44.12 181.081 44.952C181.369 45.768 181.513 46.688 181.513 47.712C181.513 48.752 181.361 49.688 181.057 50.52C180.769 51.336 180.345 52.032 179.785 52.608C179.241 53.184 178.577 53.624 177.793 53.928C177.009 54.232 176.137 54.384 175.177 54.384ZM175.177 51.696C176.137 51.696 176.849 51.352 177.313 50.664C177.793 49.976 178.033 48.992 178.033 47.712C178.033 46.432 177.793 45.456 177.313 44.784C176.849 44.112 176.137 43.776 175.177 43.776C174.217 43.776 173.497 44.112 173.017 44.784C172.553 45.456 172.321 46.432 172.321 47.712C172.321 49.008 172.553 50 173.017 50.688C173.481 51.36 174.201 51.696 175.177 51.696ZM184.062 41.472H187.326V43.152C187.79 42.448 188.334 41.928 188.958 41.592C189.582 41.256 190.238 41.088 190.926 41.088C191.838 41.088 192.582 41.272 193.158 41.64C193.734 42.008 194.142 42.544 194.382 43.248C194.958 42.48 195.566 41.928 196.206 41.592C196.846 41.256 197.55 41.088 198.318 41.088C199.614 41.088 200.582 41.448 201.222 42.168C201.878 42.872 202.206 44.024 202.206 45.624V54H198.846V46.08C198.846 45.632 198.806 45.272 198.726 45C198.646 44.712 198.534 44.488 198.39 44.328C198.262 44.168 198.102 44.056 197.91 43.992C197.718 43.928 197.518 43.896 197.31 43.896C196.974 43.896 196.662 43.952 196.374 44.064C196.102 44.176 195.83 44.368 195.558 44.64C195.334 44.864 195.15 45.12 195.006 45.408C194.878 45.696 194.814 46 194.814 46.32V54H191.454V46.08C191.454 45.632 191.414 45.272 191.334 45C191.254 44.712 191.142 44.488 190.998 44.328C190.87 44.168 190.71 44.056 190.518 43.992C190.326 43.928 190.126 43.896 189.918 43.896C189.582 43.896 189.27 43.952 188.982 44.064C188.71 44.176 188.438 44.368 188.166 44.64C187.942 44.864 187.758 45.136 187.614 45.456C187.486 45.76 187.422 46.096 187.422 46.464V54H184.062V41.472ZM205.062 41.472H208.326V43.128C209.286 41.768 210.598 41.088 212.262 41.088C214.006 41.088 215.31 41.68 216.174 42.864C217.038 44.048 217.47 45.672 217.47 47.736C217.47 48.728 217.342 49.632 217.086 50.448C216.846 51.264 216.486 51.968 216.006 52.56C215.542 53.136 214.974 53.584 214.302 53.904C213.63 54.224 212.87 54.384 212.022 54.384C211.398 54.384 210.774 54.272 210.15 54.048C209.542 53.824 208.966 53.376 208.422 52.704V58.656H205.062V41.472ZM208.398 47.832C208.398 48.648 208.462 49.304 208.59 49.8C208.734 50.28 208.958 50.672 209.262 50.976C209.582 51.264 209.902 51.456 210.222 51.552C210.558 51.632 210.894 51.672 211.23 51.672C211.598 51.672 211.95 51.6 212.286 51.456C212.622 51.312 212.91 51.088 213.15 50.784C213.406 50.464 213.606 50.056 213.75 49.56C213.894 49.064 213.966 48.464 213.966 47.76C213.966 47.024 213.894 46.408 213.75 45.912C213.622 45.416 213.438 45.016 213.198 44.712C212.958 44.392 212.67 44.168 212.334 44.04C212.014 43.896 211.67 43.824 211.302 43.824C210.886 43.824 210.526 43.88 210.222 43.992C209.918 44.104 209.622 44.28 209.334 44.52C209.014 44.824 208.774 45.208 208.614 45.672C208.47 46.136 208.398 46.728 208.398 47.448V47.832ZM220.039 36.864H223.399V54H220.039V36.864ZM237.862 50.088C237.638 51.496 237.07 52.568 236.158 53.304C235.262 54.024 233.95 54.384 232.222 54.384C230.142 54.384 228.574 53.808 227.518 52.656C226.478 51.504 225.958 49.872 225.958 47.76C225.958 46.704 226.11 45.768 226.414 44.952C226.718 44.12 227.142 43.416 227.686 42.84C228.246 42.264 228.91 41.832 229.678 41.544C230.446 41.24 231.294 41.088 232.222 41.088C234.142 41.088 235.582 41.64 236.542 42.744C237.518 43.848 238.006 45.336 238.006 47.208V48.552H229.318C229.35 49.56 229.606 50.352 230.086 50.928C230.566 51.488 231.286 51.768 232.246 51.768C233.574 51.768 234.358 51.208 234.598 50.088H237.862ZM234.766 46.344C234.766 45.48 234.55 44.808 234.118 44.328C233.702 43.848 233.046 43.608 232.15 43.608C231.702 43.608 231.31 43.68 230.974 43.824C230.638 43.968 230.35 44.168 230.11 44.424C229.886 44.664 229.71 44.952 229.582 45.288C229.454 45.608 229.382 45.96 229.366 46.344H234.766ZM241.291 44.088H239.323V41.472H241.291V38.136H244.651V41.472H247.531V44.088H244.651V49.872C244.651 50.528 244.787 50.976 245.059 51.216C245.331 51.44 245.683 51.552 246.115 51.552C246.339 51.552 246.563 51.544 246.787 51.528C247.027 51.496 247.259 51.448 247.483 51.384L247.963 53.856C247.499 54 247.043 54.096 246.595 54.144C246.163 54.208 245.747 54.24 245.347 54.24C243.971 54.24 242.947 53.912 242.275 53.256C241.619 52.6 241.291 51.496 241.291 49.944V44.088ZM260.855 50.088C260.631 51.496 260.063 52.568 259.151 53.304C258.255 54.024 256.943 54.384 255.215 54.384C253.135 54.384 251.567 53.808 250.511 52.656C249.471 51.504 248.951 49.872 248.951 47.76C248.951 46.704 249.103 45.768 249.407 44.952C249.711 44.12 250.135 43.416 250.679 42.84C251.239 42.264 251.903 41.832 252.671 41.544C253.439 41.24 254.287 41.088 255.215 41.088C257.135 41.088 258.575 41.64 259.535 42.744C260.511 43.848 260.999 45.336 260.999 47.208V48.552H252.311C252.343 49.56 252.599 50.352 253.079 50.928C253.559 51.488 254.279 51.768 255.239 51.768C256.567 51.768 257.351 51.208 257.591 50.088H260.855ZM257.759 46.344C257.759 45.48 257.543 44.808 257.111 44.328C256.695 43.848 256.039 43.608 255.143 43.608C254.695 43.608 254.303 43.68 253.967 43.824C253.631 43.968 253.343 44.168 253.103 44.424C252.879 44.664 252.703 44.952 252.575 45.288C252.447 45.608 252.375 45.96 252.359 46.344H257.759ZM272.203 52.344C271.243 53.704 269.947 54.384 268.315 54.384C266.555 54.384 265.243 53.792 264.379 52.608C263.515 51.424 263.083 49.784 263.083 47.688C263.083 46.712 263.203 45.824 263.443 45.024C263.699 44.208 264.059 43.512 264.523 42.936C264.987 42.344 265.555 41.888 266.227 41.568C266.899 41.248 267.659 41.088 268.507 41.088C269.131 41.088 269.747 41.2 270.355 41.424C270.979 41.648 271.563 42.08 272.107 42.72V36.864H275.467V54H272.203V52.344ZM272.131 47.592C272.131 46.792 272.059 46.152 271.915 45.672C271.787 45.192 271.571 44.8 271.267 44.496C270.979 44.208 270.659 44.024 270.307 43.944C269.971 43.848 269.635 43.8 269.299 43.8C268.931 43.8 268.579 43.872 268.243 44.016C267.923 44.16 267.635 44.384 267.379 44.688C267.139 44.992 266.947 45.392 266.803 45.888C266.659 46.384 266.587 46.976 266.587 47.664C266.587 48.416 266.651 49.048 266.779 49.56C266.923 50.056 267.115 50.464 267.355 50.784C267.595 51.088 267.875 51.312 268.195 51.456C268.515 51.584 268.859 51.648 269.227 51.648C270.027 51.648 270.683 51.416 271.195 50.952C271.515 50.632 271.747 50.248 271.891 49.8C272.051 49.336 272.131 48.744 272.131 48.024V47.592Z" fill="white"/>
</g>
<path d="M54.7871 50.2292C54.0821 51.7912 53.7451 52.4872 52.8371 53.8672C51.5721 55.7942 49.7871 58.1942 47.5751 58.2142C45.6101 58.2322 45.1051 56.9362 42.4381 56.9512C39.7711 56.9662 39.2151 58.2382 37.2501 58.2192C35.0381 58.1992 33.3481 56.0322 32.0821 54.1042C28.5421 48.7162 28.1721 42.3922 30.3551 39.0312C31.9071 36.6412 34.3551 35.2442 36.6571 35.2442C39.0001 35.2442 40.4741 36.5292 42.4121 36.5292C44.2921 36.5292 45.4371 35.2422 48.1471 35.2422C50.1951 35.2422 52.3651 36.3572 53.9121 38.2842C48.8461 41.0612 49.6691 48.2942 54.7871 50.2292Z" fill="white"/>
<path d="M46.3788 31.87C47.3638 30.607 48.1108 28.823 47.8388 27C46.2308 27.11 44.3508 28.133 43.2518 29.467C42.2548 30.677 41.4318 32.472 41.7518 34.217C43.5068 34.272 45.3238 33.224 46.3788 31.87Z" fill="white"/>
<g filter="url(#filter1_d)">
<rect x="10" y="94" width="315" height="70" rx="10" fill="#37BC9B"/>
<path d="M87.427 137.432C86.147 137.432 85.003 137.224 83.995 136.808C82.987 136.392 82.131 135.792 81.427 135.008C80.723 134.224 80.179 133.28 79.795 132.176C79.427 131.072 79.243 129.824 79.243 128.432C79.243 127.04 79.427 125.792 79.795 124.688C80.179 123.584 80.723 122.64 81.427 121.856C82.147 121.072 83.011 120.472 84.019 120.056C85.027 119.64 86.163 119.432 87.427 119.432C88.707 119.432 89.851 119.64 90.859 120.056C91.867 120.472 92.715 121.072 93.403 121.856C94.107 122.64 94.643 123.584 95.011 124.688C95.379 125.792 95.563 127.04 95.563 128.432C95.563 129.824 95.379 131.072 95.011 132.176C94.659 133.28 94.131 134.224 93.427 135.008C92.739 135.792 91.891 136.392 90.883 136.808C89.875 137.224 88.723 137.432 87.427 137.432ZM87.403 134.36C88.907 134.36 90.027 133.848 90.763 132.824C91.499 131.8 91.867 130.336 91.867 128.432C91.867 126.544 91.499 125.088 90.763 124.064C90.027 123.024 88.907 122.504 87.403 122.504C85.899 122.504 84.779 123.024 84.043 124.064C83.307 125.088 82.939 126.544 82.939 128.432C82.939 130.336 83.307 131.8 84.043 132.824C84.779 133.848 85.899 134.36 87.403 134.36ZM98.2575 124.472H101.522V126.224C101.938 125.568 102.442 125.08 103.034 124.76C103.626 124.424 104.25 124.256 104.906 124.256C105.226 124.256 105.49 124.272 105.698 124.304C105.906 124.32 106.09 124.344 106.25 124.376L105.842 127.424C105.458 127.328 104.986 127.28 104.426 127.28C104.058 127.28 103.706 127.328 103.37 127.424C103.034 127.504 102.73 127.664 102.458 127.904C102.17 128.16 101.954 128.448 101.81 128.768C101.682 129.088 101.618 129.416 101.618 129.752V137H98.2575V124.472ZM116.391 135.344C115.431 136.704 114.135 137.384 112.503 137.384C110.743 137.384 109.431 136.792 108.567 135.608C107.703 134.424 107.271 132.784 107.271 130.688C107.271 129.712 107.391 128.824 107.631 128.024C107.887 127.208 108.247 126.512 108.711 125.936C109.175 125.344 109.743 124.888 110.415 124.568C111.087 124.248 111.847 124.088 112.695 124.088C113.319 124.088 113.935 124.2 114.543 124.424C115.167 124.648 115.751 125.08 116.295 125.72V119.864H119.655V137H116.391V135.344ZM116.319 130.592C116.319 129.792 116.247 129.152 116.103 128.672C115.975 128.192 115.759 127.8 115.455 127.496C115.167 127.208 114.847 127.024 114.495 126.944C114.159 126.848 113.823 126.8 113.487 126.8C113.119 126.8 112.767 126.872 112.431 127.016C112.111 127.16 111.823 127.384 111.567 127.688C111.327 127.992 111.135 128.392 110.991 128.888C110.847 129.384 110.775 129.976 110.775 130.664C110.775 131.416 110.839 132.048 110.967 132.56C111.111 133.056 111.303 133.464 111.543 133.784C111.783 134.088 112.063 134.312 112.383 134.456C112.703 134.584 113.047 134.648 113.415 134.648C114.215 134.648 114.871 134.416 115.383 133.952C115.703 133.632 115.935 133.248 116.079 132.8C116.239 132.336 116.319 131.744 116.319 131.024V130.592ZM134.105 133.088C133.881 134.496 133.313 135.568 132.401 136.304C131.505 137.024 130.193 137.384 128.465 137.384C126.385 137.384 124.817 136.808 123.761 135.656C122.721 134.504 122.201 132.872 122.201 130.76C122.201 129.704 122.353 128.768 122.657 127.952C122.961 127.12 123.385 126.416 123.929 125.84C124.489 125.264 125.153 124.832 125.921 124.544C126.689 124.24 127.537 124.088 128.465 124.088C130.385 124.088 131.825 124.64 132.785 125.744C133.761 126.848 134.249 128.336 134.249 130.208V131.552H125.561C125.593 132.56 125.849 133.352 126.329 133.928C126.809 134.488 127.529 134.768 128.489 134.768C129.817 134.768 130.601 134.208 130.841 133.088H134.105ZM131.009 129.344C131.009 128.48 130.793 127.808 130.361 127.328C129.945 126.848 129.289 126.608 128.393 126.608C127.945 126.608 127.553 126.68 127.217 126.824C126.881 126.968 126.593 127.168 126.353 127.424C126.129 127.664 125.953 127.952 125.825 128.288C125.697 128.608 125.625 128.96 125.609 129.344H131.009ZM136.765 124.472H140.029V126.224C140.445 125.568 140.949 125.08 141.541 124.76C142.133 124.424 142.757 124.256 143.413 124.256C143.733 124.256 143.997 124.272 144.205 124.304C144.413 124.32 144.597 124.344 144.757 124.376L144.349 127.424C143.965 127.328 143.493 127.28 142.933 127.28C142.565 127.28 142.213 127.328 141.877 127.424C141.541 127.504 141.237 127.664 140.965 127.904C140.677 128.16 140.461 128.448 140.317 128.768C140.189 129.088 140.125 129.416 140.125 129.752V137H136.765V124.472ZM167.068 131.072C166.988 131.984 166.772 132.832 166.42 133.616C166.084 134.384 165.612 135.056 165.004 135.632C164.412 136.192 163.676 136.632 162.796 136.952C161.932 137.272 160.924 137.432 159.772 137.432C158.476 137.432 157.332 137.216 156.34 136.784C155.364 136.352 154.54 135.744 153.868 134.96C153.212 134.176 152.716 133.232 152.38 132.128C152.044 131.008 151.876 129.776 151.876 128.432C151.876 127.04 152.06 125.792 152.428 124.688C152.796 123.584 153.324 122.64 154.012 121.856C154.7 121.072 155.532 120.472 156.508 120.056C157.484 119.64 158.588 119.432 159.82 119.432C160.908 119.432 161.852 119.568 162.652 119.84C163.468 120.112 164.148 120.504 164.692 121.016C165.252 121.528 165.7 122.144 166.036 122.864C166.372 123.584 166.62 124.392 166.78 125.288L163.228 125.744C163.052 124.736 162.708 123.944 162.196 123.368C161.7 122.792 160.908 122.504 159.82 122.504C158.444 122.504 157.396 123.024 156.676 124.064C155.972 125.088 155.62 126.544 155.62 128.432C155.62 130.336 155.996 131.8 156.748 132.824C157.516 133.848 158.54 134.36 159.82 134.36C160.924 134.36 161.732 134.08 162.244 133.52C162.772 132.944 163.1 132.128 163.228 131.072H167.068ZM175.177 137.384C173.161 137.384 171.601 136.808 170.497 135.656C169.393 134.504 168.841 132.856 168.841 130.712C168.841 129.688 168.985 128.768 169.273 127.952C169.577 127.12 170.001 126.424 170.545 125.864C171.105 125.288 171.777 124.848 172.561 124.544C173.345 124.24 174.217 124.088 175.177 124.088C176.153 124.088 177.033 124.24 177.817 124.544C178.601 124.848 179.265 125.288 179.809 125.864C180.369 126.424 180.793 127.12 181.081 127.952C181.369 128.768 181.513 129.688 181.513 130.712C181.513 131.752 181.361 132.688 181.057 133.52C180.769 134.336 180.345 135.032 179.785 135.608C179.241 136.184 178.577 136.624 177.793 136.928C177.009 137.232 176.137 137.384 175.177 137.384ZM175.177 134.696C176.137 134.696 176.849 134.352 177.313 133.664C177.793 132.976 178.033 131.992 178.033 130.712C178.033 129.432 177.793 128.456 177.313 127.784C176.849 127.112 176.137 126.776 175.177 126.776C174.217 126.776 173.497 127.112 173.017 127.784C172.553 128.456 172.321 129.432 172.321 130.712C172.321 132.008 172.553 133 173.017 133.688C173.481 134.36 174.201 134.696 175.177 134.696ZM184.062 124.472H187.326V126.152C187.79 125.448 188.334 124.928 188.958 124.592C189.582 124.256 190.238 124.088 190.926 124.088C191.838 124.088 192.582 124.272 193.158 124.64C193.734 125.008 194.142 125.544 194.382 126.248C194.958 125.48 195.566 124.928 196.206 124.592C196.846 124.256 197.55 124.088 198.318 124.088C199.614 124.088 200.582 124.448 201.222 125.168C201.878 125.872 202.206 127.024 202.206 128.624V137H198.846V129.08C198.846 128.632 198.806 128.272 198.726 128C198.646 127.712 198.534 127.488 198.39 127.328C198.262 127.168 198.102 127.056 197.91 126.992C197.718 126.928 197.518 126.896 197.31 126.896C196.974 126.896 196.662 126.952 196.374 127.064C196.102 127.176 195.83 127.368 195.558 127.64C195.334 127.864 195.15 128.12 195.006 128.408C194.878 128.696 194.814 129 194.814 129.32V137H191.454V129.08C191.454 128.632 191.414 128.272 191.334 128C191.254 127.712 191.142 127.488 190.998 127.328C190.87 127.168 190.71 127.056 190.518 126.992C190.326 126.928 190.126 126.896 189.918 126.896C189.582 126.896 189.27 126.952 188.982 127.064C188.71 127.176 188.438 127.368 188.166 127.64C187.942 127.864 187.758 128.136 187.614 128.456C187.486 128.76 187.422 129.096 187.422 129.464V137H184.062V124.472ZM205.062 124.472H208.326V126.128C209.286 124.768 210.598 124.088 212.262 124.088C214.006 124.088 215.31 124.68 216.174 125.864C217.038 127.048 217.47 128.672 217.47 130.736C217.47 131.728 217.342 132.632 217.086 133.448C216.846 134.264 216.486 134.968 216.006 135.56C215.542 136.136 214.974 136.584 214.302 136.904C213.63 137.224 212.87 137.384 212.022 137.384C211.398 137.384 210.774 137.272 210.15 137.048C209.542 136.824 208.966 136.376 208.422 135.704V141.656H205.062V124.472ZM208.398 130.832C208.398 131.648 208.462 132.304 208.59 132.8C208.734 133.28 208.958 133.672 209.262 133.976C209.582 134.264 209.902 134.456 210.222 134.552C210.558 134.632 210.894 134.672 211.23 134.672C211.598 134.672 211.95 134.6 212.286 134.456C212.622 134.312 212.91 134.088 213.15 133.784C213.406 133.464 213.606 133.056 213.75 132.56C213.894 132.064 213.966 131.464 213.966 130.76C213.966 130.024 213.894 129.408 213.75 128.912C213.622 128.416 213.438 128.016 213.198 127.712C212.958 127.392 212.67 127.168 212.334 127.04C212.014 126.896 211.67 126.824 211.302 126.824C210.886 126.824 210.526 126.88 210.222 126.992C209.918 127.104 209.622 127.28 209.334 127.52C209.014 127.824 208.774 128.208 208.614 128.672C208.47 129.136 208.398 129.728 208.398 130.448V130.832ZM220.039 119.864H223.399V137H220.039V119.864ZM237.862 133.088C237.638 134.496 237.07 135.568 236.158 136.304C235.262 137.024 233.95 137.384 232.222 137.384C230.142 137.384 228.574 136.808 227.518 135.656C226.478 134.504 225.958 132.872 225.958 130.76C225.958 129.704 226.11 128.768 226.414 127.952C226.718 127.12 227.142 126.416 227.686 125.84C228.246 125.264 228.91 124.832 229.678 124.544C230.446 124.24 231.294 124.088 232.222 124.088C234.142 124.088 235.582 124.64 236.542 125.744C237.518 126.848 238.006 128.336 238.006 130.208V131.552H229.318C229.35 132.56 229.606 133.352 230.086 133.928C230.566 134.488 231.286 134.768 232.246 134.768C233.574 134.768 234.358 134.208 234.598 133.088H237.862ZM234.766 129.344C234.766 128.48 234.55 127.808 234.118 127.328C233.702 126.848 233.046 126.608 232.15 126.608C231.702 126.608 231.31 126.68 230.974 126.824C230.638 126.968 230.35 127.168 230.11 127.424C229.886 127.664 229.71 127.952 229.582 128.288C229.454 128.608 229.382 128.96 229.366 129.344H234.766ZM241.291 127.088H239.323V124.472H241.291V121.136H244.651V124.472H247.531V127.088H244.651V132.872C244.651 133.528 244.787 133.976 245.059 134.216C245.331 134.44 245.683 134.552 246.115 134.552C246.339 134.552 246.563 134.544 246.787 134.528C247.027 134.496 247.259 134.448 247.483 134.384L247.963 136.856C247.499 137 247.043 137.096 246.595 137.144C246.163 137.208 245.747 137.24 245.347 137.24C243.971 137.24 242.947 136.912 242.275 136.256C241.619 135.6 241.291 134.496 241.291 132.944V127.088ZM260.855 133.088C260.631 134.496 260.063 135.568 259.151 136.304C258.255 137.024 256.943 137.384 255.215 137.384C253.135 137.384 251.567 136.808 250.511 135.656C249.471 134.504 248.951 132.872 248.951 130.76C248.951 129.704 249.103 128.768 249.407 127.952C249.711 127.12 250.135 126.416 250.679 125.84C251.239 125.264 251.903 124.832 252.671 124.544C253.439 124.24 254.287 124.088 255.215 124.088C257.135 124.088 258.575 124.64 259.535 125.744C260.511 126.848 260.999 128.336 260.999 130.208V131.552H252.311C252.343 132.56 252.599 133.352 253.079 133.928C253.559 134.488 254.279 134.768 255.239 134.768C256.567 134.768 257.351 134.208 257.591 133.088H260.855ZM257.759 129.344C257.759 128.48 257.543 127.808 257.111 127.328C256.695 126.848 256.039 126.608 255.143 126.608C254.695 126.608 254.303 126.68 253.967 126.824C253.631 126.968 253.343 127.168 253.103 127.424C252.879 127.664 252.703 127.952 252.575 128.288C252.447 128.608 252.375 128.96 252.359 129.344H257.759ZM272.203 135.344C271.243 136.704 269.947 137.384 268.315 137.384C266.555 137.384 265.243 136.792 264.379 135.608C263.515 134.424 263.083 132.784 263.083 130.688C263.083 129.712 263.203 128.824 263.443 128.024C263.699 127.208 264.059 126.512 264.523 125.936C264.987 125.344 265.555 124.888 266.227 124.568C266.899 124.248 267.659 124.088 268.507 124.088C269.131 124.088 269.747 124.2 270.355 124.424C270.979 124.648 271.563 125.08 272.107 125.72V119.864H275.467V137H272.203V135.344ZM272.131 130.592C272.131 129.792 272.059 129.152 271.915 128.672C271.787 128.192 271.571 127.8 271.267 127.496C270.979 127.208 270.659 127.024 270.307 126.944C269.971 126.848 269.635 126.8 269.299 126.8C268.931 126.8 268.579 126.872 268.243 127.016C267.923 127.16 267.635 127.384 267.379 127.688C267.139 127.992 266.947 128.392 266.803 128.888C266.659 129.384 266.587 129.976 266.587 130.664C266.587 131.416 266.651 132.048 266.779 132.56C266.923 133.056 267.115 133.464 267.355 133.784C267.595 134.088 267.875 134.312 268.195 134.456C268.515 134.584 268.859 134.648 269.227 134.648C270.027 134.648 270.683 134.416 271.195 133.952C271.515 133.632 271.747 133.248 271.891 132.8C272.051 132.336 272.131 131.744 272.131 131.024V130.592Z" fill="white"/>
</g>
<g filter="url(#filter2_d)">
<rect x="10" y="178" width="315" height="70" rx="10" fill="#37BC9B"/>
<path d="M87.427 221.432C86.147 221.432 85.003 221.224 83.995 220.808C82.987 220.392 82.131 219.792 81.427 219.008C80.723 218.224 80.179 217.28 79.795 216.176C79.427 215.072 79.243 213.824 79.243 212.432C79.243 211.04 79.427 209.792 79.795 208.688C80.179 207.584 80.723 206.64 81.427 205.856C82.147 205.072 83.011 204.472 84.019 204.056C85.027 203.64 86.163 203.432 87.427 203.432C88.707 203.432 89.851 203.64 90.859 204.056C91.867 204.472 92.715 205.072 93.403 205.856C94.107 206.64 94.643 207.584 95.011 208.688C95.379 209.792 95.563 211.04 95.563 212.432C95.563 213.824 95.379 215.072 95.011 216.176C94.659 217.28 94.131 218.224 93.427 219.008C92.739 219.792 91.891 220.392 90.883 220.808C89.875 221.224 88.723 221.432 87.427 221.432ZM87.403 218.36C88.907 218.36 90.027 217.848 90.763 216.824C91.499 215.8 91.867 214.336 91.867 212.432C91.867 210.544 91.499 209.088 90.763 208.064C90.027 207.024 88.907 206.504 87.403 206.504C85.899 206.504 84.779 207.024 84.043 208.064C83.307 209.088 82.939 210.544 82.939 212.432C82.939 214.336 83.307 215.8 84.043 216.824C84.779 217.848 85.899 218.36 87.403 218.36ZM98.2575 208.472H101.522V210.224C101.938 209.568 102.442 209.08 103.034 208.76C103.626 208.424 104.25 208.256 104.906 208.256C105.226 208.256 105.49 208.272 105.698 208.304C105.906 208.32 106.09 208.344 106.25 208.376L105.842 211.424C105.458 211.328 104.986 211.28 104.426 211.28C104.058 211.28 103.706 211.328 103.37 211.424C103.034 211.504 102.73 211.664 102.458 211.904C102.17 212.16 101.954 212.448 101.81 212.768C101.682 213.088 101.618 213.416 101.618 213.752V221H98.2575V208.472ZM116.391 219.344C115.431 220.704 114.135 221.384 112.503 221.384C110.743 221.384 109.431 220.792 108.567 219.608C107.703 218.424 107.271 216.784 107.271 214.688C107.271 213.712 107.391 212.824 107.631 212.024C107.887 211.208 108.247 210.512 108.711 209.936C109.175 209.344 109.743 208.888 110.415 208.568C111.087 208.248 111.847 208.088 112.695 208.088C113.319 208.088 113.935 208.2 114.543 208.424C115.167 208.648 115.751 209.08 116.295 209.72V203.864H119.655V221H116.391V219.344ZM116.319 214.592C116.319 213.792 116.247 213.152 116.103 212.672C115.975 212.192 115.759 211.8 115.455 211.496C115.167 211.208 114.847 211.024 114.495 210.944C114.159 210.848 113.823 210.8 113.487 210.8C113.119 210.8 112.767 210.872 112.431 211.016C112.111 211.16 111.823 211.384 111.567 211.688C111.327 211.992 111.135 212.392 110.991 212.888C110.847 213.384 110.775 213.976 110.775 214.664C110.775 215.416 110.839 216.048 110.967 216.56C111.111 217.056 111.303 217.464 111.543 217.784C111.783 218.088 112.063 218.312 112.383 218.456C112.703 218.584 113.047 218.648 113.415 218.648C114.215 218.648 114.871 218.416 115.383 217.952C115.703 217.632 115.935 217.248 116.079 216.8C116.239 216.336 116.319 215.744 116.319 215.024V214.592ZM134.105 217.088C133.881 218.496 133.313 219.568 132.401 220.304C131.505 221.024 130.193 221.384 128.465 221.384C126.385 221.384 124.817 220.808 123.761 219.656C122.721 218.504 122.201 216.872 122.201 214.76C122.201 213.704 122.353 212.768 122.657 211.952C122.961 211.12 123.385 210.416 123.929 209.84C124.489 209.264 125.153 208.832 125.921 208.544C126.689 208.24 127.537 208.088 128.465 208.088C130.385 208.088 131.825 208.64 132.785 209.744C133.761 210.848 134.249 212.336 134.249 214.208V215.552H125.561C125.593 216.56 125.849 217.352 126.329 217.928C126.809 218.488 127.529 218.768 128.489 218.768C129.817 218.768 130.601 218.208 130.841 217.088H134.105ZM131.009 213.344C131.009 212.48 130.793 211.808 130.361 211.328C129.945 210.848 129.289 210.608 128.393 210.608C127.945 210.608 127.553 210.68 127.217 210.824C126.881 210.968 126.593 211.168 126.353 211.424C126.129 211.664 125.953 211.952 125.825 212.288C125.697 212.608 125.625 212.96 125.609 213.344H131.009ZM136.765 208.472H140.029V210.224C140.445 209.568 140.949 209.08 141.541 208.76C142.133 208.424 142.757 208.256 143.413 208.256C143.733 208.256 143.997 208.272 144.205 208.304C144.413 208.32 144.597 208.344 144.757 208.376L144.349 211.424C143.965 211.328 143.493 211.28 142.933 211.28C142.565 211.28 142.213 211.328 141.877 211.424C141.541 211.504 141.237 211.664 140.965 211.904C140.677 212.16 140.461 212.448 140.317 212.768C140.189 213.088 140.125 213.416 140.125 213.752V221H136.765V208.472ZM167.068 215.072C166.988 215.984 166.772 216.832 166.42 217.616C166.084 218.384 165.612 219.056 165.004 219.632C164.412 220.192 163.676 220.632 162.796 220.952C161.932 221.272 160.924 221.432 159.772 221.432C158.476 221.432 157.332 221.216 156.34 220.784C155.364 220.352 154.54 219.744 153.868 218.96C153.212 218.176 152.716 217.232 152.38 216.128C152.044 215.008 151.876 213.776 151.876 212.432C151.876 211.04 152.06 209.792 152.428 208.688C152.796 207.584 153.324 206.64 154.012 205.856C154.7 205.072 155.532 204.472 156.508 204.056C157.484 203.64 158.588 203.432 159.82 203.432C160.908 203.432 161.852 203.568 162.652 203.84C163.468 204.112 164.148 204.504 164.692 205.016C165.252 205.528 165.7 206.144 166.036 206.864C166.372 207.584 166.62 208.392 166.78 209.288L163.228 209.744C163.052 208.736 162.708 207.944 162.196 207.368C161.7 206.792 160.908 206.504 159.82 206.504C158.444 206.504 157.396 207.024 156.676 208.064C155.972 209.088 155.62 210.544 155.62 212.432C155.62 214.336 155.996 215.8 156.748 216.824C157.516 217.848 158.54 218.36 159.82 218.36C160.924 218.36 161.732 218.08 162.244 217.52C162.772 216.944 163.1 216.128 163.228 215.072H167.068ZM175.177 221.384C173.161 221.384 171.601 220.808 170.497 219.656C169.393 218.504 168.841 216.856 168.841 214.712C168.841 213.688 168.985 212.768 169.273 211.952C169.577 211.12 170.001 210.424 170.545 209.864C171.105 209.288 171.777 208.848 172.561 208.544C173.345 208.24 174.217 208.088 175.177 208.088C176.153 208.088 177.033 208.24 177.817 208.544C178.601 208.848 179.265 209.288 179.809 209.864C180.369 210.424 180.793 211.12 181.081 211.952C181.369 212.768 181.513 213.688 181.513 214.712C181.513 215.752 181.361 216.688 181.057 217.52C180.769 218.336 180.345 219.032 179.785 219.608C179.241 220.184 178.577 220.624 177.793 220.928C177.009 221.232 176.137 221.384 175.177 221.384ZM175.177 218.696C176.137 218.696 176.849 218.352 177.313 217.664C177.793 216.976 178.033 215.992 178.033 214.712C178.033 213.432 177.793 212.456 177.313 211.784C176.849 211.112 176.137 210.776 175.177 210.776C174.217 210.776 173.497 211.112 173.017 211.784C172.553 212.456 172.321 213.432 172.321 214.712C172.321 216.008 172.553 217 173.017 217.688C173.481 218.36 174.201 218.696 175.177 218.696ZM184.062 208.472H187.326V210.152C187.79 209.448 188.334 208.928 188.958 208.592C189.582 208.256 190.238 208.088 190.926 208.088C191.838 208.088 192.582 208.272 193.158 208.64C193.734 209.008 194.142 209.544 194.382 210.248C194.958 209.48 195.566 208.928 196.206 208.592C196.846 208.256 197.55 208.088 198.318 208.088C199.614 208.088 200.582 208.448 201.222 209.168C201.878 209.872 202.206 211.024 202.206 212.624V221H198.846V213.08C198.846 212.632 198.806 212.272 198.726 212C198.646 211.712 198.534 211.488 198.39 211.328C198.262 211.168 198.102 211.056 197.91 210.992C197.718 210.928 197.518 210.896 197.31 210.896C196.974 210.896 196.662 210.952 196.374 211.064C196.102 211.176 195.83 211.368 195.558 211.64C195.334 211.864 195.15 212.12 195.006 212.408C194.878 212.696 194.814 213 194.814 213.32V221H191.454V213.08C191.454 212.632 191.414 212.272 191.334 212C191.254 211.712 191.142 211.488 190.998 211.328C190.87 211.168 190.71 211.056 190.518 210.992C190.326 210.928 190.126 210.896 189.918 210.896C189.582 210.896 189.27 210.952 188.982 211.064C188.71 211.176 188.438 211.368 188.166 211.64C187.942 211.864 187.758 212.136 187.614 212.456C187.486 212.76 187.422 213.096 187.422 213.464V221H184.062V208.472ZM205.062 208.472H208.326V210.128C209.286 208.768 210.598 208.088 212.262 208.088C214.006 208.088 215.31 208.68 216.174 209.864C217.038 211.048 217.47 212.672 217.47 214.736C217.47 215.728 217.342 216.632 217.086 217.448C216.846 218.264 216.486 218.968 216.006 219.56C215.542 220.136 214.974 220.584 214.302 220.904C213.63 221.224 212.87 221.384 212.022 221.384C211.398 221.384 210.774 221.272 210.15 221.048C209.542 220.824 208.966 220.376 208.422 219.704V225.656H205.062V208.472ZM208.398 214.832C208.398 215.648 208.462 216.304 208.59 216.8C208.734 217.28 208.958 217.672 209.262 217.976C209.582 218.264 209.902 218.456 210.222 218.552C210.558 218.632 210.894 218.672 211.23 218.672C211.598 218.672 211.95 218.6 212.286 218.456C212.622 218.312 212.91 218.088 213.15 217.784C213.406 217.464 213.606 217.056 213.75 216.56C213.894 216.064 213.966 215.464 213.966 214.76C213.966 214.024 213.894 213.408 213.75 212.912C213.622 212.416 213.438 212.016 213.198 211.712C212.958 211.392 212.67 211.168 212.334 211.04C212.014 210.896 211.67 210.824 211.302 210.824C210.886 210.824 210.526 210.88 210.222 210.992C209.918 211.104 209.622 211.28 209.334 211.52C209.014 211.824 208.774 212.208 208.614 212.672C208.47 213.136 208.398 213.728 208.398 214.448V214.832ZM220.039 203.864H223.399V221H220.039V203.864ZM237.862 217.088C237.638 218.496 237.07 219.568 236.158 220.304C235.262 221.024 233.95 221.384 232.222 221.384C230.142 221.384 228.574 220.808 227.518 219.656C226.478 218.504 225.958 216.872 225.958 214.76C225.958 213.704 226.11 212.768 226.414 211.952C226.718 211.12 227.142 210.416 227.686 209.84C228.246 209.264 228.91 208.832 229.678 208.544C230.446 208.24 231.294 208.088 232.222 208.088C234.142 208.088 235.582 208.64 236.542 209.744C237.518 210.848 238.006 212.336 238.006 214.208V215.552H229.318C229.35 216.56 229.606 217.352 230.086 217.928C230.566 218.488 231.286 218.768 232.246 218.768C233.574 218.768 234.358 218.208 234.598 217.088H237.862ZM234.766 213.344C234.766 212.48 234.55 211.808 234.118 211.328C233.702 210.848 233.046 210.608 232.15 210.608C231.702 210.608 231.31 210.68 230.974 210.824C230.638 210.968 230.35 211.168 230.11 211.424C229.886 211.664 229.71 211.952 229.582 212.288C229.454 212.608 229.382 212.96 229.366 213.344H234.766ZM241.291 211.088H239.323V208.472H241.291V205.136H244.651V208.472H247.531V211.088H244.651V216.872C244.651 217.528 244.787 217.976 245.059 218.216C245.331 218.44 245.683 218.552 246.115 218.552C246.339 218.552 246.563 218.544 246.787 218.528C247.027 218.496 247.259 218.448 247.483 218.384L247.963 220.856C247.499 221 247.043 221.096 246.595 221.144C246.163 221.208 245.747 221.24 245.347 221.24C243.971 221.24 242.947 220.912 242.275 220.256C241.619 219.6 241.291 218.496 241.291 216.944V211.088ZM260.855 217.088C260.631 218.496 260.063 219.568 259.151 220.304C258.255 221.024 256.943 221.384 255.215 221.384C253.135 221.384 251.567 220.808 250.511 219.656C249.471 218.504 248.951 216.872 248.951 214.76C248.951 213.704 249.103 212.768 249.407 211.952C249.711 211.12 250.135 210.416 250.679 209.84C251.239 209.264 251.903 208.832 252.671 208.544C253.439 208.24 254.287 208.088 255.215 208.088C257.135 208.088 258.575 208.64 259.535 209.744C260.511 210.848 260.999 212.336 260.999 214.208V215.552H252.311C252.343 216.56 252.599 217.352 253.079 217.928C253.559 218.488 254.279 218.768 255.239 218.768C256.567 218.768 257.351 218.208 257.591 217.088H260.855ZM257.759 213.344C257.759 212.48 257.543 211.808 257.111 211.328C256.695 210.848 256.039 210.608 255.143 210.608C254.695 210.608 254.303 210.68 253.967 210.824C253.631 210.968 253.343 211.168 253.103 211.424C252.879 211.664 252.703 211.952 252.575 212.288C252.447 212.608 252.375 212.96 252.359 213.344H257.759ZM272.203 219.344C271.243 220.704 269.947 221.384 268.315 221.384C266.555 221.384 265.243 220.792 264.379 219.608C263.515 218.424 263.083 216.784 263.083 214.688C263.083 213.712 263.203 212.824 263.443 212.024C263.699 211.208 264.059 210.512 264.523 209.936C264.987 209.344 265.555 208.888 266.227 208.568C266.899 208.248 267.659 208.088 268.507 208.088C269.131 208.088 269.747 208.2 270.355 208.424C270.979 208.648 271.563 209.08 272.107 209.72V203.864H275.467V221H272.203V219.344ZM272.131 214.592C272.131 213.792 272.059 213.152 271.915 212.672C271.787 212.192 271.571 211.8 271.267 211.496C270.979 211.208 270.659 211.024 270.307 210.944C269.971 210.848 269.635 210.8 269.299 210.8C268.931 210.8 268.579 210.872 268.243 211.016C267.923 211.16 267.635 211.384 267.379 211.688C267.139 211.992 266.947 212.392 266.803 212.888C266.659 213.384 266.587 213.976 266.587 214.664C266.587 215.416 266.651 216.048 266.779 216.56C266.923 217.056 267.115 217.464 267.355 217.784C267.595 218.088 267.875 218.312 268.195 218.456C268.515 218.584 268.859 218.648 269.227 218.648C270.027 218.648 270.683 218.416 271.195 217.952C271.515 217.632 271.747 217.248 271.891 216.8C272.051 216.336 272.131 215.744 272.131 215.024V214.592Z" fill="white"/>
</g>
<path d="M34 135.5C34 136.052 34.448 136.5 35 136.5H37V141C37 141.828 37.672 142.5 38.5 142.5C39.328 142.5 40 141.828 40 141V136.5H44V141C44 141.828 44.672 142.5 45.5 142.5C46.328 142.5 47 141.828 47 141V136.5H49C49.552 136.5 50 136.052 50 135.5V122.5H34V135.5Z" fill="white"/>
<path d="M31.5 122.5C30.672 122.5 30 123.172 30 124V131C30 131.828 30.672 132.5 31.5 132.5C32.328 132.5 33 131.828 33 131V124C33 123.172 32.328 122.5 31.5 122.5Z" fill="white"/>
<path d="M52.5 122.5C51.672 122.5 51 123.172 51 124V131C51 131.828 51.672 132.5 52.5 132.5C53.328 132.5 54 131.828 54 131V124C54 123.172 53.328 122.5 52.5 122.5Z" fill="white"/>
<path d="M46.153 114.673L47.416 112.778C47.569 112.549 47.507 112.238 47.277 112.085C47.046 111.932 46.735 111.994 46.584 112.224L45.265 114.203C44.267 113.755 43.164 113.501 42 113.501C40.836 113.501 39.733 113.755 38.735 114.202L37.416 112.223C37.263 111.994 36.953 111.931 36.723 112.084C36.493 112.237 36.431 112.548 36.584 112.777L37.847 114.672C35.543 116.077 34 118.606 34 121.501H50C50 118.606 48.457 116.077 46.153 114.673ZM39 118.501C38.448 118.501 38 118.053 38 117.501C38 116.949 38.448 116.501 39 116.501C39.552 116.501 40 116.949 40 117.501C40 118.053 39.552 118.501 39 118.501ZM45 118.501C44.448 118.501 44 118.053 44 117.501C44 116.949 44.448 116.501 45 116.501C45.552 116.501 46 116.949 46 117.501C46 118.053 45.552 118.501 45 118.501Z" fill="white"/>
<path d="M42 198C33.178 198 26 205.178 26 214C26 222.822 33.178 230 42 230C50.822 230 58 222.822 58 214C58 205.178 50.822 198 42 198ZM42 228C38.308 228 34.955 226.553 32.451 224.209C32.484 224.158 32.525 224.109 32.555 224.058C33.881 221.835 33.87 219.517 32.524 217.53C32.177 217.018 31.748 216.523 31.334 216.045C30.726 215.342 29.969 214.468 29.969 214C29.969 213.708 31.419 212.999 31.965 212.732C33.126 212.165 34.441 211.521 35.215 210.521C36.839 208.421 35.525 204.722 34.862 203.612C34.603 203.18 34.307 202.822 34.009 202.521C36.036 201.105 38.453 200.222 41.064 200.048C41.299 200.229 41.546 200.41 41.804 200.589C42.356 200.976 42.928 201.376 43.165 201.737C43.474 202.207 43.674 202.695 43.868 203.166C44.31 204.245 44.812 205.467 46.536 205.907C46.785 205.97 47.041 206 47.303 206C48.686 206 50.254 205.181 52.02 204.243C54.478 206.766 56 210.207 56 214C56 221.72 49.72 228 42 228Z" fill="white"/>
<path d="M46.7922 210.141C44.8772 210.141 43.0072 210.963 41.9112 212.286C41.1402 213.216 40.8302 214.328 41.0372 215.419C41.5132 217.927 41.4232 219.461 41.3582 220.582C41.2742 222.03 41.2082 223.174 42.7612 224.345C43.2332 224.7 43.7932 224.881 44.4252 224.881C45.8052 224.881 47.5102 223.955 49.1022 222.342C50.7992 220.622 52.5992 217.848 52.5642 215.219C52.5272 212.419 49.9372 210.141 46.7922 210.141Z" fill="white"/>
<defs>
<filter id="filter0_d" x="0" y="0" width="335" height="90" filterUnits="userSpaceOnUse" color-interpolation-filters="sRGB">
<feFlood flood-opacity="0" result="BackgroundImageFix"/>
<feColorMatrix in="SourceAlpha" type="matrix" values="0 0 0 0 0 0 0 0 0 0 0 0 0 0 0 0 0 0 127 0"/>
<feOffset/>
<feGaussianBlur stdDeviation="5"/>
<feColorMatrix type="matrix" values="0 0 0 0 0 0 0 0 0 0 0 0 0 0 0 0 0 0 0.1 0"/>
<feBlend mode="normal" in2="BackgroundImageFix" result="effect1_dropShadow"/>
<feBlend mode="normal" in="SourceGraphic" in2="effect1_dropShadow" result="shape"/>
</filter>
<filter id="filter1_d" x="0" y="84" width="335" height="90" filterUnits="userSpaceOnUse" color-interpolation-filters="sRGB">
<feFlood flood-opacity="0" result="BackgroundImageFix"/>
<feColorMatrix in="SourceAlpha" type="matrix" values="0 0 0 0 0 0 0 0 0 0 0 0 0 0 0 0 0 0 127 0"/>
<feOffset/>
<feGaussianBlur stdDeviation="5"/>
<feColorMatrix type="matrix" values="0 0 0 0 0 0 0 0 0 0 0 0 0 0 0 0 0 0 0.1 0"/>
<feBlend mode="normal" in2="BackgroundImageFix" result="effect1_dropShadow"/>
<feBlend mode="normal" in="SourceGraphic" in2="effect1_dropShadow" result="shape"/>
</filter>
<filter id="filter2_d" x="0" y="168" width="335" height="90" filterUnits="userSpaceOnUse" color-interpolation-filters="sRGB">
<feFlood flood-opacity="0" result="BackgroundImageFix"/>
<feColorMatrix in="SourceAlpha" type="matrix" values="0 0 0 0 0 0 0 0 0 0 0 0 0 0 0 0 0 0 127 0"/>
<feOffset/>
<feGaussianBlur stdDeviation="5"/>
<feColorMatrix type="matrix" values="0 0 0 0 0 0 0 0 0 0 0 0 0 0 0 0 0 0 0.1 0"/>
<feBlend mode="normal" in2="BackgroundImageFix" result="effect1_dropShadow"/>
<feBlend mode="normal" in="SourceGraphic" in2="effect1_dropShadow" result="shape"/>
</filter>
</defs>
</svg>
