<svg width="46" height="46" viewBox="0 0 46 46" fill="none" xmlns="http://www.w3.org/2000/svg">
<circle cx="23" cy="23" r="21.5" stroke="#EA0D8C" stroke-width="3"/>
<g clip-path="url(#clip0)">
<path d="M27.7008 27.7008L26.3008 26.3008L28.6008 24.0008L26.3008 21.7008L27.7008 20.3008L30.7008 23.3008C31.1008 23.7008 31.1008 24.3008 30.7008 24.7008L27.7008 27.7008Z" fill="#EA0D8C"/>
<path d="M18.3 27.7008L15.3 24.7008C14.9 24.3008 14.9 23.7008 15.3 23.3008L18.3 20.3008L19.7 21.7008L17.4 24.0008L19.7 26.3008L18.3 27.7008Z" fill="#EA0D8C"/>
<path d="M20.9998 31.0001C20.8998 31.0001 20.7998 31.0001 20.6998 30.9001C20.1998 30.7001 19.8998 30.2001 20.0998 29.6001L24.0998 17.6001C24.2998 17.1001 24.7998 16.8001 25.3998 17.0001C25.8998 17.2001 26.1998 17.7001 25.9998 18.3001L21.9998 30.3001C21.7998 30.7001 21.3998 31.0001 20.9998 31.0001Z" fill="#EA0D8C"/>
</g>
<defs>
<clipPath id="clip0">
<rect width="16" height="16" fill="white" transform="translate(15 16)"/>
</clipPath>
</defs>
</svg>
