<svg width="335" height="258" viewBox="0 0 335 258" fill="none" xmlns="http://www.w3.org/2000/svg">
<g filter="url(#filter0_d)">
<rect x="10" y="10" width="315" height="70" rx="10" fill="white"/>
<path d="M31.752 36.864H37.872C39.184 36.864 40.264 37.016 41.112 37.32C41.976 37.608 42.656 38 43.152 38.496C43.664 38.976 44.016 39.544 44.208 40.2C44.416 40.84 44.52 41.512 44.52 42.216C44.52 42.968 44.416 43.688 44.208 44.376C44.016 45.064 43.664 45.672 43.152 46.2C42.656 46.712 41.984 47.12 41.136 47.424C40.304 47.728 39.248 47.88 37.968 47.88H35.28V54H31.752V36.864ZM37.848 44.904C38.472 44.904 38.984 44.84 39.384 44.712C39.8 44.584 40.128 44.408 40.368 44.184C40.608 43.96 40.768 43.688 40.848 43.368C40.944 43.032 40.992 42.672 40.992 42.288C40.992 41.888 40.944 41.536 40.848 41.232C40.752 40.928 40.584 40.672 40.344 40.464C40.104 40.256 39.776 40.096 39.36 39.984C38.96 39.872 38.448 39.816 37.824 39.816H35.28V44.904H37.848ZM46.6052 41.472H49.8692V43.224C50.2852 42.568 50.7892 42.08 51.3812 41.76C51.9732 41.424 52.5972 41.256 53.2532 41.256C53.5732 41.256 53.8372 41.272 54.0452 41.304C54.2532 41.32 54.4372 41.344 54.5972 41.376L54.1892 44.424C53.8052 44.328 53.3332 44.28 52.7732 44.28C52.4052 44.28 52.0532 44.328 51.7172 44.424C51.3812 44.504 51.0772 44.664 50.8052 44.904C50.5172 45.16 50.3012 45.448 50.1572 45.768C50.0292 46.088 49.9652 46.416 49.9652 46.752V54H46.6052V41.472ZM61.9545 54.384C59.9385 54.384 58.3785 53.808 57.2745 52.656C56.1705 51.504 55.6185 49.856 55.6185 47.712C55.6185 46.688 55.7625 45.768 56.0505 44.952C56.3545 44.12 56.7785 43.424 57.3225 42.864C57.8825 42.288 58.5545 41.848 59.3385 41.544C60.1225 41.24 60.9945 41.088 61.9545 41.088C62.9305 41.088 63.8105 41.24 64.5945 41.544C65.3785 41.848 66.0425 42.288 66.5865 42.864C67.1465 43.424 67.5705 44.12 67.8585 44.952C68.1465 45.768 68.2905 46.688 68.2905 47.712C68.2905 48.752 68.1385 49.688 67.8345 50.52C67.5465 51.336 67.1225 52.032 66.5625 52.608C66.0185 53.184 65.3545 53.624 64.5705 53.928C63.7865 54.232 62.9145 54.384 61.9545 54.384ZM61.9545 51.696C62.9145 51.696 63.6265 51.352 64.0905 50.664C64.5705 49.976 64.8105 48.992 64.8105 47.712C64.8105 46.432 64.5705 45.456 64.0905 44.784C63.6265 44.112 62.9145 43.776 61.9545 43.776C60.9945 43.776 60.2745 44.112 59.7945 44.784C59.3305 45.456 59.0985 46.432 59.0985 47.712C59.0985 49.008 59.3305 50 59.7945 50.688C60.2585 51.36 60.9785 51.696 61.9545 51.696ZM79.2932 52.344C78.3332 53.704 77.0372 54.384 75.4052 54.384C73.6452 54.384 72.3332 53.792 71.4692 52.608C70.6052 51.424 70.1732 49.784 70.1732 47.688C70.1732 46.712 70.2932 45.824 70.5332 45.024C70.7892 44.208 71.1492 43.512 71.6132 42.936C72.0772 42.344 72.6452 41.888 73.3172 41.568C73.9892 41.248 74.7492 41.088 75.5972 41.088C76.2212 41.088 76.8372 41.2 77.4452 41.424C78.0692 41.648 78.6532 42.08 79.1972 42.72V36.864H82.5572V54H79.2932V52.344ZM79.2212 47.592C79.2212 46.792 79.1492 46.152 79.0052 45.672C78.8772 45.192 78.6612 44.8 78.3572 44.496C78.0692 44.208 77.7492 44.024 77.3972 43.944C77.0612 43.848 76.7252 43.8 76.3892 43.8C76.0212 43.8 75.6692 43.872 75.3332 44.016C75.0132 44.16 74.7252 44.384 74.4692 44.688C74.2292 44.992 74.0372 45.392 73.8932 45.888C73.7492 46.384 73.6772 46.976 73.6772 47.664C73.6772 48.416 73.7412 49.048 73.8692 49.56C74.0132 50.056 74.2052 50.464 74.4452 50.784C74.6852 51.088 74.9652 51.312 75.2852 51.456C75.6052 51.584 75.9492 51.648 76.3172 51.648C77.1172 51.648 77.7732 51.416 78.2852 50.952C78.6052 50.632 78.8372 50.248 78.9812 49.8C79.1412 49.336 79.2212 48.744 79.2212 48.024V47.592ZM85.4149 41.472H88.7749V49.296C88.7749 50.192 88.9349 50.8 89.2549 51.12C89.5749 51.424 90.0149 51.576 90.5749 51.576C91.0069 51.576 91.3589 51.512 91.6309 51.384C91.9189 51.256 92.1909 51.072 92.4469 50.832C92.7029 50.608 92.9029 50.344 93.0469 50.04C93.2069 49.72 93.2869 49.376 93.2869 49.008V41.472H96.6469V54H93.3829V52.272C92.8709 53.008 92.2869 53.544 91.6309 53.88C90.9909 54.216 90.3029 54.384 89.5669 54.384C88.1429 54.384 87.0949 54.016 86.4229 53.28C85.7509 52.528 85.4149 51.352 85.4149 49.752V41.472ZM110.877 49.464C110.749 50.968 110.229 52.168 109.317 53.064C108.421 53.944 107.069 54.384 105.261 54.384C104.205 54.384 103.293 54.224 102.525 53.904C101.757 53.584 101.125 53.136 100.629 52.56C100.149 51.984 99.7888 51.288 99.5488 50.472C99.3088 49.656 99.1888 48.752 99.1888 47.76C99.1888 46.768 99.3248 45.864 99.5968 45.048C99.8848 44.216 100.293 43.512 100.821 42.936C101.349 42.344 101.997 41.888 102.765 41.568C103.533 41.248 104.413 41.088 105.405 41.088C106.253 41.088 106.989 41.2 107.613 41.424C108.253 41.632 108.789 41.928 109.221 42.312C109.653 42.696 109.989 43.16 110.229 43.704C110.469 44.232 110.629 44.816 110.709 45.456L107.325 45.912C107.245 45.272 107.061 44.76 106.773 44.376C106.485 43.976 105.989 43.776 105.285 43.776C104.773 43.776 104.349 43.888 104.013 44.112C103.677 44.32 103.405 44.608 103.197 44.976C103.005 45.344 102.869 45.768 102.789 46.248C102.709 46.712 102.669 47.2 102.669 47.712C102.669 48.24 102.709 48.744 102.789 49.224C102.869 49.704 103.005 50.128 103.197 50.496C103.389 50.864 103.653 51.16 103.989 51.384C104.325 51.592 104.749 51.696 105.261 51.696C105.933 51.696 106.453 51.504 106.821 51.12C107.189 50.736 107.405 50.184 107.469 49.464H110.877ZM114.053 44.088H112.085V41.472H114.053V38.136H117.413V41.472H120.293V44.088H117.413V49.872C117.413 50.528 117.549 50.976 117.821 51.216C118.093 51.44 118.445 51.552 118.877 51.552C119.101 51.552 119.325 51.544 119.549 51.528C119.789 51.496 120.021 51.448 120.245 51.384L120.725 53.856C120.261 54 119.805 54.096 119.357 54.144C118.925 54.208 118.509 54.24 118.109 54.24C116.733 54.24 115.709 53.912 115.037 53.256C114.381 52.6 114.053 51.496 114.053 49.944V44.088ZM126.474 36.864H130.458L134.61 48.984L138.882 36.864H142.722L136.29 54H132.906L126.474 36.864ZM144.246 41.472H147.606V54H144.246V41.472ZM144.198 36.864H147.654V39.888H144.198V36.864ZM162.069 50.088C161.845 51.496 161.277 52.568 160.365 53.304C159.469 54.024 158.157 54.384 156.429 54.384C154.349 54.384 152.781 53.808 151.725 52.656C150.685 51.504 150.165 49.872 150.165 47.76C150.165 46.704 150.317 45.768 150.621 44.952C150.925 44.12 151.349 43.416 151.893 42.84C152.453 42.264 153.117 41.832 153.885 41.544C154.653 41.24 155.501 41.088 156.429 41.088C158.349 41.088 159.789 41.64 160.749 42.744C161.725 43.848 162.213 45.336 162.213 47.208V48.552H153.525C153.557 49.56 153.813 50.352 154.293 50.928C154.773 51.488 155.493 51.768 156.453 51.768C157.781 51.768 158.565 51.208 158.805 50.088H162.069ZM158.973 46.344C158.973 45.48 158.757 44.808 158.325 44.328C157.909 43.848 157.253 43.608 156.357 43.608C155.909 43.608 155.517 43.68 155.181 43.824C154.845 43.968 154.557 44.168 154.317 44.424C154.093 44.664 153.917 44.952 153.789 45.288C153.661 45.608 153.589 45.96 153.573 46.344H158.973ZM163.152 41.472H166.8L168.552 49.776L170.952 41.568H173.88L176.16 49.776L177.912 41.472H181.416L177.768 54H174.504L172.272 45.744L170.016 54H166.8L163.152 41.472ZM194.296 50.088C194.072 51.496 193.504 52.568 192.592 53.304C191.696 54.024 190.384 54.384 188.656 54.384C186.576 54.384 185.008 53.808 183.952 52.656C182.912 51.504 182.392 49.872 182.392 47.76C182.392 46.704 182.544 45.768 182.848 44.952C183.152 44.12 183.576 43.416 184.12 42.84C184.68 42.264 185.344 41.832 186.112 41.544C186.88 41.24 187.728 41.088 188.656 41.088C190.576 41.088 192.016 41.64 192.976 42.744C193.952 43.848 194.44 45.336 194.44 47.208V48.552H185.752C185.784 49.56 186.04 50.352 186.52 50.928C187 51.488 187.72 51.768 188.68 51.768C190.008 51.768 190.792 51.208 191.032 50.088H194.296ZM191.2 46.344C191.2 45.48 190.984 44.808 190.552 44.328C190.136 43.848 189.48 43.608 188.584 43.608C188.136 43.608 187.744 43.68 187.408 43.824C187.072 43.968 186.784 44.168 186.544 44.424C186.32 44.664 186.144 44.952 186.016 45.288C185.888 45.608 185.816 45.96 185.8 46.344H191.2ZM205.645 52.344C204.685 53.704 203.389 54.384 201.757 54.384C199.997 54.384 198.685 53.792 197.821 52.608C196.957 51.424 196.525 49.784 196.525 47.688C196.525 46.712 196.645 45.824 196.885 45.024C197.141 44.208 197.501 43.512 197.965 42.936C198.429 42.344 198.997 41.888 199.669 41.568C200.341 41.248 201.101 41.088 201.949 41.088C202.573 41.088 203.189 41.2 203.797 41.424C204.421 41.648 205.005 42.08 205.549 42.72V36.864H208.909V54H205.645V52.344ZM205.573 47.592C205.573 46.792 205.501 46.152 205.357 45.672C205.229 45.192 205.013 44.8 204.709 44.496C204.421 44.208 204.101 44.024 203.749 43.944C203.413 43.848 203.077 43.8 202.741 43.8C202.373 43.8 202.021 43.872 201.685 44.016C201.365 44.16 201.077 44.384 200.821 44.688C200.581 44.992 200.389 45.392 200.245 45.888C200.101 46.384 200.029 46.976 200.029 47.664C200.029 48.416 200.093 49.048 200.221 49.56C200.365 50.056 200.557 50.464 200.797 50.784C201.037 51.088 201.317 51.312 201.637 51.456C201.957 51.584 202.301 51.648 202.669 51.648C203.469 51.648 204.125 51.416 204.637 50.952C204.957 50.632 205.189 50.248 205.333 49.8C205.493 49.336 205.573 48.744 205.573 48.024V47.592Z" fill="#50C0E8"/>
</g>
<g filter="url(#filter1_d)">
<rect x="10" y="94" width="315" height="70" rx="10" fill="white"/>
<path d="M46.392 131.072C46.312 131.984 46.096 132.832 45.744 133.616C45.408 134.384 44.936 135.056 44.328 135.632C43.736 136.192 43 136.632 42.12 136.952C41.256 137.272 40.248 137.432 39.096 137.432C37.8 137.432 36.656 137.216 35.664 136.784C34.688 136.352 33.864 135.744 33.192 134.96C32.536 134.176 32.04 133.232 31.704 132.128C31.368 131.008 31.2 129.776 31.2 128.432C31.2 127.04 31.384 125.792 31.752 124.688C32.12 123.584 32.648 122.64 33.336 121.856C34.024 121.072 34.856 120.472 35.832 120.056C36.808 119.64 37.912 119.432 39.144 119.432C40.232 119.432 41.176 119.568 41.976 119.84C42.792 120.112 43.472 120.504 44.016 121.016C44.576 121.528 45.024 122.144 45.36 122.864C45.696 123.584 45.944 124.392 46.104 125.288L42.552 125.744C42.376 124.736 42.032 123.944 41.52 123.368C41.024 122.792 40.232 122.504 39.144 122.504C37.768 122.504 36.72 123.024 36 124.064C35.296 125.088 34.944 126.544 34.944 128.432C34.944 130.336 35.32 131.8 36.072 132.824C36.84 133.848 37.864 134.36 39.144 134.36C40.248 134.36 41.056 134.08 41.568 133.52C42.096 132.944 42.424 132.128 42.552 131.072H46.392ZM56.0374 135.416C55.5414 135.976 54.9814 136.432 54.3574 136.784C53.7494 137.136 52.9574 137.312 51.9814 137.312C51.4214 137.312 50.8854 137.24 50.3734 137.096C49.8774 136.952 49.4374 136.728 49.0534 136.424C48.6854 136.12 48.3894 135.736 48.1654 135.272C47.9414 134.792 47.8294 134.224 47.8294 133.568C47.8294 132.704 48.0214 132 48.4054 131.456C48.7894 130.912 49.2934 130.488 49.9174 130.184C50.5414 129.88 51.2374 129.664 52.0054 129.536C52.7894 129.408 53.5814 129.328 54.3814 129.296L55.9894 129.224V128.6C55.9894 127.832 55.7734 127.304 55.3414 127.016C54.9254 126.728 54.4294 126.584 53.8534 126.584C52.5254 126.584 51.7654 127.088 51.5734 128.096L48.5014 127.808C48.7254 126.496 49.3014 125.552 50.2294 124.976C51.1574 124.384 52.4054 124.088 53.9734 124.088C54.9334 124.088 55.7494 124.208 56.4214 124.448C57.0934 124.672 57.6294 125 58.0294 125.432C58.4454 125.864 58.7414 126.392 58.9174 127.016C59.1094 127.624 59.2054 128.312 59.2054 129.08V137H56.0374V135.416ZM55.9654 131.408L54.4774 131.48C53.7734 131.512 53.2054 131.584 52.7734 131.696C52.3414 131.808 52.0054 131.952 51.7654 132.128C51.5414 132.288 51.3894 132.48 51.3094 132.704C51.2294 132.928 51.1894 133.176 51.1894 133.448C51.1894 133.864 51.3334 134.192 51.6214 134.432C51.9094 134.672 52.3094 134.792 52.8214 134.792C53.6854 134.792 54.3894 134.592 54.9334 134.192C55.2374 133.968 55.4854 133.688 55.6774 133.352C55.8694 133 55.9654 132.568 55.9654 132.056V131.408ZM62.0505 124.472H65.3145V126.224C65.7305 125.568 66.2345 125.08 66.8265 124.76C67.4185 124.424 68.0425 124.256 68.6985 124.256C69.0185 124.256 69.2825 124.272 69.4905 124.304C69.6985 124.32 69.8825 124.344 70.0425 124.376L69.6345 127.424C69.2505 127.328 68.7785 127.28 68.2185 127.28C67.8505 127.28 67.4985 127.328 67.1625 127.424C66.8265 127.504 66.5225 127.664 66.2505 127.904C65.9625 128.16 65.7465 128.448 65.6025 128.768C65.4745 129.088 65.4105 129.416 65.4105 129.752V137H62.0505V124.472ZM73.3419 127.088H71.3739V124.472H73.3419V121.136H76.7019V124.472H79.5819V127.088H76.7019V132.872C76.7019 133.528 76.8379 133.976 77.1099 134.216C77.3819 134.44 77.7339 134.552 78.1659 134.552C78.3899 134.552 78.6139 134.544 78.8379 134.528C79.0779 134.496 79.3099 134.448 79.5339 134.384L80.0139 136.856C79.5499 137 79.0939 137.096 78.6459 137.144C78.2139 137.208 77.7979 137.24 77.3979 137.24C76.0219 137.24 74.9979 136.912 74.3259 136.256C73.6699 135.6 73.3419 134.496 73.3419 132.944V127.088ZM86.9394 119.864H90.5154V130.064C90.5154 131.52 90.7714 132.6 91.2834 133.304C91.7954 134.008 92.6514 134.36 93.8514 134.36C95.0514 134.36 95.8994 134.008 96.3954 133.304C96.9074 132.6 97.1634 131.52 97.1634 130.064V119.864H100.739V130.064C100.739 131.36 100.579 132.472 100.259 133.4C99.9394 134.328 99.4834 135.096 98.8914 135.704C98.2994 136.296 97.5714 136.728 96.7074 137C95.8594 137.288 94.8994 137.432 93.8274 137.432C92.7394 137.432 91.7634 137.288 90.8994 137C90.0514 136.712 89.3314 136.272 88.7394 135.68C88.1474 135.072 87.6994 134.296 87.3954 133.352C87.0914 132.408 86.9394 131.288 86.9394 129.992V119.864ZM103.652 124.472H106.916V126.128C107.876 124.768 109.188 124.088 110.852 124.088C112.596 124.088 113.9 124.68 114.764 125.864C115.628 127.048 116.06 128.672 116.06 130.736C116.06 131.728 115.932 132.632 115.676 133.448C115.436 134.264 115.076 134.968 114.596 135.56C114.132 136.136 113.564 136.584 112.892 136.904C112.22 137.224 111.46 137.384 110.612 137.384C109.988 137.384 109.364 137.272 108.74 137.048C108.132 136.824 107.556 136.376 107.012 135.704V141.656H103.652V124.472ZM106.988 130.832C106.988 131.648 107.052 132.304 107.18 132.8C107.324 133.28 107.548 133.672 107.852 133.976C108.172 134.264 108.492 134.456 108.812 134.552C109.148 134.632 109.484 134.672 109.82 134.672C110.188 134.672 110.54 134.6 110.876 134.456C111.212 134.312 111.5 134.088 111.74 133.784C111.996 133.464 112.196 133.056 112.34 132.56C112.484 132.064 112.556 131.464 112.556 130.76C112.556 130.024 112.484 129.408 112.34 128.912C112.212 128.416 112.028 128.016 111.788 127.712C111.548 127.392 111.26 127.168 110.924 127.04C110.604 126.896 110.26 126.824 109.892 126.824C109.476 126.824 109.116 126.88 108.812 126.992C108.508 127.104 108.212 127.28 107.924 127.52C107.604 127.824 107.364 128.208 107.204 128.672C107.06 129.136 106.988 129.728 106.988 130.448V130.832ZM127.059 135.344C126.099 136.704 124.803 137.384 123.171 137.384C121.411 137.384 120.099 136.792 119.235 135.608C118.371 134.424 117.939 132.784 117.939 130.688C117.939 129.712 118.059 128.824 118.299 128.024C118.555 127.208 118.915 126.512 119.379 125.936C119.843 125.344 120.411 124.888 121.083 124.568C121.755 124.248 122.515 124.088 123.363 124.088C123.987 124.088 124.603 124.2 125.211 124.424C125.835 124.648 126.419 125.08 126.963 125.72V119.864H130.323V137H127.059V135.344ZM126.987 130.592C126.987 129.792 126.915 129.152 126.771 128.672C126.643 128.192 126.427 127.8 126.123 127.496C125.835 127.208 125.515 127.024 125.163 126.944C124.827 126.848 124.491 126.8 124.155 126.8C123.787 126.8 123.435 126.872 123.099 127.016C122.779 127.16 122.491 127.384 122.235 127.688C121.995 127.992 121.803 128.392 121.659 128.888C121.515 129.384 121.443 129.976 121.443 130.664C121.443 131.416 121.507 132.048 121.635 132.56C121.779 133.056 121.971 133.464 122.211 133.784C122.451 134.088 122.731 134.312 123.051 134.456C123.371 134.584 123.715 134.648 124.083 134.648C124.883 134.648 125.539 134.416 126.051 133.952C126.371 133.632 126.603 133.248 126.747 132.8C126.907 132.336 126.987 131.744 126.987 131.024V130.592ZM140.741 135.416C140.245 135.976 139.685 136.432 139.061 136.784C138.453 137.136 137.661 137.312 136.685 137.312C136.125 137.312 135.589 137.24 135.077 137.096C134.581 136.952 134.141 136.728 133.757 136.424C133.389 136.12 133.093 135.736 132.869 135.272C132.645 134.792 132.533 134.224 132.533 133.568C132.533 132.704 132.725 132 133.109 131.456C133.493 130.912 133.997 130.488 134.621 130.184C135.245 129.88 135.941 129.664 136.709 129.536C137.493 129.408 138.285 129.328 139.085 129.296L140.693 129.224V128.6C140.693 127.832 140.477 127.304 140.045 127.016C139.629 126.728 139.133 126.584 138.557 126.584C137.229 126.584 136.469 127.088 136.277 128.096L133.205 127.808C133.429 126.496 134.005 125.552 134.933 124.976C135.861 124.384 137.109 124.088 138.677 124.088C139.637 124.088 140.453 124.208 141.125 124.448C141.797 124.672 142.333 125 142.733 125.432C143.149 125.864 143.445 126.392 143.621 127.016C143.813 127.624 143.909 128.312 143.909 129.08V137H140.741V135.416ZM140.669 131.408L139.181 131.48C138.477 131.512 137.909 131.584 137.477 131.696C137.045 131.808 136.709 131.952 136.469 132.128C136.245 132.288 136.093 132.48 136.013 132.704C135.933 132.928 135.893 133.176 135.893 133.448C135.893 133.864 136.037 134.192 136.325 134.432C136.613 134.672 137.013 134.792 137.525 134.792C138.389 134.792 139.093 134.592 139.637 134.192C139.941 133.968 140.189 133.688 140.381 133.352C140.573 133 140.669 132.568 140.669 132.056V131.408ZM147.522 127.088H145.554V124.472H147.522V121.136H150.882V124.472H153.762V127.088H150.882V132.872C150.882 133.528 151.018 133.976 151.29 134.216C151.562 134.44 151.914 134.552 152.346 134.552C152.57 134.552 152.794 134.544 153.018 134.528C153.258 134.496 153.49 134.448 153.714 134.384L154.194 136.856C153.73 137 153.274 137.096 152.826 137.144C152.394 137.208 151.978 137.24 151.578 137.24C150.202 137.24 149.178 136.912 148.506 136.256C147.85 135.6 147.522 134.496 147.522 132.944V127.088ZM167.085 133.088C166.861 134.496 166.293 135.568 165.381 136.304C164.485 137.024 163.173 137.384 161.445 137.384C159.365 137.384 157.797 136.808 156.741 135.656C155.701 134.504 155.181 132.872 155.181 130.76C155.181 129.704 155.333 128.768 155.637 127.952C155.941 127.12 156.365 126.416 156.909 125.84C157.469 125.264 158.133 124.832 158.901 124.544C159.669 124.24 160.517 124.088 161.445 124.088C163.365 124.088 164.805 124.64 165.765 125.744C166.741 126.848 167.229 128.336 167.229 130.208V131.552H158.541C158.573 132.56 158.829 133.352 159.309 133.928C159.789 134.488 160.509 134.768 161.469 134.768C162.797 134.768 163.581 134.208 163.821 133.088H167.085ZM163.989 129.344C163.989 128.48 163.773 127.808 163.341 127.328C162.925 126.848 162.269 126.608 161.373 126.608C160.925 126.608 160.533 126.68 160.197 126.824C159.861 126.968 159.573 127.168 159.333 127.424C159.109 127.664 158.933 127.952 158.805 128.288C158.677 128.608 158.605 128.96 158.589 129.344H163.989ZM178.434 135.344C177.474 136.704 176.178 137.384 174.546 137.384C172.786 137.384 171.474 136.792 170.61 135.608C169.746 134.424 169.314 132.784 169.314 130.688C169.314 129.712 169.434 128.824 169.674 128.024C169.93 127.208 170.29 126.512 170.754 125.936C171.218 125.344 171.786 124.888 172.458 124.568C173.13 124.248 173.89 124.088 174.738 124.088C175.362 124.088 175.978 124.2 176.586 124.424C177.21 124.648 177.794 125.08 178.338 125.72V119.864H181.698V137H178.434V135.344ZM178.362 130.592C178.362 129.792 178.29 129.152 178.146 128.672C178.018 128.192 177.802 127.8 177.498 127.496C177.21 127.208 176.89 127.024 176.538 126.944C176.202 126.848 175.866 126.8 175.53 126.8C175.162 126.8 174.81 126.872 174.474 127.016C174.154 127.16 173.866 127.384 173.61 127.688C173.37 127.992 173.178 128.392 173.034 128.888C172.89 129.384 172.818 129.976 172.818 130.664C172.818 131.416 172.882 132.048 173.01 132.56C173.154 133.056 173.346 133.464 173.586 133.784C173.826 134.088 174.106 134.312 174.426 134.456C174.746 134.584 175.09 134.648 175.458 134.648C176.258 134.648 176.914 134.416 177.426 133.952C177.746 133.632 177.978 133.248 178.122 132.8C178.282 132.336 178.362 131.744 178.362 131.024V130.592Z" fill="#50C0E8"/>
</g>
<g filter="url(#filter2_d)">
<rect x="10" y="178" width="315" height="70" rx="10" fill="white"/>
<path d="M39.384 221.432C38.104 221.432 36.96 221.224 35.952 220.808C34.944 220.392 34.088 219.792 33.384 219.008C32.68 218.224 32.136 217.28 31.752 216.176C31.384 215.072 31.2 213.824 31.2 212.432C31.2 211.04 31.384 209.792 31.752 208.688C32.136 207.584 32.68 206.64 33.384 205.856C34.104 205.072 34.968 204.472 35.976 204.056C36.984 203.64 38.12 203.432 39.384 203.432C40.664 203.432 41.808 203.64 42.816 204.056C43.824 204.472 44.672 205.072 45.36 205.856C46.064 206.64 46.6 207.584 46.968 208.688C47.336 209.792 47.52 211.04 47.52 212.432C47.52 213.824 47.336 215.072 46.968 216.176C46.616 217.28 46.088 218.224 45.384 219.008C44.696 219.792 43.848 220.392 42.84 220.808C41.832 221.224 40.68 221.432 39.384 221.432ZM39.36 218.36C40.864 218.36 41.984 217.848 42.72 216.824C43.456 215.8 43.824 214.336 43.824 212.432C43.824 210.544 43.456 209.088 42.72 208.064C41.984 207.024 40.864 206.504 39.36 206.504C37.856 206.504 36.736 207.024 36 208.064C35.264 209.088 34.896 210.544 34.896 212.432C34.896 214.336 35.264 215.8 36 216.824C36.736 217.848 37.856 218.36 39.36 218.36ZM50.2146 208.472H53.4786V210.224C53.8946 209.568 54.3986 209.08 54.9906 208.76C55.5826 208.424 56.2066 208.256 56.8626 208.256C57.1826 208.256 57.4466 208.272 57.6546 208.304C57.8626 208.32 58.0466 208.344 58.2066 208.376L57.7986 211.424C57.4146 211.328 56.9426 211.28 56.3826 211.28C56.0146 211.28 55.6626 211.328 55.3266 211.424C54.9906 211.504 54.6866 211.664 54.4146 211.904C54.1266 212.16 53.9106 212.448 53.7666 212.768C53.6386 213.088 53.5746 213.416 53.5746 213.752V221H50.2146V208.472ZM68.3479 219.344C67.3879 220.704 66.0919 221.384 64.4599 221.384C62.6999 221.384 61.3879 220.792 60.5239 219.608C59.6599 218.424 59.2279 216.784 59.2279 214.688C59.2279 213.712 59.3479 212.824 59.5879 212.024C59.8439 211.208 60.2039 210.512 60.6679 209.936C61.1319 209.344 61.6999 208.888 62.3719 208.568C63.0439 208.248 63.8039 208.088 64.6519 208.088C65.2759 208.088 65.8919 208.2 66.4999 208.424C67.1239 208.648 67.7079 209.08 68.2519 209.72V203.864H71.6119V221H68.3479V219.344ZM68.2759 214.592C68.2759 213.792 68.2039 213.152 68.0599 212.672C67.9319 212.192 67.7159 211.8 67.4119 211.496C67.1239 211.208 66.8039 211.024 66.4519 210.944C66.1159 210.848 65.7799 210.8 65.4439 210.8C65.0759 210.8 64.7239 210.872 64.3879 211.016C64.0679 211.16 63.7799 211.384 63.5239 211.688C63.2839 211.992 63.0919 212.392 62.9479 212.888C62.8039 213.384 62.7319 213.976 62.7319 214.664C62.7319 215.416 62.7959 216.048 62.9239 216.56C63.0679 217.056 63.2599 217.464 63.4999 217.784C63.7399 218.088 64.0199 218.312 64.3399 218.456C64.6599 218.584 65.0039 218.648 65.3719 218.648C66.1719 218.648 66.8279 218.416 67.3399 217.952C67.6599 217.632 67.8919 217.248 68.0359 216.8C68.1959 216.336 68.2759 215.744 68.2759 215.024V214.592ZM86.0616 217.088C85.8376 218.496 85.2696 219.568 84.3576 220.304C83.4616 221.024 82.1496 221.384 80.4216 221.384C78.3416 221.384 76.7736 220.808 75.7176 219.656C74.6776 218.504 74.1576 216.872 74.1576 214.76C74.1576 213.704 74.3096 212.768 74.6136 211.952C74.9176 211.12 75.3416 210.416 75.8856 209.84C76.4456 209.264 77.1096 208.832 77.8776 208.544C78.6456 208.24 79.4936 208.088 80.4216 208.088C82.3416 208.088 83.7816 208.64 84.7416 209.744C85.7176 210.848 86.2056 212.336 86.2056 214.208V215.552H77.5176C77.5496 216.56 77.8056 217.352 78.2856 217.928C78.7656 218.488 79.4856 218.768 80.4456 218.768C81.7736 218.768 82.5576 218.208 82.7976 217.088H86.0616ZM82.9656 213.344C82.9656 212.48 82.7496 211.808 82.3176 211.328C81.9016 210.848 81.2456 210.608 80.3496 210.608C79.9016 210.608 79.5096 210.68 79.1736 210.824C78.8376 210.968 78.5496 211.168 78.3096 211.424C78.0856 211.664 77.9096 211.952 77.7816 212.288C77.6536 212.608 77.5816 212.96 77.5656 213.344H82.9656ZM88.7224 208.472H91.9864V210.224C92.4024 209.568 92.9064 209.08 93.4984 208.76C94.0904 208.424 94.7144 208.256 95.3704 208.256C95.6904 208.256 95.9544 208.272 96.1624 208.304C96.3704 208.32 96.5544 208.344 96.7144 208.376L96.3064 211.424C95.9224 211.328 95.4504 211.28 94.8904 211.28C94.5224 211.28 94.1704 211.328 93.8344 211.424C93.4984 211.504 93.1944 211.664 92.9224 211.904C92.6344 212.16 92.4184 212.448 92.2744 212.768C92.1464 213.088 92.0824 213.416 92.0824 213.752V221H88.7224V208.472ZM119.025 215.072C118.945 215.984 118.729 216.832 118.377 217.616C118.041 218.384 117.569 219.056 116.961 219.632C116.369 220.192 115.633 220.632 114.753 220.952C113.889 221.272 112.881 221.432 111.729 221.432C110.433 221.432 109.289 221.216 108.297 220.784C107.321 220.352 106.497 219.744 105.825 218.96C105.169 218.176 104.673 217.232 104.337 216.128C104.001 215.008 103.833 213.776 103.833 212.432C103.833 211.04 104.017 209.792 104.385 208.688C104.753 207.584 105.281 206.64 105.969 205.856C106.657 205.072 107.489 204.472 108.465 204.056C109.441 203.64 110.545 203.432 111.777 203.432C112.865 203.432 113.809 203.568 114.609 203.84C115.425 204.112 116.105 204.504 116.649 205.016C117.209 205.528 117.657 206.144 117.993 206.864C118.329 207.584 118.577 208.392 118.737 209.288L115.185 209.744C115.009 208.736 114.665 207.944 114.153 207.368C113.657 206.792 112.865 206.504 111.777 206.504C110.401 206.504 109.353 207.024 108.633 208.064C107.929 209.088 107.577 210.544 107.577 212.432C107.577 214.336 107.953 215.8 108.705 216.824C109.473 217.848 110.497 218.36 111.777 218.36C112.881 218.36 113.689 218.08 114.201 217.52C114.729 216.944 115.057 216.128 115.185 215.072H119.025ZM127.134 221.384C125.118 221.384 123.558 220.808 122.454 219.656C121.35 218.504 120.798 216.856 120.798 214.712C120.798 213.688 120.942 212.768 121.23 211.952C121.534 211.12 121.958 210.424 122.502 209.864C123.062 209.288 123.734 208.848 124.518 208.544C125.302 208.24 126.174 208.088 127.134 208.088C128.11 208.088 128.99 208.24 129.774 208.544C130.558 208.848 131.222 209.288 131.766 209.864C132.326 210.424 132.75 211.12 133.038 211.952C133.326 212.768 133.47 213.688 133.47 214.712C133.47 215.752 133.318 216.688 133.014 217.52C132.726 218.336 132.302 219.032 131.742 219.608C131.198 220.184 130.534 220.624 129.75 220.928C128.966 221.232 128.094 221.384 127.134 221.384ZM127.134 218.696C128.094 218.696 128.806 218.352 129.27 217.664C129.75 216.976 129.99 215.992 129.99 214.712C129.99 213.432 129.75 212.456 129.27 211.784C128.806 211.112 128.094 210.776 127.134 210.776C126.174 210.776 125.454 211.112 124.974 211.784C124.51 212.456 124.278 213.432 124.278 214.712C124.278 216.008 124.51 217 124.974 217.688C125.438 218.36 126.158 218.696 127.134 218.696ZM136.019 208.472H139.283V210.152C139.747 209.448 140.291 208.928 140.915 208.592C141.539 208.256 142.195 208.088 142.883 208.088C143.795 208.088 144.539 208.272 145.115 208.64C145.691 209.008 146.099 209.544 146.339 210.248C146.915 209.48 147.523 208.928 148.163 208.592C148.803 208.256 149.507 208.088 150.275 208.088C151.571 208.088 152.539 208.448 153.179 209.168C153.835 209.872 154.163 211.024 154.163 212.624V221H150.803V213.08C150.803 212.632 150.763 212.272 150.683 212C150.603 211.712 150.491 211.488 150.347 211.328C150.219 211.168 150.059 211.056 149.867 210.992C149.675 210.928 149.475 210.896 149.267 210.896C148.931 210.896 148.619 210.952 148.331 211.064C148.059 211.176 147.787 211.368 147.515 211.64C147.291 211.864 147.107 212.12 146.963 212.408C146.835 212.696 146.771 213 146.771 213.32V221H143.411V213.08C143.411 212.632 143.371 212.272 143.291 212C143.211 211.712 143.099 211.488 142.955 211.328C142.827 211.168 142.667 211.056 142.475 210.992C142.283 210.928 142.083 210.896 141.875 210.896C141.539 210.896 141.227 210.952 140.939 211.064C140.667 211.176 140.395 211.368 140.123 211.64C139.899 211.864 139.715 212.136 139.571 212.456C139.443 212.76 139.379 213.096 139.379 213.464V221H136.019V208.472ZM157.019 208.472H160.283V210.128C161.243 208.768 162.555 208.088 164.219 208.088C165.963 208.088 167.267 208.68 168.131 209.864C168.995 211.048 169.427 212.672 169.427 214.736C169.427 215.728 169.299 216.632 169.043 217.448C168.803 218.264 168.443 218.968 167.963 219.56C167.499 220.136 166.931 220.584 166.259 220.904C165.587 221.224 164.827 221.384 163.979 221.384C163.355 221.384 162.731 221.272 162.107 221.048C161.499 220.824 160.923 220.376 160.379 219.704V225.656H157.019V208.472ZM160.355 214.832C160.355 215.648 160.419 216.304 160.547 216.8C160.691 217.28 160.915 217.672 161.219 217.976C161.539 218.264 161.859 218.456 162.179 218.552C162.515 218.632 162.851 218.672 163.187 218.672C163.555 218.672 163.907 218.6 164.243 218.456C164.579 218.312 164.867 218.088 165.107 217.784C165.363 217.464 165.563 217.056 165.707 216.56C165.851 216.064 165.923 215.464 165.923 214.76C165.923 214.024 165.851 213.408 165.707 212.912C165.579 212.416 165.395 212.016 165.155 211.712C164.915 211.392 164.627 211.168 164.291 211.04C163.971 210.896 163.627 210.824 163.259 210.824C162.843 210.824 162.483 210.88 162.179 210.992C161.875 211.104 161.579 211.28 161.291 211.52C160.971 211.824 160.731 212.208 160.571 212.672C160.427 213.136 160.355 213.728 160.355 214.448V214.832ZM171.996 203.864H175.356V221H171.996V203.864ZM189.819 217.088C189.595 218.496 189.027 219.568 188.115 220.304C187.219 221.024 185.907 221.384 184.179 221.384C182.099 221.384 180.531 220.808 179.475 219.656C178.435 218.504 177.915 216.872 177.915 214.76C177.915 213.704 178.067 212.768 178.371 211.952C178.675 211.12 179.099 210.416 179.643 209.84C180.203 209.264 180.867 208.832 181.635 208.544C182.403 208.24 183.251 208.088 184.179 208.088C186.099 208.088 187.539 208.64 188.499 209.744C189.475 210.848 189.963 212.336 189.963 214.208V215.552H181.275C181.307 216.56 181.563 217.352 182.043 217.928C182.523 218.488 183.243 218.768 184.203 218.768C185.531 218.768 186.315 218.208 186.555 217.088H189.819ZM186.723 213.344C186.723 212.48 186.507 211.808 186.075 211.328C185.659 210.848 185.003 210.608 184.107 210.608C183.659 210.608 183.267 210.68 182.931 210.824C182.595 210.968 182.307 211.168 182.067 211.424C181.843 211.664 181.667 211.952 181.539 212.288C181.411 212.608 181.339 212.96 181.323 213.344H186.723ZM193.248 211.088H191.28V208.472H193.248V205.136H196.608V208.472H199.488V211.088H196.608V216.872C196.608 217.528 196.744 217.976 197.016 218.216C197.288 218.44 197.64 218.552 198.072 218.552C198.296 218.552 198.52 218.544 198.744 218.528C198.984 218.496 199.216 218.448 199.44 218.384L199.92 220.856C199.456 221 199 221.096 198.552 221.144C198.12 221.208 197.704 221.24 197.304 221.24C195.928 221.24 194.904 220.912 194.232 220.256C193.576 219.6 193.248 218.496 193.248 216.944V211.088ZM212.812 217.088C212.588 218.496 212.02 219.568 211.108 220.304C210.212 221.024 208.9 221.384 207.172 221.384C205.092 221.384 203.524 220.808 202.468 219.656C201.428 218.504 200.908 216.872 200.908 214.76C200.908 213.704 201.06 212.768 201.364 211.952C201.668 211.12 202.092 210.416 202.636 209.84C203.196 209.264 203.86 208.832 204.628 208.544C205.396 208.24 206.244 208.088 207.172 208.088C209.092 208.088 210.532 208.64 211.492 209.744C212.468 210.848 212.956 212.336 212.956 214.208V215.552H204.268C204.3 216.56 204.556 217.352 205.036 217.928C205.516 218.488 206.236 218.768 207.196 218.768C208.524 218.768 209.308 218.208 209.548 217.088H212.812ZM209.716 213.344C209.716 212.48 209.5 211.808 209.068 211.328C208.652 210.848 207.996 210.608 207.1 210.608C206.652 210.608 206.26 210.68 205.924 210.824C205.588 210.968 205.3 211.168 205.06 211.424C204.836 211.664 204.66 211.952 204.532 212.288C204.404 212.608 204.332 212.96 204.316 213.344H209.716ZM224.16 219.344C223.2 220.704 221.904 221.384 220.272 221.384C218.512 221.384 217.2 220.792 216.336 219.608C215.472 218.424 215.04 216.784 215.04 214.688C215.04 213.712 215.16 212.824 215.4 212.024C215.656 211.208 216.016 210.512 216.48 209.936C216.944 209.344 217.512 208.888 218.184 208.568C218.856 208.248 219.616 208.088 220.464 208.088C221.088 208.088 221.704 208.2 222.312 208.424C222.936 208.648 223.52 209.08 224.064 209.72V203.864H227.424V221H224.16V219.344ZM224.088 214.592C224.088 213.792 224.016 213.152 223.872 212.672C223.744 212.192 223.528 211.8 223.224 211.496C222.936 211.208 222.616 211.024 222.264 210.944C221.928 210.848 221.592 210.8 221.256 210.8C220.888 210.8 220.536 210.872 220.2 211.016C219.88 211.16 219.592 211.384 219.336 211.688C219.096 211.992 218.904 212.392 218.76 212.888C218.616 213.384 218.544 213.976 218.544 214.664C218.544 215.416 218.608 216.048 218.736 216.56C218.88 217.056 219.072 217.464 219.312 217.784C219.552 218.088 219.832 218.312 220.152 218.456C220.472 218.584 220.816 218.648 221.184 218.648C221.984 218.648 222.64 218.416 223.152 217.952C223.472 217.632 223.704 217.248 223.848 216.8C224.008 216.336 224.088 215.744 224.088 215.024V214.592Z" fill="#50C0E8"/>
</g>
<path d="M304.69 37C300.795 37 297.625 40.1698 297.625 44.0655C297.625 47.9612 300.795 51.131 304.69 51.131C308.586 51.131 311.756 47.9612 311.756 44.0655C311.756 40.1698 308.586 37 304.69 37ZM304.69 50.2478C303.06 50.2478 301.579 49.6088 300.474 48.5737C300.488 48.5512 300.506 48.5296 300.52 48.507C301.105 47.5254 301.1 46.5018 300.506 45.6243C300.353 45.3982 300.163 45.1796 299.98 44.9686C299.712 44.6581 299.378 44.2722 299.378 44.0655C299.378 43.9366 300.018 43.6235 300.259 43.5056C300.772 43.2552 301.352 42.9708 301.694 42.5292C302.411 41.6018 301.831 39.9684 301.538 39.4782C301.424 39.2875 301.293 39.1294 301.162 38.9964C302.057 38.3711 303.124 37.9812 304.277 37.9044C304.381 37.9843 304.49 38.0642 304.604 38.1433C304.848 38.3142 305.1 38.4908 305.205 38.6502C305.341 38.8578 305.43 39.0733 305.515 39.2813C305.711 39.7578 305.932 40.2974 306.694 40.4917C306.804 40.5195 306.917 40.5327 307.032 40.5327C307.643 40.5327 308.335 40.1711 309.115 39.7569C310.201 40.871 310.873 42.3905 310.873 44.0655C310.873 47.4746 308.1 50.2478 304.69 50.2478Z" fill="#AAB2BD" fill-opacity="0.5"/>
<path d="M306.805 42.3608C305.96 42.3608 305.134 42.7238 304.65 43.3081C304.309 43.7187 304.173 44.2098 304.264 44.6916C304.474 45.7991 304.434 46.4765 304.406 46.9715C304.369 47.6109 304.339 48.1161 305.025 48.6332C305.234 48.79 305.481 48.8699 305.76 48.8699C306.369 48.8699 307.122 48.461 307.825 47.7487C308.575 46.9892 309.37 45.7642 309.354 44.6033C309.338 43.3668 308.194 42.3608 306.805 42.3608Z" fill="#AAB2BD" fill-opacity="0.5"/>
<path d="M268.387 131.817C268.076 132.507 267.927 132.814 267.526 133.423C266.968 134.274 266.179 135.334 265.203 135.343C264.335 135.351 264.112 134.779 262.934 134.785C261.756 134.792 261.511 135.354 260.643 135.345C259.666 135.336 258.92 134.379 258.361 133.528C256.798 131.149 256.634 128.356 257.598 126.872C258.284 125.817 259.365 125.2 260.381 125.2C261.416 125.2 262.067 125.767 262.923 125.767C263.753 125.767 264.259 125.199 265.455 125.199C266.36 125.199 267.318 125.691 268.001 126.542C265.764 127.768 266.127 130.962 268.387 131.817Z" fill="#AAB2BD" fill-opacity="0.5"/>
<path d="M264.676 123.709C265.111 123.151 265.441 122.364 265.321 121.559C264.61 121.607 263.78 122.059 263.295 122.648C262.855 123.182 262.491 123.975 262.633 124.746C263.408 124.77 264.21 124.307 264.676 123.709Z" fill="#AAB2BD" fill-opacity="0.5"/>
<path d="M279.52 132.819C279.52 133.063 279.717 133.261 279.961 133.261H280.844V135.248C280.844 135.614 281.141 135.91 281.507 135.91C281.872 135.91 282.169 135.614 282.169 135.248V133.261H283.935V135.248C283.935 135.614 284.232 135.91 284.598 135.91C284.963 135.91 285.26 135.614 285.26 135.248V133.261H286.143C286.387 133.261 286.585 133.063 286.585 132.819V127.079H279.52V132.819Z" fill="#AAB2BD" fill-opacity="0.5"/>
<path d="M278.416 127.079C278.051 127.079 277.754 127.375 277.754 127.741V130.832C277.754 131.198 278.051 131.495 278.416 131.495C278.782 131.495 279.079 131.198 279.079 130.832V127.741C279.079 127.375 278.782 127.079 278.416 127.079Z" fill="#AAB2BD" fill-opacity="0.5"/>
<path d="M287.69 127.079C287.324 127.079 287.027 127.375 287.027 127.741V130.832C287.027 131.198 287.324 131.495 287.69 131.495C288.055 131.495 288.352 131.198 288.352 130.832V127.741C288.352 127.375 288.055 127.079 287.69 127.079Z" fill="#AAB2BD" fill-opacity="0.5"/>
<path d="M284.886 123.622L285.444 122.785C285.512 122.684 285.484 122.546 285.383 122.479C285.281 122.411 285.143 122.439 285.077 122.54L284.494 123.414C284.053 123.216 283.566 123.104 283.052 123.104C282.538 123.104 282.051 123.216 281.61 123.414L281.028 122.54C280.96 122.439 280.824 122.411 280.722 122.478C280.62 122.546 280.593 122.683 280.661 122.784L281.218 123.621C280.201 124.242 279.52 125.358 279.52 126.637H286.585C286.585 125.358 285.904 124.242 284.886 123.622ZM281.727 125.312C281.484 125.312 281.286 125.114 281.286 124.87C281.286 124.627 281.484 124.429 281.727 124.429C281.971 124.429 282.169 124.627 282.169 124.87C282.169 125.114 281.971 125.312 281.727 125.312ZM284.377 125.312C284.133 125.312 283.935 125.114 283.935 124.87C283.935 124.627 284.133 124.429 284.377 124.429C284.621 124.429 284.819 124.627 284.819 124.87C284.819 125.114 284.621 125.312 284.377 125.312Z" fill="#AAB2BD" fill-opacity="0.5"/>
<path d="M304.69 122C300.795 122 297.625 125.17 297.625 129.065C297.625 132.961 300.795 136.131 304.69 136.131C308.586 136.131 311.756 132.961 311.756 129.065C311.756 125.17 308.586 122 304.69 122ZM304.69 135.248C303.06 135.248 301.579 134.609 300.474 133.574C300.488 133.551 300.506 133.53 300.52 133.507C301.105 132.525 301.1 131.502 300.506 130.624C300.353 130.398 300.163 130.18 299.98 129.969C299.712 129.658 299.378 129.272 299.378 129.065C299.378 128.937 300.018 128.623 300.259 128.506C300.772 128.255 301.352 127.971 301.694 127.529C302.411 126.602 301.831 124.968 301.538 124.478C301.424 124.287 301.293 124.129 301.162 123.996C302.057 123.371 303.124 122.981 304.277 122.904C304.381 122.984 304.49 123.064 304.604 123.143C304.848 123.314 305.1 123.491 305.205 123.65C305.341 123.858 305.43 124.073 305.515 124.281C305.711 124.758 305.932 125.297 306.694 125.492C306.804 125.52 306.917 125.533 307.032 125.533C307.643 125.533 308.335 125.171 309.115 124.757C310.201 125.871 310.873 127.391 310.873 129.065C310.873 132.475 308.1 135.248 304.69 135.248Z" fill="#AAB2BD" fill-opacity="0.5"/>
<path d="M306.805 127.361C305.96 127.361 305.134 127.724 304.65 128.308C304.309 128.719 304.173 129.21 304.264 129.692C304.474 130.799 304.434 131.476 304.406 131.972C304.369 132.611 304.339 133.116 305.025 133.633C305.234 133.79 305.481 133.87 305.76 133.87C306.369 133.87 307.122 133.461 307.825 132.749C308.575 131.989 309.37 130.764 309.354 129.603C309.338 128.367 308.194 127.361 306.805 127.361Z" fill="#AAB2BD" fill-opacity="0.5"/>
<path d="M268.387 215.817C268.076 216.507 267.927 216.814 267.526 217.423C266.968 218.274 266.179 219.334 265.203 219.343C264.335 219.351 264.112 218.779 262.934 218.785C261.756 218.792 261.511 219.354 260.643 219.345C259.666 219.336 258.92 218.379 258.361 217.528C256.798 215.149 256.634 212.356 257.598 210.872C258.284 209.817 259.365 209.2 260.381 209.2C261.416 209.2 262.067 209.767 262.923 209.767C263.753 209.767 264.259 209.199 265.455 209.199C266.36 209.199 267.318 209.691 268.001 210.542C265.764 211.768 266.127 214.962 268.387 215.817Z" fill="#AAB2BD" fill-opacity="0.5"/>
<path d="M264.676 207.709C265.111 207.151 265.441 206.364 265.321 205.559C264.61 205.607 263.78 206.059 263.295 206.648C262.855 207.182 262.491 207.975 262.633 208.746C263.408 208.77 264.21 208.307 264.676 207.709Z" fill="#AAB2BD" fill-opacity="0.5"/>
<path d="M279.52 216.819C279.52 217.063 279.717 217.261 279.961 217.261H280.844V219.248C280.844 219.614 281.141 219.91 281.507 219.91C281.872 219.91 282.169 219.614 282.169 219.248V217.261H283.935V219.248C283.935 219.614 284.232 219.91 284.598 219.91C284.963 219.91 285.26 219.614 285.26 219.248V217.261H286.143C286.387 217.261 286.585 217.063 286.585 216.819V211.079H279.52V216.819Z" fill="#AAB2BD" fill-opacity="0.5"/>
<path d="M278.416 211.079C278.051 211.079 277.754 211.375 277.754 211.741V214.832C277.754 215.198 278.051 215.495 278.416 215.495C278.782 215.495 279.079 215.198 279.079 214.832V211.741C279.079 211.375 278.782 211.079 278.416 211.079Z" fill="#AAB2BD" fill-opacity="0.5"/>
<path d="M287.69 211.079C287.324 211.079 287.027 211.375 287.027 211.741V214.832C287.027 215.198 287.324 215.495 287.69 215.495C288.055 215.495 288.352 215.198 288.352 214.832V211.741C288.352 211.375 288.055 211.079 287.69 211.079Z" fill="#AAB2BD" fill-opacity="0.5"/>
<path d="M284.886 207.622L285.444 206.785C285.512 206.684 285.484 206.546 285.383 206.479C285.281 206.411 285.143 206.439 285.077 206.54L284.494 207.414C284.053 207.216 283.566 207.104 283.052 207.104C282.538 207.104 282.051 207.216 281.61 207.414L281.028 206.54C280.96 206.439 280.824 206.411 280.722 206.478C280.62 206.546 280.593 206.683 280.661 206.784L281.218 207.621C280.201 208.242 279.52 209.358 279.52 210.637H286.585C286.585 209.358 285.904 208.242 284.886 207.622ZM281.727 209.312C281.484 209.312 281.286 209.114 281.286 208.87C281.286 208.627 281.484 208.429 281.727 208.429C281.971 208.429 282.169 208.627 282.169 208.87C282.169 209.114 281.971 209.312 281.727 209.312ZM284.377 209.312C284.133 209.312 283.935 209.114 283.935 208.87C283.935 208.627 284.133 208.429 284.377 208.429C284.621 208.429 284.819 208.627 284.819 208.87C284.819 209.114 284.621 209.312 284.377 209.312Z" fill="#AAB2BD" fill-opacity="0.5"/>
<path d="M304.69 206C300.795 206 297.625 209.17 297.625 213.065C297.625 216.961 300.795 220.131 304.69 220.131C308.586 220.131 311.756 216.961 311.756 213.065C311.756 209.17 308.586 206 304.69 206ZM304.69 219.248C303.06 219.248 301.579 218.609 300.474 217.574C300.488 217.551 300.506 217.53 300.52 217.507C301.105 216.525 301.1 215.502 300.506 214.624C300.353 214.398 300.163 214.18 299.98 213.969C299.712 213.658 299.378 213.272 299.378 213.065C299.378 212.937 300.018 212.623 300.259 212.506C300.772 212.255 301.352 211.971 301.694 211.529C302.411 210.602 301.831 208.968 301.538 208.478C301.424 208.287 301.293 208.129 301.162 207.996C302.057 207.371 303.124 206.981 304.277 206.904C304.381 206.984 304.49 207.064 304.604 207.143C304.848 207.314 305.1 207.491 305.205 207.65C305.341 207.858 305.43 208.073 305.515 208.281C305.711 208.758 305.932 209.297 306.694 209.492C306.804 209.52 306.917 209.533 307.032 209.533C307.643 209.533 308.335 209.171 309.115 208.757C310.201 209.871 310.873 211.391 310.873 213.065C310.873 216.475 308.1 219.248 304.69 219.248Z" fill="#AAB2BD" fill-opacity="0.5"/>
<path d="M306.805 211.361C305.96 211.361 305.134 211.724 304.65 212.308C304.309 212.719 304.173 213.21 304.264 213.692C304.474 214.799 304.434 215.476 304.406 215.972C304.369 216.611 304.339 217.116 305.025 217.633C305.234 217.79 305.481 217.87 305.76 217.87C306.369 217.87 307.122 217.461 307.825 216.749C308.575 215.989 309.37 214.764 309.354 213.603C309.338 212.367 308.194 211.361 306.805 211.361Z" fill="#AAB2BD" fill-opacity="0.5"/>
<defs>
<filter id="filter0_d" x="0" y="0" width="335" height="90" filterUnits="userSpaceOnUse" color-interpolation-filters="sRGB">
<feFlood flood-opacity="0" result="BackgroundImageFix"/>
<feColorMatrix in="SourceAlpha" type="matrix" values="0 0 0 0 0 0 0 0 0 0 0 0 0 0 0 0 0 0 127 0"/>
<feOffset/>
<feGaussianBlur stdDeviation="5"/>
<feColorMatrix type="matrix" values="0 0 0 0 0 0 0 0 0 0 0 0 0 0 0 0 0 0 0.1 0"/>
<feBlend mode="normal" in2="BackgroundImageFix" result="effect1_dropShadow"/>
<feBlend mode="normal" in="SourceGraphic" in2="effect1_dropShadow" result="shape"/>
</filter>
<filter id="filter1_d" x="0" y="84" width="335" height="90" filterUnits="userSpaceOnUse" color-interpolation-filters="sRGB">
<feFlood flood-opacity="0" result="BackgroundImageFix"/>
<feColorMatrix in="SourceAlpha" type="matrix" values="0 0 0 0 0 0 0 0 0 0 0 0 0 0 0 0 0 0 127 0"/>
<feOffset/>
<feGaussianBlur stdDeviation="5"/>
<feColorMatrix type="matrix" values="0 0 0 0 0 0 0 0 0 0 0 0 0 0 0 0 0 0 0.1 0"/>
<feBlend mode="normal" in2="BackgroundImageFix" result="effect1_dropShadow"/>
<feBlend mode="normal" in="SourceGraphic" in2="effect1_dropShadow" result="shape"/>
</filter>
<filter id="filter2_d" x="0" y="168" width="335" height="90" filterUnits="userSpaceOnUse" color-interpolation-filters="sRGB">
<feFlood flood-opacity="0" result="BackgroundImageFix"/>
<feColorMatrix in="SourceAlpha" type="matrix" values="0 0 0 0 0 0 0 0 0 0 0 0 0 0 0 0 0 0 127 0"/>
<feOffset/>
<feGaussianBlur stdDeviation="5"/>
<feColorMatrix type="matrix" values="0 0 0 0 0 0 0 0 0 0 0 0 0 0 0 0 0 0 0.1 0"/>
<feBlend mode="normal" in2="BackgroundImageFix" result="effect1_dropShadow"/>
<feBlend mode="normal" in="SourceGraphic" in2="effect1_dropShadow" result="shape"/>
</filter>
</defs>
</svg>
