<svg width="46" height="46" viewBox="0 0 46 46" fill="none" xmlns="http://www.w3.org/2000/svg">
<circle cx="23" cy="23" r="21.5" stroke="#EA0D8C" stroke-width="3"/>
<g clip-path="url(#clip0)">
<path d="M17 19.2723C18.1046 19.2723 19 18.3754 19 17.269C19 16.1625 18.1046 15.2656 17 15.2656C15.8954 15.2656 15 16.1625 15 17.269C15 18.3754 15.8954 19.2723 17 19.2723Z" fill="#EA0D8C"/>
<path d="M31 16.2676H21V18.2709H31V16.2676Z" fill="#EA0D8C"/>
<path d="M17 25.2821C18.1046 25.2821 19 24.3851 19 23.2787C19 22.1723 18.1046 21.2754 17 21.2754C15.8954 21.2754 15 22.1723 15 23.2787C15 24.3851 15.8954 25.2821 17 25.2821Z" fill="#EA0D8C"/>
<path d="M31 22.2773H21V24.2807H31V22.2773Z" fill="#EA0D8C"/>
<path d="M17 31.2918C18.1046 31.2918 19 30.3949 19 29.2885C19 28.1821 18.1046 27.2852 17 27.2852C15.8954 27.2852 15 28.1821 15 29.2885C15 30.3949 15.8954 31.2918 17 31.2918Z" fill="#EA0D8C"/>
<path d="M31 28.2871H21V30.2904H31V28.2871Z" fill="#EA0D8C"/>
</g>
<defs>
<clipPath id="clip0">
<rect width="16" height="16.0267" fill="white" transform="translate(15 15.2656)"/>
</clipPath>
</defs>
</svg>
