<svg width="440" height="127" viewBox="0 0 440 127" fill="none" xmlns="http://www.w3.org/2000/svg">
<path d="M216.095 81.6863C216.095 95.0294 205.68 101.213 192.012 101.213C184.527 101.213 177.041 99.2605 172.16 96.0059V82.3372C178.018 86.8935 185.178 89.4972 191.686 89.4972C198.195 89.4972 202.426 87.2188 202.426 82.3372C202.426 77.1302 198.521 75.1775 190.384 73.2248C177.041 70.2959 171.509 64.7633 171.509 53.6982C171.509 40.6803 181.272 34.1716 194.29 34.1716C201.45 34.1716 207.308 35.7987 212.84 39.0532V52.0711C207.308 48.1656 201.775 45.562 194.941 45.562C188.757 45.562 185.503 48.4912 185.503 52.722C185.503 56.9527 188.106 59.2307 195.592 61.1835C209.911 64.7633 216.095 69.9703 216.095 81.6863ZM146.45 100.888H159.467V0H146.45V100.888ZM120.414 100.888H133.432V0H120.414V100.888ZM24.0828 23.4319C24.0828 15.6213 27.6627 12.6923 33.5207 12.6923C37.7514 12.6923 41.0059 13.9941 44.5858 16.2722V3.25445C41.0059 0.976331 37.1005 0 31.8935 0C18.8757 0 10.0888 7.81064 10.0888 23.7574V35.7987H0V47.8403H10.0888V100.888H24.4083V47.8403H45.8876V35.7987H24.0828V23.4319ZM92.4261 88.5207C88.8463 89.1716 84.9408 89.4972 81.361 89.4972C71.923 89.4972 66.0651 85.917 66.0651 76.4793V35.7987H52.0711V77.4555C52.0711 95.355 63.4615 101.213 81.6863 101.213C89.1716 101.213 99.2605 100.237 106.745 98.284V35.7987H92.4261V88.5207ZM240.828 78.1064V47.5147H259.053V35.7987H240.828V19.5266H226.509V35.7987H218.047V47.8403H226.834V81.361C226.834 96.0059 235.621 101.213 246.035 101.213C252.219 101.213 257.426 99.9111 261.657 97.6331V84.6155C257.751 86.8935 254.172 88.1954 249.941 88.1954C244.083 88.5207 240.828 85.917 240.828 78.1064ZM364.17 34.8225C355.059 34.8225 345.946 37.4261 339.114 41.3313V100.888H353.431V50.1183C356.687 48.8165 360.592 48.1656 364.17 48.1656C366.45 48.1656 368.729 48.4912 371.005 48.8165L365.798 34.8225C365.798 34.8225 364.822 34.8225 364.17 34.8225ZM425.354 35.7987L407.455 86.2426L388.904 35.7987H373.61L400.297 102.515L391.183 126.923H405.178L440 35.7987H425.354ZM330.326 67.6922C330.326 87.5444 316.331 101.213 297.129 101.213C277.929 101.213 263.935 87.5444 263.935 67.6922C263.935 47.8403 277.929 34.1716 297.129 34.1716C316.331 34.1716 330.326 47.8403 330.326 67.6922ZM315.679 67.6922C315.679 54.6747 307.871 46.5385 296.803 46.5385C286.065 46.5385 278.255 54.6747 278.255 67.6922C278.255 80.7101 286.065 88.8463 296.803 88.8463C307.871 88.8463 315.679 80.7101 315.679 67.6922Z" fill="#666D78"/>
</svg>
