<svg width="150" height="44" viewBox="0 0 150 44" fill="none" xmlns="http://www.w3.org/2000/svg">
<g clip-path="url(#clip0)">
<path d="M73.6686 27.8476C73.6686 32.3964 70.1183 34.5044 65.4586 34.5044C62.9068 34.5044 60.355 33.8388 58.6908 32.7293V28.0695C60.6879 29.6228 63.1287 30.5104 65.3476 30.5104C67.5666 30.5104 69.0089 29.7337 69.0089 28.0695C69.0089 26.2944 67.6775 25.6287 64.9038 24.963C60.355 23.9645 58.4689 22.0784 58.4689 18.3062C58.4689 13.8683 61.7973 11.6494 66.2352 11.6494C68.676 11.6494 70.6731 12.2041 72.5592 13.3136V17.7515C70.6731 16.4201 68.787 15.5325 66.4571 15.5325C64.3491 15.5325 63.2396 16.5311 63.2396 17.9734C63.2396 19.4157 64.1272 20.1923 66.679 20.858C71.5607 22.0784 73.6686 23.8535 73.6686 27.8476ZM49.926 34.3935H54.3639V0H49.926V34.3935ZM41.0503 34.3935H45.4882V0H41.0503V34.3935ZM8.21006 7.98816C8.21006 5.32544 9.43047 4.32692 11.4275 4.32692C12.8698 4.32692 13.9793 4.77071 15.1997 5.54734V1.10947C13.9793 0.33284 12.6479 0 10.8728 0C6.43491 0 3.43935 2.66272 3.43935 8.09911V12.2041H0V16.3092H3.43935V34.3935H8.32101V16.3092H15.6435V12.2041H8.21006V7.98816ZM31.5089 30.1775C30.2885 30.3994 28.9571 30.5104 27.7367 30.5104C24.5192 30.5104 22.5222 29.2899 22.5222 26.0725V12.2041H17.7515V26.4053C17.7515 32.5074 21.6346 34.5044 27.8476 34.5044C30.3994 34.5044 33.8388 34.1716 36.3905 33.5059V12.2041H31.5089V30.1775V30.1775ZM82.1006 26.6272V16.1982H88.3136V12.2041H82.1006V6.6568H77.2189V12.2041H74.3343V16.3092H77.3299V27.7367C77.3299 32.7293 80.3254 34.5044 83.8757 34.5044C85.9837 34.5044 87.7589 34.0606 89.2012 33.284V28.8462C87.8698 29.6228 86.6494 30.0666 85.2071 30.0666C83.2101 30.1775 82.1006 29.2899 82.1006 26.6272ZM124.149 11.8713C121.043 11.8713 117.936 12.7589 115.607 14.0902V34.3935H120.488V17.0858C121.598 16.642 122.929 16.4201 124.149 16.4201C124.926 16.4201 125.703 16.5311 126.479 16.642L124.704 11.8713C124.704 11.8713 124.371 11.8713 124.149 11.8713ZM145.007 12.2041L138.905 29.4009L132.581 12.2041H127.367L136.465 34.9482L133.358 43.2692H138.129L150 12.2041H145.007ZM112.611 23.0769C112.611 29.8447 107.84 34.5044 101.294 34.5044C94.7485 34.5044 89.9778 29.8447 89.9778 23.0769C89.9778 16.3092 94.7485 11.6494 101.294 11.6494C107.84 11.6494 112.611 16.3092 112.611 23.0769ZM107.618 23.0769C107.618 18.6391 104.956 15.8654 101.183 15.8654C97.5222 15.8654 94.8595 18.6391 94.8595 23.0769C94.8595 27.5148 97.5222 30.2885 101.183 30.2885C104.956 30.2885 107.618 27.5148 107.618 23.0769Z" fill="black"/>
</g>
<defs>
<clipPath id="clip0">
<rect width="150" height="43.2692" fill="white"/>
</clipPath>
</defs>
</svg>
