<svg width="16" height="16" viewBox="0 0 16 16" fill="none" xmlns="http://www.w3.org/2000/svg">
<path d="M9.5 8.375H6.5C6.29291 8.375 6.125 8.54291 6.125 8.75V15.5C6.125 15.7071 6.29291 15.875 6.5 15.875H9.5C9.70709 15.875 9.875 15.7071 9.875 15.5V8.75C9.875 8.54291 9.70709 8.375 9.5 8.375Z" fill="#6996CE"/>
<path d="M3.5 11.375H0.5C0.292906 11.375 0.125 11.5429 0.125 11.75V15.5C0.125 15.7071 0.292906 15.875 0.5 15.875H3.5C3.70709 15.875 3.875 15.7071 3.875 15.5V11.75C3.875 11.5429 3.70709 11.375 3.5 11.375Z" fill="#6799D0"/>
<path d="M15.5 5.375H12.5C12.2929 5.375 12.125 5.54291 12.125 5.75V15.5C12.125 15.7071 12.2929 15.875 12.5 15.875H15.5C15.7071 15.875 15.875 15.7071 15.875 15.5V5.75C15.875 5.54291 15.7071 5.375 15.5 5.375Z" fill="#5386C5"/>
<path d="M8.26514 6.01514L12.875 1.40527V3.5C12.875 3.70709 13.0429 3.875 13.25 3.875C13.4571 3.875 13.625 3.70709 13.625 3.5V0.5C13.625 0.451156 13.615 0.402541 13.596 0.356698C13.558 0.265029 13.485 0.191971 13.3933 0.153954C13.3475 0.134979 13.2988 0.125 13.25 0.125H10.25C10.0429 0.125 9.875 0.292906 9.875 0.5C9.875 0.707094 10.0429 0.875 10.25 0.875H12.3447L8 5.21973L6.01513 3.23486C5.86865 3.08838 5.63135 3.08838 5.48486 3.23486L2.48486 6.23486C2.33838 6.38135 2.33838 6.61865 2.48486 6.76514C2.5581 6.83838 2.65405 6.875 2.75 6.875C2.84595 6.875 2.94189 6.83838 3.01513 6.76514L5.75 4.03027L7.73486 6.01514C7.88135 6.16162 8.11865 6.16162 8.26514 6.01514Z" fill="#CCD1D8"/>
</svg>
