<svg width="16" height="16" viewBox="0 0 16 16" fill="none" xmlns="http://www.w3.org/2000/svg">
<path d="M12.0004 13.061C12.2092 13.2699 12.1915 13.6153 11.9477 13.7821C9.5751 15.406 6.4249 15.406 4.05229 13.7821C3.8085 13.6153 3.79075 13.2699 3.99964 13.061L6.20332 10.8573C6.36372 10.6969 6.61089 10.6697 6.81947 10.7588C7.5716 11.0804 8.4284 11.0804 9.18053 10.7588C9.38911 10.6697 9.63628 10.6969 9.79668 10.8573L12.0004 13.061Z" fill="black"/>
<path d="M5.24117 9.18053C5.33035 9.38911 5.30306 9.63628 5.14266 9.79668L2.93898 12.0004C2.73009 12.2092 2.3847 12.1915 2.21785 11.9477C0.594049 9.5751 0.594049 6.4249 2.21785 4.05229C2.3847 3.8085 2.73009 3.79075 2.93898 3.99964L5.14266 6.20332C5.30306 6.36372 5.33035 6.61089 5.24117 6.81947C4.91961 7.5716 4.91961 8.4284 5.24117 9.18053Z" fill="black"/>
<path d="M6.20332 5.14266C6.36372 5.30306 6.61089 5.33035 6.81947 5.24117C7.5716 4.91961 8.4284 4.91961 9.18053 5.24117C9.38911 5.33035 9.63628 5.30306 9.79668 5.14266L12.0004 2.93898C12.2092 2.73009 12.1915 2.3847 11.9477 2.21785C9.5751 0.594049 6.4249 0.594049 4.05229 2.21785C3.8085 2.3847 3.79075 2.73009 3.99964 2.93898L6.20332 5.14266Z" fill="black"/>
<path d="M13.7821 11.9477C13.6153 12.1915 13.2699 12.2092 13.061 12.0004L10.8573 9.79668C10.6969 9.63628 10.6697 9.38911 10.7588 9.18053C11.0804 8.4284 11.0804 7.5716 10.7588 6.81947C10.6697 6.61089 10.6969 6.36372 10.8573 6.20332L13.061 3.99964C13.2699 3.79075 13.6153 3.8085 13.7821 4.05229C15.406 6.4249 15.406 9.5751 13.7821 11.9477Z" fill="black"/>
</svg>
