<svg width="16" height="16" viewBox="0 0 16 16" fill="none" xmlns="http://www.w3.org/2000/svg">
<path fill-rule="evenodd" clip-rule="evenodd" d="M4 2C2.89543 2 2 2.89543 2 4V12C2 13.1046 2.89543 14 4 14H12C13.1046 14 14 13.1046 14 12V4C14 2.89543 13.1046 2 12 2H4ZM5.76511 9.74354C5.60195 9.83036 5.5 10.0001 5.5 10.1849V11.0814C5.5 11.2706 5.70197 11.3912 5.86853 11.3016L10.2371 8.94928C10.399 8.86207 10.5 8.69299 10.5 8.50905V7.49095C10.5 7.30701 10.399 7.13793 10.237 7.05072L5.86853 4.69844C5.70197 4.60875 5.5 4.72939 5.5 4.91855V5.81507C5.5 5.99989 5.60195 6.16964 5.76511 6.25646L8.91215 7.93118C8.93759 7.94472 8.95349 7.97118 8.95349 8C8.95349 8.02882 8.93759 8.05528 8.91215 8.06882L5.76511 9.74354Z" fill="black"/>
</svg>
