<svg width="150" height="39" viewBox="0 0 150 39" fill="none" xmlns="http://www.w3.org/2000/svg">
<g clip-path="url(#clip0)">
<path d="M51.0918 24.8232V13.7121C51.0918 13.0056 51.6699 12.4597 52.3442 12.4597C53.0507 12.4597 53.5967 13.0378 53.5967 13.7121V24.8232C53.5967 25.5297 53.0186 26.0756 52.3442 26.0756C51.6699 26.0756 51.0918 25.5297 51.0918 24.8232V24.8232Z" fill="#1F8DED"/>
<path d="M65.3179 25.3371L59.8908 16.7308V24.8875C59.8908 25.5618 59.3449 26.1078 58.6705 26.1078C57.9961 26.1078 57.4502 25.5618 57.4502 24.8875V14.0975C57.4502 13.1983 58.1888 12.4597 59.088 12.4597H59.1522C59.7303 12.4597 60.2441 12.7487 60.5331 13.2304L65.896 21.7083V13.68C65.896 13.0056 66.4419 12.4597 67.1162 12.4597C67.7906 12.4597 68.3365 13.0056 68.3365 13.68V24.47C68.3365 25.3692 67.5979 26.1078 66.6988 26.1078C66.1529 26.0757 65.6069 25.7866 65.3179 25.3371V25.3371Z" fill="#1F8DED"/>
<path d="M77.0713 14.7398V24.9196C77.0713 25.5618 76.5575 26.0756 75.9152 26.0756H75.7546C75.1124 26.0756 74.5986 25.5618 74.5986 24.9196V14.7398H71.7084C71.0661 14.7398 70.5523 14.2259 70.5523 13.5837C70.5523 12.9414 71.0661 12.4276 71.7084 12.4276H79.9614C80.6037 12.4276 81.1175 12.9414 81.1175 13.5837C81.1175 14.2259 80.6037 14.7398 79.9614 14.7398H77.0713Z" fill="#1F8DED"/>
<path d="M83.1085 24.9838V13.5837C83.1085 12.9735 83.6223 12.4597 84.2325 12.4597H91.7148C92.325 12.4597 92.8388 12.9735 92.8388 13.5837V13.6158C92.8388 14.2259 92.325 14.7397 91.7148 14.7397H85.5812V17.9189H90.8478C91.4579 17.9189 91.9717 18.4327 91.9717 19.0429C91.9717 19.653 91.4579 20.1668 90.8478 20.1668H85.5812V23.892H91.7148C92.325 23.892 92.8388 24.4058 92.8388 25.0159V25.048C92.8388 25.6582 92.325 26.172 91.7148 26.172H84.2325C83.6223 26.0756 83.1085 25.5939 83.1085 24.9838V24.9838Z" fill="#1F8DED"/>
<path d="M103.308 25.3692L101.349 20.9376H98.3301V24.8554C98.3301 25.5297 97.7842 26.0756 97.1098 26.0756H97.0456C96.3712 26.0756 95.8253 25.5297 95.8253 24.8554V13.6479C95.8253 12.9735 96.3712 12.4276 97.0456 12.4276H101.574C104.817 12.4276 106.294 14.4828 106.294 16.6665C106.294 18.497 105.299 19.9421 103.789 20.488L105.523 24.3415C105.877 25.1444 105.299 26.0756 104.399 26.0756C103.95 26.0756 103.5 25.8187 103.308 25.3692V25.3692ZM101.606 14.6113H98.3301V18.6897H101.638C103.051 18.6897 103.854 17.9511 103.854 16.6665C103.854 15.5747 102.986 14.6113 101.606 14.6113V14.6113Z" fill="#1F8DED"/>
<path d="M118.112 24.727C117.084 25.7546 115.671 26.3326 114.194 26.3326C112.717 26.3326 111.368 25.8509 110.34 24.8233C108.863 23.3461 108.638 21.5157 108.638 19.2678C108.638 17.0198 108.863 15.2215 110.34 13.7122C111.368 12.6846 112.749 12.1708 114.194 12.1708C115.671 12.1708 117.084 12.7167 118.112 13.7443C118.465 14.0976 118.754 14.515 118.947 14.9646C119.332 15.7674 118.722 16.6987 117.823 16.6987C117.309 16.6987 116.891 16.3776 116.699 15.928C116.602 15.7032 116.442 15.4784 116.281 15.2536C115.832 14.7077 115.061 14.4187 114.226 14.4187C113.423 14.4187 112.653 14.7398 112.139 15.3179C111.207 16.3134 111.207 17.9832 111.207 19.2356C111.207 20.4881 111.207 22.19 112.139 23.1534C112.685 23.7315 113.455 24.0526 114.226 24.0526C115.061 24.0526 115.832 23.7315 116.281 23.1855C116.474 22.9608 116.602 22.736 116.699 22.4791C116.891 21.9974 117.341 21.6762 117.855 21.6762C118.754 21.6762 119.332 22.6075 118.979 23.4103C118.754 23.9241 118.465 24.3416 118.112 24.727V24.727Z" fill="#1F8DED"/>
<path d="M131.471 24.7912C130.443 25.8188 128.998 26.3326 127.553 26.3326C126.076 26.3326 124.663 25.8188 123.635 24.7912C122.158 23.314 121.901 21.4836 121.901 19.2678C121.901 17.0198 122.158 15.2215 123.635 13.7122C124.663 12.6846 126.108 12.1708 127.553 12.1708C129.03 12.1708 130.443 12.6846 131.471 13.7122C132.948 15.1894 133.205 17.0198 133.205 19.2678C133.205 21.5157 132.948 23.314 131.471 24.7912ZM129.672 15.35C129.127 14.7719 128.292 14.4508 127.521 14.4508C126.75 14.4508 125.915 14.7719 125.369 15.35C124.438 16.3455 124.374 18.0153 124.374 19.2678C124.374 20.5202 124.406 22.19 125.369 23.1855C125.915 23.7636 126.75 24.0847 127.521 24.0847C128.324 24.0847 129.127 23.7636 129.672 23.1855C130.604 22.19 130.668 20.5202 130.668 19.2678C130.668 18.0153 130.636 16.3455 129.672 15.35V15.35Z" fill="#1F8DED"/>
<path d="M147.559 24.8875V16.3454L144.348 25.048C144.155 25.5618 143.674 25.9151 143.128 25.9151C142.582 25.9151 142.1 25.5618 141.907 25.048L138.696 16.2491V24.8875C138.696 25.5618 138.15 26.0756 137.508 26.0756C136.834 26.0756 136.32 25.5297 136.32 24.8875V14.3223C136.32 13.2947 137.155 12.4597 138.182 12.4597H138.343C139.114 12.4597 139.82 12.9414 140.109 13.68L143.224 22.19L146.371 13.68C146.628 12.9414 147.335 12.4597 148.137 12.4597C149.165 12.4597 150 13.2947 150 14.3223V24.8875C150 25.5618 149.454 26.0756 148.812 26.0756C148.105 26.0756 147.559 25.5618 147.559 24.8875V24.8875Z" fill="#1F8DED"/>
<path d="M33.7187 0H4.81696C2.15157 0 0 2.15157 0 4.81696V33.7187C0 36.3841 2.15157 38.5356 4.81696 38.5356H33.7187C36.3841 38.5356 38.5356 36.3841 38.5356 33.7187V4.81696C38.5356 2.15157 36.3841 0 33.7187 0ZM24.4059 7.06487C24.4059 6.35838 24.9839 5.78035 25.6904 5.78035C26.3969 5.78035 26.975 6.35838 26.975 7.06487V24.2132C26.975 24.9197 26.3969 25.4978 25.6904 25.4978C24.9839 25.4978 24.4059 24.9197 24.4059 24.2132V7.06487ZM17.9833 6.42261C17.9833 5.71612 18.5613 5.13809 19.2678 5.13809C19.9743 5.13809 20.5523 5.71612 20.5523 6.42261V25.0482C20.5523 25.7547 19.9743 26.3327 19.2678 26.3327C18.5613 26.3327 17.9833 25.7547 17.9833 25.0482V6.42261ZM11.5607 7.06487C11.5607 6.35838 12.1387 5.78035 12.8452 5.78035C13.5517 5.78035 14.1297 6.35838 14.1297 7.06487V24.2132C14.1297 24.9197 13.5517 25.4978 12.8452 25.4978C12.1387 25.4978 11.5607 24.9197 11.5607 24.2132V7.06487ZM5.13809 9.63391C5.13809 8.92742 5.71612 8.34939 6.42261 8.34939C7.12909 8.34939 7.70713 8.92742 7.70713 9.63391V21.1946C7.70713 21.9011 7.12909 22.4791 6.42261 22.4791C5.71612 22.4791 5.13809 21.9011 5.13809 21.1946V9.63391ZM32.948 29.2229C32.7553 29.3834 28.0026 33.3976 19.2678 33.3976C10.5331 33.3976 5.78035 29.4155 5.58767 29.2229C5.04175 28.7733 4.97752 27.9383 5.45922 27.4245C5.9088 26.8786 6.74374 26.8144 7.25755 27.2961C7.32177 27.3603 11.5928 30.8285 19.2678 30.8285C27.0392 30.8285 31.246 27.3282 31.2781 27.2961C31.824 26.8465 32.6268 26.9107 33.0764 27.4245C33.5581 27.9383 33.4939 28.7733 32.948 29.2229V29.2229ZM33.3976 21.1946C33.3976 21.9011 32.8195 22.4791 32.113 22.4791C31.4065 22.4791 30.8285 21.9011 30.8285 21.1946V9.63391C30.8285 8.92742 31.4065 8.34939 32.113 8.34939C32.8195 8.34939 33.3976 8.92742 33.3976 9.63391V21.1946Z" fill="#1F8DED"/>
</g>
<defs>
<clipPath id="clip0">
<rect width="150" height="38.5356" fill="white"/>
</clipPath>
</defs>
</svg>
