<svg xmlns="http://www.w3.org/2000/svg" viewBox="0 0 16 16" width="16" height="16"><title>menu</title><g class="nc-icon-wrapper" fill="#ea0d8b"><path data-color="color-2" d="M8,14H1c-0.552,0-1-0.448-1-1v0c0-0.552,0.448-1,1-1h7c0.552,0,1,0.448,1,1v0 C9,13.552,8.552,14,8,14z"/> <path data-color="color-2" d="M15,4.019H8c-0.552,0-1-0.448-1-1v0c0-0.552,0.448-1,1-1h7c0.552,0,1,0.448,1,1v0 C16,3.572,15.552,4.019,15,4.019z"/> <path fill="#ea0d8b" d="M15,9H1C0.448,9,0,8.552,0,8v0c0-0.552,0.448-1,1-1h14c0.552,0,1,0.448,1,1v0C16,8.552,15.552,9,15,9z"/></g></svg>