<svg width="428" height="251" viewBox="0 0 428 251" fill="none" xmlns="http://www.w3.org/2000/svg">
<g filter="url(#filter0_d)">
<rect x="4" width="400" height="218" rx="5" fill="white"/>
</g>
<path d="M38.296 34.408C38.376 35.464 38.712 36.232 39.304 36.712C39.912 37.192 40.8 37.432 41.968 37.432C42.528 37.432 43 37.376 43.384 37.264C43.768 37.136 44.08 36.976 44.32 36.784C44.56 36.576 44.728 36.336 44.824 36.064C44.936 35.792 44.992 35.496 44.992 35.176C44.992 34.728 44.824 34.312 44.488 33.928C44.152 33.528 43.536 33.24 42.64 33.064L40.408 32.656C39.528 32.496 38.752 32.288 38.08 32.032C37.408 31.776 36.84 31.448 36.376 31.048C35.928 30.632 35.584 30.128 35.344 29.536C35.104 28.944 34.984 28.24 34.984 27.424C34.984 26.608 35.144 25.888 35.464 25.264C35.8 24.64 36.256 24.12 36.832 23.704C37.424 23.288 38.128 22.976 38.944 22.768C39.76 22.544 40.656 22.432 41.632 22.432C42.88 22.432 43.92 22.576 44.752 22.864C45.584 23.152 46.256 23.536 46.768 24.016C47.28 24.48 47.656 25.024 47.896 25.648C48.152 26.272 48.32 26.92 48.4 27.592L45.016 28.024C44.84 27.08 44.496 26.4 43.984 25.984C43.488 25.568 42.728 25.36 41.704 25.36C41.096 25.36 40.592 25.416 40.192 25.528C39.808 25.624 39.496 25.76 39.256 25.936C39.016 26.096 38.848 26.288 38.752 26.512C38.656 26.736 38.608 26.968 38.608 27.208C38.608 27.848 38.784 28.328 39.136 28.648C39.504 28.968 40.12 29.216 40.984 29.392L43.336 29.848C45.192 30.216 46.552 30.816 47.416 31.648C48.28 32.464 48.712 33.648 48.712 35.2C48.712 35.952 48.568 36.648 48.28 37.288C48.008 37.912 47.592 38.464 47.032 38.944C46.488 39.408 45.8 39.768 44.968 40.024C44.136 40.296 43.16 40.432 42.04 40.432C39.704 40.432 37.912 39.936 36.664 38.944C35.432 37.936 34.768 36.424 34.672 34.408H38.296ZM50.8441 27.472H54.2041V40H50.8441V27.472ZM50.7961 22.864H54.2521V25.888H50.7961V22.864ZM60.5624 40.792C60.6264 41.112 60.7144 41.368 60.8264 41.56C60.9544 41.752 61.1144 41.904 61.3064 42.016C61.5144 42.128 61.7544 42.2 62.0264 42.232C62.3144 42.28 62.6584 42.304 63.0584 42.304C63.6824 42.304 64.1704 42.184 64.5224 41.944C64.8744 41.72 65.1304 41.416 65.2904 41.032C65.4664 40.648 65.5704 40.208 65.6024 39.712C65.6504 39.216 65.6744 38.704 65.6744 38.176V37.792C65.2584 38.4 64.7224 38.864 64.0664 39.184C63.4264 39.488 62.6984 39.64 61.8824 39.64C60.1224 39.64 58.8024 39.072 57.9224 37.936C57.0584 36.8 56.6264 35.272 56.6264 33.352C56.6264 32.44 56.7464 31.6 56.9864 30.832C57.2424 30.064 57.6024 29.408 58.0664 28.864C58.5304 28.304 59.0984 27.872 59.7704 27.568C60.4584 27.248 61.2264 27.088 62.0744 27.088C62.7464 27.088 63.3944 27.216 64.0184 27.472C64.6584 27.728 65.2424 28.2 65.7704 28.888V27.472H69.0344V38.248C69.0344 39.304 68.9224 40.24 68.6984 41.056C68.4904 41.888 68.1464 42.592 67.6664 43.168C67.2024 43.744 66.5864 44.176 65.8184 44.464C65.0664 44.768 64.1464 44.92 63.0584 44.92C62.0504 44.92 61.1864 44.832 60.4664 44.656C59.7624 44.496 59.1784 44.24 58.7144 43.888C58.2504 43.552 57.8904 43.12 57.6344 42.592C57.3944 42.08 57.2344 41.48 57.1544 40.792H60.5624ZM65.6984 33.304C65.6984 32.552 65.6104 31.944 65.4344 31.48C65.2744 31.016 65.0584 30.664 64.7864 30.424C64.5144 30.168 64.2104 30 63.8744 29.92C63.5384 29.84 63.2024 29.8 62.8664 29.8C62.4984 29.8 62.1464 29.864 61.8104 29.992C61.4904 30.12 61.2024 30.328 60.9464 30.616C60.7064 30.904 60.5144 31.272 60.3704 31.72C60.2264 32.168 60.1544 32.704 60.1544 33.328C60.1544 34.656 60.4024 35.6 60.8984 36.16C61.4104 36.704 62.0424 36.976 62.7944 36.976C63.2104 36.976 63.5944 36.92 63.9464 36.808C64.3144 36.68 64.6264 36.488 64.8824 36.232C65.1384 35.96 65.3384 35.616 65.4824 35.2C65.6264 34.768 65.6984 34.248 65.6984 33.64V33.304ZM71.8748 27.472H75.1388V29.2C75.6348 28.464 76.2188 27.928 76.8908 27.592C77.5788 27.256 78.2908 27.088 79.0268 27.088C80.4508 27.088 81.5068 27.464 82.1948 28.216C82.8828 28.952 83.2268 30.12 83.2268 31.72V40H79.8668V32.176C79.8668 31.296 79.6988 30.696 79.3628 30.376C79.0268 30.056 78.5788 29.896 78.0188 29.896C77.5868 29.896 77.2108 29.96 76.8908 30.088C76.5868 30.216 76.2988 30.4 76.0268 30.64C75.8028 30.864 75.6108 31.136 75.4508 31.456C75.3068 31.76 75.2348 32.096 75.2348 32.464V40H71.8748V27.472ZM91.0764 22.864H94.6524V33.064C94.6524 34.52 94.9084 35.6 95.4204 36.304C95.9324 37.008 96.7884 37.36 97.9884 37.36C99.1884 37.36 100.036 37.008 100.532 36.304C101.044 35.6 101.3 34.52 101.3 33.064V22.864H104.876V33.064C104.876 34.36 104.716 35.472 104.396 36.4C104.076 37.328 103.62 38.096 103.028 38.704C102.436 39.296 101.708 39.728 100.844 40C99.9964 40.288 99.0364 40.432 97.9644 40.432C96.8764 40.432 95.9004 40.288 95.0364 40C94.1884 39.712 93.4684 39.272 92.8764 38.68C92.2844 38.072 91.8364 37.296 91.5324 36.352C91.2284 35.408 91.0764 34.288 91.0764 32.992V22.864ZM107.652 27.472H110.916V29.128C111.876 27.768 113.188 27.088 114.852 27.088C116.596 27.088 117.9 27.68 118.764 28.864C119.628 30.048 120.06 31.672 120.06 33.736C120.06 34.728 119.932 35.632 119.676 36.448C119.436 37.264 119.076 37.968 118.596 38.56C118.132 39.136 117.564 39.584 116.892 39.904C116.22 40.224 115.46 40.384 114.612 40.384C113.988 40.384 113.364 40.272 112.74 40.048C112.132 39.824 111.556 39.376 111.012 38.704V44.656H107.652V27.472ZM110.988 33.832C110.988 34.648 111.052 35.304 111.18 35.8C111.324 36.28 111.548 36.672 111.852 36.976C112.172 37.264 112.492 37.456 112.812 37.552C113.148 37.632 113.484 37.672 113.82 37.672C114.188 37.672 114.54 37.6 114.876 37.456C115.212 37.312 115.5 37.088 115.74 36.784C115.996 36.464 116.196 36.056 116.34 35.56C116.484 35.064 116.556 34.464 116.556 33.76C116.556 33.024 116.484 32.408 116.34 31.912C116.212 31.416 116.028 31.016 115.788 30.712C115.548 30.392 115.26 30.168 114.924 30.04C114.604 29.896 114.26 29.824 113.892 29.824C113.476 29.824 113.116 29.88 112.812 29.992C112.508 30.104 112.212 30.28 111.924 30.52C111.604 30.824 111.364 31.208 111.204 31.672C111.06 32.136 110.988 32.728 110.988 33.448V33.832Z" fill="#434A54"/>
<path d="M55.216 85.576H62.816V87.24H57.152V90.28H62.496V91.96H57.152V95.336H63.12L62.896 97H55.216V85.576ZM66.2414 88.68V89.88C66.8174 89.08 67.5001 88.616 68.2894 88.488C68.4921 88.456 68.7054 88.44 68.9294 88.44C69.4948 88.4613 69.9534 88.6053 70.3054 88.872C70.6574 89.128 70.9134 89.48 71.0734 89.928C71.8094 88.9253 72.7161 88.424 73.7934 88.424C74.6788 88.424 75.3294 88.6693 75.7454 89.16C76.1614 89.6507 76.3694 90.4347 76.3694 91.512V97H74.5454V92.008C74.5454 91.6027 74.5188 91.2667 74.4654 91C74.4121 90.7333 74.3321 90.5253 74.2254 90.376C74.1294 90.216 74.0014 90.1093 73.8414 90.056C73.6814 89.992 73.5001 89.96 73.2974 89.96C72.9774 89.96 72.6948 90.0187 72.4494 90.136C72.2041 90.2533 71.9961 90.408 71.8254 90.6C71.6654 90.792 71.5428 91.0107 71.4574 91.256C71.3721 91.4907 71.3294 91.736 71.3294 91.992V97H69.5054V91.832C69.5054 91.1173 69.3934 90.6267 69.1694 90.36C68.9561 90.0933 68.6574 89.96 68.2734 89.96C68.1134 89.96 67.9214 89.9973 67.6974 90.072C67.4734 90.136 67.2548 90.248 67.0414 90.408C66.8388 90.568 66.6628 90.7813 66.5134 91.048C66.3641 91.3147 66.2894 91.64 66.2894 92.024V97H64.4814V88.68H66.2414ZM82.0754 93.112C81.5314 93.144 81.0887 93.2027 80.7474 93.288C80.4167 93.3733 80.1607 93.4853 79.9794 93.624C79.7981 93.752 79.6754 93.9067 79.6114 94.088C79.5581 94.2587 79.5314 94.4453 79.5314 94.648C79.5314 95.0107 79.6434 95.2933 79.8674 95.496C80.1021 95.6987 80.4434 95.8 80.8914 95.8C81.6914 95.8 82.2834 95.5973 82.6674 95.192C83.0514 94.7867 83.2434 94.2373 83.2434 93.544V93.064L82.0754 93.112ZM83.2754 95.912C82.9661 96.2853 82.5874 96.5947 82.1394 96.84C81.6914 97.0853 81.1474 97.208 80.5074 97.208C80.1127 97.208 79.7447 97.1547 79.4034 97.048C79.0621 96.952 78.7634 96.8027 78.5074 96.6C78.2621 96.3973 78.0647 96.1413 77.9154 95.832C77.7767 95.512 77.7074 95.1387 77.7074 94.712C77.7074 94.136 77.8354 93.672 78.0914 93.32C78.3474 92.9573 78.6781 92.6747 79.0834 92.472C79.4994 92.2693 79.9634 92.1307 80.4754 92.056C80.9874 91.9707 81.4994 91.9173 82.0114 91.896L83.2434 91.832V91.48C83.2434 90.8507 83.0887 90.4187 82.7794 90.184C82.4807 89.9387 82.0861 89.816 81.5954 89.816C81.0301 89.816 80.6087 89.912 80.3314 90.104C80.0647 90.296 79.8887 90.5733 79.8034 90.936L78.1394 90.76C78.2887 89.9493 78.6567 89.3573 79.2434 88.984C79.8301 88.6107 80.6354 88.424 81.6594 88.424C82.3207 88.424 82.8647 88.5093 83.2914 88.68C83.7287 88.8507 84.0754 89.0853 84.3314 89.384C84.5874 89.6827 84.7634 90.04 84.8594 90.456C84.9661 90.8613 85.0194 91.3093 85.0194 91.8V97H83.2754V95.912ZM88.752 85.576V87.384H86.864V85.576H88.752ZM88.72 88.68V97H86.896V88.68H88.72ZM92.5208 85.576V97H90.6968V85.576H92.5208ZM62.512 114.576V116.24H57.152V119.472H62.192V121.152H57.152V126H55.216V114.576H62.512ZM65.6503 114.576V116.384H63.7623V114.576H65.6503ZM65.6183 117.68V126H63.7943V117.68H65.6183ZM69.3391 117.68V118.912C69.6271 118.475 69.9738 118.139 70.3791 117.904C70.7845 117.669 71.2165 117.552 71.6751 117.552C71.8565 117.552 72.0058 117.557 72.1231 117.568C72.2511 117.579 72.3738 117.595 72.4911 117.616L72.2831 119.28C72.1658 119.248 72.0378 119.227 71.8991 119.216C71.7605 119.205 71.6165 119.2 71.4671 119.2C71.1258 119.2 70.8271 119.259 70.5711 119.376C70.3151 119.483 70.0965 119.627 69.9151 119.808C69.7445 119.989 69.6111 120.197 69.5151 120.432C69.4298 120.656 69.3871 120.885 69.3871 121.12V126H67.5791V117.68H69.3391ZM74.8155 123.456C74.8475 123.733 74.9221 123.963 75.0395 124.144C75.1568 124.315 75.3008 124.453 75.4715 124.56C75.6528 124.667 75.8608 124.741 76.0955 124.784C76.3301 124.816 76.5808 124.832 76.8475 124.832C77.4555 124.832 77.8928 124.741 78.1595 124.56C78.4261 124.379 78.5595 124.112 78.5595 123.76C78.5595 123.483 78.4741 123.248 78.3035 123.056C78.1435 122.864 77.8075 122.725 77.2955 122.64C76.6341 122.523 76.0528 122.411 75.5515 122.304C75.0501 122.197 74.6288 122.053 74.2875 121.872C73.9461 121.68 73.6901 121.44 73.5195 121.152C73.3488 120.853 73.2635 120.453 73.2635 119.952C73.2635 119.568 73.3488 119.221 73.5195 118.912C73.6901 118.592 73.9248 118.325 74.2235 118.112C74.5328 117.888 74.8955 117.717 75.3115 117.6C75.7381 117.483 76.2021 117.424 76.7035 117.424C77.3435 117.424 77.8768 117.488 78.3035 117.616C78.7301 117.744 79.0768 117.92 79.3435 118.144C79.6101 118.368 79.8128 118.624 79.9515 118.912C80.0901 119.2 80.1968 119.504 80.2715 119.824L78.6395 120.048C78.5115 119.632 78.3141 119.323 78.0475 119.12C77.7915 118.917 77.3595 118.816 76.7515 118.816C76.3995 118.816 76.1115 118.848 75.8875 118.912C75.6635 118.976 75.4821 119.056 75.3435 119.152C75.2155 119.248 75.1248 119.355 75.0715 119.472C75.0288 119.589 75.0075 119.707 75.0075 119.824C75.0075 120.005 75.0288 120.155 75.0715 120.272C75.1141 120.389 75.1888 120.485 75.2955 120.56C75.4128 120.635 75.5675 120.699 75.7595 120.752C75.9515 120.805 76.1915 120.859 76.4795 120.912L77.5195 121.088C78.0741 121.184 78.5328 121.307 78.8955 121.456C79.2688 121.605 79.5621 121.792 79.7755 122.016C79.9995 122.229 80.1541 122.48 80.2395 122.768C80.3248 123.056 80.3675 123.376 80.3675 123.728C80.3675 124.485 80.0795 125.099 79.5035 125.568C78.9275 126.027 78.0528 126.256 76.8795 126.256C76.3995 126.256 75.9355 126.208 75.4875 126.112C75.0501 126.027 74.6555 125.877 74.3035 125.664C73.9515 125.451 73.6635 125.168 73.4395 124.816C73.2261 124.453 73.1035 124 73.0715 123.456H74.8155ZM81.0992 119.12V117.68H82.4112V115.44H84.2192V117.68H86.2832V119.12H84.2192V123.472C84.2192 123.899 84.3045 124.208 84.4752 124.4C84.6565 124.592 84.9178 124.688 85.2592 124.688C85.4405 124.688 85.6112 124.677 85.7712 124.656C85.9418 124.635 86.1072 124.597 86.2672 124.544L86.5392 125.904C86.0272 126.075 85.4725 126.16 84.8752 126.16C83.9578 126.16 83.3178 125.925 82.9552 125.456C82.5925 124.976 82.4112 124.261 82.4112 123.312V119.12H81.0992ZM91.1928 114.576H92.9848L98.2328 122.832V114.576H100.121V126H98.3288L93.0648 117.776V126H91.1928V114.576ZM106.08 122.112C105.536 122.144 105.093 122.203 104.752 122.288C104.421 122.373 104.165 122.485 103.984 122.624C103.802 122.752 103.68 122.907 103.616 123.088C103.562 123.259 103.536 123.445 103.536 123.648C103.536 124.011 103.648 124.293 103.872 124.496C104.106 124.699 104.448 124.8 104.896 124.8C105.696 124.8 106.288 124.597 106.672 124.192C107.056 123.787 107.248 123.237 107.248 122.544V122.064L106.08 122.112ZM107.28 124.912C106.97 125.285 106.592 125.595 106.144 125.84C105.696 126.085 105.152 126.208 104.512 126.208C104.117 126.208 103.749 126.155 103.408 126.048C103.066 125.952 102.768 125.803 102.512 125.6C102.266 125.397 102.069 125.141 101.92 124.832C101.781 124.512 101.712 124.139 101.712 123.712C101.712 123.136 101.84 122.672 102.096 122.32C102.352 121.957 102.682 121.675 103.088 121.472C103.504 121.269 103.968 121.131 104.48 121.056C104.992 120.971 105.504 120.917 106.016 120.896L107.248 120.832V120.48C107.248 119.851 107.093 119.419 106.784 119.184C106.485 118.939 106.09 118.816 105.6 118.816C105.034 118.816 104.613 118.912 104.336 119.104C104.069 119.296 103.893 119.573 103.808 119.936L102.144 119.76C102.293 118.949 102.661 118.357 103.248 117.984C103.834 117.611 104.64 117.424 105.664 117.424C106.325 117.424 106.869 117.509 107.296 117.68C107.733 117.851 108.08 118.085 108.336 118.384C108.592 118.683 108.768 119.04 108.864 119.456C108.97 119.861 109.024 120.309 109.024 120.8V126H107.28V124.912ZM112.644 117.68V118.88C113.22 118.08 113.903 117.616 114.692 117.488C114.895 117.456 115.108 117.44 115.332 117.44C115.897 117.461 116.356 117.605 116.708 117.872C117.06 118.128 117.316 118.48 117.476 118.928C118.212 117.925 119.119 117.424 120.196 117.424C121.081 117.424 121.732 117.669 122.148 118.16C122.564 118.651 122.772 119.435 122.772 120.512V126H120.948V121.008C120.948 120.603 120.921 120.267 120.868 120C120.815 119.733 120.735 119.525 120.628 119.376C120.532 119.216 120.404 119.109 120.244 119.056C120.084 118.992 119.903 118.96 119.7 118.96C119.38 118.96 119.097 119.019 118.852 119.136C118.607 119.253 118.399 119.408 118.228 119.6C118.068 119.792 117.945 120.011 117.86 120.256C117.775 120.491 117.732 120.736 117.732 120.992V126H115.908V120.832C115.908 120.117 115.796 119.627 115.572 119.36C115.359 119.093 115.06 118.96 114.676 118.96C114.516 118.96 114.324 118.997 114.1 119.072C113.876 119.136 113.657 119.248 113.444 119.408C113.241 119.568 113.065 119.781 112.916 120.048C112.767 120.315 112.692 120.64 112.692 121.024V126H110.884V117.68H112.644ZM132.03 123.536C131.881 124.4 131.513 125.072 130.926 125.552C130.339 126.021 129.497 126.256 128.398 126.256C127.075 126.256 126.067 125.877 125.374 125.12C124.691 124.352 124.35 123.275 124.35 121.888C124.35 121.173 124.446 120.539 124.638 119.984C124.841 119.429 125.118 118.965 125.47 118.592C125.833 118.208 126.259 117.92 126.75 117.728C127.251 117.525 127.801 117.424 128.398 117.424C129.038 117.424 129.593 117.525 130.062 117.728C130.531 117.92 130.921 118.197 131.23 118.56C131.539 118.912 131.769 119.339 131.918 119.84C132.067 120.331 132.142 120.88 132.142 121.488V122.288H126.174C126.195 123.045 126.387 123.659 126.75 124.128C127.113 124.597 127.662 124.832 128.398 124.832C128.974 124.832 129.406 124.72 129.694 124.496C129.982 124.272 130.174 123.952 130.27 123.536H132.03ZM130.366 121.024C130.366 120.341 130.206 119.803 129.886 119.408C129.566 119.013 129.054 118.816 128.35 118.816C127.678 118.816 127.166 119.019 126.814 119.424C126.462 119.819 126.259 120.352 126.206 121.024H130.366ZM57.152 143.576V153.32H62.816L62.576 155H55.216V143.576H57.152ZM68.0714 151.112C67.5274 151.144 67.0848 151.203 66.7434 151.288C66.4128 151.373 66.1568 151.485 65.9754 151.624C65.7941 151.752 65.6714 151.907 65.6074 152.088C65.5541 152.259 65.5274 152.445 65.5274 152.648C65.5274 153.011 65.6394 153.293 65.8634 153.496C66.0981 153.699 66.4394 153.8 66.8874 153.8C67.6874 153.8 68.2794 153.597 68.6634 153.192C69.0474 152.787 69.2394 152.237 69.2394 151.544V151.064L68.0714 151.112ZM69.2714 153.912C68.9621 154.285 68.5834 154.595 68.1354 154.84C67.6874 155.085 67.1434 155.208 66.5034 155.208C66.1088 155.208 65.7408 155.155 65.3994 155.048C65.0581 154.952 64.7594 154.803 64.5034 154.6C64.2581 154.397 64.0608 154.141 63.9114 153.832C63.7728 153.512 63.7034 153.139 63.7034 152.712C63.7034 152.136 63.8314 151.672 64.0874 151.32C64.3434 150.957 64.6741 150.675 65.0794 150.472C65.4954 150.269 65.9594 150.131 66.4714 150.056C66.9834 149.971 67.4954 149.917 68.0074 149.896L69.2394 149.832V149.48C69.2394 148.851 69.0848 148.419 68.7754 148.184C68.4768 147.939 68.0821 147.816 67.5914 147.816C67.0261 147.816 66.6048 147.912 66.3274 148.104C66.0608 148.296 65.8848 148.573 65.7994 148.936L64.1354 148.76C64.2848 147.949 64.6528 147.357 65.2394 146.984C65.8261 146.611 66.6314 146.424 67.6554 146.424C68.3168 146.424 68.8608 146.509 69.2874 146.68C69.7248 146.851 70.0714 147.085 70.3274 147.384C70.5834 147.683 70.7594 148.04 70.8554 148.456C70.9621 148.861 71.0154 149.309 71.0154 149.8V155H69.2714V153.912ZM74.124 152.456C74.156 152.733 74.2307 152.963 74.348 153.144C74.4654 153.315 74.6094 153.453 74.78 153.56C74.9614 153.667 75.1694 153.741 75.404 153.784C75.6387 153.816 75.8894 153.832 76.156 153.832C76.764 153.832 77.2014 153.741 77.468 153.56C77.7347 153.379 77.868 153.112 77.868 152.76C77.868 152.483 77.7827 152.248 77.612 152.056C77.452 151.864 77.116 151.725 76.604 151.64C75.9427 151.523 75.3614 151.411 74.86 151.304C74.3587 151.197 73.9374 151.053 73.596 150.872C73.2547 150.68 72.9987 150.44 72.828 150.152C72.6574 149.853 72.572 149.453 72.572 148.952C72.572 148.568 72.6574 148.221 72.828 147.912C72.9987 147.592 73.2334 147.325 73.532 147.112C73.8414 146.888 74.204 146.717 74.62 146.6C75.0467 146.483 75.5107 146.424 76.012 146.424C76.652 146.424 77.1854 146.488 77.612 146.616C78.0387 146.744 78.3854 146.92 78.652 147.144C78.9187 147.368 79.1214 147.624 79.26 147.912C79.3987 148.2 79.5054 148.504 79.58 148.824L77.948 149.048C77.82 148.632 77.6227 148.323 77.356 148.12C77.1 147.917 76.668 147.816 76.06 147.816C75.708 147.816 75.42 147.848 75.196 147.912C74.972 147.976 74.7907 148.056 74.652 148.152C74.524 148.248 74.4334 148.355 74.38 148.472C74.3374 148.589 74.316 148.707 74.316 148.824C74.316 149.005 74.3374 149.155 74.38 149.272C74.4227 149.389 74.4974 149.485 74.604 149.56C74.7214 149.635 74.876 149.699 75.068 149.752C75.26 149.805 75.5 149.859 75.788 149.912L76.828 150.088C77.3827 150.184 77.8414 150.307 78.204 150.456C78.5774 150.605 78.8707 150.792 79.084 151.016C79.308 151.229 79.4627 151.48 79.548 151.768C79.6334 152.056 79.676 152.376 79.676 152.728C79.676 153.485 79.388 154.099 78.812 154.568C78.236 155.027 77.3614 155.256 76.188 155.256C75.708 155.256 75.244 155.208 74.796 155.112C74.3587 155.027 73.964 154.877 73.612 154.664C73.26 154.451 72.972 154.168 72.748 153.816C72.5347 153.453 72.412 153 72.38 152.456H74.124ZM80.4077 148.12V146.68H81.7197V144.44H83.5277V146.68H85.5917V148.12H83.5277V152.472C83.5277 152.899 83.613 153.208 83.7837 153.4C83.965 153.592 84.2264 153.688 84.5677 153.688C84.749 153.688 84.9197 153.677 85.0797 153.656C85.2504 153.635 85.4157 153.597 85.5757 153.544L85.8477 154.904C85.3357 155.075 84.781 155.16 84.1837 155.16C83.2664 155.16 82.6264 154.925 82.2637 154.456C81.901 153.976 81.7197 153.261 81.7197 152.312V148.12H80.4077ZM90.5014 143.576H92.2934L97.5414 151.832V143.576H99.4294V155H97.6374L92.3734 146.776V155H90.5014V143.576ZM105.388 151.112C104.844 151.144 104.401 151.203 104.06 151.288C103.729 151.373 103.473 151.485 103.292 151.624C103.111 151.752 102.988 151.907 102.924 152.088C102.871 152.259 102.844 152.445 102.844 152.648C102.844 153.011 102.956 153.293 103.18 153.496C103.415 153.699 103.756 153.8 104.204 153.8C105.004 153.8 105.596 153.597 105.98 153.192C106.364 152.787 106.556 152.237 106.556 151.544V151.064L105.388 151.112ZM106.588 153.912C106.279 154.285 105.9 154.595 105.452 154.84C105.004 155.085 104.46 155.208 103.82 155.208C103.425 155.208 103.057 155.155 102.716 155.048C102.375 154.952 102.076 154.803 101.82 154.6C101.575 154.397 101.377 154.141 101.228 153.832C101.089 153.512 101.02 153.139 101.02 152.712C101.02 152.136 101.148 151.672 101.404 151.32C101.66 150.957 101.991 150.675 102.396 150.472C102.812 150.269 103.276 150.131 103.788 150.056C104.3 149.971 104.812 149.917 105.324 149.896L106.556 149.832V149.48C106.556 148.851 106.401 148.419 106.092 148.184C105.793 147.939 105.399 147.816 104.908 147.816C104.343 147.816 103.921 147.912 103.644 148.104C103.377 148.296 103.201 148.573 103.116 148.936L101.452 148.76C101.601 147.949 101.969 147.357 102.556 146.984C103.143 146.611 103.948 146.424 104.972 146.424C105.633 146.424 106.177 146.509 106.604 146.68C107.041 146.851 107.388 147.085 107.644 147.384C107.9 147.683 108.076 148.04 108.172 148.456C108.279 148.861 108.332 149.309 108.332 149.8V155H106.588V153.912ZM111.953 146.68V147.88C112.529 147.08 113.211 146.616 114.001 146.488C114.203 146.456 114.417 146.44 114.641 146.44C115.206 146.461 115.665 146.605 116.017 146.872C116.369 147.128 116.625 147.48 116.785 147.928C117.521 146.925 118.427 146.424 119.505 146.424C120.39 146.424 121.041 146.669 121.457 147.16C121.873 147.651 122.081 148.435 122.081 149.512V155H120.257V150.008C120.257 149.603 120.23 149.267 120.177 149C120.123 148.733 120.043 148.525 119.937 148.376C119.841 148.216 119.713 148.109 119.553 148.056C119.393 147.992 119.211 147.96 119.009 147.96C118.689 147.96 118.406 148.019 118.161 148.136C117.915 148.253 117.707 148.408 117.537 148.6C117.377 148.792 117.254 149.011 117.169 149.256C117.083 149.491 117.041 149.736 117.041 149.992V155H115.217V149.832C115.217 149.117 115.105 148.627 114.881 148.36C114.667 148.093 114.369 147.96 113.985 147.96C113.825 147.96 113.633 147.997 113.409 148.072C113.185 148.136 112.966 148.248 112.753 148.408C112.55 148.568 112.374 148.781 112.225 149.048C112.075 149.315 112.001 149.64 112.001 150.024V155H110.193V146.68H111.953ZM131.339 152.536C131.189 153.4 130.821 154.072 130.235 154.552C129.648 155.021 128.805 155.256 127.707 155.256C126.384 155.256 125.376 154.877 124.683 154.12C124 153.352 123.659 152.275 123.659 150.888C123.659 150.173 123.755 149.539 123.947 148.984C124.149 148.429 124.427 147.965 124.779 147.592C125.141 147.208 125.568 146.92 126.059 146.728C126.56 146.525 127.109 146.424 127.707 146.424C128.347 146.424 128.901 146.525 129.371 146.728C129.84 146.92 130.229 147.197 130.539 147.56C130.848 147.912 131.077 148.339 131.227 148.84C131.376 149.331 131.451 149.88 131.451 150.488V151.288H125.483C125.504 152.045 125.696 152.659 126.059 153.128C126.421 153.597 126.971 153.832 127.707 153.832C128.283 153.832 128.715 153.72 129.003 153.496C129.291 153.272 129.483 152.952 129.579 152.536H131.339ZM129.675 150.024C129.675 149.341 129.515 148.803 129.195 148.408C128.875 148.013 128.363 147.816 127.659 147.816C126.987 147.816 126.475 148.019 126.123 148.424C125.771 148.819 125.568 149.352 125.515 150.024H129.675Z" fill="#434A54"/>
<path d="M59.264 177.856C59.7013 177.856 60.064 177.813 60.352 177.728C60.64 177.632 60.864 177.504 61.024 177.344C61.1947 177.173 61.312 176.971 61.376 176.736C61.4507 176.501 61.488 176.24 61.488 175.952C61.488 175.685 61.4453 175.445 61.36 175.232C61.2853 175.008 61.152 174.821 60.96 174.672C60.7787 174.512 60.5333 174.389 60.224 174.304C59.9147 174.219 59.5307 174.176 59.072 174.176H57.12V177.856H59.264ZM59.12 172.576C59.984 172.576 60.6933 172.677 61.248 172.88C61.8133 173.083 62.256 173.349 62.576 173.68C62.9067 174 63.136 174.357 63.264 174.752C63.392 175.147 63.456 175.536 63.456 175.92C63.456 176.667 63.3067 177.291 63.008 177.792C62.72 178.293 62.2507 178.699 61.6 179.008L63.968 184H61.856L59.808 179.456C59.712 179.467 59.6107 179.477 59.504 179.488C59.3973 179.488 59.2853 179.488 59.168 179.488H57.12V184H55.216V172.576H59.12ZM72.2641 181.536C72.1147 182.4 71.7467 183.072 71.1601 183.552C70.5734 184.021 69.7307 184.256 68.6321 184.256C67.3094 184.256 66.3014 183.877 65.6081 183.12C64.9254 182.352 64.5841 181.275 64.5841 179.888C64.5841 179.173 64.6801 178.539 64.8721 177.984C65.0747 177.429 65.3521 176.965 65.7041 176.592C66.0667 176.208 66.4934 175.92 66.9841 175.728C67.4854 175.525 68.0347 175.424 68.6321 175.424C69.2721 175.424 69.8267 175.525 70.2961 175.728C70.7654 175.92 71.1547 176.197 71.4641 176.56C71.7734 176.912 72.0027 177.339 72.1521 177.84C72.3014 178.331 72.3761 178.88 72.3761 179.488V180.288H66.4081C66.4294 181.045 66.6214 181.659 66.9841 182.128C67.3467 182.597 67.8961 182.832 68.6321 182.832C69.2081 182.832 69.6401 182.72 69.9281 182.496C70.2161 182.272 70.4081 181.952 70.5041 181.536H72.2641ZM70.6001 179.024C70.6001 178.341 70.4401 177.803 70.1201 177.408C69.8001 177.013 69.2881 176.816 68.5841 176.816C67.9121 176.816 67.4001 177.019 67.0481 177.424C66.6961 177.819 66.4934 178.352 66.4401 179.024H70.6001ZM74.5286 177.12H73.2326V175.68H74.5286V175.2C74.5286 174.325 74.7686 173.648 75.2486 173.168C75.7286 172.688 76.3953 172.448 77.2486 172.448C77.814 172.448 78.3366 172.523 78.8166 172.672L78.5446 174.032C78.2246 173.936 77.9046 173.888 77.5846 173.888C77.19 173.888 76.886 173.995 76.6726 174.208C76.4593 174.421 76.3526 174.736 76.3526 175.152V175.68H78.3686V177.12H76.3526V184H74.5286V177.12ZM86.7407 181.536C86.5914 182.4 86.2234 183.072 85.6367 183.552C85.05 184.021 84.2074 184.256 83.1087 184.256C81.786 184.256 80.778 183.877 80.0847 183.12C79.402 182.352 79.0607 181.275 79.0607 179.888C79.0607 179.173 79.1567 178.539 79.3487 177.984C79.5514 177.429 79.8287 176.965 80.1807 176.592C80.5434 176.208 80.97 175.92 81.4607 175.728C81.962 175.525 82.5114 175.424 83.1087 175.424C83.7487 175.424 84.3034 175.525 84.7727 175.728C85.242 175.92 85.6314 176.197 85.9407 176.56C86.25 176.912 86.4794 177.339 86.6287 177.84C86.778 178.331 86.8527 178.88 86.8527 179.488V180.288H80.8847C80.906 181.045 81.098 181.659 81.4607 182.128C81.8234 182.597 82.3727 182.832 83.1087 182.832C83.6847 182.832 84.1167 182.72 84.4047 182.496C84.6927 182.272 84.8847 181.952 84.9807 181.536H86.7407ZM85.0767 179.024C85.0767 178.341 84.9167 177.803 84.5967 177.408C84.2767 177.013 83.7647 176.816 83.0607 176.816C82.3887 176.816 81.8767 177.019 81.5247 177.424C81.1727 177.819 80.97 178.352 80.9167 179.024H85.0767ZM90.2533 175.68V176.912C90.5413 176.475 90.888 176.139 91.2933 175.904C91.6986 175.669 92.1306 175.552 92.5893 175.552C92.7706 175.552 92.92 175.557 93.0373 175.568C93.1653 175.579 93.288 175.595 93.4053 175.616L93.1973 177.28C93.08 177.248 92.952 177.227 92.8133 177.216C92.6746 177.205 92.5306 177.2 92.3813 177.2C92.04 177.2 91.7413 177.259 91.4853 177.376C91.2293 177.483 91.0106 177.627 90.8293 177.808C90.6586 177.989 90.5253 178.197 90.4293 178.432C90.344 178.656 90.3013 178.885 90.3013 179.12V184H88.4933V175.68H90.2533ZM96.3979 175.68V176.912C96.6859 176.475 97.0325 176.139 97.4379 175.904C97.8432 175.669 98.2752 175.552 98.7339 175.552C98.9152 175.552 99.0645 175.557 99.1819 175.568C99.3099 175.579 99.4325 175.595 99.5499 175.616L99.3419 177.28C99.2245 177.248 99.0965 177.227 98.9579 177.216C98.8192 177.205 98.6752 177.2 98.5259 177.2C98.1845 177.2 97.8859 177.259 97.6299 177.376C97.3739 177.483 97.1552 177.627 96.9739 177.808C96.8032 177.989 96.6699 178.197 96.5739 178.432C96.4885 178.656 96.4459 178.885 96.4459 179.12V184H94.6379V175.68H96.3979ZM104.216 180.112C103.672 180.144 103.23 180.203 102.888 180.288C102.558 180.373 102.302 180.485 102.12 180.624C101.939 180.752 101.816 180.907 101.752 181.088C101.699 181.259 101.672 181.445 101.672 181.648C101.672 182.011 101.784 182.293 102.008 182.496C102.243 182.699 102.584 182.8 103.032 182.8C103.832 182.8 104.424 182.597 104.808 182.192C105.192 181.787 105.384 181.237 105.384 180.544V180.064L104.216 180.112ZM105.416 182.912C105.107 183.285 104.728 183.595 104.28 183.84C103.832 184.085 103.288 184.208 102.648 184.208C102.254 184.208 101.886 184.155 101.544 184.048C101.203 183.952 100.904 183.803 100.648 183.6C100.403 183.397 100.206 183.141 100.056 182.832C99.9175 182.512 99.8482 182.139 99.8482 181.712C99.8482 181.136 99.9762 180.672 100.232 180.32C100.488 179.957 100.819 179.675 101.224 179.472C101.64 179.269 102.104 179.131 102.616 179.056C103.128 178.971 103.64 178.917 104.152 178.896L105.384 178.832V178.48C105.384 177.851 105.23 177.419 104.92 177.184C104.622 176.939 104.227 176.816 103.736 176.816C103.171 176.816 102.75 176.912 102.472 177.104C102.206 177.296 102.03 177.573 101.944 177.936L100.28 177.76C100.43 176.949 100.798 176.357 101.384 175.984C101.971 175.611 102.776 175.424 103.8 175.424C104.462 175.424 105.006 175.509 105.432 175.68C105.87 175.851 106.216 176.085 106.472 176.384C106.728 176.683 106.904 177.04 107 177.456C107.107 177.861 107.16 178.309 107.16 178.8V184H105.416V182.912ZM110.861 172.576V184H109.037V172.576H110.861Z" fill="#CCD1D8"/>
<path d="M37.6519 185.23L30.7769 172.105C30.6691 171.899 30.3309 171.899 30.2234 172.105L23.3484 185.23C23.2975 185.327 23.3013 185.443 23.3578 185.537C23.4144 185.63 23.5156 185.687 23.625 185.687H37.375C37.4844 185.687 37.5856 185.63 37.6422 185.537C37.6987 185.443 37.7025 185.327 37.6519 185.23Z" fill="#D94553"/>
<path d="M30.1875 177.25C30.1875 177.078 30.3275 176.938 30.5 176.938C30.6725 176.938 30.8125 177.078 30.8125 177.25V181.312C30.8125 181.485 30.6725 181.625 30.5 181.625C30.3275 181.625 30.1875 181.485 30.1875 181.312V177.25ZM30.5 183.812C30.1547 183.812 29.875 183.533 29.875 183.188C29.875 182.842 30.1547 182.562 30.5 182.562C30.8453 182.562 31.125 182.842 31.125 183.188C31.125 183.533 30.8453 183.812 30.5 183.812Z" fill="white"/>
<rect width="400" height="1" transform="matrix(1 0 0 -1 4 61)" fill="#ECECEC"/>
<path d="M28.9167 96.2264L25.1903 92.5L25.75 91.9403L28.9167 95.1069L35.25 88.7736L35.8097 89.3333L28.9167 96.2264Z" fill="#8BC051"/>
<path d="M28.9167 125.226L25.1903 121.5L25.75 120.94L28.9167 124.107L35.25 117.774L35.8097 118.333L28.9167 125.226Z" fill="#8BC051"/>
<path d="M27.9167 154.226L24.1903 150.5L24.75 149.94L27.9167 153.107L34.25 146.774L34.8097 147.333L27.9167 154.226Z" fill="#8BC051"/>
<g filter="url(#filter1_d)">
<rect x="199" y="171" width="224" height="71" rx="4" fill="#D94553" stroke="#D94553" stroke-width="2"/>
<path d="M224.76 194.64H221.32V192.576H230.6V194.64H227.16V204H224.76V194.64ZM231.777 192.576H234.017V196.704C234.348 196.256 234.732 195.925 235.169 195.712C235.607 195.499 236.065 195.392 236.545 195.392C237.495 195.392 238.199 195.643 238.657 196.144C239.116 196.635 239.345 197.413 239.345 198.48V204H237.105V198.784C237.105 198.197 236.993 197.797 236.769 197.584C236.545 197.371 236.247 197.264 235.873 197.264C235.585 197.264 235.335 197.307 235.121 197.392C234.919 197.477 234.727 197.6 234.545 197.76C234.396 197.909 234.268 198.091 234.161 198.304C234.065 198.507 234.017 198.731 234.017 198.976V204H231.777V192.576ZM248.757 201.392C248.608 202.331 248.229 203.045 247.621 203.536C247.024 204.016 246.149 204.256 244.997 204.256C243.611 204.256 242.565 203.872 241.861 203.104C241.168 202.336 240.821 201.248 240.821 199.84C240.821 199.136 240.923 198.512 241.125 197.968C241.328 197.413 241.611 196.944 241.973 196.56C242.347 196.176 242.789 195.888 243.301 195.696C243.813 195.493 244.379 195.392 244.997 195.392C246.277 195.392 247.237 195.76 247.877 196.496C248.528 197.232 248.853 198.224 248.853 199.472V200.368H243.061C243.083 201.04 243.253 201.568 243.573 201.952C243.893 202.325 244.373 202.512 245.013 202.512C245.899 202.512 246.421 202.139 246.581 201.392H248.757ZM246.693 198.896C246.693 198.32 246.549 197.872 246.261 197.552C245.984 197.232 245.547 197.072 244.949 197.072C244.651 197.072 244.389 197.12 244.165 197.216C243.941 197.312 243.749 197.445 243.589 197.616C243.44 197.776 243.323 197.968 243.237 198.192C243.152 198.405 243.104 198.64 243.093 198.896H246.693ZM253.996 192.576H258.044C258.94 192.576 259.676 192.683 260.252 192.896C260.839 193.099 261.298 193.371 261.628 193.712C261.959 194.043 262.188 194.416 262.316 194.832C262.444 195.237 262.508 195.637 262.508 196.032C262.508 196.768 262.375 197.387 262.108 197.888C261.842 198.389 261.394 198.811 260.764 199.152L263.084 204H260.508L258.588 199.712H256.348V204H253.996V192.576ZM258.204 197.728C258.578 197.728 258.887 197.691 259.132 197.616C259.378 197.531 259.57 197.419 259.708 197.28C259.858 197.131 259.959 196.955 260.012 196.752C260.066 196.549 260.092 196.325 260.092 196.08C260.092 195.877 260.06 195.685 259.996 195.504C259.932 195.312 259.82 195.147 259.66 195.008C259.511 194.859 259.298 194.747 259.02 194.672C258.754 194.587 258.412 194.544 257.996 194.544H256.348V197.728H258.204ZM271.472 201.392C271.323 202.331 270.944 203.045 270.336 203.536C269.739 204.016 268.864 204.256 267.712 204.256C266.326 204.256 265.28 203.872 264.576 203.104C263.883 202.336 263.536 201.248 263.536 199.84C263.536 199.136 263.638 198.512 263.84 197.968C264.043 197.413 264.326 196.944 264.688 196.56C265.062 196.176 265.504 195.888 266.016 195.696C266.528 195.493 267.094 195.392 267.712 195.392C268.992 195.392 269.952 195.76 270.592 196.496C271.243 197.232 271.568 198.224 271.568 199.472V200.368H265.776C265.798 201.04 265.968 201.568 266.288 201.952C266.608 202.325 267.088 202.512 267.728 202.512C268.614 202.512 269.136 202.139 269.296 201.392H271.472ZM269.408 198.896C269.408 198.32 269.264 197.872 268.976 197.552C268.699 197.232 268.262 197.072 267.664 197.072C267.366 197.072 267.104 197.12 266.88 197.216C266.656 197.312 266.464 197.445 266.304 197.616C266.155 197.776 266.038 197.968 265.952 198.192C265.867 198.405 265.819 198.64 265.808 198.896H269.408ZM273.653 197.392H272.341V195.648H273.653V195.376C273.653 194.864 273.728 194.421 273.877 194.048C274.027 193.675 274.229 193.371 274.485 193.136C274.752 192.901 275.061 192.731 275.413 192.624C275.765 192.507 276.149 192.448 276.565 192.448C276.832 192.448 277.109 192.464 277.397 192.496C277.696 192.528 278 192.592 278.309 192.688L278.005 194.32C277.664 194.235 277.339 194.192 277.029 194.192C276.741 194.192 276.48 194.277 276.245 194.448C276.011 194.608 275.893 194.901 275.893 195.328V195.648H277.829V197.392H275.893V204H273.653V197.392ZM286.449 201.392C286.3 202.331 285.921 203.045 285.313 203.536C284.716 204.016 283.841 204.256 282.689 204.256C281.302 204.256 280.257 203.872 279.553 203.104C278.86 202.336 278.513 201.248 278.513 199.84C278.513 199.136 278.614 198.512 278.817 197.968C279.02 197.413 279.302 196.944 279.665 196.56C280.038 196.176 280.481 195.888 280.993 195.696C281.505 195.493 282.07 195.392 282.689 195.392C283.969 195.392 284.929 195.76 285.569 196.496C286.22 197.232 286.545 198.224 286.545 199.472V200.368H280.753C280.774 201.04 280.945 201.568 281.265 201.952C281.585 202.325 282.065 202.512 282.705 202.512C283.59 202.512 284.113 202.139 284.273 201.392H286.449ZM284.385 198.896C284.385 198.32 284.241 197.872 283.953 197.552C283.676 197.232 283.238 197.072 282.641 197.072C282.342 197.072 282.081 197.12 281.857 197.216C281.633 197.312 281.441 197.445 281.281 197.616C281.132 197.776 281.014 197.968 280.929 198.192C280.844 198.405 280.796 198.64 280.785 198.896H284.385ZM288.086 195.648H290.262V196.816C290.539 196.379 290.875 196.053 291.27 195.84C291.665 195.616 292.081 195.504 292.518 195.504C292.731 195.504 292.907 195.515 293.046 195.536C293.185 195.547 293.307 195.563 293.414 195.584L293.142 197.616C292.886 197.552 292.571 197.52 292.198 197.52C291.953 197.52 291.718 197.552 291.494 197.616C291.27 197.669 291.067 197.776 290.886 197.936C290.694 198.107 290.55 198.299 290.454 198.512C290.369 198.725 290.326 198.944 290.326 199.168V204H288.086V195.648ZM294.653 195.648H296.829V196.816C297.106 196.379 297.442 196.053 297.837 195.84C298.231 195.616 298.647 195.504 299.085 195.504C299.298 195.504 299.474 195.515 299.613 195.536C299.751 195.547 299.874 195.563 299.981 195.584L299.709 197.616C299.453 197.552 299.138 197.52 298.765 197.52C298.519 197.52 298.285 197.552 298.061 197.616C297.837 197.669 297.634 197.776 297.453 197.936C297.261 198.107 297.117 198.299 297.021 198.512C296.935 198.725 296.893 198.944 296.893 199.168V204H294.653V195.648ZM305.695 202.944C305.364 203.317 304.991 203.621 304.575 203.856C304.169 204.091 303.641 204.208 302.991 204.208C302.617 204.208 302.26 204.16 301.919 204.064C301.588 203.968 301.295 203.819 301.039 203.616C300.793 203.413 300.596 203.157 300.447 202.848C300.297 202.528 300.223 202.149 300.223 201.712C300.223 201.136 300.351 200.667 300.607 200.304C300.863 199.941 301.199 199.659 301.615 199.456C302.031 199.253 302.495 199.109 303.007 199.024C303.529 198.939 304.057 198.885 304.591 198.864L305.663 198.816V198.4C305.663 197.888 305.519 197.536 305.231 197.344C304.953 197.152 304.623 197.056 304.239 197.056C303.353 197.056 302.847 197.392 302.719 198.064L300.671 197.872C300.82 196.997 301.204 196.368 301.823 195.984C302.441 195.589 303.273 195.392 304.319 195.392C304.959 195.392 305.503 195.472 305.951 195.632C306.399 195.781 306.756 196 307.023 196.288C307.3 196.576 307.497 196.928 307.615 197.344C307.743 197.749 307.807 198.208 307.807 198.72V204H305.695V202.944ZM305.647 200.272L304.655 200.32C304.185 200.341 303.807 200.389 303.519 200.464C303.231 200.539 303.007 200.635 302.847 200.752C302.697 200.859 302.596 200.987 302.543 201.136C302.489 201.285 302.463 201.451 302.463 201.632C302.463 201.909 302.559 202.128 302.751 202.288C302.943 202.448 303.209 202.528 303.551 202.528C304.127 202.528 304.596 202.395 304.959 202.128C305.161 201.979 305.327 201.792 305.455 201.568C305.583 201.333 305.647 201.045 305.647 200.704V200.272ZM309.583 192.576H311.823V204H309.583V192.576ZM317.106 195.648H319.282V196.752C319.922 195.845 320.796 195.392 321.906 195.392C323.068 195.392 323.938 195.787 324.514 196.576C325.09 197.365 325.378 198.448 325.378 199.824C325.378 200.485 325.292 201.088 325.122 201.632C324.962 202.176 324.722 202.645 324.402 203.04C324.092 203.424 323.714 203.723 323.266 203.936C322.818 204.149 322.311 204.256 321.746 204.256C321.33 204.256 320.914 204.181 320.498 204.032C320.092 203.883 319.708 203.584 319.346 203.136V207.104H317.106V195.648ZM319.33 199.888C319.33 200.432 319.372 200.869 319.458 201.2C319.554 201.52 319.703 201.781 319.906 201.984C320.119 202.176 320.332 202.304 320.546 202.368C320.77 202.421 320.994 202.448 321.218 202.448C321.463 202.448 321.698 202.4 321.922 202.304C322.146 202.208 322.338 202.059 322.498 201.856C322.668 201.643 322.802 201.371 322.898 201.04C322.994 200.709 323.042 200.309 323.042 199.84C323.042 199.349 322.994 198.939 322.898 198.608C322.812 198.277 322.69 198.011 322.53 197.808C322.37 197.595 322.178 197.445 321.954 197.36C321.74 197.264 321.511 197.216 321.266 197.216C320.988 197.216 320.748 197.253 320.546 197.328C320.343 197.403 320.146 197.52 319.954 197.68C319.74 197.883 319.58 198.139 319.474 198.448C319.378 198.757 319.33 199.152 319.33 199.632V199.888ZM326.938 195.648H329.114V196.816C329.391 196.379 329.727 196.053 330.122 195.84C330.517 195.616 330.933 195.504 331.37 195.504C331.583 195.504 331.759 195.515 331.898 195.536C332.037 195.547 332.159 195.563 332.266 195.584L331.994 197.616C331.738 197.552 331.423 197.52 331.05 197.52C330.805 197.52 330.57 197.552 330.346 197.616C330.122 197.669 329.919 197.776 329.738 197.936C329.546 198.107 329.402 198.299 329.306 198.512C329.221 198.725 329.178 198.944 329.178 199.168V204H326.938V195.648ZM337.034 204.256C335.69 204.256 334.65 203.872 333.914 203.104C333.178 202.336 332.81 201.237 332.81 199.808C332.81 199.125 332.906 198.512 333.098 197.968C333.301 197.413 333.583 196.949 333.946 196.576C334.319 196.192 334.767 195.899 335.29 195.696C335.813 195.493 336.394 195.392 337.034 195.392C337.685 195.392 338.271 195.493 338.794 195.696C339.317 195.899 339.759 196.192 340.122 196.576C340.495 196.949 340.778 197.413 340.97 197.968C341.162 198.512 341.258 199.125 341.258 199.808C341.258 200.501 341.157 201.125 340.954 201.68C340.762 202.224 340.479 202.688 340.106 203.072C339.743 203.456 339.301 203.749 338.778 203.952C338.255 204.155 337.674 204.256 337.034 204.256ZM337.034 202.464C337.674 202.464 338.149 202.235 338.458 201.776C338.778 201.317 338.938 200.661 338.938 199.808C338.938 198.955 338.778 198.304 338.458 197.856C338.149 197.408 337.674 197.184 337.034 197.184C336.394 197.184 335.914 197.408 335.594 197.856C335.285 198.304 335.13 198.955 335.13 199.808C335.13 200.672 335.285 201.333 335.594 201.792C335.903 202.24 336.383 202.464 337.034 202.464ZM342.821 195.648H344.997V196.752C345.637 195.845 346.511 195.392 347.621 195.392C348.783 195.392 349.653 195.787 350.229 196.576C350.805 197.365 351.093 198.448 351.093 199.824C351.093 200.485 351.007 201.088 350.837 201.632C350.677 202.176 350.437 202.645 350.117 203.04C349.807 203.424 349.429 203.723 348.981 203.936C348.533 204.149 348.026 204.256 347.461 204.256C347.045 204.256 346.629 204.181 346.213 204.032C345.807 203.883 345.423 203.584 345.061 203.136V207.104H342.821V195.648ZM345.045 199.888C345.045 200.432 345.087 200.869 345.173 201.2C345.269 201.52 345.418 201.781 345.621 201.984C345.834 202.176 346.047 202.304 346.261 202.368C346.485 202.421 346.709 202.448 346.933 202.448C347.178 202.448 347.413 202.4 347.637 202.304C347.861 202.208 348.053 202.059 348.213 201.856C348.383 201.643 348.517 201.371 348.613 201.04C348.709 200.709 348.757 200.309 348.757 199.84C348.757 199.349 348.709 198.939 348.613 198.608C348.527 198.277 348.405 198.011 348.245 197.808C348.085 197.595 347.893 197.445 347.669 197.36C347.455 197.264 347.226 197.216 346.981 197.216C346.703 197.216 346.463 197.253 346.261 197.328C346.058 197.403 345.861 197.52 345.669 197.68C345.455 197.883 345.295 198.139 345.189 198.448C345.093 198.757 345.045 199.152 345.045 199.632V199.888ZM360.145 201.392C359.995 202.331 359.617 203.045 359.009 203.536C358.411 204.016 357.537 204.256 356.385 204.256C354.998 204.256 353.953 203.872 353.249 203.104C352.555 202.336 352.209 201.248 352.209 199.84C352.209 199.136 352.31 198.512 352.513 197.968C352.715 197.413 352.998 196.944 353.361 196.56C353.734 196.176 354.177 195.888 354.689 195.696C355.201 195.493 355.766 195.392 356.385 195.392C357.665 195.392 358.625 195.76 359.265 196.496C359.915 197.232 360.241 198.224 360.241 199.472V200.368H354.449C354.47 201.04 354.641 201.568 354.961 201.952C355.281 202.325 355.761 202.512 356.401 202.512C357.286 202.512 357.809 202.139 357.969 201.392H360.145ZM358.081 198.896C358.081 198.32 357.937 197.872 357.649 197.552C357.371 197.232 356.934 197.072 356.337 197.072C356.038 197.072 355.777 197.12 355.553 197.216C355.329 197.312 355.137 197.445 354.977 197.616C354.827 197.776 354.71 197.968 354.625 198.192C354.539 198.405 354.491 198.64 354.481 198.896H358.081ZM361.782 195.648H363.958V196.816C364.235 196.379 364.571 196.053 364.966 195.84C365.36 195.616 365.776 195.504 366.214 195.504C366.427 195.504 366.603 195.515 366.742 195.536C366.88 195.547 367.003 195.563 367.11 195.584L366.838 197.616C366.582 197.552 366.267 197.52 365.894 197.52C365.648 197.52 365.414 197.552 365.19 197.616C364.966 197.669 364.763 197.776 364.582 197.936C364.39 198.107 364.246 198.299 364.15 198.512C364.064 198.725 364.022 198.944 364.022 199.168V204H361.782V195.648ZM369.173 197.392H367.861V195.648H369.173V193.424H371.413V195.648H373.333V197.392H371.413V201.248C371.413 201.685 371.503 201.984 371.685 202.144C371.866 202.293 372.101 202.368 372.389 202.368C372.538 202.368 372.687 202.363 372.837 202.352C372.997 202.331 373.151 202.299 373.301 202.256L373.621 203.904C373.311 204 373.007 204.064 372.709 204.096C372.421 204.139 372.143 204.16 371.877 204.16C370.959 204.16 370.277 203.941 369.829 203.504C369.391 203.067 369.173 202.331 369.173 201.296V197.392ZM375.123 205.184C375.432 205.269 375.747 205.312 376.067 205.312C376.366 205.312 376.606 205.237 376.787 205.088C376.968 204.949 377.123 204.699 377.251 204.336L377.507 203.632L374.035 195.648H376.627L378.579 201.136L380.403 195.648H382.851L379.475 204.24C379.283 204.72 379.102 205.136 378.931 205.488C378.76 205.851 378.563 206.149 378.339 206.384C378.126 206.629 377.864 206.811 377.555 206.928C377.256 207.045 376.883 207.104 376.435 207.104C376.158 207.104 375.88 207.083 375.603 207.04C375.336 207.008 375.054 206.944 374.755 206.848L375.123 205.184ZM387.282 195.648H389.522V204H387.282V195.648ZM387.25 192.576H389.554V194.592H387.25V192.576ZM392.996 201.344C393.07 201.835 393.268 202.155 393.588 202.304C393.908 202.453 394.292 202.528 394.74 202.528C395.273 202.528 395.652 202.464 395.876 202.336C396.11 202.197 396.228 201.979 396.228 201.68C396.228 201.467 396.153 201.28 396.004 201.12C395.865 200.96 395.593 200.848 395.188 200.784L394.036 200.592C393.022 200.432 392.265 200.16 391.764 199.776C391.273 199.381 391.028 198.789 391.028 198C391.028 197.595 391.113 197.232 391.284 196.912C391.465 196.592 391.716 196.32 392.036 196.096C392.356 195.872 392.734 195.701 393.172 195.584C393.62 195.456 394.11 195.392 394.644 195.392C395.305 195.392 395.86 195.461 396.308 195.6C396.756 195.728 397.118 195.904 397.396 196.128C397.684 196.352 397.897 196.619 398.036 196.928C398.185 197.237 398.292 197.568 398.356 197.92L396.356 198.176C396.26 197.792 396.089 197.509 395.844 197.328C395.609 197.147 395.225 197.056 394.692 197.056C394.393 197.056 394.142 197.083 393.94 197.136C393.748 197.179 393.593 197.237 393.476 197.312C393.369 197.387 393.289 197.472 393.236 197.568C393.193 197.664 393.172 197.755 393.172 197.84C393.172 198.107 393.252 198.304 393.412 198.432C393.582 198.549 393.908 198.651 394.388 198.736L395.444 198.912C396.03 199.008 396.516 199.131 396.9 199.28C397.284 199.429 397.588 199.616 397.812 199.84C398.046 200.053 398.206 200.309 398.292 200.608C398.388 200.907 398.436 201.253 398.436 201.648C398.436 202.437 398.137 203.072 397.54 203.552C396.942 204.021 396.02 204.256 394.772 204.256C394.27 204.256 393.79 204.208 393.332 204.112C392.884 204.027 392.478 203.872 392.116 203.648C391.764 203.424 391.47 203.125 391.236 202.752C391.012 202.379 390.884 201.909 390.852 201.344H392.996ZM221.992 215.648H224.168V216.8C224.499 216.309 224.888 215.952 225.336 215.728C225.795 215.504 226.269 215.392 226.76 215.392C227.709 215.392 228.413 215.643 228.872 216.144C229.331 216.635 229.56 217.413 229.56 218.48V224H227.32V218.784C227.32 218.197 227.208 217.797 226.984 217.584C226.76 217.371 226.461 217.264 226.088 217.264C225.8 217.264 225.549 217.307 225.336 217.392C225.133 217.477 224.941 217.6 224.76 217.76C224.611 217.909 224.483 218.091 224.376 218.304C224.28 218.507 224.232 218.731 224.232 218.976V224H221.992V215.648ZM235.26 224.256C233.916 224.256 232.876 223.872 232.14 223.104C231.404 222.336 231.036 221.237 231.036 219.808C231.036 219.125 231.132 218.512 231.324 217.968C231.527 217.413 231.809 216.949 232.172 216.576C232.545 216.192 232.993 215.899 233.516 215.696C234.039 215.493 234.62 215.392 235.26 215.392C235.911 215.392 236.497 215.493 237.02 215.696C237.543 215.899 237.985 216.192 238.348 216.576C238.721 216.949 239.004 217.413 239.196 217.968C239.388 218.512 239.484 219.125 239.484 219.808C239.484 220.501 239.383 221.125 239.18 221.68C238.988 222.224 238.705 222.688 238.332 223.072C237.969 223.456 237.527 223.749 237.004 223.952C236.481 224.155 235.9 224.256 235.26 224.256ZM235.26 222.464C235.9 222.464 236.375 222.235 236.684 221.776C237.004 221.317 237.164 220.661 237.164 219.808C237.164 218.955 237.004 218.304 236.684 217.856C236.375 217.408 235.9 217.184 235.26 217.184C234.62 217.184 234.14 217.408 233.82 217.856C233.511 218.304 233.356 218.955 233.356 219.808C233.356 220.672 233.511 221.333 233.82 221.792C234.129 222.24 234.609 222.464 235.26 222.464ZM241.559 217.392H240.247V215.648H241.559V213.424H243.799V215.648H245.719V217.392H243.799V221.248C243.799 221.685 243.889 221.984 244.071 222.144C244.252 222.293 244.487 222.368 244.775 222.368C244.924 222.368 245.073 222.363 245.223 222.352C245.383 222.331 245.537 222.299 245.687 222.256L246.007 223.904C245.697 224 245.393 224.064 245.095 224.096C244.807 224.139 244.529 224.16 244.263 224.16C243.345 224.16 242.663 223.941 242.215 223.504C241.777 223.067 241.559 222.331 241.559 221.296V217.392ZM250.398 212.576H252.638V216.656C253.268 215.813 254.121 215.392 255.198 215.392C256.361 215.392 257.23 215.787 257.806 216.576C258.382 217.365 258.67 218.448 258.67 219.824C258.67 220.485 258.585 221.088 258.414 221.632C258.254 222.176 258.014 222.645 257.694 223.04C257.385 223.424 257.006 223.723 256.558 223.936C256.11 224.149 255.604 224.256 255.038 224.256C254.59 224.256 254.158 224.171 253.742 224C253.326 223.829 252.937 223.52 252.574 223.072V224H250.398V212.576ZM252.622 219.888C252.622 220.432 252.665 220.869 252.75 221.2C252.846 221.52 252.996 221.781 253.198 221.984C253.412 222.176 253.625 222.304 253.838 222.368C254.062 222.421 254.286 222.448 254.51 222.448C254.756 222.448 254.99 222.4 255.214 222.304C255.438 222.208 255.63 222.059 255.79 221.856C255.961 221.643 256.094 221.371 256.19 221.04C256.286 220.709 256.334 220.309 256.334 219.84C256.334 219.349 256.286 218.939 256.19 218.608C256.105 218.277 255.982 218.011 255.822 217.808C255.662 217.595 255.47 217.445 255.246 217.36C255.033 217.264 254.804 217.216 254.558 217.216C254.281 217.216 254.041 217.253 253.838 217.328C253.636 217.403 253.438 217.52 253.246 217.68C253.033 217.883 252.873 218.139 252.766 218.448C252.67 218.757 252.622 219.152 252.622 219.632V219.888ZM267.722 221.392C267.573 222.331 267.194 223.045 266.586 223.536C265.989 224.016 265.114 224.256 263.962 224.256C262.576 224.256 261.53 223.872 260.826 223.104C260.133 222.336 259.786 221.248 259.786 219.84C259.786 219.136 259.888 218.512 260.09 217.968C260.293 217.413 260.576 216.944 260.938 216.56C261.312 216.176 261.754 215.888 262.266 215.696C262.778 215.493 263.344 215.392 263.962 215.392C265.242 215.392 266.202 215.76 266.842 216.496C267.493 217.232 267.818 218.224 267.818 219.472V220.368H262.026C262.048 221.04 262.218 221.568 262.538 221.952C262.858 222.325 263.338 222.512 263.978 222.512C264.864 222.512 265.386 222.139 265.546 221.392H267.722ZM265.658 218.896C265.658 218.32 265.514 217.872 265.226 217.552C264.949 217.232 264.512 217.072 263.914 217.072C263.616 217.072 263.354 217.12 263.13 217.216C262.906 217.312 262.714 217.445 262.554 217.616C262.405 217.776 262.288 217.968 262.202 218.192C262.117 218.405 262.069 218.64 262.058 218.896H265.658ZM269.375 215.648H271.615V224H269.375V215.648ZM269.343 212.576H271.647V214.592H269.343V212.576ZM273.473 215.648H275.649V216.8C275.979 216.309 276.369 215.952 276.817 215.728C277.275 215.504 277.75 215.392 278.241 215.392C279.19 215.392 279.894 215.643 280.353 216.144C280.811 216.635 281.041 217.413 281.041 218.48V224H278.801V218.784C278.801 218.197 278.689 217.797 278.465 217.584C278.241 217.371 277.942 217.264 277.569 217.264C277.281 217.264 277.03 217.307 276.817 217.392C276.614 217.477 276.422 217.6 276.241 217.76C276.091 217.909 275.963 218.091 275.857 218.304C275.761 218.507 275.713 218.731 275.713 218.976V224H273.473V215.648ZM285.141 224.528C285.183 224.741 285.242 224.912 285.317 225.04C285.402 225.168 285.509 225.269 285.637 225.344C285.775 225.419 285.935 225.467 286.117 225.488C286.309 225.52 286.538 225.536 286.805 225.536C287.221 225.536 287.546 225.456 287.781 225.296C288.015 225.147 288.186 224.944 288.293 224.688C288.41 224.432 288.479 224.139 288.501 223.808C288.533 223.477 288.549 223.136 288.549 222.784V222.528C288.271 222.933 287.914 223.243 287.477 223.456C287.05 223.659 286.565 223.76 286.021 223.76C284.847 223.76 283.967 223.381 283.381 222.624C282.805 221.867 282.517 220.848 282.517 219.568C282.517 218.96 282.597 218.4 282.757 217.888C282.927 217.376 283.167 216.939 283.477 216.576C283.786 216.203 284.165 215.915 284.613 215.712C285.071 215.499 285.583 215.392 286.149 215.392C286.597 215.392 287.029 215.477 287.445 215.648C287.871 215.819 288.261 216.133 288.613 216.592V215.648H290.789V222.832C290.789 223.536 290.714 224.16 290.565 224.704C290.426 225.259 290.197 225.728 289.877 226.112C289.567 226.496 289.157 226.784 288.645 226.976C288.143 227.179 287.53 227.28 286.805 227.28C286.133 227.28 285.557 227.221 285.077 227.104C284.607 226.997 284.218 226.827 283.909 226.592C283.599 226.368 283.359 226.08 283.189 225.728C283.029 225.387 282.922 224.987 282.869 224.528H285.141ZM288.565 219.536C288.565 219.035 288.506 218.629 288.389 218.32C288.282 218.011 288.138 217.776 287.957 217.616C287.775 217.445 287.573 217.333 287.349 217.28C287.125 217.227 286.901 217.2 286.677 217.2C286.431 217.2 286.197 217.243 285.973 217.328C285.759 217.413 285.567 217.552 285.397 217.744C285.237 217.936 285.109 218.181 285.013 218.48C284.917 218.779 284.869 219.136 284.869 219.552C284.869 220.437 285.034 221.067 285.365 221.44C285.706 221.803 286.127 221.984 286.629 221.984C286.906 221.984 287.162 221.947 287.397 221.872C287.642 221.787 287.85 221.659 288.021 221.488C288.191 221.307 288.325 221.077 288.421 220.8C288.517 220.512 288.565 220.165 288.565 219.76V219.536ZM297.679 221.344C297.753 221.835 297.951 222.155 298.271 222.304C298.591 222.453 298.975 222.528 299.423 222.528C299.956 222.528 300.335 222.464 300.559 222.336C300.793 222.197 300.911 221.979 300.911 221.68C300.911 221.467 300.836 221.28 300.687 221.12C300.548 220.96 300.276 220.848 299.871 220.784L298.719 220.592C297.705 220.432 296.948 220.16 296.447 219.776C295.956 219.381 295.711 218.789 295.711 218C295.711 217.595 295.796 217.232 295.967 216.912C296.148 216.592 296.399 216.32 296.719 216.096C297.039 215.872 297.417 215.701 297.855 215.584C298.303 215.456 298.793 215.392 299.327 215.392C299.988 215.392 300.543 215.461 300.991 215.6C301.439 215.728 301.801 215.904 302.079 216.128C302.367 216.352 302.58 216.619 302.719 216.928C302.868 217.237 302.975 217.568 303.039 217.92L301.039 218.176C300.943 217.792 300.772 217.509 300.527 217.328C300.292 217.147 299.908 217.056 299.375 217.056C299.076 217.056 298.825 217.083 298.623 217.136C298.431 217.179 298.276 217.237 298.159 217.312C298.052 217.387 297.972 217.472 297.919 217.568C297.876 217.664 297.855 217.755 297.855 217.84C297.855 218.107 297.935 218.304 298.095 218.432C298.265 218.549 298.591 218.651 299.071 218.736L300.127 218.912C300.713 219.008 301.199 219.131 301.583 219.28C301.967 219.429 302.271 219.616 302.495 219.84C302.729 220.053 302.889 220.309 302.975 220.608C303.071 220.907 303.119 221.253 303.119 221.648C303.119 222.437 302.82 223.072 302.223 223.552C301.625 224.021 300.703 224.256 299.455 224.256C298.953 224.256 298.473 224.208 298.015 224.112C297.567 224.027 297.161 223.872 296.799 223.648C296.447 223.424 296.153 223.125 295.919 222.752C295.695 222.379 295.567 221.909 295.535 221.344H297.679ZM312.012 221.392C311.862 222.331 311.484 223.045 310.876 223.536C310.278 224.016 309.404 224.256 308.252 224.256C306.865 224.256 305.82 223.872 305.116 223.104C304.422 222.336 304.076 221.248 304.076 219.84C304.076 219.136 304.177 218.512 304.38 217.968C304.582 217.413 304.865 216.944 305.228 216.56C305.601 216.176 306.044 215.888 306.556 215.696C307.068 215.493 307.633 215.392 308.252 215.392C309.532 215.392 310.492 215.76 311.132 216.496C311.782 217.232 312.108 218.224 312.108 219.472V220.368H306.316C306.337 221.04 306.508 221.568 306.828 221.952C307.148 222.325 307.628 222.512 308.268 222.512C309.153 222.512 309.676 222.139 309.836 221.392H312.012ZM309.948 218.896C309.948 218.32 309.804 217.872 309.516 217.552C309.238 217.232 308.801 217.072 308.204 217.072C307.905 217.072 307.644 217.12 307.42 217.216C307.196 217.312 307.004 217.445 306.844 217.616C306.694 217.776 306.577 217.968 306.492 218.192C306.406 218.405 306.358 218.64 306.348 218.896H309.948ZM313.649 215.648H315.825V216.8C316.155 216.309 316.545 215.952 316.993 215.728C317.451 215.504 317.926 215.392 318.417 215.392C319.366 215.392 320.07 215.643 320.529 216.144C320.987 216.635 321.217 217.413 321.217 218.48V224H318.977V218.784C318.977 218.197 318.865 217.797 318.641 217.584C318.417 217.371 318.118 217.264 317.745 217.264C317.457 217.264 317.206 217.307 316.993 217.392C316.79 217.477 316.598 217.6 316.417 217.76C316.267 217.909 316.139 218.091 316.033 218.304C315.937 218.507 315.889 218.731 315.889 218.976V224H313.649V215.648ZM323.493 217.392H322.181V215.648H323.493V213.424H325.733V215.648H327.653V217.392H325.733V221.248C325.733 221.685 325.823 221.984 326.005 222.144C326.186 222.293 326.421 222.368 326.709 222.368C326.858 222.368 327.007 222.363 327.157 222.352C327.317 222.331 327.471 222.299 327.621 222.256L327.941 223.904C327.631 224 327.327 224.064 327.029 224.096C326.741 224.139 326.463 224.16 326.197 224.16C325.279 224.16 324.597 223.941 324.149 223.504C323.711 223.067 323.493 222.331 323.493 221.296V217.392ZM328.907 212.576H331.307L331.147 220.384H329.067L328.907 212.576ZM329.003 221.456H331.211V224H329.003V221.456Z" fill="white"/>
</g>
<defs>
<filter id="filter0_d" x="0" y="0" width="408" height="226" filterUnits="userSpaceOnUse" color-interpolation-filters="sRGB">
<feFlood flood-opacity="0" result="BackgroundImageFix"/>
<feColorMatrix in="SourceAlpha" type="matrix" values="0 0 0 0 0 0 0 0 0 0 0 0 0 0 0 0 0 0 127 0"/>
<feOffset dy="4"/>
<feGaussianBlur stdDeviation="2"/>
<feColorMatrix type="matrix" values="0 0 0 0 0 0 0 0 0 0 0 0 0 0 0 0 0 0 0.05 0"/>
<feBlend mode="normal" in2="BackgroundImageFix" result="effect1_dropShadow"/>
<feBlend mode="normal" in="SourceGraphic" in2="effect1_dropShadow" result="shape"/>
</filter>
<filter id="filter1_d" x="194" y="170" width="234" height="81" filterUnits="userSpaceOnUse" color-interpolation-filters="sRGB">
<feFlood flood-opacity="0" result="BackgroundImageFix"/>
<feColorMatrix in="SourceAlpha" type="matrix" values="0 0 0 0 0 0 0 0 0 0 0 0 0 0 0 0 0 0 127 0"/>
<feOffset dy="4"/>
<feGaussianBlur stdDeviation="2"/>
<feColorMatrix type="matrix" values="0 0 0 0 0 0 0 0 0 0 0 0 0 0 0 0 0 0 0.05 0"/>
<feBlend mode="normal" in2="BackgroundImageFix" result="effect1_dropShadow"/>
<feBlend mode="normal" in="SourceGraphic" in2="effect1_dropShadow" result="shape"/>
</filter>
</defs>
</svg>
