<svg width="150" height="50" viewBox="0 0 150 50" fill="none" xmlns="http://www.w3.org/2000/svg">
<g clip-path="url(#clip0)">
<path d="M6.87024 49.1089C10.4692 49.1089 13.3868 46.1913 13.3868 42.5923C13.3868 38.9934 10.4692 36.0758 6.87024 36.0758C3.27126 36.0758 0.353706 38.9934 0.353706 42.5923C0.353706 46.1913 3.27126 49.1089 6.87024 49.1089Z" fill="#33547D"/>
<path d="M30.3934 47.2728C32.939 47.2728 35.0026 45.2092 35.0026 42.6636C35.0026 40.118 32.939 38.0544 30.3934 38.0544C27.8479 38.0544 25.7843 40.118 25.7843 42.6636C25.7843 45.2092 27.8479 47.2728 30.3934 47.2728Z" fill="#33547D"/>
<path d="M49.7839 44.7562C50.9396 44.7562 51.8765 43.8193 51.8765 42.6636C51.8765 41.5079 50.9396 40.571 49.7839 40.571C48.6282 40.571 47.6913 41.5079 47.6913 42.6636C47.6913 43.8193 48.6282 44.7562 49.7839 44.7562Z" fill="#33547D"/>
<path d="M29.1519 28.9398C28.0062 28.9398 27.1576 28.049 27.1576 26.9455V18.4588C27.1576 15.5309 25.7573 13.282 22.6172 13.282C19.4772 13.282 17.5677 15.7007 17.5677 18.5016V26.9455C17.5677 28.049 16.8039 28.9398 15.5733 28.9398C14.3852 28.9398 13.5789 28.049 13.5789 26.9455V18.4588C13.5789 15.5309 12.0513 13.282 8.91128 13.282C5.68636 13.282 3.98903 15.7007 3.98903 18.5016V26.9455C3.98903 28.049 3.1828 28.9398 1.99467 28.9398C0.848665 28.9398 0 28.049 0 26.9455V11.8817C0 10.6935 0.763798 9.84488 1.99436 9.84488C3.35223 9.84488 3.98873 10.7784 3.98873 11.8817V13.2395C5.13442 10.9906 7.46825 9.67515 9.97181 9.67515C13.027 9.67515 15.3184 11.2027 16.4641 13.4517C18.119 10.9057 20.5377 9.67515 23.5505 9.67515C28.6849 9.67515 31.146 13.1971 31.146 18.1618V26.9452C31.1457 28.049 30.3401 28.9398 29.1519 28.9398V28.9398ZM36.7475 2.29177C38.0205 2.29177 39.0813 3.3526 39.0813 4.62559C39.0813 5.89859 38.0205 6.95942 36.7475 6.95942C35.4745 6.95942 34.4137 5.89859 34.4137 4.62559C34.4137 3.3526 35.4745 2.29177 36.7475 2.29177V2.29177ZM36.7475 28.9398C35.5594 28.9398 34.7531 28.049 34.7531 26.9455V11.8392C34.7531 10.736 35.6018 9.84488 36.7475 9.84488C37.8932 9.84488 38.7419 10.736 38.7419 11.8392V26.9455C38.7413 28.049 37.9356 28.9398 36.7475 28.9398ZM49.9858 16.7191L55.0353 10.4389C55.3748 10.057 55.7991 9.84488 56.3507 9.84488C57.454 9.84488 58.1754 10.5662 58.1754 11.5846C58.1754 11.9665 58.0481 12.3484 57.7086 12.7303L52.1499 19.3499L57.7935 26.0116C58.0905 26.3511 58.2602 26.6906 58.2602 27.1998C58.2602 28.1763 57.4116 28.9395 56.478 28.9395C55.884 28.9395 55.4172 28.7274 55.0777 28.3024L49.9858 21.9805L44.8938 28.3024C44.5543 28.7265 44.0875 28.9395 43.4935 28.9395C42.5599 28.9395 41.7113 28.1754 41.7113 27.1998C41.7113 26.6906 41.881 26.3511 42.178 26.0116L47.8217 19.3499L42.2629 12.7306C41.9234 12.3481 41.7961 11.9665 41.7961 11.5849C41.7961 10.5666 42.5175 9.84519 43.6208 9.84519C44.1724 9.84519 44.5967 10.0574 44.9362 10.4393L49.9858 16.7191ZM71.754 29.1099C68.911 29.1099 66.5772 27.6253 65.2193 25.4609V34.8811C65.2193 35.9847 64.4131 36.8749 63.2249 36.8749C62.0368 36.8749 61.2306 35.9844 61.2306 34.8811V11.8392C61.2306 10.736 61.9095 9.84488 63.1401 9.84488C64.3706 9.84488 65.092 10.7784 65.092 11.8817V13.325C66.365 11.1185 68.911 9.67576 71.754 9.67576C76.6338 9.67576 80.6226 13.7487 80.6226 19.393C80.6226 25.2482 76.6338 29.1099 71.754 29.1099ZM70.9481 12.9852C67.511 12.9852 65.2196 15.9974 65.2196 19.3927C65.2196 22.7879 67.511 25.8001 70.9481 25.8001C74.3852 25.8001 76.6338 23.212 76.6338 19.3927C76.6338 15.5737 74.3849 12.9852 70.9481 12.9852ZM101.669 26.9455C101.669 28.049 100.906 28.9398 99.6751 28.9398C98.487 28.9398 97.7238 28.049 97.7238 26.9455V26.0119C96.5356 27.7941 94.2867 29.1099 91.5291 29.1099C85.5873 29.1099 82.1511 24.782 82.1511 19.3924C82.1511 14.0882 85.9707 9.67515 91.9532 9.67515C98.0635 9.67515 101.671 13.6639 101.671 19.3924V26.9455H101.669V26.9455ZM91.9098 13.0698C88.5148 13.0698 86.1386 15.9134 86.1386 19.3924C86.1386 23.0416 88.1329 25.7149 91.9098 25.7149C95.4315 25.7149 97.6804 22.7022 97.6804 19.3924C97.6804 15.4885 95.3045 13.0698 91.9098 13.0698ZM113.678 9.67576C118.812 9.67576 122.589 13.5796 122.589 18.5443V26.9458C122.589 27.2078 122.538 27.4673 122.438 27.7095C122.338 27.9516 122.191 28.1716 122.005 28.3569C121.82 28.5422 121.6 28.6891 121.358 28.7891C121.116 28.8892 120.856 28.9405 120.594 28.9401C120.332 28.9405 120.073 28.8891 119.831 28.789C119.589 28.6889 119.369 28.542 119.183 28.3567C118.998 28.1715 118.851 27.9515 118.751 27.7094C118.651 27.4673 118.6 27.2078 118.6 26.9458V18.0772C118.6 15.4039 116.478 13.3247 113.678 13.3247C110.878 13.3247 108.798 15.4033 108.798 18.0772V26.9458C108.798 27.2078 108.747 27.4673 108.647 27.7095C108.547 27.9516 108.4 28.1716 108.215 28.3569C108.029 28.5422 107.809 28.6891 107.567 28.7891C107.325 28.8892 107.066 28.9405 106.804 28.9401C106.542 28.9405 106.282 28.8891 106.04 28.789C105.798 28.6889 105.578 28.542 105.393 28.3567C105.207 28.1715 105.06 27.9515 104.96 27.7094C104.86 27.4673 104.809 27.2078 104.809 26.9458V18.544C104.809 13.5793 108.543 9.67576 113.678 9.67576V9.67576ZM143.338 19.4348C143.338 20.1137 142.956 20.7927 141.811 20.7927H129.124C129.336 23.7206 131.33 25.9268 134.852 25.9268C137.058 25.9268 138.374 25.1627 139.774 23.8476C140.114 23.5081 140.58 23.2104 141.089 23.2104C141.98 23.2104 142.745 23.8476 142.745 24.8656C142.745 25.2894 142.532 25.6713 142.235 26.0107C140.623 27.8778 137.737 29.109 134.682 29.109C128.359 29.109 125.007 24.6953 125.007 19.3911C125.007 13.8324 129.038 9.67394 134.512 9.67394C139.859 9.67576 143.338 14.0033 143.338 19.4348V19.4348ZM134.512 12.8582C131.585 12.8582 129.59 14.9369 129.208 17.5683H139.647C139.307 15.0217 137.398 12.8582 134.512 12.8582ZM148.006 28.9398C146.817 28.9398 146.012 28.049 146.012 26.9455V1.99534C146.012 0.891468 146.818 0.000976562 148.006 0.000976562C149.194 0.000976562 150 0.891468 150 1.99534V26.9455C150 28.049 149.194 28.9398 148.006 28.9398V28.9398Z" fill="#33547D"/>
</g>
<defs>
<clipPath id="clip0">
<rect width="150" height="49.1089" fill="white"/>
</clipPath>
</defs>
</svg>
