<?xml version="1.0" encoding="UTF-8" standalone="no"?>
<svg
   xmlns:dc="http://purl.org/dc/elements/1.1/"
   xmlns:cc="http://creativecommons.org/ns#"
   xmlns:rdf="http://www.w3.org/1999/02/22-rdf-syntax-ns#"
   xmlns:svg="http://www.w3.org/2000/svg"
   xmlns="http://www.w3.org/2000/svg"
   xmlns:sodipodi="http://sodipodi.sourceforge.net/DTD/sodipodi-0.dtd"
   xmlns:inkscape="http://www.inkscape.org/namespaces/inkscape"
   version="1.1"
   viewBox="0 0 579.99999 165.852"
   height="165.85201"
   width="580"
   id="svg5422"
   sodipodi:docname="Nasdaq_logo.svg"
   inkscape:version="0.92.3 (2405546, 2018-03-11)">
  <metadata
     id="metadata5426">
    <rdf:RDF>
      <cc:Work
         rdf:about="">
        <dc:format>image/svg+xml</dc:format>
        <dc:type
           rdf:resource="http://purl.org/dc/dcmitype/StillImage" />
        <dc:title></dc:title>
      </cc:Work>
    </rdf:RDF>
  </metadata>
  <sodipodi:namedview
     pagecolor="#ffffff"
     bordercolor="#666666"
     borderopacity="1"
     objecttolerance="10"
     gridtolerance="10"
     guidetolerance="10"
     inkscape:pageopacity="0"
     inkscape:pageshadow="2"
     inkscape:window-width="1360"
     inkscape:window-height="706"
     id="namedview5424"
     showgrid="false"
     inkscape:zoom="0.33469721"
     inkscape:cx="911.42046"
     inkscape:cy="-126.93143"
     inkscape:window-x="-8"
     inkscape:window-y="-8"
     inkscape:window-maximized="1"
     inkscape:current-layer="svg5422" />
  <defs
     id="defs5342">
    <clipPath
       clipPathUnits="userSpaceOnUse"
       id="clipPath4158">
      <path
         d="M 0,0 H 396 V 612 H 0 Z"
         id="path5285"
         inkscape:connector-curvature="0" />
    </clipPath>
    <clipPath
       clipPathUnits="userSpaceOnUse"
       id="clipPath4166">
      <path
         d="M 170.2,622 H 406 V -10 H 170.2 Z"
         id="path5288"
         inkscape:connector-curvature="0" />
    </clipPath>
    <linearGradient
       x1="0"
       y1="0"
       x2="1"
       y2="0"
       gradientUnits="userSpaceOnUse"
       gradientTransform="matrix(7.2328009,19.870306,19.870306,-9e-7,47.507897,20.967988)"
       spreadMethod="pad"
       id="linearGradient4234">
      <stop
         style="stop-opacity:1;stop-color:#a7a5a6"
         offset="0"
         id="stop5291" />
      <stop
         style="stop-opacity:1;stop-color:#e0e0e0"
         offset="0.190184"
         id="stop5293" />
      <stop
         style="stop-opacity:1;stop-color:#e0e0e0"
         offset="0.28055154"
         id="stop5295" />
      <stop
         style="stop-opacity:1;stop-color:#7b7979"
         offset="0.361963"
         id="stop5297" />
      <stop
         style="stop-opacity:1;stop-color:#f6f6f6"
         offset="0.4692972"
         id="stop5299" />
      <stop
         style="stop-opacity:1;stop-color:#f6f6f6"
         offset="0.570552"
         id="stop5301" />
      <stop
         style="stop-opacity:1;stop-color:#f6f6f6"
         offset="0.91371851"
         id="stop5303" />
      <stop
         style="stop-opacity:1;stop-color:#bbbaba"
         offset="1"
         id="stop5305" />
    </linearGradient>
    <clipPath
       clipPathUnits="userSpaceOnUse"
       id="clipPath4258">
      <path
         d="m 28.52,14.338 h 92.675 V 40.839 H 28.52 Z"
         id="path5308"
         inkscape:connector-curvature="0" />
    </clipPath>
    <linearGradient
       x1="0"
       y1="0"
       x2="1"
       y2="0"
       gradientUnits="userSpaceOnUse"
       gradientTransform="matrix(-7.2323388,-19.869011,-19.869011,9e-7,39.896728,34.206755)"
       spreadMethod="pad"
       id="linearGradient4278">
      <stop
         style="stop-opacity:1;stop-color:#bbbaba"
         offset="0"
         id="stop5311" />
      <stop
         style="stop-opacity:1;stop-color:#f6f6f6"
         offset="0.07387683"
         id="stop5313" />
      <stop
         style="stop-opacity:1;stop-color:#f6f6f6"
         offset="0.141104"
         id="stop5315" />
      <stop
         style="stop-opacity:1;stop-color:#f6f6f6"
         offset="0.22501668"
         id="stop5317" />
      <stop
         style="stop-opacity:1;stop-color:#7b7979"
         offset="0.300613"
         id="stop5319" />
      <stop
         style="stop-opacity:1;stop-color:#e0e0e0"
         offset="0.3890063"
         id="stop5321" />
      <stop
         style="stop-opacity:1;stop-color:#e0e0e0"
         offset="0.472393"
         id="stop5323" />
      <stop
         style="stop-opacity:1;stop-color:#a7a5a6"
         offset="0.87012469"
         id="stop5325" />
      <stop
         style="stop-opacity:1;stop-color:#a7a5a6"
         offset="1"
         id="stop5327" />
    </linearGradient>
    <linearGradient
       x1="0"
       y1="0"
       x2="1"
       y2="0"
       gradientUnits="userSpaceOnUse"
       gradientTransform="matrix(-6e-7,-13.23905,-13.23905,6e-7,43.702273,34.206755)"
       spreadMethod="pad"
       id="linearGradient4312">
      <stop
         style="stop-opacity:1;stop-color:#009ec5"
         offset="0"
         id="stop5330" />
      <stop
         style="stop-opacity:1;stop-color:#009ec5"
         offset="0.325153"
         id="stop5332" />
      <stop
         style="stop-opacity:1;stop-color:#addfe8"
         offset="0.93865"
         id="stop5334" />
      <stop
         style="stop-opacity:1;stop-color:#addfe8"
         offset="1"
         id="stop5336" />
    </linearGradient>
    <clipPath
       clipPathUnits="userSpaceOnUse"
       id="clipPath4328">
      <path
         d="m 28.52,14.338 h 92.675 V 40.839 H 28.52 Z"
         id="path5339"
         inkscape:connector-curvature="0" />
    </clipPath>
  </defs>
  <g
     transform="translate(-9.999968,-876.51019)"
     id="g5420">
    <g
       transform="matrix(5.006771,0,0,5.006771,-3506.9354,-4449.7637)"
       id="g5418">
      <g
         transform="matrix(1.25,0,0,-1.25,666.78571,1114.8622)"
         id="g5348">
        <g
           id="g5346">
          <path
             d="M 51.562,40.838 44.647,21.842 c -0.184,-0.509 -0.673,-0.874 -1.246,-0.874 v 0 h 7.285 c 0.574,0 1.062,0.365 1.247,0.874 v 0 l 6.914,18.996 z"
             style="fill:url(#linearGradient4234);stroke:none"
             id="path5344"
             inkscape:connector-curvature="0" />
        </g>
      </g>
      <g
         transform="matrix(1.25,0,0,-1.25,666.78571,1114.8622)"
         id="g5356">
        <g
           clip-path="url(#clipPath4258)"
           id="g5354">
          <g
             transform="translate(51.9902,21.8744)"
             id="g5352">
            <path
               d="M 0,0 6.901,18.964 H 6.816 L -0.074,0.027 c -0.184,-0.507 -0.67,-0.931 -1.21,-0.931 v -0.003 c 0.573,0 1.089,0.369 1.284,0.907"
               style="fill:#918f90;fill-opacity:1;fill-rule:nonzero;stroke:none"
               id="path5350"
               inkscape:connector-curvature="0" />
          </g>
        </g>
      </g>
      <g
         transform="matrix(1.25,0,0,-1.25,666.78571,1114.8622)"
         id="g5366">
        <g
           id="g5364">
          <g
             id="g5362">
            <g
               id="g5360">
              <path
                 d="m 36.718,34.207 c -0.573,0 -1.062,-0.363 -1.246,-0.874 v 0 L 28.558,14.338 h 7.284 l 6.915,18.995 c 0.184,0.511 0.673,0.874 1.247,0.874 v 0 z"
                 style="fill:url(#linearGradient4278);stroke:none"
                 id="path5358"
                 inkscape:connector-curvature="0" />
            </g>
          </g>
        </g>
      </g>
      <g
         transform="matrix(1.25,0,0,-1.25,666.78571,1114.8622)"
         id="g5376">
        <g
           id="g5374">
          <g
             id="g5372">
            <g
               id="g5370">
              <path
                 d="m 42.757,33.333 -2.394,-6.578 1.79,-4.913 c 0.185,-0.509 0.674,-0.874 1.247,-0.874 v 0 h 0.001 c 0.573,0 1.062,0.365 1.246,0.874 v 0 l 2.395,6.577 -1.791,4.914 c -0.184,0.511 -0.674,0.874 -1.247,0.874 v 0 c -0.574,0 -1.063,-0.363 -1.247,-0.874"
                 style="fill:url(#linearGradient4312);stroke:none"
                 id="path5368"
                 inkscape:connector-curvature="0" />
            </g>
          </g>
        </g>
      </g>
      <g
         transform="matrix(1.25,0,0,-1.25,666.78571,1114.8622)"
         id="g5416">
        <g
           clip-path="url(#clipPath4328)"
           id="g5414">
          <g
             transform="translate(35.4231,33.3091)"
             id="g5380">
            <path
               d="m 0,0 -6.903,-18.971 h 0.084 l 6.893,18.944 c 0.184,0.507 0.67,0.924 1.21,0.924 V 0.898 C 0.711,0.898 0.195,0.538 0,0"
               style="fill:#bdbcbc;fill-opacity:1;fill-rule:nonzero;stroke:none"
               id="path5378"
               inkscape:connector-curvature="0" />
          </g>
          <g
             transform="translate(42.7029,33.3091)"
             id="g5384">
            <path
               d="m 0,0 -6.903,-18.971 h 0.084 l 6.893,18.944 c 0.184,0.507 0.67,0.924 1.21,0.924 V 0.898 C 0.711,0.898 0.195,0.538 0,0"
               style="fill:#918f90;fill-opacity:1;fill-rule:nonzero;stroke:none"
               id="path5382"
               inkscape:connector-curvature="0" />
          </g>
          <g
             transform="translate(44.7046,21.867)"
             id="g5388">
            <path
               d="M 0,0 6.903,18.971 H 6.819 L -0.074,0.027 c -0.184,-0.507 -0.67,-0.924 -1.21,-0.924 v -0.002 c 0.573,0 1.089,0.361 1.284,0.899"
               style="fill:#bdbcbc;fill-opacity:1;fill-rule:nonzero;stroke:none"
               id="path5386"
               inkscape:connector-curvature="0" />
          </g>
          <g
             transform="translate(97.1092,28.9093)"
             id="g5392">
            <path
               d="m 0,0 c -2.026,0 -3.011,-1.093 -3.011,-3.342 0,-2.017 1.188,-3.271 3.098,-3.271 0.366,0 0.787,0.023 1.359,0.074 v 6.406 C 0.873,-0.043 0.413,0 0,0 m 0.018,-8.243 c -3.206,0 -5.197,1.858 -5.197,4.85 0,3.108 1.837,5.04 4.796,5.04 l 0.25,10e-4 c 0.37,0 0.882,-0.011 1.579,-0.1 V 5.299 H 3.54 V -7.905 c 0,0 -1.987,-0.338 -3.522,-0.338"
               style="fill:#009ec5;fill-opacity:1;fill-rule:nonzero;stroke:none"
               id="path5390"
               inkscape:connector-curvature="0" />
          </g>
          <g
             transform="translate(68.4834,20.9678)"
             id="g5396">
            <path
               d="M 0,0 -5.65,9.86 -5.651,0 H -7.62 v 12.481 h 2.755 L 0.786,2.709 v 9.772 H 2.777 V 0 Z"
               style="fill:#009ec5;fill-opacity:1;fill-rule:nonzero;stroke:none"
               id="path5394"
               inkscape:connector-curvature="0" />
          </g>
          <g
             transform="translate(86.4756,20.7766)"
             id="g5400">
            <path
               d="m 0,0 c -0.95,0 -1.943,0.106 -3.125,0.334 l -0.124,0.024 v 1.744 l 0.187,-0.041 c 1.04,-0.221 1.938,-0.412 2.837,-0.412 0.727,0 2.419,0.115 2.419,1.184 0,0.897 -1.169,1.121 -2.109,1.301 L 0.026,4.145 c -0.175,0.035 -0.339,0.068 -0.481,0.103 -1.377,0.358 -2.847,0.895 -2.847,2.741 0,1.8 1.426,2.832 3.911,2.832 1.192,0 2.058,-0.128 2.754,-0.232 L 3.702,9.538 V 7.848 L 3.521,7.88 c -0.787,0.145 -1.71,0.294 -2.599,0.294 -0.984,0 -2.158,-0.185 -2.158,-1.063 0,-0.728 0.959,-0.936 2.07,-1.178 C 2.385,5.595 4.31,5.175 4.31,3.058 4.31,1.115 2.74,0 0,0"
               style="fill:#009ec5;fill-opacity:1;fill-rule:nonzero;stroke:none"
               id="path5398"
               inkscape:connector-curvature="0" />
          </g>
          <g
             transform="translate(107.2499,25.4412)"
             id="g5404">
            <path
               d="m 0,0 c -1.786,0 -2.893,-0.263 -2.893,-1.572 0,-1.513 1.412,-1.64 2.737,-1.64 0.496,0 1.385,0.063 1.657,0.084 v 3.077 C 1.117,-0.036 0.12,0 0,0 m -0.73,-4.665 c -2.166,0 -4.171,0.381 -4.171,3.146 0,3.006 3.1,3.006 4.953,3.006 0.185,0 1.056,-0.039 1.324,-0.051 -0.002,1.687 -0.025,2.09 -2.472,2.09 -0.97,0 -2.047,-0.193 -2.998,-0.363 L -4.276,3.131 v 1.666 l 0.124,0.025 c 1.102,0.225 2.165,0.335 3.248,0.335 2.371,0 4.381,-0.24 4.381,-3.181 V -4.44 L 3.332,-4.455 C 1.689,-4.639 0.385,-4.665 -0.73,-4.665"
               style="fill:#009ec5;fill-opacity:1;fill-rule:nonzero;stroke:none"
               id="path5402"
               inkscape:connector-curvature="0" />
          </g>
          <g
             transform="translate(77.9054,25.4412)"
             id="g5408">
            <path
               d="m 0,0 c -1.786,0 -2.893,-0.263 -2.893,-1.572 0,-1.513 1.413,-1.64 2.737,-1.64 0.496,0 1.385,0.063 1.658,0.084 v 3.077 C 1.117,-0.036 0.121,0 0,0 m -0.73,-4.665 c -2.166,0 -4.171,0.381 -4.171,3.146 0,3.006 3.1,3.006 4.953,3.006 0.185,0 1.057,-0.039 1.324,-0.051 -0.002,1.687 -0.024,2.09 -2.471,2.09 -0.971,0 -2.048,-0.193 -2.999,-0.363 L -4.276,3.131 v 1.666 l 0.124,0.025 c 1.102,0.225 2.165,0.335 3.247,0.335 2.373,0 4.382,-0.24 4.382,-3.181 V -4.44 L 3.332,-4.455 C 1.69,-4.639 0.385,-4.665 -0.73,-4.665"
               style="fill:#009ec5;fill-opacity:1;fill-rule:nonzero;stroke:none"
               id="path5406"
               inkscape:connector-curvature="0" />
          </g>
          <g
             transform="translate(117.8006,28.9148)"
             id="g5412">
            <path
               d="m 0,0 c -2.124,0 -3.201,-1.083 -3.201,-3.219 0,-2.747 1.608,-3.323 2.959,-3.323 0.327,0 0.698,0 1.516,0.103 v 6.38 C 0.633,-0.016 0.338,0 0,0 m 1.254,-12.186 v 4.093 c -0.816,-0.114 -1.251,-0.114 -1.601,-0.114 -0.828,0 -1.748,0.18 -2.461,0.482 -1.593,0.661 -2.545,2.346 -2.545,4.506 0,1.08 0.263,3.052 2.022,4.114 0.879,0.527 1.923,0.753 3.488,0.753 0.561,0 1.318,-0.044 2.05,-0.086 L 3.394,1.501 v -12.739 z"
               style="fill:#009ec5;fill-opacity:1;fill-rule:nonzero;stroke:none"
               id="path5410"
               inkscape:connector-curvature="0" />
          </g>
        </g>
      </g>
    </g>
  </g>
</svg>
