<svg width="440" height="157" viewBox="0 0 440 157" fill="none" xmlns="http://www.w3.org/2000/svg">
<path fill-rule="evenodd" clip-rule="evenodd" d="M428.501 156.713V0H440V156.713H428.501ZM364.478 52.2406H375.905V101.925H363.911L346.022 69.984V101.925H334.523V52.2406H346.518L364.478 84.606V52.2406ZM289.169 50.9626C305.634 50.9626 315.43 63.4552 315.43 77.0829C315.43 90.7104 305.634 103.203 289.169 103.203C272.63 103.203 262.834 90.7104 262.834 77.0829C262.834 63.4552 272.63 50.9626 289.169 50.9626ZM303.72 77.0829C303.72 68.9206 298.182 61.3257 289.169 61.3257C280.083 61.3257 274.619 68.9206 274.619 77.0829C274.619 85.2452 280.083 92.8398 289.169 92.8398C298.182 92.8398 303.72 85.2452 303.72 77.0829ZM103.489 62.177V52.2406H137.486V62.177H126.2V101.925H114.701V62.177H103.489ZM225.359 72.7525H244.168V81.7686H225.359V92.6967H244.168V101.925H213.861V52.2406H244.168V61.4689H225.359V72.7525ZM176.242 52.2406C187.242 52.2406 194.341 60.546 194.341 70.1986C194.341 77.1544 190.649 83.3279 184.473 86.2396L194.413 101.925H181.069L172.264 88.1541H166.87V101.925H155.373V52.2406H176.242ZM182.7 70.1986C182.7 65.5845 179.576 61.6095 174.749 61.6095H166.87V78.7854H174.749C179.576 78.7854 182.7 74.8128 182.7 70.1986ZM80.9889 95.8921H63.3145L61.3973 101.925H49.1168L66.8627 52.2406H77.4381L95.3961 101.925H82.9035L80.9889 95.8921ZM72.1849 66.4359L66.0805 86.8786H78.1462L72.1849 66.4359ZM20.7956 52.2406C31.7979 52.2406 38.8967 60.546 38.8967 70.1986C38.8967 79.8512 31.7979 88.1541 20.7956 88.1541H11.4982V101.925H0V52.2406H20.7956ZM27.3269 70.1986C27.3269 65.5845 24.2031 61.6095 19.3767 61.6095H11.4982V78.7854H19.3767C24.2031 78.7854 27.3269 74.8128 27.3269 70.1986Z" fill="#666D78"/>
</svg>
