<svg width="15" height="15" viewBox="0 0 15 15" fill="none" xmlns="http://www.w3.org/2000/svg">
<path fill-rule="evenodd" clip-rule="evenodd" d="M3.5 6C3.5 3.79086 5.29086 2 7.5 2C9.36463 2 10.9313 3.27586 11.3745 5.00221C11.4162 5.00074 11.458 5 11.5 5C13.433 5 15 6.567 15 8.5C15 10.433 13.433 12 11.5 12H8.37275V8.08242L9.90582 9.61548C10.1986 9.90831 10.6734 9.90831 10.9662 9.61548C11.2591 9.32265 11.2591 8.84788 10.9662 8.55504L8.52594 6.11474L8.14068 6.5H8.14064L8.52932 6.11132L8.39441 5.97641C7.88294 5.46494 7.05369 5.46494 6.54222 5.97641L4.01662 8.50201C3.72363 8.795 3.72363 9.27003 4.01662 9.56302C4.30961 9.85601 4.78486 9.85578 5.07785 9.56279L6.57275 8.06789V12H3C1.34315 12 0 10.6569 0 9C0 7.34315 1.34315 6 3 6C3.17043 6 3.33754 6.01421 3.50021 6.04151L3.5 6Z" fill="#232628"/>
</svg>
