<svg width="48" height="48" viewBox="0 0 48 48" fill="none" xmlns="http://www.w3.org/2000/svg">
<rect width="48" height="48" rx="12" fill="url(#paint0_linear_1_156)"/>
<g clip-path="url(#clip0_1_156)">
<path d="M31.1565 24.5455H24C23.9064 24.5482 23.8137 24.5262 23.7314 24.4815C23.6491 24.4369 23.5801 24.3714 23.5315 24.2915L19.9527 18.1921C19.9048 18.1104 19.8796 18.0174 19.8796 17.9227C19.8796 17.8281 19.9048 17.7351 19.9527 17.6533L25.3532 8.27939C25.3887 8.21779 25.4362 8.16379 25.4927 8.12046C25.5492 8.07713 25.6137 8.04533 25.6825 8.02687C25.7514 8.00841 25.8232 8.00365 25.8938 8.01287C25.9645 8.02209 26.0327 8.04511 26.0944 8.08061C26.1562 8.1161 26.2104 8.16339 26.2538 8.21975C26.2972 8.27612 26.3291 8.34047 26.3476 8.40913C26.3661 8.47779 26.3709 8.54941 26.3617 8.61991C26.3524 8.69041 26.3293 8.7584 26.2937 8.82L21.05 17.9358L24.3111 23.5152H30.8448L36.0885 14.5509C36.1241 14.4896 36.1714 14.4358 36.2277 14.3928C36.2841 14.3497 36.3484 14.3181 36.417 14.2998C36.4857 14.2815 36.5572 14.2769 36.6276 14.2862C36.698 14.2955 36.7659 14.3185 36.8274 14.3539C36.8889 14.3894 36.9427 14.4366 36.9859 14.4928C37.0291 14.549 37.0608 14.6132 37.0791 14.6816C37.0975 14.7501 37.1021 14.8214 37.0928 14.8917C37.0835 14.9619 37.0604 15.0296 37.0248 15.0909L31.6244 24.2927C31.5758 24.3724 31.5069 24.4378 31.4247 24.4822C31.3425 24.5266 31.2499 24.5484 31.1565 24.5455Z" fill="white"/>
<path d="M25.8222 39.9727C25.727 39.9728 25.6335 39.9478 25.5511 39.9004C25.4686 39.8529 25.4001 39.7847 25.3526 39.7024L19.9515 30.3861C19.903 30.3033 19.8774 30.2092 19.8774 30.1133C19.8774 30.0175 19.903 29.9234 19.9515 29.8406L23.5303 23.7697C23.5788 23.6897 23.6476 23.624 23.7298 23.5791C23.8119 23.5341 23.9045 23.5117 23.9982 23.514H31.1565C31.2504 23.5117 31.3432 23.5343 31.4255 23.5794C31.5078 23.6246 31.5766 23.6906 31.625 23.7709L36.955 32.8952C36.9908 32.9563 37.0142 33.0239 37.0238 33.0941C37.0334 33.1643 37.029 33.2357 37.0108 33.3042C36.9926 33.3727 36.961 33.4369 36.9179 33.4932C36.8747 33.5495 36.8208 33.5967 36.7593 33.6321C36.6329 33.7017 36.484 33.7186 36.3451 33.6791C36.2062 33.6396 36.0886 33.5469 36.018 33.4212L30.8448 24.5455H24.3081L21.0464 30.103L26.2907 39.1515C26.3393 39.2341 26.3651 39.3281 26.3657 39.4238C26.3663 39.5196 26.3417 39.6138 26.2942 39.697C26.2467 39.7803 26.1781 39.8496 26.0953 39.898C26.0124 39.9464 25.9182 39.9722 25.8222 39.9727Z" fill="white"/>
<path d="M20.4193 30.6667H9.76843C9.46888 30.6667 9.22583 30.3897 9.22583 30.0909C9.22583 29.7921 9.46888 29.5152 9.76843 29.5152H20.11L23.3723 23.9697L20.1094 18.4243H9.76843C9.6234 18.4243 9.4843 18.3668 9.38175 18.2645C9.27919 18.1622 9.22158 18.0235 9.22158 17.8788C9.22158 17.7341 9.27919 17.5954 9.38175 17.4931C9.4843 17.3908 9.6234 17.3333 9.76843 17.3333H20.4193C20.5141 17.3334 20.6072 17.3582 20.6894 17.4053C20.7716 17.4524 20.84 17.5202 20.8878 17.6018L24.4666 23.7188C24.5151 23.8016 24.5406 23.8957 24.5406 23.9915C24.5406 24.0874 24.5151 24.1815 24.4666 24.2642L20.8878 30.3897C20.8404 30.4724 20.7724 30.5414 20.6903 30.5899C20.6081 30.6385 20.5148 30.6649 20.4193 30.6667Z" fill="white"/>
<path d="M16.5308 39.9945C15.5277 39.9945 14.3489 39.3127 13.8476 38.4467L6.37698 25.5376C5.87569 24.6715 5.87569 23.3145 6.37698 22.4467L13.8476 9.53758C14.3434 8.68121 15.524 8 16.5308 8H31.4703C32.4759 8 33.6577 8.68121 34.1535 9.54242L41.6254 22.4424C42.1273 23.3091 42.1273 24.6679 41.6254 25.5333L34.1517 38.4479C33.6504 39.3145 32.4716 40 31.4685 40L16.5308 39.9945ZM16.5308 9.09091C15.9086 9.09091 15.0938 9.55758 14.787 10.0879L7.31574 22.9909C7.00647 23.5255 7.00647 24.463 7.31574 24.9976L14.7864 37.9024C15.0957 38.4376 15.9105 38.9091 16.5308 38.9091H31.4703C32.0894 38.9091 32.9049 38.4376 33.2141 37.903L40.6848 24.9939C40.9947 24.4588 40.9947 23.52 40.6848 22.9848L33.2147 10.0885C32.9079 9.55818 32.0925 9.09091 31.4709 9.09091H16.5308Z" fill="white"/>
<path d="M27.5783 30.6667H20.4193C20.3239 30.665 20.2305 30.6386 20.1483 30.59C20.0662 30.5415 19.9982 30.4724 19.9509 30.3897L16.3726 24.2685C16.3246 24.1856 16.2993 24.0915 16.2993 23.9958C16.2993 23.9 16.3246 23.806 16.3726 23.723L19.9509 17.6049C19.9983 17.5227 20.0665 17.4543 20.1487 17.4067C20.2309 17.359 20.3242 17.3337 20.4193 17.3333H27.5783C27.6731 17.3333 27.7662 17.3581 27.8484 17.4052C27.9306 17.4523 27.999 17.5201 28.0467 17.6018L31.625 23.7188C31.6734 23.8016 31.6989 23.8957 31.6989 23.9915C31.6989 24.0874 31.6734 24.1815 31.625 24.2642L28.0467 30.3897C27.9994 30.4724 27.9314 30.5415 27.8492 30.59C27.7671 30.6386 27.6737 30.665 27.5783 30.6667ZM20.7329 29.5152H27.2665L30.5282 23.9697L27.2665 18.4243H20.7322L17.4706 23.9697L20.7329 29.5152Z" fill="white"/>
</g>
<defs>
<linearGradient id="paint0_linear_1_156" x1="24" y1="0" x2="24" y2="48" gradientUnits="userSpaceOnUse">
<stop stop-color="#723ECC"/>
<stop offset="1" stop-color="#5B32A3"/>
</linearGradient>
<clipPath id="clip0_1_156">
<rect width="36" height="32" fill="white" transform="translate(6 8)"/>
</clipPath>
</defs>
</svg>