<svg width="48" height="48" viewBox="0 0 48 48" fill="none" xmlns="http://www.w3.org/2000/svg">
<rect width="48" height="48" rx="12" fill="url(#paint0_linear_1204_103)"/>
<path fill-rule="evenodd" clip-rule="evenodd" d="M27.5327 9C27.5327 13.2892 31.0098 16.7664 35.2991 16.7664V9H27.5327ZM35.2991 16.7664V24.5327C31.0098 24.5327 27.5327 21.0556 27.5327 16.7664H35.2991ZM23.491 39H12V27.192H35.2991C35.2991 33.7134 30.0124 39 23.491 39ZM27.5327 16.7664V24.5327C23.2479 24.5327 19.7736 21.0629 19.7664 16.7798V24.5327C15.4771 24.5327 12 21.0556 12 16.7664H19.7663H19.7664H27.5327ZM19.7663 9C19.7663 13.2892 23.2435 16.7664 27.5327 16.7664V9H19.7663Z" fill="white"/>
<defs>
<linearGradient id="paint0_linear_1204_103" x1="0" y1="24" x2="48" y2="24" gradientUnits="userSpaceOnUse">
<stop stop-color="#7258BF"/>
<stop offset="1" stop-color="#5439A9"/>
</linearGradient>
</defs>
</svg>
