<svg width="286" height="56" viewBox="0 0 286 56" fill="none" xmlns="http://www.w3.org/2000/svg">
<rect x="238" y="4" width="48" height="48" rx="12" fill="url(#paint0_linear_1_5111)"/>
<path d="M266.667 33.9998V40L276 33.9998V28L266.667 33.9998Z" fill="white"/>
<path d="M257.333 33.9998V40L266.667 33.9998V28L257.333 33.9998Z" fill="white"/>
<path d="M248 33.9998V40L257.333 33.9998V28L248 33.9998Z" fill="white"/>
<path d="M276 16L266.667 22V28L276 22V16Z" fill="white"/>
<path d="M266.667 16L257.333 22V28L266.667 22V16Z" fill="white"/>
<path d="M257.333 16L248 22V28L257.333 22V16Z" fill="white"/>
<rect x="192" y="2" width="52" height="52" rx="14" fill="url(#paint1_linear_1_5111)"/>
<path fill-rule="evenodd" clip-rule="evenodd" d="M221.533 13C221.533 17.2892 225.01 20.7664 229.299 20.7664V13H221.533ZM229.299 20.7664V28.5327C225.01 28.5327 221.533 25.0556 221.533 20.7664H229.299ZM217.491 43H206V31.192H229.299C229.299 37.7134 224.012 43 217.491 43ZM221.533 20.7664V28.5327C217.248 28.5327 213.774 25.0629 213.766 20.7798V28.5327C209.477 28.5327 206 25.0556 206 20.7664H213.766H213.766H221.533ZM213.766 13C213.766 17.2892 217.243 20.7664 221.533 20.7664V13H213.766Z" fill="white"/>
<rect x="192" y="2" width="52" height="52" rx="14" stroke="white" stroke-width="4"/>
<rect x="146" y="2" width="52" height="52" rx="14" fill="url(#paint2_linear_1_5111)"/>
<path fill-rule="evenodd" clip-rule="evenodd" d="M171.517 25.9113C170.226 28.0805 168.99 30.1812 167.728 32.266C167.404 32.8013 167.244 33.2372 167.502 33.9176C168.217 35.7971 167.209 37.6261 165.314 38.1226C163.526 38.591 161.785 37.4162 161.43 35.5026C161.116 33.8087 162.43 32.1482 164.298 31.8835C164.454 31.8611 164.614 31.8585 164.877 31.8388C165.792 30.3043 166.729 28.7326 167.718 27.0753C165.931 25.2987 164.868 23.2218 165.103 20.6484C165.269 18.8293 165.985 17.2573 167.292 15.9688C169.796 13.5014 173.617 13.1018 176.565 14.9957C179.397 16.8149 180.694 20.3584 179.588 23.3913C178.755 23.1653 177.915 22.9374 176.993 22.6871C177.34 21.0009 177.083 19.4866 175.946 18.1895C175.194 17.333 174.23 16.8841 173.134 16.7187C170.936 16.3867 168.778 17.7987 168.138 19.9559C167.411 22.4043 168.511 24.4043 171.517 25.9113Z" fill="#EC008C"/>
<path fill-rule="evenodd" clip-rule="evenodd" d="M175.202 23.3461C176.111 24.9498 177.034 26.5778 177.949 28.1909C182.573 26.7603 186.059 29.32 187.31 32.0605C188.821 35.3708 187.788 39.2916 184.821 41.3339C181.776 43.4305 177.925 43.0722 175.226 40.3791C175.914 39.8035 176.605 39.2253 177.343 38.6076C180.008 40.3337 182.339 40.2524 184.07 38.2085C185.545 36.4648 185.513 33.865 183.995 32.1579C182.243 30.188 179.895 30.1279 177.058 32.0189C175.881 29.931 174.684 27.8596 173.544 25.7565C173.16 25.0477 172.736 24.6366 171.87 24.4865C170.423 24.2357 169.489 22.9937 169.433 21.602C169.378 20.2258 170.189 18.9817 171.456 18.497C172.712 18.0169 174.185 18.4044 175.029 19.4717C175.719 20.3438 175.939 21.3253 175.575 22.4007C175.475 22.7006 175.344 22.9908 175.202 23.3461Z" fill="white"/>
<path fill-rule="evenodd" clip-rule="evenodd" d="M177.375 36.4566C175.546 36.4566 173.711 36.4566 171.808 36.4566C171.275 38.6511 170.122 40.4229 168.137 41.5496C166.593 42.4252 164.929 42.7222 163.158 42.4363C159.898 41.9105 157.232 38.9755 156.997 35.6704C156.732 31.9266 159.305 28.5987 162.735 27.8512C162.972 28.7112 163.211 29.5795 163.448 30.4373C160.301 32.043 159.212 34.066 160.093 36.5956C160.868 38.8218 163.07 40.042 165.462 39.5701C167.904 39.0882 169.135 37.0587 168.985 33.8015C171.3 33.8015 173.617 33.7775 175.932 33.8133C176.836 33.8275 177.534 33.7337 178.216 32.9367C179.337 31.6251 181.401 31.7434 182.609 32.9821C183.843 34.248 183.784 36.285 182.478 37.4975C181.217 38.6675 179.227 38.6049 178.048 37.3443C177.805 37.0844 177.615 36.7759 177.375 36.4566Z" fill="white"/>
<rect x="146" y="2" width="52" height="52" rx="14" stroke="white" stroke-width="4"/>
<rect x="98" y="2" width="52" height="52" rx="14" fill="url(#paint3_linear_1_5111)"/>
<path fill-rule="evenodd" clip-rule="evenodd" d="M115.744 27.8804C115.744 30.0237 114.01 31.7609 111.872 31.7609C109.733 31.7609 108 30.0237 108 27.8804C108 25.7372 109.733 24 111.872 24C114.01 24 115.744 25.7372 115.744 27.8804Z" fill="white"/>
<path fill-rule="evenodd" clip-rule="evenodd" d="M128.633 28.119C128.633 29.6347 127.407 30.8636 125.894 30.8636C124.382 30.8636 123.156 29.6347 123.156 28.119C123.156 26.6031 124.382 25.3744 125.894 25.3744C127.407 25.3744 128.633 26.6031 128.633 28.119Z" fill="white"/>
<path fill-rule="evenodd" clip-rule="evenodd" d="M138.731 27.995C138.731 28.6832 138.175 29.2411 137.488 29.2411C136.801 29.2411 136.245 28.6832 136.245 27.995C136.245 27.3068 136.801 26.7488 137.488 26.7488C138.175 26.7488 138.731 27.3068 138.731 27.995Z" fill="white"/>
<rect x="98" y="2" width="52" height="52" rx="14" stroke="white" stroke-width="4"/>
<rect x="50" y="2" width="52" height="52" rx="14" fill="url(#paint4_linear_1_5111)"/>
<path d="M73.7941 18.9565C73.9069 18.9565 74.0084 19.0192 74.0976 19.1388C74.3216 19.4917 74.7086 20.2833 75.2811 22.0518C75.6728 23.2617 76.1002 24.7606 76.5524 26.5093C74.8369 26.4824 73.1013 26.4624 71.4207 26.443L70.5696 26.4331C71.531 22.6155 72.7041 19.7183 73.5613 19.0343C73.616 18.9989 73.701 18.9565 73.7941 18.9565Z" fill="white"/>
<path fill-rule="evenodd" clip-rule="evenodd" d="M76 44C84.8366 44 92 36.8363 92 28C92 19.1634 84.8366 12 76 12C67.1634 12 60 19.1634 60 28C60 36.8363 67.1634 44 76 44ZM87.138 26.8026C87.528 26.8806 87.8175 27.2231 87.8175 27.6341C87.8175 27.8969 87.6957 28.134 87.5049 28.2904L87.5031 28.2919L87.5014 28.2933C87.484 28.3075 87.4663 28.3206 87.448 28.3332C87.4423 28.3374 87.4365 28.3415 87.4304 28.3454C87.4182 28.3534 87.4056 28.3608 87.3928 28.3682C87.3812 28.3749 87.37 28.382 87.3581 28.3881L87.3558 28.3891C87.2382 28.4508 87.1043 28.4864 86.9619 28.4864H79.3831C79.4393 28.7187 79.5 28.9804 79.5657 29.2644L79.5817 29.3333C79.9972 31.127 81.1008 35.8914 82.2728 35.8914L82.2956 35.892L82.3084 35.8901L82.3309 35.8904C83.2466 35.8901 83.7141 34.5664 84.738 31.6662L84.7505 31.6312C84.915 31.1653 85.1007 30.6397 85.3015 30.0839L85.3529 29.9418L85.3536 29.9422C85.4059 29.8034 85.5396 29.7047 85.6967 29.7047C85.8991 29.7047 86.0633 29.8689 86.0633 30.0713C86.0633 30.1083 86.0578 30.1436 86.0476 30.177L86.0051 30.3197C85.8982 30.6651 85.7847 31.1351 85.6537 31.6794L85.6532 31.6812C85.0424 34.211 84.1202 38.0308 81.7549 38.0308H81.7375C80.2091 38.0186 79.2945 35.5756 78.9037 34.5317L78.9035 34.5311C78.1729 32.5796 77.6199 30.5002 77.0869 28.4864H70.1105L68.6622 33.1216L68.6413 33.1049C68.5086 33.3131 68.2763 33.4467 68.0199 33.4467C67.6157 33.4467 67.2851 33.1178 67.2832 32.7133L67.2842 32.6882L67.3719 32.1639C67.572 30.9729 67.8117 29.7365 68.0851 28.4864H65.139L65.128 28.4752C64.5931 28.3981 64.1825 27.9264 64.1825 27.3764C64.1825 26.8369 64.5642 26.3782 65.0901 26.285C65.1383 26.2786 65.2357 26.2702 65.4349 26.2702C65.4773 26.2702 65.5248 26.2705 65.5778 26.2715C66.5118 26.2876 67.5023 26.3027 68.5889 26.3165C70.1269 20.0681 71.9078 16.8964 73.8834 16.8874C76.0035 16.8874 77.5759 21.7147 78.8347 26.4363L78.8398 26.4553C81.4262 26.507 84.1831 26.5825 86.863 26.7743L86.9751 26.7849C87.0182 26.7855 87.0602 26.7897 87.1017 26.7965L87.1174 26.7981C87.1219 26.7987 87.1264 26.8003 87.1309 26.801C87.1335 26.8016 87.1357 26.8022 87.138 26.8026Z" fill="white"/>
<rect x="50" y="2" width="52" height="52" rx="14" stroke="white" stroke-width="4"/>
<rect x="2" y="2" width="52" height="52" rx="14" fill="url(#paint5_linear_1_5111)"/>
<path d="M16.1624 25.3714C16.13 25.3195 16.1087 25.2616 16.0998 25.2014C16.091 25.1411 16.0949 25.0798 16.1111 25.0211C16.7552 22.5293 18.196 20.3034 20.2239 18.6673C21.8094 17.3916 23.7049 16.5375 25.727 16.1878C27.7492 15.838 29.8295 16.0045 31.7666 16.671C31.8247 16.6913 31.878 16.7229 31.9233 16.7638C31.9687 16.8047 32.0051 16.8541 32.0305 16.9091C32.0776 17.0214 32.0776 17.1472 32.0305 17.2594L31.4399 18.7979C31.4007 18.9075 31.3186 18.9974 31.2117 19.0478C31.1047 19.0983 30.9817 19.1052 30.8695 19.0671C29.3486 18.5487 27.7168 18.422 26.1313 18.6994C24.5458 18.9767 23.0601 19.6487 21.8176 20.6504C20.2431 21.9385 19.1248 23.6796 18.6222 25.6254C18.5972 25.7212 18.5404 25.8063 18.4606 25.8672C18.3808 25.9281 18.2826 25.9614 18.1814 25.9618H18.0788L16.4588 25.5812C16.399 25.5673 16.3428 25.5418 16.2935 25.5061C16.2442 25.4703 16.2028 25.4252 16.1719 25.3733" fill="white"/>
<path d="M39.677 29.1944C39.6396 29.1473 39.5927 29.108 39.5394 29.079C39.486 29.05 39.4272 29.0318 39.3665 29.0255L37.7094 28.856C37.5919 28.8451 37.4746 28.879 37.3821 28.9507C37.2896 29.0224 37.2291 29.1263 37.2132 29.2406C36.9181 31.4412 35.8399 33.4701 34.1676 34.9716C32.88 36.1393 31.2828 36.93 29.5578 37.2537C27.8328 37.5773 26.0495 37.421 24.4111 36.8023C24.3563 36.7813 24.2977 36.771 24.2388 36.7721C24.18 36.7732 24.1219 36.7856 24.0679 36.8086C24.0139 36.8317 23.9651 36.8649 23.9243 36.9064C23.8834 36.9478 23.8514 36.9968 23.8299 37.0504L23.1839 38.5895C23.1595 38.6447 23.147 38.7042 23.147 38.7643C23.147 38.8245 23.1595 38.884 23.1839 38.9392C23.2062 38.9956 23.2406 39.0467 23.2847 39.0891C23.3288 39.1316 23.3817 39.1643 23.4397 39.1853C24.8246 39.7187 26.3002 39.9916 27.7888 39.9895C30.7985 39.9894 33.6971 38.8779 35.9037 36.8775C38.0306 34.9499 39.3947 32.3516 39.7567 29.5388C39.7651 29.4791 39.7611 29.4183 39.7449 29.3601C39.7287 29.3019 39.7005 29.2476 39.6622 29.2004" fill="white"/>
<path d="M30.5274 31.4327V29.7749C30.5281 29.6555 30.4804 29.5408 30.3948 29.4557C30.3092 29.3706 30.1925 29.3222 30.0704 29.321H16.521C16.3995 29.323 16.2837 29.3719 16.1988 29.4568C16.1139 29.5418 16.0667 29.6561 16.0674 29.7749V31.4327C16.0669 31.4919 16.0783 31.5505 16.101 31.6054C16.1236 31.6602 16.1572 31.7101 16.1996 31.7523C16.242 31.7944 16.2926 31.828 16.3483 31.8511C16.404 31.8741 16.4639 31.8862 16.5244 31.8866H30.0704C30.1309 31.8862 30.1908 31.8741 30.2465 31.8511C30.3022 31.828 30.3527 31.7944 30.3952 31.7523C30.4376 31.7101 30.4712 31.6602 30.4938 31.6054C30.5165 31.5505 30.5279 31.4919 30.5274 31.4327Z" fill="white"/>
<path d="M25.315 23.7556V25.4135C25.3139 25.5321 25.3609 25.6464 25.4456 25.7314C25.5303 25.8164 25.6459 25.8653 25.7673 25.8674H39.3153C39.3758 25.8669 39.4356 25.8547 39.4912 25.8316C39.5469 25.8085 39.5973 25.7749 39.6397 25.7328C39.682 25.6906 39.7155 25.6408 39.7382 25.586C39.7608 25.5312 39.7722 25.4726 39.7716 25.4135V23.7556C39.7688 23.6389 39.7196 23.5278 39.6345 23.4459C39.5493 23.364 39.4348 23.3177 39.3153 23.3169H25.7653C25.6439 23.319 25.5282 23.3678 25.4435 23.4528C25.3588 23.5379 25.3119 23.6521 25.313 23.7708" fill="white"/>
<path d="M35.2178 18.2596C34.9431 18.2551 34.6731 18.3303 34.4421 18.4757C34.2111 18.6211 34.0294 18.8302 33.92 19.0765C33.8106 19.3229 33.7784 19.5954 33.8275 19.8596C33.8766 20.1238 34.0047 20.3679 34.1957 20.5609C34.3867 20.754 34.632 20.8873 34.9006 20.9441C35.1691 21.0009 35.4489 20.9786 35.7044 20.88C35.96 20.7814 36.1799 20.6109 36.3364 20.3901C36.4928 20.1694 36.5787 19.9082 36.5833 19.6397C36.5833 19.6325 36.5833 19.6246 36.5833 19.6173C36.5855 19.2604 36.443 18.9173 36.1869 18.6628C35.9309 18.4084 35.5822 18.2634 35.2171 18.2596" fill="white"/>
<path d="M20.1377 34.6754C19.863 34.6708 19.593 34.746 19.3621 34.8915C19.1311 35.0369 18.9494 35.246 18.84 35.4923C18.7306 35.7386 18.6984 36.0111 18.7474 36.2754C18.7965 36.5396 18.9246 36.7837 19.1156 36.9767C19.3067 37.1697 19.5519 37.3031 19.8205 37.3599C20.089 37.4167 20.3688 37.3944 20.6244 37.2958C20.8799 37.1972 21.0998 37.0267 21.2563 36.8059C21.4127 36.5852 21.4987 36.324 21.5032 36.0555V36.0324C21.5049 35.6759 21.3623 35.3332 21.1065 35.079C20.8507 34.8248 20.5025 34.6797 20.1377 34.6754Z" fill="white"/>
<rect x="2" y="2" width="52" height="52" rx="14" stroke="white" stroke-width="4"/>
<defs>
<linearGradient id="paint0_linear_1_5111" x1="262" y1="4" x2="262" y2="52" gradientUnits="userSpaceOnUse">
<stop stop-color="#1A1A1A"/>
<stop offset="1"/>
</linearGradient>
<linearGradient id="paint1_linear_1_5111" x1="194" y1="28" x2="242" y2="28" gradientUnits="userSpaceOnUse">
<stop stop-color="#7258BF"/>
<stop offset="1" stop-color="#5439A9"/>
</linearGradient>
<linearGradient id="paint2_linear_1_5111" x1="172" y1="4" x2="172" y2="52" gradientUnits="userSpaceOnUse">
<stop stop-color="#242424"/>
<stop offset="1"/>
</linearGradient>
<linearGradient id="paint3_linear_1_5111" x1="124" y1="4" x2="124" y2="52" gradientUnits="userSpaceOnUse">
<stop stop-color="#186AFF"/>
<stop offset="1" stop-color="#155BDB"/>
</linearGradient>
<linearGradient id="paint4_linear_1_5111" x1="76" y1="4" x2="76" y2="52" gradientUnits="userSpaceOnUse">
<stop stop-color="#1207B0"/>
<stop offset="1" stop-color="#0E058C"/>
</linearGradient>
<linearGradient id="paint5_linear_1_5111" x1="28" y1="4" x2="28" y2="52" gradientUnits="userSpaceOnUse">
<stop stop-color="#6BC7A5"/>
<stop offset="1" stop-color="#41AA83"/>
</linearGradient>
</defs>
</svg>
