<svg width="150" height="44" viewBox="0 0 150 44" fill="none" xmlns="http://www.w3.org/2000/svg">
<path d="M56.557 18.5345C56.557 13.934 55.2453 11.5721 52.6217 11.4428C51.5778 11.3935 50.5585 11.5598 49.567 11.9447C48.7756 12.228 48.2429 12.5082 47.9627 12.7915V23.7724C49.6409 24.8255 51.1313 25.3151 52.4308 25.2382C55.1806 25.0565 56.557 22.824 56.557 18.5345ZM59.7934 18.7254C59.7934 21.0626 59.2453 23.0026 58.1429 24.5453C56.9142 26.2913 55.2114 27.1904 53.0343 27.2397C51.393 27.2921 49.7025 26.7778 47.9627 25.7V35.6801L45.1482 34.6763V12.5236C45.6101 11.957 46.2044 11.4705 46.9249 11.0579C48.6001 10.0817 50.6355 9.57981 53.0312 9.55518L53.0712 9.59521C55.2606 9.56749 56.9481 10.4667 58.1336 12.2896C59.2391 13.9617 59.7934 16.1049 59.7934 18.7254Z" fill="#646464"/>
<path d="M76.9944 25.2751C76.9944 28.4098 76.6803 30.5808 76.0522 31.7879C75.4209 32.995 74.22 33.9588 72.4463 34.6763C71.0082 35.2429 69.4532 35.5508 67.7842 35.6031L67.3192 33.8295C69.0159 33.5985 70.2107 33.3676 70.9035 33.1366C72.2677 32.6747 73.2038 31.9665 73.718 31.018C74.1307 30.2451 74.3339 28.7701 74.3339 26.5869V25.854C72.4093 26.7285 70.3924 27.1627 68.283 27.1627C66.8973 27.1627 65.6748 26.7285 64.6217 25.854C63.4393 24.9025 62.848 23.6954 62.848 22.2327V10.519L65.6625 9.55518V21.3459C65.6625 22.6053 66.069 23.5753 66.8819 24.2558C67.6949 24.9364 68.748 25.2628 70.0382 25.2382C71.3285 25.2104 72.7111 24.7116 74.1799 23.7354V9.98012H76.9944V25.2751Z" fill="#646464"/>
<path d="M87.9815 27.0859C87.6458 27.1136 87.3379 27.1259 87.0546 27.1259C85.4626 27.1259 84.2216 26.7471 83.3348 25.9865C82.451 25.226 82.0076 24.1759 82.0076 22.8364V11.7509H80.08V9.98025H82.0076V5.27812L84.819 4.27734V9.98025H87.9815V11.7509H84.819V22.7594C84.819 23.8156 85.1023 24.5639 85.6689 25.0012C86.1555 25.3614 86.9284 25.5678 87.9815 25.6201V27.0859Z" fill="#646464"/>
<path d="M105.022 26.8547H102.208V15.9909C102.208 14.8854 101.949 13.9339 101.435 13.1395C100.841 12.2403 100.016 11.7907 98.9562 11.7907C97.666 11.7907 96.0524 12.4712 94.1155 13.8323V26.8547H91.301V0.886843L94.1155 0V11.8277C95.9138 10.519 97.8785 9.86306 100.012 9.86306C101.503 9.86306 102.71 10.365 103.634 11.3658C104.561 12.3665 105.022 13.6137 105.022 15.1041V26.8547Z" fill="#646464"/>
<path d="M119.982 18.0911C119.982 16.3235 119.646 14.8639 118.978 13.7092C118.184 12.3019 116.949 11.5598 115.28 11.4828C112.194 11.6614 110.655 13.8724 110.655 18.1095C110.655 20.0526 110.975 21.6754 111.621 22.9779C112.447 24.6377 113.685 25.4568 115.335 25.4291C118.433 25.4044 119.982 22.9595 119.982 18.0911ZM123.064 18.1095C123.064 20.6253 122.421 22.7193 121.137 24.3913C119.723 26.2636 117.771 27.2028 115.28 27.2028C112.81 27.2028 110.886 26.2636 109.497 24.3913C108.237 22.7193 107.609 20.6253 107.609 18.1095C107.609 15.7446 108.29 13.7554 109.651 12.1356C111.089 10.4174 112.979 9.55518 115.317 9.55518C117.654 9.55518 119.557 10.4174 121.023 12.1356C122.384 13.7554 123.064 15.7446 123.064 18.1095Z" fill="#646464"/>
<path d="M139.2 26.8548H136.385V15.3751C136.385 14.1156 136.007 13.1333 135.249 12.4251C134.492 11.7199 133.482 11.3781 132.222 11.4058C130.886 11.4305 129.614 11.8677 128.407 12.7146V26.8548H125.592V12.3666C127.212 11.1872 128.702 10.4174 130.063 10.0571C131.348 9.72146 132.481 9.55518 133.457 9.55518C134.125 9.55518 134.753 9.61984 135.345 9.74917C136.45 10.0048 137.349 10.479 138.042 11.1749C138.815 11.9447 139.2 12.8685 139.2 13.9494V26.8548Z" fill="#646464"/>
<path d="M17.35 0.991013C15.902 0.997742 14.5191 1.12124 13.3023 1.33655C9.71778 1.96982 9.06697 3.2953 9.06697 5.73972V8.96804H17.5376V10.0442H9.06697H5.88801C3.4262 10.0442 1.27057 11.5238 0.596314 14.3387C-0.181429 17.5652 -0.215926 19.5786 0.596314 22.9476C1.19844 25.4553 2.63639 27.2422 5.0982 27.2422H8.01061V23.3721C8.01061 20.5762 10.4297 18.11 13.3023 18.11H21.7631C24.1183 18.11 25.9984 16.1709 25.9984 13.8056V5.73972C25.9984 3.44412 24.0618 1.71968 21.7631 1.33655C20.308 1.09433 18.7981 0.984284 17.35 0.991013ZM12.7692 3.5875C13.6441 3.5875 14.3587 4.31369 14.3587 5.2066C14.3587 6.09634 13.6441 6.81582 12.7692 6.81582C11.8911 6.81582 11.1797 6.09634 11.1797 5.2066C11.1797 4.31369 11.8911 3.5875 12.7692 3.5875Z" fill="url(#paint0_linear)"/>
<path d="M27.0547 10.0439V13.8054C27.0547 16.7216 24.5824 19.1761 21.763 19.1761H13.3023C10.9847 19.1761 9.06693 21.1596 9.06693 23.4805V31.5464C9.06693 33.842 11.0631 35.1922 13.3023 35.8508C15.9836 36.6392 18.5548 36.7817 21.763 35.8508C23.8956 35.2334 25.9984 33.9908 25.9984 31.5464V28.3181H17.5376V27.2419H25.9984H30.2337C32.6955 27.2419 33.6129 25.5248 34.469 22.9474C35.3534 20.294 35.3158 17.7423 34.469 14.3385C33.8606 11.8878 32.6986 10.0439 30.2337 10.0439H27.0547ZM22.2962 30.4703C23.1743 30.4703 23.8856 31.1898 23.8856 32.0795C23.8856 32.9724 23.1743 33.6986 22.2962 33.6986C21.4212 33.6986 20.7067 32.9724 20.7067 32.0795C20.7067 31.1898 21.4212 30.4703 22.2962 30.4703Z" fill="url(#paint1_linear)"/>
<path d="M144.681 7.47057H145.174V4.37573H146.343V4.00684H143.512V4.37573H144.681V7.47057ZM146.781 7.47057H147.202V4.64401L148.117 7.47022H148.587L149.54 4.65359V7.47057H150V4.00684H149.392L148.35 6.97425L147.461 4.00684H146.781V7.47057Z" fill="#646464"/>
<path opacity="0.44382" d="M28.9852 41.3339C28.9852 41.623 28.6916 41.9092 28.1211 42.1763C27.5507 42.4433 26.7145 42.686 25.6604 42.8904C24.6064 43.0948 23.355 43.2569 21.9778 43.3675C20.6006 43.4781 19.1245 43.535 17.6338 43.535C16.1431 43.535 14.667 43.4781 13.2898 43.3675C11.9126 43.2569 10.6612 43.0948 9.60715 42.8904C8.55308 42.686 7.71694 42.4433 7.14648 42.1763C6.57602 41.9092 6.28241 41.623 6.28241 41.3339C6.28241 41.0449 6.57602 40.7587 7.14648 40.4916C7.71694 40.2245 8.55308 39.9819 9.60715 39.7775C10.6612 39.5731 11.9126 39.411 13.2898 39.3004C14.667 39.1897 16.1431 39.1328 17.6338 39.1328C19.1245 39.1328 20.6006 39.1897 21.9778 39.3004C23.355 39.411 24.6064 39.5731 25.6604 39.7775C26.7145 39.9819 27.5507 40.2245 28.1211 40.4916C28.6916 40.7587 28.9852 41.0449 28.9852 41.3339Z" fill="url(#paint2_radial)"/>
<defs>
<linearGradient id="paint0_linear" x1="2.7647e-08" y1="0.990723" x2="19.5324" y2="17.635" gradientUnits="userSpaceOnUse">
<stop stop-color="#5A9FD4"/>
<stop offset="1" stop-color="#306998"/>
</linearGradient>
<linearGradient id="paint1_linear" x1="22.0926" y1="31.8081" x2="15.0851" y2="21.9885" gradientUnits="userSpaceOnUse">
<stop stop-color="#FFD43B"/>
<stop offset="1" stop-color="#FFE873"/>
</linearGradient>
<radialGradient id="paint2_radial" cx="0" cy="0" r="1" gradientUnits="userSpaceOnUse" gradientTransform="translate(17.6338 41.3339) rotate(-90) scale(2.20112 9.67489)">
<stop stop-color="#B8B8B8" stop-opacity="0.498039"/>
<stop offset="1" stop-color="#7F7F7F" stop-opacity="0"/>
</radialGradient>
</defs>
</svg>
