<svg width="46" height="47" viewBox="0 0 46 47" fill="none" xmlns="http://www.w3.org/2000/svg">
<path d="M44.5 23.2786C44.5 35.1762 34.8718 44.8169 23 44.8169C11.1282 44.8169 1.5 35.1762 1.5 23.2786C1.5 11.3809 11.1282 1.74023 23 1.74023C34.8718 1.74023 44.5 11.3809 44.5 23.2786Z" stroke="#EA0D8C" stroke-width="3"/>
<g clip-path="url(#clip0)">
<path d="M29.856 19.125C27.6407 18.8782 25.5655 17.9185 23.9427 16.3904C23.6926 16.1404 23.3536 16 23 16C22.6464 16 22.3074 16.1404 22.0573 16.3904C20.4345 17.9185 18.3593 18.8782 16.144 19.125C15.8266 19.1706 15.5363 19.3289 15.3262 19.5711C15.1161 19.8133 15.0003 20.1231 15 20.4437C15 20.789 15.0853 28.937 22.504 31.9104C22.8226 32.0366 23.1774 32.0366 23.496 31.9104C30.9147 28.933 31 20.789 31 20.4437C30.9997 20.1231 30.8839 19.8133 30.6738 19.5711C30.4637 19.3289 30.1734 19.1706 29.856 19.125ZM23 29.2144C21.5536 28.4756 20.3158 27.3856 19.4001 26.0443C18.4843 24.7029 17.9199 23.1532 17.7587 21.537C19.6644 21.1269 21.4548 20.2975 23 19.109C24.5437 20.2955 26.3316 21.1244 28.2347 21.5357C28.0675 23.1494 27.5015 24.6961 26.5876 26.0365C25.6738 27.377 24.4409 28.469 23 29.2144Z" fill="#EA0D8C"/>
</g>
<defs>
<clipPath id="clip0">
<rect width="16" height="16" fill="white" transform="translate(15 16)"/>
</clipPath>
</defs>
</svg>
