<svg width="250" height="250" viewBox="0 0 250 250" fill="none" xmlns="http://www.w3.org/2000/svg">
<path d="M62.2606 120.895C60.8771 120.895 59.5547 120.345 58.5781 119.369L22.8726 83.6632C21.1941 81.9847 20.8635 79.3805 22.0689 77.3359C25.9752 70.711 30.5528 64.7575 35.6747 59.6357C61.4874 33.8229 99.8276 26.4783 133.341 40.9156C134.923 41.5972 136.062 43.0138 136.393 44.7024C136.723 46.3885 136.2 48.1305 134.989 49.3563L65.9685 119.343C64.997 120.333 63.6644 120.89 62.2809 120.895C62.2707 120.895 62.2656 120.895 62.2606 120.895Z" fill="#AAB2BD"/>
<path d="M170.018 228.633C168.671 228.633 167.338 228.112 166.336 227.107L130.315 191.086C129.333 190.107 128.784 188.777 128.789 187.388C128.794 186.002 129.349 184.675 130.335 183.701L200.383 114.413C201.604 113.208 203.338 112.686 205.022 112.999C206.706 113.32 208.125 114.449 208.811 116.018C223.628 149.702 216.385 188.284 190.363 214.307C185.252 219.422 179.296 223.997 172.663 227.911C171.839 228.396 170.929 228.633 170.018 228.633Z" fill="#AAB2BD"/>
<path d="M41.8993 142.403C41.1211 144.341 41.5738 146.554 43.0488 148.029L101.973 206.953C102.97 207.95 104.303 208.479 105.656 208.479C106.322 208.479 106.988 208.352 107.629 208.092C108.611 207.69 183.541 176.029 221.822 96.8193L152.933 27.9297C73.5962 66.1081 42.2941 141.418 41.8993 142.403Z" fill="#E6E8EB"/>
<path d="M241.929 8.07896C240.881 7.0261 239.355 6.45896 237.967 6.55308C204.94 8.27636 176.788 16.4395 152.93 27.9208L221.819 96.8104C233.331 72.9911 241.568 44.9239 243.434 12.0488C243.521 10.5713 242.971 9.12928 241.929 8.07896Z" fill="#EA0D8C"/>
<path d="M142.472 133.524C135.804 133.524 129.136 130.986 124.059 125.91C113.907 115.758 113.907 99.235 124.059 89.0828C134.217 78.9204 150.742 78.9306 160.889 89.0828C165.808 94.0012 168.518 100.54 168.518 107.495C168.518 114.453 165.807 120.992 160.889 125.91C155.813 130.986 149.145 133.524 142.472 133.524Z" fill="#666D78"/>
<path d="M28.7022 234.643C24.8773 234.643 21.851 234.457 20.4472 234.353C17.8736 234.162 15.8289 232.118 15.6407 229.544C15.2694 224.567 13.9012 199.263 23.2548 189.912C28.1733 184.994 34.7091 182.285 41.6671 182.285C48.6251 182.285 55.161 184.994 60.0794 189.912C70.2316 200.067 70.2316 216.587 60.0794 226.742C53.3706 233.453 38.4373 234.643 28.7022 234.643Z" fill="#EA0D8C"/>
</svg>
