<svg width="150" height="33" viewBox="0 0 150 33" fill="none" xmlns="http://www.w3.org/2000/svg">
<g clip-path="url(#clip0)">
<path fill-rule="evenodd" clip-rule="evenodd" d="M55.805 15.6609L53.0779 15.0692C51.7133 14.7734 50.9621 13.9317 50.9621 12.6984C50.9621 11.1309 52.3537 9.94835 54.1996 9.94835C56.7537 9.94835 57.5079 11.8275 57.6788 12.4042C57.7329 12.5959 57.8663 12.7584 58.0454 12.8479C58.2204 12.9375 58.4163 12.9509 58.6038 12.8854L60.0413 12.3784C60.2138 12.3171 60.3565 12.1922 60.4401 12.0293C60.5238 11.8663 60.5421 11.6776 60.4913 11.5017C60.1204 10.1975 58.7579 7.16418 54.1371 7.16418C50.7163 7.16418 47.8288 9.78085 47.8288 12.8788C47.8288 15.5413 49.5758 17.5079 52.5038 18.1454L55.1037 18.7121C56.6687 19.0413 57.6037 19.9954 57.6037 21.2621C57.6037 22.8788 56.2746 23.8829 54.1329 23.8829C51.6163 23.8829 50.4038 22.2329 50.1079 20.6871C50.0892 20.5874 50.0495 20.4929 49.9915 20.4097C49.9335 20.3265 49.8585 20.2566 49.7714 20.2046C49.6844 20.1526 49.5873 20.1197 49.4865 20.1081C49.3858 20.0964 49.2837 20.1063 49.1871 20.1371L47.6079 20.6413C47.4419 20.6918 47.3004 20.8018 47.2105 20.9502C47.1206 21.0986 47.0885 21.2749 47.1204 21.4454C47.6121 24.0079 49.7175 26.7413 54.1621 26.7413C57.9179 26.7413 60.7504 24.2954 60.7504 21.0538C60.7504 18.3163 58.9438 16.3496 55.7921 15.6538L55.805 15.6609ZM71.9388 18.1538C71.9471 18.2079 71.9221 18.2496 71.9054 18.2663C71.8916 18.2833 71.8742 18.2971 71.8543 18.3065C71.8345 18.3158 71.8128 18.3206 71.7908 18.3204H65.9992C65.9761 18.3204 65.9534 18.3152 65.9326 18.3051C65.9119 18.295 65.8938 18.2803 65.8796 18.2621C65.8664 18.2469 65.8569 18.2288 65.8518 18.2093C65.8468 18.1898 65.8463 18.1693 65.8504 18.1496C66.115 16.9421 67.1504 15.7246 68.8671 15.7246C70.5533 15.7246 71.7004 16.6288 71.9358 18.1467L71.9388 18.1538ZM68.8446 13.0204C65.7946 13.0204 62.6404 15.5704 62.6404 19.8413C62.6404 21.8996 63.3154 23.6579 64.5946 24.9204C65.7796 26.0913 67.3988 26.7371 69.1529 26.7371C71.7654 26.7371 73.8821 25.3721 74.8154 23.0871C74.8904 22.8996 74.8863 22.6913 74.8054 22.5079C74.7656 22.419 74.7078 22.3392 74.6358 22.2735C74.5637 22.2079 74.4789 22.1577 74.3867 22.1263L73.1117 21.6846C72.941 21.626 72.7546 21.6339 72.5895 21.7067C72.4245 21.7796 72.293 21.912 72.2213 22.0775C71.6713 23.3734 70.6379 24.0275 69.1504 24.0275C67.3504 24.0275 65.9796 22.815 65.7421 21.0096C65.7391 20.9894 65.7407 20.9688 65.7469 20.9493C65.753 20.9298 65.7635 20.912 65.7775 20.8971C65.7942 20.8763 65.8317 20.8429 65.89 20.8429H74.3417C74.7208 20.8429 75.0375 20.5471 75.0583 20.1696C75.0667 20.0488 75.0708 19.9154 75.0708 19.7838C75.0708 15.6088 72.6833 13.0159 68.8417 13.0159L68.8446 13.0204ZM83.2363 23.1538C81.2071 23.1538 79.9446 21.7454 79.9446 19.4788C79.9446 17.2454 81.2363 15.8021 83.2363 15.8021C85.1738 15.8021 86.4754 17.2771 86.4754 19.4771C86.4754 21.6746 85.1729 23.1521 83.2358 23.1521L83.2363 23.1538ZM88.6446 13.4038H87.1154C86.7196 13.4038 86.3967 13.7259 86.3967 14.1413C86.3965 14.1706 86.3878 14.1993 86.3715 14.2238C86.3552 14.2482 86.3321 14.2673 86.305 14.2788C86.2758 14.2913 86.2175 14.3079 86.165 14.2579C85.3775 13.5379 84.2692 13.1725 82.8733 13.1725C79.4138 13.1725 76.9025 15.8267 76.9025 19.4809C76.9025 23.1192 79.4138 25.76 82.8733 25.76C84.1525 25.76 85.3108 25.34 86.1358 24.5775C86.19 24.5275 86.2483 24.54 86.2775 24.5525C86.2983 24.5609 86.3692 24.5984 86.3692 24.69V25.215C86.3692 27.7567 85.2567 28.9421 82.8733 28.9421C81.3608 28.9421 80.1733 28.0046 79.8525 26.5554C79.8108 26.3679 79.6983 26.2096 79.5358 26.1084C79.3733 26.0071 79.1775 25.975 78.99 26.0167L77.4883 26.3625C77.3039 26.4064 77.1441 26.5209 77.0433 26.6815C76.9424 26.842 76.9086 27.0357 76.9492 27.2209C77.4867 29.8542 79.8683 31.625 82.87 31.625C85.1075 31.625 86.8117 30.9438 87.9367 29.6C88.8658 28.4892 89.3575 26.9471 89.3575 25.1404V14.1334C89.3575 13.7375 89.0367 13.4167 88.6408 13.4167L88.6446 13.4038ZM106.824 13.0438C105.132 13.0438 103.756 13.6821 102.843 14.8938C102.827 14.9162 102.807 14.9343 102.782 14.9462C102.758 14.9582 102.731 14.9637 102.703 14.9621C102.683 14.9623 102.663 14.9573 102.646 14.9474C102.628 14.9375 102.614 14.9232 102.603 14.9059C101.838 13.7225 100.517 13.0434 98.9783 13.0434C97.7546 13.0434 96.5783 13.4734 95.75 14.2246C95.73 14.2455 95.704 14.2595 95.6756 14.2648C95.6471 14.27 95.6178 14.2662 95.5917 14.2538C95.5661 14.2433 95.5444 14.2252 95.5295 14.2019C95.5146 14.1787 95.5072 14.1514 95.5083 14.1238C95.5083 13.7279 95.1858 13.4071 94.79 13.4071H93.3375C92.9417 13.4071 92.6208 13.7279 92.6208 14.1238V25.6363C92.6208 26.0321 92.9433 26.3538 93.3392 26.3538H94.8683C95.2642 26.3538 95.585 26.0304 95.585 25.6346V18.6167C95.585 16.9113 96.6267 15.765 98.1808 15.765C100.214 15.765 100.518 17.3596 100.518 18.3096V25.6471C100.518 26.0429 100.839 26.3638 101.235 26.3638H102.79C103.186 26.3638 103.507 26.0413 103.507 25.6454V18.5917C103.507 16.9267 104.565 15.7642 106.078 15.7642C108.113 15.7642 108.415 17.36 108.415 18.31V25.6475C108.415 26.0434 108.736 26.3642 109.132 26.3642H110.661C111.057 26.3642 111.378 26.0417 111.378 25.6459V18.05C111.378 14.6 109.09 13.0571 106.824 13.0571V13.0438ZM117.161 18.3304C117.138 18.3304 117.116 18.3252 117.095 18.3152C117.074 18.3053 117.056 18.2908 117.042 18.2729C117.029 18.2577 117.02 18.2399 117.015 18.2207C117.01 18.2015 117.01 18.1815 117.014 18.1621C117.279 16.9538 118.314 15.7371 120.033 15.7371C121.718 15.7371 122.866 16.6413 123.101 18.1579C123.109 18.2121 123.083 18.2538 123.068 18.2704C123.053 18.2859 123.035 18.2983 123.015 18.3069C122.996 18.3155 122.974 18.3201 122.953 18.3204H117.161V18.3304ZM120.007 13.0304C116.957 13.0304 113.803 15.5821 113.803 19.8513C113.803 21.9121 114.478 23.6692 115.755 24.9329C116.939 26.1038 118.555 26.7454 120.314 26.7454C122.922 26.7454 125.039 25.3788 125.976 23.0913C126.051 22.9038 126.047 22.6954 125.964 22.5121C125.88 22.3288 125.73 22.1954 125.543 22.1288L124.268 21.6879C123.914 21.5659 123.522 21.7379 123.377 22.0804C122.827 23.3729 121.794 24.0304 120.306 24.0304C118.506 24.0304 117.135 22.8154 116.898 21.0096C116.895 20.9892 116.896 20.9683 116.902 20.9484C116.908 20.9285 116.918 20.9102 116.931 20.8946C116.948 20.8738 116.985 20.8425 117.044 20.8425H125.498C125.877 20.8425 126.193 20.5467 126.215 20.1688C126.222 20.0479 126.227 19.9146 126.227 19.7813C126.227 15.6063 123.84 13.0104 119.998 13.0104L120.007 13.0304ZM135.328 13.0567C134.034 13.0567 132.9 13.4975 132.049 14.3317C132.029 14.3513 132.004 14.3646 131.977 14.3699C131.95 14.3751 131.922 14.3719 131.896 14.3609C131.87 14.3494 131.848 14.3305 131.832 14.3065C131.817 14.2825 131.809 14.2545 131.809 14.2259V14.1342C131.809 13.7384 131.486 13.4175 131.09 13.4175H129.59C129.195 13.4175 128.872 13.7384 128.872 14.1342V25.6446C128.872 26.0404 129.193 26.3625 129.589 26.3625H131.143C131.539 26.3625 131.862 26.0396 131.862 25.6438V18.9242C131.862 17.4209 132.543 15.8142 134.458 15.8142C136.178 15.8142 137.052 16.7654 137.052 18.6413V25.6413C137.052 26.0371 137.373 26.3579 137.768 26.3579H139.323C139.718 26.3579 140.04 26.0329 140.04 25.6371V18.2292C140.04 15.0375 138.233 13.0542 135.328 13.0542L135.328 13.0567ZM147.282 16.1742H149.094C149.49 16.1742 149.811 15.8513 149.811 15.4559V14.1334C149.811 13.7375 149.49 13.4167 149.094 13.4167H147.282C147.263 13.4167 147.244 13.4129 147.226 13.4056C147.208 13.3983 147.192 13.3875 147.179 13.374C147.165 13.3604 147.154 13.3444 147.147 13.3267C147.14 13.309 147.136 13.29 147.136 13.2709V10.2234C147.136 9.82752 146.813 9.50585 146.417 9.50585H145.067C144.671 9.50585 144.35 9.82752 144.35 10.2234V11.7984C144.35 12.5359 144.068 13.4163 142.73 13.4163H142.5C142.104 13.4163 141.783 13.7371 141.783 14.1329V15.4538C141.783 15.8496 142.105 16.1704 142.5 16.1704H144.004C144.085 16.1704 144.15 16.2329 144.15 16.3163V22.6788C144.15 25.0288 145.581 26.4871 147.883 26.4871C148.525 26.4871 149.024 26.3954 149.265 26.3413C149.59 26.2663 149.818 25.9788 149.818 25.6413V24.4167C149.818 24.3159 149.796 24.2164 149.755 24.1244C149.714 24.0324 149.654 23.9501 149.579 23.8828C149.504 23.8155 149.416 23.7647 149.32 23.7337C149.224 23.7027 149.123 23.6922 149.023 23.7029C148.86 23.7196 148.703 23.7292 148.58 23.7292C147.534 23.7292 147.142 23.3459 147.142 22.3167V16.3167C147.142 16.2367 147.209 16.1717 147.288 16.1717" fill="#43AF79"/>
<mask id="mask0" mask-type="alpha" maskUnits="userSpaceOnUse" x="0" y="18" width="33" height="15">
<path d="M32.8342 32.475H0V18.9563H32.8342V32.475Z" fill="white"/>
</mask>
<g mask="url(#mask0)">
<path fill-rule="evenodd" clip-rule="evenodd" d="M21.6358 22.2905H1.66667C0.745833 22.2905 0 21.5447 0 20.6238C0 19.703 0.745833 18.9572 1.66667 18.9572H21.6358C22.5567 18.9572 23.3025 19.703 23.3025 20.6238C23.3025 21.5447 22.5567 22.2905 21.6358 22.2905Z" fill="#93C8A2"/>
<path fill-rule="evenodd" clip-rule="evenodd" d="M17.3542 32.5C15.7275 32.5 14.1208 32.2584 12.5792 31.7804C12.157 31.6496 11.8041 31.3565 11.598 30.9655C11.392 30.5745 11.3497 30.1176 11.4804 29.6954C11.7529 28.8121 12.6887 28.3204 13.5658 28.5954C14.7875 28.9746 16.0617 29.1663 17.3542 29.1663C23.0096 29.1663 27.92 25.5371 29.5738 20.133C29.6378 19.9237 29.7424 19.7291 29.8817 19.5603C30.0209 19.3915 30.1921 19.2519 30.3854 19.1493C30.5787 19.0468 30.7904 18.9833 31.0082 18.9627C31.2261 18.942 31.4459 18.9644 31.655 19.0288C32.535 19.2955 33.03 20.2288 32.7608 21.108C30.6758 27.9209 24.4842 32.5 17.3542 32.5Z" fill="#43AF79"/>
</g>
<path fill-rule="evenodd" clip-rule="evenodd" d="M33.0417 13.823H13.0733C12.1525 13.823 11.4067 13.0771 11.4067 12.1563C11.4067 11.2355 12.1525 10.4896 13.0733 10.4896H33.0417C33.9625 10.4896 34.7083 11.2355 34.7083 12.1563C34.7083 13.0771 33.9625 13.823 33.0417 13.823Z" fill="#93C8A2"/>
<path fill-rule="evenodd" clip-rule="evenodd" d="M3.54167 13.8234C3.281 13.8234 3.02395 13.7623 2.79118 13.6449C2.55842 13.5276 2.35642 13.3573 2.20142 13.1477C2.04642 12.9381 1.94274 12.6951 1.89872 12.4382C1.85469 12.1813 1.87154 11.9176 1.94792 11.6684C4.03333 4.85586 10.225 0.280029 17.3542 0.280029C18.9821 0.280029 20.5888 0.521696 22.1292 1.00003C22.3383 1.0648 22.5325 1.17013 22.7009 1.30999C22.8693 1.44985 23.0085 1.62151 23.1105 1.81516C23.2125 2.00881 23.2754 2.22067 23.2955 2.43862C23.3157 2.65658 23.2927 2.87637 23.2279 3.08545C23.1633 3.29465 23.0581 3.48905 22.9183 3.65753C22.7785 3.826 22.6068 3.96524 22.4131 4.06727C22.2194 4.16929 22.0074 4.2321 21.7894 4.25209C21.5714 4.27209 21.3515 4.24887 21.1425 4.18378C19.9217 3.80878 18.6467 3.61711 17.3542 3.61711C11.7 3.61711 6.78875 7.24628 5.135 12.6504C5.03048 12.9915 4.81937 13.29 4.53267 13.5023C4.24597 13.7145 3.89879 13.8292 3.54208 13.8296" fill="#43AF79"/>
<path fill-rule="evenodd" clip-rule="evenodd" d="M28.9133 5.80497C28.9133 6.247 28.7377 6.67092 28.4252 6.98348C28.1126 7.29604 27.6887 7.47164 27.2467 7.47164C26.8046 7.47164 26.3807 7.29604 26.0682 6.98348C25.7556 6.67092 25.58 6.247 25.58 5.80497C25.58 5.36294 25.7556 4.93902 26.0682 4.62646C26.3807 4.3139 26.8046 4.13831 27.2467 4.13831C27.6887 4.13831 28.1126 4.3139 28.4252 4.62646C28.7377 4.93902 28.9133 5.36294 28.9133 5.80497V5.80497ZM9.12792 26.9775C9.12792 27.4195 8.95233 27.8434 8.63976 28.156C8.3272 28.4685 7.90328 28.6441 7.46125 28.6441C7.01923 28.6441 6.5953 28.4685 6.28274 28.156C5.97018 27.8434 5.79459 27.4195 5.79459 26.9775C5.79459 26.5354 5.97018 26.1115 6.28274 25.799C6.5953 25.4864 7.01923 25.3108 7.46125 25.3108C7.90328 25.3108 8.3272 25.4864 8.63976 25.799C8.95233 26.1115 9.12792 26.5354 9.12792 26.9775Z" fill="#93C8A2"/>
</g>
<defs>
<clipPath id="clip0">
<rect width="150" height="32.5" fill="white"/>
</clipPath>
</defs>
</svg>
