<svg width="160" height="33" viewBox="0 0 160 33" fill="none" xmlns="http://www.w3.org/2000/svg">
<g clip-path="url(#clip0)">
<mask id="mask0" mask-type="alpha" maskUnits="userSpaceOnUse" x="-4" y="-4" width="145" height="45">
<rect x="-4" y="-4" width="145" height="45" fill="#C4C4C4"/>
</mask>
<g mask="url(#mask0)">
<path fill-rule="evenodd" clip-rule="evenodd" d="M125.448 7L119.478 14.558H118.742L121.882 7H125.448ZM7.658 25.918C5.579 25.918 3.742 25.405 2.391 24.718L1.041 25.918H0.415L0 18.305L0.728 18.235C2.911 23.175 5.475 24.752 7.865 24.752C10.36 24.752 11.815 23.142 11.815 20.98C11.815 18.92 11.018 17.926 7.762 16.588C6.653 16.142 5.372 15.696 4.297 15.182C1.87 13.98 0.589 12.092 0.589 9.587C0.589 5.505 4.159 3.034 7.659 3.034C9.389 3.034 10.569 3.515 11.712 4.166L13.062 3H13.652L14.242 9.725L13.549 9.829C11.642 6.054 9.599 4.201 7.347 4.201C5.371 4.201 4.054 5.505 4.054 7.529C4.054 9.142 4.748 10.376 7.206 11.441C8.419 11.989 9.841 12.471 11.123 13.089C13.928 14.428 15.246 16.175 15.246 18.714C15.246 23.243 11.4 25.918 7.658 25.918ZM25.977 25.57C20.71 25.57 18.113 21.832 18.113 17.27C18.113 13.049 21.092 9 26.427 9C31.694 9 34.224 12.706 34.224 17.235C34.224 21.49 31.313 25.57 25.977 25.57ZM26.116 9.96C23.69 9.96 22.201 12.636 22.201 17.337C22.201 21.969 23.796 24.61 26.255 24.61C28.784 24.61 30.17 21.935 30.17 17.235C30.17 12.602 28.68 9.96 26.116 9.96ZM41.387 25.312C38.65 25.312 37.784 23.976 37.784 21.505V11.245H35.22V10.765L38.407 8.261L40.937 5H41.457V9.462H46.724V11.245H41.457V20.131C41.457 21.505 41.664 22.328 42.358 22.807C42.948 23.22 43.744 23.357 44.888 23.357C45.442 23.357 46.135 23.321 46.793 23.287L46.827 23.769C45.477 24.591 43.258 25.312 41.387 25.312ZM58.004 12.009C56.687 12.009 55.681 12.249 54.401 12.869V24.223L56.34 24.943V25.423H48.51V24.943L50.692 24.223V3.499L48.302 1.955V1.613L54.26 0L54.4 0.103V12.113L54.539 12.181C56.584 10.26 58.455 9.401 60.325 9.401C63.445 9.401 64.761 11.735 64.761 14.171V24.223L66.944 24.943V25.423H59.111V24.943L61.054 24.223V15.578C61.054 13.348 60.152 12.009 58.004 12.009ZM72.38 16.103C72.38 20.46 73.626 23.307 77.541 23.307C79.274 23.307 80.695 22.966 82.773 22.211L82.98 22.621C80.868 24.438 78.512 25.571 76.293 25.571C71.548 25.571 68.428 22.348 68.428 17.578C68.428 12.671 72.171 9 76.398 9C80.972 9 83.189 12.054 83.153 16.103H72.38ZM79.274 14.936C79.134 11.711 78.198 9.96 76.154 9.96C74.144 9.96 72.586 12.054 72.413 15.244L79.274 14.936ZM91.801 25.972C90.001 25.972 87.609 25.561 85.946 25.082V3.499L83.522 1.955V1.612L89.514 0L89.655 0.103V11.597L89.792 11.667C91.005 10.465 92.668 9.401 94.816 9.401C98.108 9.401 101.089 12.387 101.089 17.294C101.089 22.199 97.345 25.972 91.801 25.972ZM92.391 11.804C91.451 11.799 90.52 11.9861 89.655 12.354V23.228C90.1463 23.7306 90.7337 24.1294 91.3822 24.4004C92.0307 24.6715 92.7271 24.8094 93.43 24.806C95.473 24.806 97.171 22.989 97.171 18.152C97.171 13.897 95.336 11.804 92.391 11.804ZM110.818 26.536C109.086 30.757 107.458 32.609 105.308 32.609C103.473 32.609 102.606 31.546 102.606 30.449C102.606 29.384 103.576 28.494 104.685 28.494C105.864 28.494 106.555 29.111 107.388 30.137C108.046 29.419 108.842 28.182 109.295 27.223L109.883 25.919L103.751 11.269L101.635 10.445V10H110.091V10.445L107.873 11.269L111.615 21.322H111.788L115.183 11.51L113.174 10.445V10H119.134V10.445L116.882 11.578L110.818 26.536ZM131.007 25.533C129.082 25.533 127.434 25.225 125.82 24.609L125.786 20.092L126.487 20.023C128.379 23.275 129.817 24.506 131.673 24.506C133.32 24.506 134.337 23.482 134.337 21.906C134.337 20.126 132.48 19.442 130.483 18.654C128.275 17.73 125.926 16.703 125.926 13.862C125.926 11.157 128.379 9 131.954 9C133.32 9 135.248 9.275 136.194 9.617L136.299 13.69L135.633 13.862C133.917 11.088 132.795 10.027 131.182 10.027C129.712 10.027 128.8 10.986 128.8 12.218C128.8 13.998 130.694 14.718 132.69 15.505C134.898 16.395 137.282 17.42 137.282 20.33C137.282 23.515 134.406 25.533 131.007 25.533ZM146.677 20.326L146.732 20.452L145.842 21.158C145.429 21.484 145.245 21.655 145.236 22.252L145.218 23.247H147.658V22.849C147.658 22.325 147.466 22.117 146.86 21.927L146.558 21.837V21.673H149.072V21.836L148.787 21.926C148.191 22.116 147.98 22.325 147.98 22.849V23.247H150.43L150.403 21.9C150.393 21.384 150.219 21.176 149.861 20.895L148.871 20.135L148.907 20L150.751 20.208V25.218H150.595L150.403 24.378H145.255L145.062 25.218H144.906V20.498L146.677 20.326ZM151.035 16.98C151.035 17.524 150.898 18.003 150.715 18.356L151.035 18.708V18.871L148.998 18.98L148.98 18.79C150.301 18.22 150.723 17.55 150.723 16.927C150.723 16.275 150.292 15.895 149.713 15.895C149.163 15.895 148.897 16.103 148.54 16.954C148.42 17.243 148.3 17.578 148.163 17.858C147.843 18.491 147.337 18.826 146.667 18.826C145.576 18.826 144.915 17.894 144.915 16.981C144.915 16.529 145.043 16.221 145.218 15.922L144.906 15.57V15.416L146.704 15.262L146.731 15.443C145.722 15.941 145.227 16.474 145.227 17.063C145.227 17.578 145.576 17.921 146.117 17.921C146.548 17.921 146.878 17.741 147.163 17.098C147.309 16.782 147.438 16.411 147.603 16.076C147.961 15.344 148.43 15 149.108 15C150.32 15 151.035 16.004 151.035 16.98ZM146.805 9.154L145.888 9.841C145.374 10.239 145.236 10.429 145.218 10.891V11.243H150.402L150.595 10.357H150.751V13.269H150.595L150.402 12.383H145.218V12.79C145.236 13.242 145.374 13.432 145.888 13.83L146.805 14.517L146.759 14.662L144.906 14.382V9.289L146.759 9L146.805 9.154ZM151.14 8.597C151.137 8.75625 151.072 8.90808 150.959 9.01976C150.845 9.13144 150.692 9.19402 150.533 9.194C150.375 9.19321 150.224 9.13003 150.112 9.01821C150 8.90639 149.938 8.755 149.937 8.597C149.937 8.262 150.203 8 150.533 8C150.612 7.99921 150.69 8.01404 150.764 8.04366C150.837 8.07327 150.904 8.11707 150.96 8.17254C151.016 8.22802 151.061 8.29408 151.092 8.36692C151.123 8.43976 151.14 8.51795 151.14 8.597ZM159.514 22H159.661V24.94H159.514L159.156 23.963H154.806L154.376 24.948H154.266L153.962 23.022L153.99 22.977H159.156L159.514 22ZM155.155 21.265L155.696 21.726L155.669 21.816L153.999 21.573L153.962 21.482L154.228 21.283V18.054L154.311 18L159.982 20.587V21.518L157.742 20.198L155.155 18.76V21.265ZM155.467 15.972V15.99L157.394 17.536V15.972H155.467ZM158.101 14.977H159.211L159.569 14.037H159.716V16.931H159.569L159.211 15.971H158.101V18.251L157.936 18.323L153.962 15.113L154.018 14.977H157.394V14H158.101V14.977ZM155.467 10.972V10.99L157.394 12.536V10.972H155.467ZM158.101 9.977H159.211L159.569 9.037H159.716V11.93H159.569L159.211 10.972H158.101V13.251L157.936 13.323L153.962 10.113L154.018 9.977H157.394V9H158.101V9.977Z" fill="#666D78"/>
</g>
</g>
<defs>
<clipPath id="clip0">
<rect width="160" height="33" fill="white"/>
</clipPath>
</defs>
</svg>
