<svg width="75" height="68" viewBox="0 0 75 68" fill="none" xmlns="http://www.w3.org/2000/svg">
<path d="M56.5717 62.5571C47.7372 67.6606 35.5899 68.185 23.3688 62.9471C13.4737 58.7371 5.26324 51.3677 0 42.9477C2.52637 45.0527 5.47374 46.7375 8.63161 48.2102C21.2525 54.1258 33.8707 53.7207 42.7507 48.2254C42.745 48.2197 42.7412 48.2159 42.7374 48.2102C30.1056 38.5257 19.3686 25.8939 11.3689 15.579C9.68392 13.8947 8.42073 11.7893 7.15755 9.89461C16.8418 18.7367 32.2111 29.8939 37.6837 33.0533C26.1063 20.8417 15.7895 5.68462 16.2098 6.10486C34.5263 24.6315 51.5801 35.1583 51.5801 35.1583C52.1442 35.4763 52.5796 35.7414 52.9298 35.978C53.2989 35.0391 53.6226 34.0642 53.8952 33.0533C56.8426 22.3163 53.475 10.1047 46.1056 0C63.1576 10.3158 73.2642 29.6838 69.0523 45.8953C68.9425 46.3326 68.8233 46.7642 68.6945 47.1882C68.7438 47.2469 68.793 47.3075 68.8422 47.3699C77.2622 57.8968 74.9471 69.054 73.8946 66.949C69.3268 58.0104 60.8709 60.7438 56.5719 62.5573L56.5717 62.5571Z" fill="url(#paint0_linear)"/>
<defs>
<linearGradient id="paint0_linear" x1="37.5" y1="0" x2="37.5" y2="67.207" gradientUnits="userSpaceOnUse">
<stop stop-color="#F88A36"/>
<stop offset="1" stop-color="#FD2020"/>
</linearGradient>
</defs>
</svg>
