<svg width="150" height="54" viewBox="0 0 150 54" fill="none" xmlns="http://www.w3.org/2000/svg">
<g clip-path="url(#clip0)">
<path d="M0 19.1587C0 12.4491 0 9.0988 1.3024 6.58383C2.44321 4.31531 4.27324 2.46641 6.52994 1.3024C9.08982 0 12.4401 0 19.1317 0H34.6617C41.3623 0 44.7126 0 47.2365 1.3024C49.4864 2.4547 51.3156 4.28709 52.4641 6.53892C53.7665 9.0988 53.7665 12.4491 53.7665 19.1138V34.7335C53.7665 41.4431 53.7665 44.7934 52.4641 47.3084C51.3156 49.5602 49.4864 51.3926 47.2365 52.5449C44.7126 53.8922 41.3623 53.8922 34.6617 53.8922H19.1317C12.4401 53.8922 9.08982 53.8922 6.55689 52.5898C4.30703 51.4375 2.47778 49.6051 1.32934 47.3533C0 44.7934 0 41.4431 0 34.7335V19.1587Z" fill="#666D78"/>
<path d="M18.0269 28.0419V23.0839C19.2395 23.0839 20.4023 22.6022 21.2597 21.7448C22.1171 20.8874 22.5988 19.7245 22.5988 18.512C22.5988 17.2995 22.1171 16.1366 21.2597 15.2792C20.4023 14.4218 19.2395 13.9401 18.0269 13.9401V8.98206C20.5544 8.98206 22.9784 9.9861 24.7656 11.7733C26.5528 13.5605 27.5569 15.9845 27.5569 18.512C27.5569 21.0395 26.5528 23.4635 24.7656 25.2507C22.9784 27.0379 20.5544 28.0419 18.0269 28.0419" fill="white"/>
<path d="M30.8623 28.0419V23.0839C32.0748 23.0839 33.2377 22.6022 34.0951 21.7448C34.9525 20.8874 35.4341 19.7245 35.4341 18.512C35.4341 17.2995 34.9525 16.1366 34.0951 15.2792C33.2377 14.4218 32.0748 13.9401 30.8623 13.9401V8.98206C33.3898 8.98206 35.8138 9.9861 37.601 11.7733C39.3882 13.5605 40.3922 15.9845 40.3922 18.512C40.3922 21.0395 39.3882 23.4635 37.601 25.2507C35.8138 27.0379 33.3898 28.0419 30.8623 28.0419" fill="white"/>
<path d="M26.9461 45.2066C24.7479 45.2137 22.5698 44.7875 20.5363 43.9526C18.5028 43.1176 16.6537 41.8902 15.0947 40.3404C13.5358 38.7906 12.2974 36.9488 11.4505 34.9203C10.6035 32.8917 10.1646 30.7162 10.1587 28.5179H15.1347C15.2194 31.5811 16.4957 34.4905 18.6923 36.6272C20.8889 38.7639 23.8323 39.9593 26.8967 39.9593C29.9611 39.9593 32.9046 38.7639 35.1011 36.6272C37.2977 34.4905 38.574 31.5811 38.6587 28.5179H43.6347C43.6252 32.9411 41.8639 37.1804 38.7363 40.3081C35.6086 43.4358 31.3693 45.1971 26.9461 45.2066" fill="white"/>
<path d="M65.9282 32.3353C66.642 32.3094 67.3464 32.1636 68.012 31.9042V35.03C67.4794 35.2676 66.9221 35.4454 66.3503 35.5599C65.7435 35.6752 65.1266 35.7294 64.509 35.7216C63.9421 35.7744 63.3704 35.7082 62.8306 35.5273C62.2908 35.3463 61.7947 35.0545 61.3743 34.6707C60.6769 33.7431 60.3387 32.5946 60.4222 31.4371V26.2635H58.9132V24.521L60.8264 23.1647L61.9761 20.5419H64.7605V23.0389H67.8234V26.2635H64.7605V31.1228C64.7605 31.9312 65.1467 32.3353 65.9282 32.3353" fill="#666D78"/>
<path d="M76.2216 35.7305C74.458 35.8519 72.717 35.278 71.3713 34.1317C70.7757 33.5046 70.316 32.7613 70.0208 31.9483C69.7256 31.1354 69.6013 30.2703 69.6557 29.4072C69.5347 27.6464 70.1087 25.9083 71.2545 24.5659C71.8508 23.9777 72.5649 23.5223 73.3498 23.2297C74.1346 22.9372 74.9725 22.814 75.8084 22.8683C77.3978 22.7662 78.9633 23.2956 80.1647 24.3413C80.7025 24.8919 81.1201 25.5483 81.3907 26.2689C81.6613 26.9894 81.779 27.7584 81.7365 28.5269V30.4401H74.003C74.0046 30.7516 74.0737 31.059 74.2055 31.3412C74.3373 31.6234 74.5287 31.8737 74.7665 32.0748C75.3324 32.5045 76.0332 32.7179 76.7425 32.6766C77.44 32.6827 78.136 32.6104 78.8174 32.4611C79.534 32.2927 80.2298 32.0457 80.8922 31.7245V34.8233C80.2335 35.162 79.5282 35.4012 78.7994 35.5329C77.9479 35.6767 77.085 35.7428 76.2216 35.7305V35.7305ZM75.9701 25.7515C75.4946 25.7367 75.0327 25.9112 74.6856 26.2365C74.3126 26.6445 74.1017 27.1748 74.0928 27.7275H77.7934C77.807 27.2016 77.6245 26.6893 77.2814 26.2904C77.1154 26.1104 76.9119 25.9689 76.6854 25.8758C76.4589 25.7827 76.2147 25.7403 75.9701 25.7515" fill="#666D78"/>
<path d="M92.2814 35.515L91.4551 33.8623H91.3743C90.9018 34.4898 90.2858 34.995 89.5778 35.3353C88.8351 35.627 88.0399 35.7615 87.2425 35.7305C86.7322 35.7586 86.2216 35.6796 85.7436 35.4986C85.2657 35.3176 84.8308 35.0387 84.4671 34.6796C83.7513 33.8604 83.3867 32.7924 83.4521 31.7066C83.4157 31.1334 83.5261 30.5603 83.7729 30.0417C84.0196 29.523 84.3946 29.0759 84.8623 28.7425C86.084 27.9989 87.4922 27.6188 88.9222 27.6467L91.006 27.5748V27.4042C91.0389 27.1962 91.0226 26.9833 90.9584 26.7828C90.8942 26.5822 90.7839 26.3995 90.6363 26.2492C90.4887 26.099 90.3079 25.9855 90.1085 25.9178C89.9091 25.85 89.6966 25.83 89.488 25.8593C88.2812 25.9251 87.0996 26.2304 86.012 26.7575L84.7724 23.9191C86.4917 23.1104 88.3798 22.7254 90.2784 22.7964C91.6226 22.7131 92.9492 23.1361 93.997 23.982C94.4454 24.4067 94.7958 24.9241 95.0239 25.498C95.2519 26.072 95.3521 26.6888 95.3174 27.3054V35.488L92.2814 35.515ZM89.0928 32.6946C89.583 32.7072 90.0592 32.5303 90.4222 32.2006C90.6059 32.0419 90.7521 31.8444 90.85 31.6222C90.9478 31.4 90.995 31.1588 90.988 30.9162V29.9461H89.991C88.5719 29.9461 87.8713 30.512 87.8713 31.509C87.8713 32.2724 88.2754 32.6497 89.0928 32.6497" fill="#666D78"/>
<path d="M104.317 32.3353C105.031 32.3094 105.736 32.1636 106.401 31.9042V35.03C105.869 35.2676 105.311 35.4454 104.74 35.5599C104.147 35.6723 103.546 35.7264 102.943 35.7216C102.376 35.7744 101.805 35.7082 101.265 35.5273C100.725 35.3463 100.229 35.0545 99.8084 34.6707C99.0918 33.7506 98.7342 32.6013 98.8024 31.4371V26.2635H97.2934V24.521L99.2066 23.1647L100.32 20.5419H103.141V23.0389H106.204V26.2635H103.141V31.1228C103.141 31.9312 103.527 32.3353 104.308 32.3353" fill="#666D78"/>
<path d="M112.913 35.515H108.602V23.0389H112.913V35.515ZM108.494 19.9401C108.471 19.6742 108.507 19.4064 108.6 19.1563C108.694 18.9061 108.841 18.6799 109.033 18.494C109.54 18.1372 110.158 17.9717 110.775 18.027C111.412 17.9676 112.048 18.1363 112.572 18.503C112.764 18.6871 112.913 18.9115 113.007 19.16C113.102 19.4085 113.141 19.675 113.12 19.9401C113.12 21.1976 112.356 21.8354 110.82 21.8354C109.284 21.8354 108.539 21.1976 108.539 19.9401" fill="#666D78"/>
<path d="M131.246 35.515V28.7425C131.284 28.0917 131.164 27.4412 130.895 26.8473C130.796 26.6468 130.64 26.4796 130.447 26.3663C130.254 26.253 130.032 26.1985 129.808 26.2096C129.51 26.1935 129.213 26.2648 128.955 26.4148C128.697 26.5648 128.487 26.7869 128.353 27.0539C127.982 27.9011 127.822 28.8258 127.886 29.7485V35.5599H123.566V28.7425C123.604 28.0935 123.491 27.4445 123.234 26.8473C123.139 26.6467 122.987 26.4788 122.796 26.3652C122.606 26.2516 122.386 26.1974 122.165 26.2096C121.858 26.1958 121.553 26.2739 121.291 26.4339C121.029 26.5939 120.82 26.8285 120.692 27.1078C120.323 28.0441 120.164 29.0496 120.225 30.0539V35.515H115.922V23.0389H119.174L119.713 24.5838H119.964C120.296 24.012 120.794 23.5547 121.392 23.2725C122.069 22.9662 122.805 22.8129 123.548 22.8234C125.344 22.8234 126.608 23.3683 127.338 24.4581H127.68C128.048 23.932 128.554 23.5184 129.144 23.2635C129.797 22.963 130.509 22.8127 131.228 22.8234C131.821 22.7738 132.419 22.8488 132.982 23.0437C133.545 23.2386 134.061 23.5491 134.497 23.9551C135.278 24.927 135.658 26.1613 135.557 27.4042V35.488L131.246 35.515Z" fill="#666D78"/>
<path d="M144.512 35.7305C142.743 35.8376 141.001 35.2476 139.662 34.0868C139.066 33.4596 138.606 32.7164 138.311 31.9034C138.016 31.0905 137.892 30.2254 137.946 29.3623C137.825 27.6015 138.399 25.8634 139.545 24.5209C140.143 23.9325 140.859 23.4771 141.645 23.1846C142.431 22.892 143.271 22.7689 144.108 22.8233C145.694 22.7217 147.257 23.2512 148.455 24.2964C148.994 24.8545 149.41 25.5193 149.676 26.2479C149.942 26.9766 150.052 27.753 150 28.5269V30.4401H142.293C142.295 30.7516 142.364 31.059 142.496 31.3412C142.628 31.6234 142.819 31.8737 143.057 32.0748C143.623 32.5044 144.324 32.7179 145.033 32.6766C145.733 32.6822 146.432 32.6099 147.117 32.4611C147.83 32.2926 148.523 32.0455 149.183 31.7245V34.8233C148.524 35.162 147.819 35.4012 147.09 35.5329C146.238 35.6767 145.375 35.7428 144.512 35.7305V35.7305ZM144.26 25.7515C143.788 25.7391 143.33 25.9134 142.985 26.2365C142.606 26.6413 142.391 27.1729 142.383 27.7275H146.093C146.104 27.2004 145.918 26.688 145.572 26.2904C145.406 26.1104 145.202 25.9689 144.976 25.8758C144.749 25.7827 144.505 25.7403 144.26 25.7515" fill="#666D78"/>
</g>
<defs>
<clipPath id="clip0">
<rect width="150" height="53.8922" fill="white"/>
</clipPath>
</defs>
</svg>
