<svg width="239" height="59" viewBox="0 0 239 59" fill="none" xmlns="http://www.w3.org/2000/svg">
<path d="M87.1448 46.9458H78.0804V19.7378H68.6217V12.0542H96.608V19.7378H87.1448V46.9458Z" fill="#666D78"/>
<path d="M109.017 19.7378V25.5652H121.036V33.2488H109.017V39.2668H121.589V46.9458H99.9572V12.0542H121.585V19.7378H109.017Z" fill="#666D78"/>
<path d="M131.016 12.0542H139.936L147.006 30.7027L154.493 12.0542H163.503L168.774 46.9413H159.71L157.167 26.8586H157.076L148.714 46.9413H145.089L137.112 26.8632H137.021L134.112 46.9458H125.088L131.016 12.0542Z" fill="#666D78"/>
<path d="M172.282 12.0542H186.146C193.633 12.0542 198.809 15.5261 198.809 23.5274C198.809 31.7647 194.372 35.3728 186.472 35.3728H181.337V46.9413H172.273L172.282 12.0542ZM181.346 28.0658H182.869C186.15 28.0658 189.386 28.0658 189.386 23.8088C189.386 19.411 186.381 19.3656 182.869 19.3656H181.346V28.0658Z" fill="#666D78"/>
<path d="M238.683 28.851C238.683 40.1427 230.597 48.0986 219.416 48.0986C208.236 48.0986 200.146 40.1382 200.146 28.851C200.146 18.3036 209.387 10.8923 219.412 10.8923C229.437 10.8923 238.683 18.3036 238.683 28.851ZM209.573 28.8964C209.573 34.9098 214.01 39.3076 219.416 39.3076C224.823 39.3076 229.256 34.9098 229.256 28.8964C229.256 24.0856 224.819 19.6878 219.416 19.6878C214.014 19.6878 209.573 24.0856 209.573 28.9009V28.8964Z" fill="#666D78"/>
<path fill-rule="evenodd" clip-rule="evenodd" d="M36.0716 20.8315L28.0315 28.8782C27.9658 28.9442 27.8878 28.9966 27.8019 29.0323C27.7159 29.0681 27.6238 29.0865 27.5307 29.0865C27.4377 29.0865 27.3455 29.0681 27.2596 29.0323C27.1737 28.9966 27.0956 28.9442 27.0299 28.8782L23.7033 25.5515C23.6376 25.4855 23.5596 25.4332 23.4736 25.3974C23.3877 25.3617 23.2955 25.3433 23.2025 25.3433C23.1094 25.3433 23.0173 25.3617 22.9314 25.3974C22.8454 25.4332 22.7674 25.4855 22.7017 25.5515L18.8765 29.382C18.8106 29.4478 18.7583 29.5259 18.7226 29.612C18.6869 29.698 18.6686 29.7903 18.6686 29.8835C18.6686 29.9767 18.6869 30.0689 18.7226 30.155C18.7583 30.2411 18.8106 30.3192 18.8765 30.385L27.0798 38.5769C27.1458 38.6457 27.2249 38.7004 27.3125 38.7378C27.4002 38.7752 27.4944 38.7944 27.5896 38.7944C27.6849 38.7944 27.7791 38.7752 27.8667 38.7378C27.9544 38.7004 28.0335 38.6457 28.0995 38.5769L40.9482 25.7149C41.0142 25.6491 41.0665 25.571 41.1021 25.4849C41.1378 25.3989 41.1562 25.3066 41.1562 25.2134C41.1562 25.1202 41.1378 25.028 41.1021 24.9419C41.0665 24.8558 41.0142 24.7777 40.9482 24.7119L37.0732 20.8315C37.0075 20.7655 36.9295 20.7132 36.8436 20.6774C36.7576 20.6417 36.6655 20.6233 36.5724 20.6233C36.4794 20.6233 36.3872 20.6417 36.3013 20.6774C36.2154 20.7132 36.1373 20.7655 36.0716 20.8315V20.8315Z" fill="#666D78"/>
<path d="M29.4592 4.16631C24.4556 4.16631 19.5643 5.6521 15.404 8.4358C11.2437 11.2195 8.00107 15.1761 6.08628 19.8052C4.17148 24.4343 3.67049 29.5281 4.64664 34.4424C5.62279 39.3566 8.03225 43.8706 11.5703 47.4136C15.1084 50.9566 19.6162 53.3694 24.5236 54.3469C29.4311 55.3244 34.5178 54.8227 39.1405 52.9053C43.7632 50.9878 47.7144 47.7407 50.4942 43.5746C53.2741 39.4085 54.7578 34.5105 54.7578 29.5C54.7506 22.7833 52.0829 16.3438 47.34 11.5943C42.5972 6.84491 36.1666 4.17351 29.4592 4.16631V4.16631ZM29.4592 10.974C33.1171 10.974 36.6929 12.0601 39.7344 14.0951C42.7759 16.1301 45.1466 19.0225 46.5466 22.4066C47.9467 25.7906 48.3132 29.5145 47.5999 33.1071C46.8866 36.6998 45.1255 40 42.5393 42.5905C39.9531 45.181 36.6578 46.9453 33.0703 47.6605C29.4828 48.3756 25.764 48.0095 22.3843 46.6084C19.0045 45.2072 16.1155 42.834 14.0826 39.7887C12.0498 36.7435 10.9642 33.163 10.9633 29.5C10.9633 24.5878 12.912 19.8768 16.3806 16.4033C19.8493 12.9299 24.5538 10.9785 29.4592 10.9785V10.974Z" fill="#666D78"/>
</svg>
