<svg width="440" height="303" viewBox="0 0 440 303" fill="none" xmlns="http://www.w3.org/2000/svg">
<path d="M230.971 0.00125605C192.593 0.00125605 157.922 9.66494 130.575 27.5344L84.5771 27.5753C84.5771 27.5753 95.4299 42.0635 98.9522 56.6731C89.9908 68.8593 84.6126 83.8478 84.6126 100.107C84.6126 140.607 117.583 173.507 158.099 173.507C181.245 173.507 201.888 162.766 215.371 145.997L230.998 169.356L246.779 145.798C253.866 154.824 263.005 162.117 273.747 167.046C291.588 175.246 311.544 176.047 329.954 169.264C367.969 155.233 387.464 112.895 373.427 74.9166C370.944 68.1923 367.537 62.0684 363.462 56.6066C366.925 41.9051 377.908 27.2262 377.908 27.2262L328.891 27.1904C301.392 9.4282 267.98 0 230.967 0L230.971 0.00125605ZM79.6555 214.207C76.4341 214.207 73.8194 216.836 73.8194 220.048C73.8194 223.26 76.4339 225.874 79.6555 225.874C82.8672 225.874 85.4863 223.26 85.4863 220.048C85.4863 216.836 82.8672 214.207 79.6555 214.207V214.207ZM19.3222 219.408L18.6374 219.654L9.80157 222.684V234.223H0V241.965H9.51533V266.796C9.51533 278.626 13.546 283.446 23.4101 283.446C25.9285 283.446 28.3259 283.124 30.7331 282.48L31.1062 282.372L31.0091 274.365L30.3141 274.59C28.3877 275.286 26.8645 275.617 25.674 275.617C21.0559 275.617 19.322 273 19.322 265.958V241.965H30.6414V234.223H19.322V219.409L19.3222 219.408ZM119.209 233.089C112.484 233.089 106.821 236.3 103.05 242.083V234.223H94.0814V302.306H103.888V275.901C107.43 280.718 112.513 283.352 118.836 283.352C131.238 283.352 139.236 273.185 139.236 257.473C139.236 242.886 131.202 233.087 119.209 233.087V233.089ZM62.3553 233.37C56.6676 233.37 52.0833 236.444 49.2117 242.073V234.223H40.2482V282.591H50.0548V258.317C50.0548 248.123 54.3314 242.532 62.0793 242.532C63.1946 242.532 64.2943 242.701 65.6157 243.073L66.2494 243.257L66.5662 233.706L62.3553 233.369L62.3553 233.37ZM74.7632 234.223V282.591H84.575V234.223H84.0537H74.7631H74.7632ZM116.852 241.204C124.433 241.204 128.973 247.496 128.973 258.037C128.973 268.774 124.178 275.422 116.479 275.422C108.714 275.422 103.887 268.806 103.887 258.124C103.887 247.851 108.976 241.204 116.852 241.204V241.204Z" fill="#666D78"/>
<path d="M302.154 26.9986C294.455 27.2308 286.658 28.6306 279.028 31.4335C260.611 38.2494 245.959 51.8058 237.747 69.6402C234.038 77.6858 231.942 86.1925 231.271 94.7516C228.543 57.2317 197.578 27.4662 159.548 26.714C180.587 17.7167 204.753 12.8207 230.954 12.8207C257.324 12.8207 281.137 17.576 302.154 26.9986" fill="white"/>
<path d="M158.097 41.4659C125.763 41.4659 99.4517 67.7638 99.4517 100.106C99.4517 132.414 125.765 158.714 158.097 158.714C190.413 158.714 216.716 132.411 216.716 100.106C216.716 67.7638 190.413 41.4659 158.097 41.4659V41.4659ZM300.403 41.7265C293.71 41.7401 286.909 42.9073 280.274 45.3547C265.569 50.7773 253.871 61.6068 247.317 75.826C240.776 90.0495 240.164 105.975 245.59 120.664V120.674C250.999 135.356 261.81 147.056 276.037 153.605C290.274 160.176 306.208 160.806 320.896 155.394C351.226 144.162 366.786 110.359 355.601 80.058C346.85 56.354 324.311 41.6773 300.404 41.727L300.403 41.7265Z" fill="white"/>
<path d="M157.184 63.18C137.155 63.18 120.87 79.4577 120.87 99.4467C120.87 119.446 137.155 135.734 157.184 135.734C177.161 135.734 193.422 119.446 193.422 99.4467C193.422 79.4569 177.162 63.18 157.184 63.18V63.18ZM304.349 63.18C284.34 63.18 268.061 79.4577 268.061 99.4467C268.061 119.446 284.34 135.734 304.349 135.734C324.345 135.734 340.61 119.446 340.61 99.4467C340.61 79.4569 324.344 63.18 304.349 63.18V63.18Z" fill="#666D78"/>
<path d="M157.184 75.6737C144.043 75.6737 133.355 86.3415 133.355 99.4465C133.355 112.558 144.043 123.25 157.184 123.25C170.266 123.25 180.921 112.558 180.921 99.4465C180.921 86.3412 170.266 75.6737 157.184 75.6737V75.6737ZM304.349 75.6737C291.234 75.6737 280.561 86.3415 280.561 99.4465C280.561 112.558 291.234 123.25 304.349 123.25C317.454 123.25 328.112 112.558 328.112 99.4465C328.112 86.3412 317.454 75.6737 304.349 75.6737V75.6737Z" fill="white"/>
<path d="M169.336 99.4418C169.336 106.166 163.861 111.657 157.13 111.657C150.373 111.657 144.918 106.166 144.918 99.4418C144.918 92.6979 150.373 87.2361 157.13 87.2361C163.861 87.2361 169.336 92.6979 169.336 99.4418Z" fill="#666D78"/>
<path d="M304.352 87.2384C297.588 87.2384 292.154 92.7029 292.154 99.4468C292.154 106.171 297.588 111.66 304.352 111.66C311.092 111.66 316.545 106.171 316.545 99.4468C316.545 92.7029 311.093 87.2384 304.352 87.2384V87.2384ZM227.713 211.138V240.793C224.099 235.759 219.071 233.087 212.582 233.087C200.605 233.087 192.56 242.97 192.56 257.652C192.56 272.781 200.704 283.351 212.403 283.351C219.327 283.351 224.715 280.284 228.47 274.321V282.59H237.53V211.137H227.713V211.138ZM301.484 214.204C298.263 214.204 295.653 216.833 295.653 220.045C295.653 223.257 298.263 225.871 301.484 225.871C304.696 225.871 307.315 223.257 307.315 220.045C307.315 216.833 304.696 214.204 301.484 214.204ZM167.891 233.087C161.909 233.087 156.658 234.221 151.834 236.546L151.533 236.684L151.645 245.06L152.407 244.626C157.022 242.045 161.374 240.727 165.361 240.727C172.458 240.727 176.522 244.801 176.522 251.908V252.317H170.916C154.779 252.317 145.881 258.166 145.881 268.782C145.881 277.302 152.297 283.254 161.477 283.254C168.231 283.254 173.462 280.602 177.181 275.604V282.59H186.052V253.309C186.052 239.903 179.952 233.088 167.891 233.088L167.891 233.087ZM380.538 233.087C365.794 233.087 356.632 242.789 356.632 258.413C356.632 274.027 365.794 283.724 380.538 283.724C395.344 283.724 404.546 274.027 404.546 258.413C404.546 242.79 395.344 233.087 380.538 233.087ZM435.779 233.368C430.114 233.368 425.517 236.442 422.635 242.071V234.221H413.682V282.589H423.489V258.315C423.489 248.121 427.755 242.53 435.513 242.53C436.632 242.53 437.721 242.699 439.039 243.071L439.673 243.255L440 233.704L435.779 233.367L435.779 233.368ZM335.673 233.664C325.041 233.664 317.895 238.863 317.895 246.624C317.895 253.433 322.574 257.027 331.202 261.224C336.638 263.909 339.496 265.479 339.496 269.247C339.496 273.106 335.988 275.614 330.578 275.614C326.726 275.614 322.472 274.518 318.263 272.461L317.542 272.098L317.22 280.627L317.563 280.765C321.585 282.358 325.834 283.167 330.2 283.167C342.2 283.167 349.951 277.439 349.951 268.593C349.951 261.208 345.036 257.476 336.542 253.512C330.315 250.598 327.701 248.868 327.701 245.78C327.701 242.843 330.607 240.931 335.091 240.931C339.146 240.931 343.11 241.826 346.855 243.608L347.544 243.935L347.989 235.596L347.611 235.447C343.523 234.267 339.526 233.664 335.673 233.664L335.673 233.664ZM243.525 234.221L267.231 282.589L291.597 234.221H281.345L267.435 262.139L254.583 234.221H243.524H243.525ZM296.584 234.221V282.589H306.401V234.221H305.869H296.584H296.584ZM380.632 240.829C388.913 240.829 394.256 247.693 394.256 258.316C394.256 268.873 388.913 275.696 380.632 275.696C372.488 275.696 367.013 268.713 367.013 258.316C367.013 247.87 372.488 240.829 380.632 240.829ZM214.759 240.931C222.877 240.931 227.709 247.382 227.709 258.224C227.709 268.549 222.702 275.241 214.938 275.241C207.475 275.241 202.832 268.713 202.832 258.224C202.832 247.719 207.511 240.931 214.759 240.931H214.759ZM171.475 259.226H176.519V262.185C176.519 270.521 171.506 275.895 163.738 275.895C159.002 275.895 155.684 272.774 155.684 268.307C155.684 262.452 161.294 259.226 171.475 259.226Z" fill="#666D78"/>
</svg>
