<svg width="75" height="75" viewBox="0 0 75 75" fill="none" xmlns="http://www.w3.org/2000/svg">
<path d="M0 37.5V75H37.5H75V37.5V3.35276e-06H37.5H0V37.5ZM60.4405 34.5119C62.3452 34.9881 63.7976 35.8333 65.131 37.2143C65.8214 37.9524 66.8452 39.2976 66.9286 39.619C66.9524 39.7143 63.6905 41.9048 61.7143 43.131C61.6429 43.1786 61.3571 42.869 61.0357 42.3929C60.0714 40.9881 59.0595 40.381 57.5119 40.2738C55.2381 40.119 53.7738 41.3095 53.7857 43.2976C53.7857 43.881 53.869 44.2262 54.1071 44.7024C54.6071 45.7381 55.5357 46.3571 58.4524 47.619C63.8214 49.9286 66.119 51.4524 67.5476 53.619C69.1429 56.0357 69.5 59.8929 68.4167 62.7619C67.2262 65.881 64.2738 68 60.119 68.7024C58.8333 68.9286 55.7857 68.8929 54.4048 68.6429C51.3929 68.1071 48.5357 66.619 46.7738 64.6667C46.0833 63.9048 44.7381 61.9167 44.8214 61.7738C44.8571 61.7262 45.1667 61.5357 45.5119 61.3333C45.8452 61.1429 47.1071 60.4167 48.2976 59.7262L50.4524 58.4762L50.9048 59.1429C51.5357 60.1071 52.9167 61.4286 53.75 61.869C56.1429 63.131 59.4286 62.9524 61.0476 61.5C61.7381 60.869 62.0238 60.2143 62.0238 59.25C62.0238 58.381 61.9167 58 61.4643 57.3452C60.881 56.5119 59.6905 55.8095 56.3095 54.3452C52.4405 52.6786 50.7738 51.6429 49.25 50C48.369 49.0476 47.5357 47.5238 47.1905 46.25C46.9048 45.1905 46.8333 42.5357 47.0595 41.4643C47.8571 37.7262 50.6786 35.119 54.75 34.3452C56.0714 34.0952 59.1429 34.1905 60.4405 34.5119ZM42.8333 37.6429L42.8571 40.7143H37.9762H33.0952V54.5833V68.4524H29.6429H26.1905V54.5833V40.7143H21.3095H16.4286V37.7024C16.4286 36.0357 16.4643 34.6429 16.5119 34.6071C16.5476 34.5595 22.4881 34.5357 29.6905 34.5476L42.7976 34.5833L42.8333 37.6429Z" fill="#007ACC"/>
</svg>
