<svg width="65" height="66" viewBox="0 0 65 66" fill="none" xmlns="http://www.w3.org/2000/svg">
<mask id="mask0" mask-type="alpha" maskUnits="userSpaceOnUse" x="0" y="0" width="65" height="66">
<path fill-rule="evenodd" clip-rule="evenodd" d="M0 65.0098H65V0H0V65.0098Z" fill="white"/>
</mask>
<g mask="url(#mask0)">
<path fill-rule="evenodd" clip-rule="evenodd" d="M65 32.5049C65 50.455 50.4457 65.0098 32.4923 65.0098C14.5398 65.0098 -0.0140038 50.455 -0.0140038 32.5049C-0.0140038 14.5543 14.5398 0 32.4923 0C50.4457 0 65 14.5543 65 32.5049Z" fill="#666D78"/>
</g>
<path fill-rule="evenodd" clip-rule="evenodd" d="M52.8779 43.7867H53.4008V45.3303C53.8292 44.3626 54.736 43.6598 55.8162 43.7011V44.2788H55.7604C54.4996 44.2788 53.4008 45.2283 53.4008 47.0025V49.2358H52.8779V43.7867ZM50.5475 42.3635H51.1997V41.6446H50.5475V42.3635ZM50.6098 49.2358H51.1355V43.7867H50.6098V49.2358ZM44.2485 47.6556V47.6285C44.2485 46.4998 45.2204 45.8577 46.6317 45.8577C47.3898 45.8577 47.9144 45.9571 48.4375 46.0922V45.8577C48.4375 44.7623 47.7634 44.1918 46.6408 44.1918C45.9769 44.1918 45.4327 44.3715 44.9317 44.6296L44.7371 44.1731C45.3354 43.895 45.9242 43.7011 46.6737 43.7011C47.4117 43.7011 47.9986 43.9013 48.3925 44.3001C48.7568 44.6618 48.9502 45.1628 48.9502 45.8402V49.2358H48.4375V48.3304C48.0595 48.8501 47.3898 49.3635 46.3512 49.3635C45.3354 49.3635 44.2485 48.7897 44.2485 47.6556ZM48.4464 47.198V46.5747C47.9872 46.4581 47.3795 46.3321 46.5983 46.3321C45.446 46.3321 44.8022 46.8396 44.8022 47.6033V47.6239C44.8022 48.4112 45.5492 48.8695 46.3843 48.8695C47.496 48.8695 48.4464 48.1914 48.4464 47.198Z" fill="white"/>
<path fill-rule="evenodd" clip-rule="evenodd" d="M15.0816 33.5354C15.0816 33.5354 14.7155 33.5027 14.624 33.4831C14.5337 33.4637 14.324 33.3961 14.3186 33.303C14.3184 33.302 14.3176 33.3016 14.3176 33.3011V33.3001V33.2995C14.3176 33.2988 14.3184 33.2981 14.3186 33.2976C14.324 33.2045 14.5337 33.1366 14.624 33.1174C14.7155 33.0978 15.0816 33.0652 15.0816 33.0652L22.8453 32.7205L24.5755 27.0325C24.5767 27.0236 24.5795 27.0112 24.5842 27.0003C24.6031 26.9303 24.6133 26.8577 24.6133 26.7807C24.6133 26.3397 24.2587 25.9829 23.8181 25.9829H19.9462C19.5873 25.9829 19.2868 26.2188 19.185 26.5441C19.1778 26.5679 19.1719 26.5942 19.1689 26.6185L17.822 31.7549L16.2806 26.5919L16.2264 26.4162C16.106 26.1348 15.8239 25.9334 15.4974 25.9334H11.9695C11.6153 25.9334 11.3131 26.1672 11.2141 26.4932L9.66356 31.6987L8.37222 26.6185C8.36499 26.5942 8.35589 26.5679 8.35006 26.5441C8.25018 26.2188 7.94637 25.9829 7.59075 25.9829H3.63996C3.19964 25.9829 2.84355 26.3397 2.84355 26.7807C2.84355 26.8652 2.85405 26.9429 2.88042 27.0131L6.67953 39.6906L6.69376 39.7435C6.80157 40.0534 7.10072 40.2788 7.44934 40.2788H11.1882C11.5453 40.2788 11.8446 40.0441 11.9464 39.72L13.7189 34.1969L15.4277 39.6789C15.4293 39.6906 15.4333 39.7001 15.4347 39.7081L15.4538 39.7561C15.4568 39.7666 15.461 39.7778 15.4643 39.7902C15.5845 40.0761 15.8708 40.2788 16.1994 40.2788H19.9653C20.3006 40.2788 20.5944 40.0651 20.7062 39.7666L20.7424 39.6551C20.7424 39.6528 20.7424 39.6455 20.744 39.6425L22.513 33.8191L15.0816 33.5354Z" fill="white"/>
<path fill-rule="evenodd" clip-rule="evenodd" d="M30.0986 32.3987C30.3121 31.5152 30.9426 30.8238 31.7428 30.5986C31.7769 30.2115 31.9848 27.8785 32.0452 27.728C32.1112 27.5637 32.2624 27.5607 32.2841 27.5607H32.3061H32.3278C32.3495 27.5607 32.5009 27.5637 32.5667 27.728C32.6272 27.8785 32.8353 30.2115 32.8694 30.5986C33.6693 30.8238 34.2998 31.5152 34.5135 32.3987L40.283 32.6544C40.2816 32.6105 40.2805 32.5825 40.2805 32.5825C40.0471 28.7797 36.8195 25.6456 32.3427 25.6456C27.8338 25.6456 24.5777 28.8341 24.3541 32.6535L30.0986 32.3987Z" fill="white"/>
<path fill-rule="evenodd" clip-rule="evenodd" d="M34.3854 34.1138C34.0242 34.9891 33.2301 35.5983 32.3061 35.5983C31.382 35.5983 30.5879 34.9891 30.2267 34.1138L24.3807 33.8905C24.7683 37.554 27.9381 40.5114 32.2921 40.5114C36.651 40.5114 39.8289 37.5316 40.2469 33.8898L34.3854 34.1138Z" fill="white"/>
<path fill-rule="evenodd" clip-rule="evenodd" d="M61.0231 25.9829H57.1493C56.7918 25.9829 56.4882 26.2188 56.3879 26.541C56.3809 26.5679 56.3734 26.5942 56.3711 26.6185L55.0277 31.7549L53.4834 26.5942L53.4265 26.4162C53.3065 26.1301 53.0286 25.9334 52.6989 25.9334H49.1756C48.8183 25.9334 48.5162 26.1672 48.4126 26.4932L46.8669 31.7052L45.5739 26.6185C45.5695 26.5942 45.5594 26.5679 45.5534 26.541C45.4535 26.2188 45.1494 25.9829 44.7936 25.9829H40.844C40.4027 25.9829 40.0471 26.3397 40.0471 26.7807C40.0471 26.8628 40.0602 26.9429 40.0833 27.0196L41.7946 32.7217L49.5324 33.0652C49.5324 33.0652 49.8985 33.0978 49.9897 33.1174C50.0803 33.1366 50.2901 33.2045 50.2954 33.2976C50.2954 33.2981 50.2964 33.2988 50.2964 33.2995V33.3001V33.3011C50.2964 33.3016 50.2954 33.302 50.2954 33.303C50.2901 33.3961 50.0803 33.4637 49.9897 33.4831C49.8985 33.5027 49.5324 33.5354 49.5324 33.5354L42.1269 33.8184L43.8852 39.6882L43.8987 39.7386C44.0072 40.0534 44.3024 40.2788 44.6513 40.2788H48.3895C48.7469 40.2788 49.0494 40.0441 49.1506 39.72L50.9208 34.1969L52.6291 39.6789C52.6333 39.6906 52.638 39.6962 52.6427 39.7081L52.6581 39.7561C52.6597 39.769 52.6627 39.7778 52.6674 39.7902C52.7922 40.0761 53.0711 40.2788 53.4041 40.2788H57.1675C57.507 40.2788 57.7956 40.0651 57.9107 39.7666L57.9459 39.6551C57.9459 39.6528 57.9459 39.6455 57.949 39.6425L61.7789 27.0325C61.7819 27.0236 61.7828 27.0112 61.7859 27.0003C61.8057 26.9303 61.8174 26.8577 61.8174 26.7807C61.8174 26.3397 61.462 25.9829 61.0231 25.9829Z" fill="white"/>
</svg>
