<svg width="90" height="90" viewBox="0 0 90 90" fill="none" xmlns="http://www.w3.org/2000/svg">
<circle cx="45" cy="45" r="45" fill="#F2F2F2"/>
<mask id="mask0" mask-type="alpha" maskUnits="userSpaceOnUse" x="0" y="0" width="90" height="90">
<path d="M90 45C90 69.8528 69.8528 90 45 90C20.1472 90 0 69.8528 0 45C0 0 0 0 45 0C69.8528 0 90 20.1472 90 45Z" fill="#F2F2F2"/>
</mask>
<g mask="url(#mask0)">
<rect x="24" y="24" width="86" height="86" rx="8" fill="white"/>
</g>
<circle cx="32" cy="34" r="2" fill="#E47777"/>
<circle cx="44" cy="34" r="2" fill="#77E482"/>
<circle cx="38" cy="34" r="2" fill="#E4D377"/>
<circle cx="60" cy="76" r="10" fill="#D8D3E3"/>
<path d="M60 76V62C67.1797 62 73 67.8203 73 75V76H60Z" fill="#B4A3D9" stroke="white" stroke-width="2"/>
<rect x="68" y="42" width="2" height="14" fill="#D8D3E3"/>
<rect x="72" y="48" width="2" height="8" fill="#D8D3E3"/>
<rect x="76" y="46" width="2" height="10" fill="#B4A3D9"/>
<rect x="80" y="44" width="2" height="12" fill="#D8D3E3"/>
<path d="M37.7073 55.2727L38.3982 54.5498C38.1634 54.3253 37.8341 54.229 37.5153 54.2913C37.1964 54.3537 36.9278 54.5671 36.7949 54.8636L37.7073 55.2727ZM44.0488 61.3333L43.3579 62.0563C43.5946 62.2825 43.9271 62.3785 44.2481 62.3133C44.569 62.248 44.8376 62.0298 44.9672 61.729L44.0488 61.3333ZM48.4878 51.0303L49.359 50.5394C49.1725 50.2083 48.8143 50.0115 48.4347 50.0317C48.0551 50.0519 47.7198 50.2855 47.5694 50.6346L48.4878 51.0303ZM52.9268 58.9091L52.0556 59.4C52.2397 59.7267 52.591 59.9229 52.9657 59.9083C53.3404 59.8938 53.6755 59.6708 53.8336 59.3308L52.9268 58.9091ZM58.9067 48.4217C59.1396 47.9209 58.9225 47.3261 58.4217 47.0933C57.9209 46.8604 57.3261 47.0775 57.0933 47.5783L58.9067 48.4217ZM32.9125 68.4092L38.6198 55.6819L36.7949 54.8636L31.0875 67.5908L32.9125 68.4092ZM37.0164 55.9957L43.3579 62.0563L44.7397 60.6104L38.3982 54.5498L37.0164 55.9957ZM44.9672 61.729L49.4062 51.426L47.5694 50.6346L43.1304 60.9376L44.9672 61.729ZM47.6166 51.5212L52.0556 59.4L53.7981 58.4182L49.359 50.5394L47.6166 51.5212ZM53.8336 59.3308L58.9067 48.4217L57.0933 47.5783L52.0201 58.4874L53.8336 59.3308Z" fill="url(#paint0_linear)"/>
<defs>
<linearGradient id="paint0_linear" x1="45" y1="48" x2="45" y2="68" gradientUnits="userSpaceOnUse">
<stop stop-color="#B4A3D9"/>
<stop offset="1" stop-color="#D8D3E3" stop-opacity="0.19"/>
</linearGradient>
</defs>
</svg>
