<svg width="24" height="24" viewBox="0 0 24 24" fill="none" xmlns="http://www.w3.org/2000/svg">
<path d="M23.25 9H22.839C21.7897 5.19975 18.8002 2.21025 15 1.16025V0.75C15 0.336 14.6648 0 14.25 0H9.75C9.33525 0 9 0.336 9 0.75V1.16025C5.19975 2.21025 2.21025 5.19975 1.161 9H0.75C0.33525 9 0 9.336 0 9.75V14.25C0 14.664 0.33525 15 0.75 15H1.161C2.21025 18.8002 5.19975 21.7897 9 22.8397V23.25C9 23.664 9.33525 24 9.75 24H14.25C14.6648 24 15 23.664 15 23.25V22.8397C18.8002 21.7897 21.7897 18.8002 22.839 15H23.25C23.6647 15 24 14.664 24 14.25V9.75C24 9.336 23.6647 9 23.25 9ZM12 16.5C9.51825 16.5 7.5 14.4818 7.5 12C7.5 9.51825 9.51825 7.5 12 7.5C14.4818 7.5 16.5 9.51825 16.5 12C16.5 14.4818 14.4818 16.5 12 16.5ZM21.2745 9H17.1885C16.662 8.09325 15.9067 7.338 15 6.8115V2.72625C17.9708 3.68625 20.3145 6.02925 21.2745 9ZM9 2.72625V6.81225C8.09325 7.338 7.338 8.09325 6.8115 9H2.7255C3.6855 6.02925 6.02925 3.68625 9 2.72625ZM2.7255 15H6.8115C7.338 15.9067 8.09325 16.662 9 17.1885V21.2745C6.02925 20.3137 3.6855 17.9708 2.7255 15ZM15 21.2738V17.1877C15.9067 16.6612 16.662 15.906 17.1885 14.9993H21.2745C20.3145 17.9708 17.9708 20.3137 15 21.2738Z" fill="#D2D2D2"/>
</svg>
