<svg width="23" height="24" viewBox="0 0 23 24" fill="none" xmlns="http://www.w3.org/2000/svg">
<path d="M7.69294 18.6281C7.69294 18.7219 7.58629 18.7969 7.45181 18.7969C7.29879 18.8109 7.19214 18.7359 7.19214 18.6281C7.19214 18.5344 7.29879 18.4594 7.43327 18.4594C7.57238 18.4453 7.69294 18.5203 7.69294 18.6281ZM6.25081 18.4172C6.21835 18.5109 6.31109 18.6187 6.4502 18.6469C6.57077 18.6937 6.70988 18.6469 6.7377 18.5531C6.76552 18.4594 6.67742 18.3516 6.53831 18.3094C6.41774 18.2766 6.28327 18.3234 6.25081 18.4172ZM8.3004 18.3375C8.16593 18.3703 8.07318 18.4594 8.0871 18.5672C8.10101 18.6609 8.22157 18.7219 8.36069 18.6891C8.49516 18.6562 8.5879 18.5672 8.57399 18.4734C8.56008 18.3844 8.43488 18.3234 8.3004 18.3375ZM11.3516 0.375C4.91996 0.375 0 5.31094 0 11.8125C0 17.0109 3.23669 21.4594 7.85988 23.025C8.45343 23.1328 8.6621 22.7625 8.6621 22.4578C8.6621 22.1672 8.64819 20.5641 8.64819 19.5797C8.64819 19.5797 5.40222 20.2828 4.72056 18.1828C4.72056 18.1828 4.19194 16.8187 3.43145 16.4672C3.43145 16.4672 2.36956 15.7312 3.50565 15.7453C3.50565 15.7453 4.66028 15.8391 5.29556 16.9547C6.31109 18.7641 8.0129 18.2437 8.67601 17.9344C8.78266 17.1844 9.08407 16.6641 9.41794 16.3547C6.82581 16.0641 4.21048 15.6844 4.21048 11.175C4.21048 9.88594 4.5629 9.23906 5.30484 8.41406C5.18427 8.10937 4.79012 6.85312 5.4254 5.23125C6.39456 4.92656 8.625 6.49687 8.625 6.49687C9.55242 6.23438 10.5494 6.09844 11.5371 6.09844C12.5248 6.09844 13.5218 6.23438 14.4492 6.49687C14.4492 6.49687 16.6796 4.92187 17.6488 5.23125C18.2841 6.85781 17.8899 8.10937 17.7694 8.41406C18.5113 9.24375 18.9657 9.89062 18.9657 11.175C18.9657 15.6984 16.2345 16.0594 13.6423 16.3547C14.069 16.725 14.4306 17.4281 14.4306 18.5297C14.4306 20.1094 14.4167 22.0641 14.4167 22.4484C14.4167 22.7531 14.63 23.1234 15.219 23.0156C19.856 21.4594 23 17.0109 23 11.8125C23 5.31094 17.7833 0.375 11.3516 0.375ZM4.50726 16.5422C4.44698 16.5891 4.46089 16.6969 4.53972 16.7859C4.61391 16.8609 4.72056 16.8937 4.78085 16.8328C4.84113 16.7859 4.82722 16.6781 4.74839 16.5891C4.67419 16.5141 4.56754 16.4812 4.50726 16.5422ZM4.00645 16.1625C3.97399 16.2234 4.02036 16.2984 4.1131 16.3453C4.1873 16.3922 4.28004 16.3781 4.3125 16.3125C4.34496 16.2516 4.29859 16.1766 4.20585 16.1297C4.1131 16.1016 4.03891 16.1156 4.00645 16.1625ZM5.50887 17.8312C5.43468 17.8922 5.4625 18.0328 5.56915 18.1219C5.67581 18.2297 5.81028 18.2437 5.87056 18.1687C5.93085 18.1078 5.90302 17.9672 5.81028 17.8781C5.70827 17.7703 5.56915 17.7562 5.50887 17.8312ZM4.98024 17.1422C4.90605 17.1891 4.90605 17.3109 4.98024 17.4187C5.05444 17.5266 5.17964 17.5734 5.23992 17.5266C5.31411 17.4656 5.31411 17.3438 5.23992 17.2359C5.175 17.1281 5.05444 17.0812 4.98024 17.1422Z" fill="#D2D2D2"/>
</svg>
