<svg width="16" height="16" viewBox="0 0 16 16" fill="none" xmlns="http://www.w3.org/2000/svg">
<path d="M9.99996 2H3.99996C3.44663 2 2.97329 2.33333 2.77329 2.81333L0.759959 7.51333C0.699959 7.66667 0.666626 7.82667 0.666626 8V9.33333C0.666626 10.0667 1.26663 10.6667 1.99996 10.6667H6.20663L5.57329 13.7133L5.55329 13.9267C5.55329 14.2 5.66663 14.4533 5.84663 14.6333L6.55329 15.3333L10.9466 10.94C11.1866 10.7 11.3333 10.3667 11.3333 10V3.33333C11.3333 2.6 10.7333 2 9.99996 2ZM12.6666 2V10H15.3333V2H12.6666Z" fill="white"/>
</svg>
