<svg width="16" height="16" viewBox="0 0 16 16" fill="none" xmlns="http://www.w3.org/2000/svg">
<path d="M0.666626 14.0001H3.33329V6.00008H0.666626V14.0001ZM15.3333 6.66675C15.3333 5.93341 14.7333 5.33342 14 5.33342H9.79329L10.4266 2.28675L10.4466 2.07341C10.4466 1.80008 10.3333 1.54675 10.1533 1.36675L9.44663 0.666748L5.05996 5.06008C4.81329 5.30008 4.66663 5.63341 4.66663 6.00008V12.6667C4.66663 13.4001 5.26663 14.0001 5.99996 14.0001H12C12.5533 14.0001 13.0266 13.6667 13.2266 13.1867L15.24 8.48675C15.3 8.33341 15.3333 8.17341 15.3333 8.00008V6.66675Z" fill="white"/>
</svg>
